<svg xmlns="http://www.w3.org/2000/svg" viewBox="0 0 384.6868 341.4652"><g id="Layer_2" data-name="Layer 2"><g id="OBJECTS"><path d="M213.4215,72.8055a4.96,4.96,0,0,1-1.5234-9.6817l24.5215-7.89a5.6526,5.6526,0,0,1,3.4629,10.7617L224.6412,70.9a.6729.6729,0,0,1-.4121-1.2812L239.47,64.7147a4.3067,4.3067,0,0,0-2.6386-8.1993l-24.5215,7.89a3.614,3.614,0,1,0,2.2148,6.88l18.05-5.8072a2.9217,2.9217,0,0,0-1.79-5.5625L219.55,63.5306a.673.673,0,0,1-.4121-1.2813l11.2344-3.6147a4.2676,4.2676,0,0,1,2.6142,8.125l-18.05,5.8071A4.934,4.934,0,0,1,213.4215,72.8055Z" style="fill:#c2c3c8"/><path d="M54.5932,299.857S45.7,289.1717,41.8469,283.9818c-9.39-12.6479-18.8292-25.8989-22.2536-41.2746,11.9215,8.1747,23.0192,18.5142,28.392,31.9336C51.2124,282.7009,54.5932,299.857,54.5932,299.857Z" style="fill:#70a63b"/><path d="M93.9865,326.3117c-18.8362-4.6124-32.7619-18.2-43.743-33.51-.4647-.648-1.5494-.0245-1.0793.6309,11.1712,15.5747,25.3393,29.3952,44.49,34.0846.7812.1913,1.1145-1.0138.3323-1.2053Z" style="fill:#70a63b"/><path d="M57.8979,303.7236c-2.5511-4.2445-7.5976-7.3356-12.3035-8.8776s-9.6632-2.14-14.4734-3.3177a60.6686,60.6686,0,0,1-16.4148-6.3032C23.4764,299.4215,41.571,307.1712,57.8979,303.7236Z" style="fill:#70a63b"/><path d="M80.7764,322.1855s-11.6689-.8319-17.8888-2.1918a66.3033,66.3033,0,0,1-13.7135-4.2774,30.3682,30.3682,0,0,1-11.3583-8.6182c6.06,1.9579,12.6317,1.5894,18.8288,3.0544C64.4476,311.9971,80.7764,322.1855,80.7764,322.1855Z" style="fill:#70a63b"/><path d="M84.378,324.0723s-4.2407-10.9027-7.3769-16.4436A66.2954,66.2954,0,0,0,68.8648,295.79a30.3676,30.3676,0,0,0-11.588-8.3068c3.66,5.2111,5.2487,11.599,8.4784,17.0872C69.8219,311.4805,84.378,324.0723,84.378,324.0723Z" style="fill:#70a63b"/><path d="M109.8641,165.3417c1.4735-7.5754-1.1454-16.418-4.9856-23.1119s-8.9562-12.557-13.2973-18.9376A94.5472,94.5472,0,0,1,79.15,98.8728C74.4971,124.4575,87.3644,152.3038,109.8641,165.3417Z" style="fill:#70a63b"/><path d="M257.0043,104.1517s4.6911-21.15,6.3235-31.09C267.3059,48.838,270.922,23.7436,264.6892,0c-10.6783,19.8345-18.67,42.08-16.5329,64.5041C249.44,77.973,257.0043,104.1517,257.0043,104.1517Z" style="fill:#70a63b"/><path d="M225.18,181.95c1.4359-8.7525,4.0084-16.988,9.4077-24.1245,4.1313-5.46,8.8058-10.311,12.03-16.4248,4.5714-8.6685,6.72-18.3708,8.2779-27.9739a257.23,257.23,0,0,0,3.3948-28.5231c.0393-.8041-1.2108-.8021-1.25,0a254.8346,254.8346,0,0,1-3.64,29.944c-1.6763,9.9087-4.134,19.9614-9.3964,28.6347-3.2989,5.4371-7.8252,9.8973-11.4875,15.061-4.8778,6.8776-7.1889,14.8293-8.5415,23.0743-.1291.7869,1.0752,1.1254,1.2053.3323Z" style="fill:#70a63b"/><path d="M255.8834,105.7145c-.24-7.7135,3.7616-16.0222,8.625-22.0142s10.8527-10.9594,16.16-16.5619a94.5472,94.5472,0,0,0,16.1837-22.1117C297.3451,71.0264,280.1817,96.4508,255.8834,105.7145Z" style="fill:#70a63b"/><path d="M241.4943,149.21s14.5842-10.9385,21.5846-17.97a103.3237,103.3237,0,0,0,14.3548-17.1779,47.3229,47.3229,0,0,0,7.6057-20.8766c-6.2855,7.6792-15.2063,12.7435-22.0882,19.8932C254.2861,122.081,241.4943,149.21,241.4943,149.21Z" style="fill:#70a63b"/><path d="M244.0141,145.538s5.2743-18.1077,5.5047-28.0269c.1736-7.4751-3.4989-21.9315-15.257-36.1488.7341,9.8965.4779,13.2807.4149,23.2041C234.5973,117.0612,244.0141,145.538,244.0141,145.538Z" style="fill:#70a63b"/><path d="M128.6438,100.1549s-7.9014-10.7859-11.2914-15.9971c-8.2615-12.6994-16.5347-25.9808-18.9075-40.944C109.4026,51.77,119.4407,62.355,123.8,75.5562,126.4187,83.4852,128.6438,100.1549,128.6438,100.1549Z" style="fill:#a1bc31"/><path d="M262.6551,275.4051c1.2622-7.6133,6.8017-14.9866,12.7361-19.92s12.7745-8.6431,19.069-13.1081a94.5451,94.5451,0,0,0,20.17-18.5477C310.0641,249.43,288.29,271.0367,262.6551,275.4051Z" style="fill:#70a63b"/><path d="M242.6777,336.9308c.97-5.8527,5.2287-11.5207,9.7907-15.3132s9.82-6.6441,14.6589-10.0765a72.6823,72.6823,0,0,0,15.5051-14.2582C279.1225,316.9627,262.384,333.5727,242.6777,336.9308Z" style="fill:#a1bc31"/><path d="M95.1986,289.4412s-5.3752-12.2424-7.5548-18.0645c-5.3119-14.1885-10.5089-28.9476-9.5813-44.0694,8.8421,10.7282,16.3467,23.2377,17.7406,37.07C96.64,272.6855,95.1986,289.4412,95.1986,289.4412Z" style="fill:#a1bc31"/><path d="M298.7768,166.7091s13.9885-27.61,21.1947-40.0669C337.533,96.2844,356.2835,65.293,384.6868,44.72c-6.1838,31.5832-17.5194,63.3936-40.2041,86.2221C330.8576,144.6534,298.7768,166.7091,298.7768,166.7091Z" style="fill:#a1bc31"/><path d="M261.61,262.845c.1212-43.0981,23.0919-80.9553,50.8038-112.2964.5311-.6007-.35-1.488-.8839-.8839-27.93,31.588-51.0478,69.7529-51.17,113.18a.6254.6254,0,0,0,1.25,0Z" style="fill:#a1bc31"/><path d="M293.1147,173.2343c7.914-7.6767,12.066-20.1811,13.0313-31.1643s-.2433-22.0342-.121-33.0591c.1463-13.1948,1.4684-26.1726,5.3714-38.7777C285.0468,96.4242,277.3879,139.5752,293.1147,173.2343Z" style="fill:#a1bc31"/><path d="M264.6463,232.1719s-4.0934-25.7218-4.288-39.8957c-.1467-10.6814.1838-21.435,2.3439-31.8967s6.2305-20.6765,12.9464-28.9837c-1.1829,14.1282,2.9377,28.1925,2.8931,42.37C278.4856,191.6172,264.6463,232.1719,264.6463,232.1719Z" style="fill:#a1bc31"/><path d="M252.8077,216.5885s25.231-6.4628,38.3155-11.9155c9.8605-4.1091,19.5976-8.6848,28.34-14.8236s16.4992-13.9324,21.4544-23.396c-12.4953,6.6987-27.039,8.505-40.0319,14.1787C284.5259,187.776,252.8077,216.5885,252.8077,216.5885Z" style="fill:#a1bc31"/><path d="M50.5719,222.77s-8.7094-19.8365-12.2411-29.27c-8.6068-22.99-17.0276-46.9041-15.5247-71.4061,14.327,17.383,26.4868,37.6524,28.7453,60.0652C52.908,195.62,50.5719,222.77,50.5719,222.77Z" style="fill:#a1bc31"/><path d="M99.0425,295.1168c-2.93-7.82-6.7457-15.1589-12.5714-21.2167-4.9118-5.1075-10.7114-9.2479-15.3894-14.6012-7.1529-8.1854-11.72-18.186-15.4785-28.2865A255.67,255.67,0,0,1,46.7878,203.85a.6256.6256,0,0,0-1.2054.3323,255.7011,255.7011,0,0,0,8.8155,27.1621c3.4194,9.1882,7.4609,18.2632,13.5084,26.0523,4.3636,5.62,9.82,9.9591,14.9948,14.7677,7.0173,6.52,11.5873,14.346,14.9361,23.2844.28.7464,1.4884.4232,1.2053-.3323Z" style="fill:#a1bc31"/><path d="M51.975,224.0849c-1.2622-7.6134-6.8017-14.9866-12.7362-19.92S26.4643,195.5218,20.17,191.0568A94.5456,94.5456,0,0,1,0,172.5091C4.5659,198.11,26.34,219.7165,51.975,224.0849Z" style="fill:#a1bc31"/><path d="M74.5372,263.9575S58.1063,256.06,49.8737,250.5218a103.3175,103.3175,0,0,1-17.4176-14.063,47.3244,47.3244,0,0,1-11.5153-19.002c7.6572,6.3123,17.3917,9.5477,25.5311,15.2247C56.72,239.83,74.5372,263.9575,74.5372,263.9575Z" style="fill:#a1bc31"/><path d="M71.3523,260.845s-8.69-16.7386-10.8429-26.4242c-1.6221-7.2991-.827-22.1934,7.946-38.4235,1.2019,9.8506,2.1105,13.1206,4.1,22.8428C75.0594,231.0816,71.3523,260.845,71.3523,260.845Z" style="fill:#a1bc31"/><path d="M254.0959,179.7963h-4.6174V141.7105h4.6174s7.6171,14.3323,7.6171,19.093S254.0959,179.7963,254.0959,179.7963Z" style="fill:#332f2e"/><path d="M253.525,183.2962a3.5,3.5,0,0,1-2.4365-6.0127,23.46,23.46,0,0,0,.5049-33.1367,3.5,3.5,0,0,1,5.0254-4.8731,30.4687,30.4687,0,0,1-.6572,43.0352A3.4888,3.4888,0,0,1,253.525,183.2962Z" style="fill:#9bcbee"/><rect x="85.0163" y="141.7105" width="166.912" height="38.1858" style="fill:#f1e3b4"/><path d="M254.1061,145.1741H79.318a3.4639,3.4639,0,0,1,0-6.9277H254.1061a3.4639,3.4639,0,1,1,0,6.9277Z" style="fill:#9bcbee"/><path d="M253.525,183.3606H79.318a3.4639,3.4639,0,0,1,0-6.9277H253.525a3.4639,3.4639,0,1,1,0,6.9277Z" style="fill:#9bcbee"/><path d="M224.5778,151.219H90.2135a.5.5,0,0,1,0-1H224.5778a.5.5,0,0,1,0,1Z" style="fill:#d9a957"/><path d="M227.27,157.4114H92.9059a.5.5,0,0,1,0-1H227.27a.5.5,0,0,1,0,1Z" style="fill:#d9a957"/><path d="M246.2018,163.8743H111.8385a.5.5,0,0,1,0-1H246.2018a.5.5,0,0,1,0,1Z" style="fill:#d9a957"/><path d="M86.935,297.2829h4.6174v38.0858H86.935s-7.6171-14.3322-7.6171-19.0929S86.935,297.2829,86.935,297.2829Z" style="fill:#332f2e"/><rect x="89.1027" y="297.1828" width="166.912" height="38.1858" style="fill:#f1e3b4"/><path d="M86.9244,338.8685a3.4881,3.4881,0,0,1-2.5122-1.0635,30.47,30.47,0,0,1,.6563-43.0352,3.5,3.5,0,1,1,4.8735,5.0254,23.4611,23.4611,0,0,0-.5049,33.1367,3.5,3.5,0,0,1-2.5127,5.9366Z" style="fill:#9bcbee"/><path d="M261.7135,338.8323H86.9244a3.4639,3.4639,0,0,1,0-6.9277H261.7135a3.4639,3.4639,0,1,1,0,6.9277Z" style="fill:#9bcbee"/><path d="M261.7135,300.6468H87.5055a3.4639,3.4639,0,0,1,0-6.9278h174.208a3.4639,3.4639,0,0,1,0,6.9278Z" style="fill:#9bcbee"/><path d="M250.817,326.8606H116.4537a.5.5,0,0,1,0-1H250.817a.5.5,0,0,1,0,1Z" style="fill:#d9a957"/><path d="M239.9938,315.0315H105.63a.5.5,0,0,1,0-1H239.9938a.5.5,0,1,1,0,1Z" style="fill:#d9a957"/><path d="M229.192,309.2054H94.8287a.5.5,0,1,1,0-1H229.192a.5.5,0,1,1,0,1Z" style="fill:#d9a957"/><path d="M277.91,293.85H101.2125a5.5,5.5,0,0,1,0-11H277.91a5.5,5.5,0,0,1,0,11Z" style="fill:#be2d86"/><path d="M292.7644,234.4088h-5.782V186.7173h5.782s9.5383,17.947,9.5383,23.9084S292.7644,234.4088,292.7644,234.4088Z" style="fill:#332f2e"/><path d="M292.0494,237.9085a3.5,3.5,0,0,1-2.4365-6.0127,30.2073,30.2073,0,0,0,.6524-42.7422,3.5,3.5,0,1,1,5.0254-4.873,37.2077,37.2077,0,0,1-.8047,52.6406A3.4888,3.4888,0,0,1,292.0494,237.9085Z" style="fill:#be2d86"/><rect x="81.0409" y="186.7173" width="209.2981" height="47.8168" style="fill:#f1e3b4"/><path d="M292.778,190.2171H73.9054a3.5,3.5,0,0,1,0-7H292.778a3.5,3.5,0,0,1,0,7Z" style="fill:#be2d86"/><path d="M292.0494,238.0345H73.9054a3.5,3.5,0,0,1,0-7h218.144a3.5,3.5,0,0,1,0,7Z" style="fill:#be2d86"/><path d="M255.8014,198.4974H87.5494a.5.5,0,0,1,0-1h168.252a.5.5,0,0,1,0,1Z" style="fill:#d9a957"/><path d="M264.4655,218.3265H96.2135a.5.5,0,0,1,0-1h168.252a.5.5,0,0,1,0,1Z" style="fill:#d9a957"/><path d="M262.0455,224.69H93.7936a.5.5,0,1,1,0-1H262.0455a.5.5,0,0,1,0,1Z" style="fill:#d9a957"/><path d="M270.2926,279.4171h-4.6174V241.3313h4.6174s7.6171,14.3323,7.6171,19.093S270.2926,279.4171,270.2926,279.4171Z" style="fill:#332f2e"/><path d="M269.7213,282.9173a3.5,3.5,0,0,1-2.4365-6.0127,23.4615,23.4615,0,0,0,.5059-33.1367,3.5,3.5,0,0,1,5.0253-4.8731,30.47,30.47,0,0,1-.6582,43.0352A3.4884,3.4884,0,0,1,269.7213,282.9173Z" style="fill:#e8bb37"/><rect x="101.213" y="241.3313" width="166.912" height="38.1858" style="fill:#f1e3b4"/><path d="M270.3034,244.8314H95.5143a3.5,3.5,0,0,1,0-7H270.3034a3.5,3.5,0,0,1,0,7Z" style="fill:#e8bb37"/><path d="M269.7213,283.0169H95.5143a3.5,3.5,0,1,1,0-7h174.207a3.5,3.5,0,0,1,0,7Z" style="fill:#e8bb37"/><path d="M240.7741,250.8392H106.4108a.5.5,0,0,1,0-1H240.7741a.5.5,0,0,1,0,1Z" style="fill:#d9a957"/><path d="M243.4664,257.0325H109.1032a.5.5,0,0,1,0-1H243.4664a.5.5,0,1,1,0,1Z" style="fill:#d9a957"/><path d="M262.3991,263.4944H128.0348a.5.5,0,1,1,0-1H262.3991a.5.5,0,0,1,0,1Z" style="fill:#d9a957"/><path d="M170.5362,264.521l-7.8013-10-7.8013,10V238.0536a.1808.1808,0,0,1,.1571-.1823,61.7661,61.7661,0,0,1,7.6442-.4217,54.165,54.165,0,0,1,7.65.4189.1788.1788,0,0,1,.1514.1816Z" style="fill:#70a63b"/><polygon points="67.361 166.918 59.419 190.835 70.987 191.872 67.361 166.918" style="fill:#bb9d6c"/><polygon points="67.361 166.918 65.33 173.036 68.289 173.296 67.361 166.918" style="fill:#211915"/><path d="M70.9681,192.0887a1.9358,1.9358,0,0,0-3.8562-.3457,1.9358,1.9358,0,1,0-3.8561-.3456,1.9358,1.9358,0,0,0-3.8562-.3456L47.1719,330.2579l-.0223-.002-.4585,5.1156a3.5331,3.5331,0,0,0,3.2036,3.8345l4.53.406a3.5331,3.5331,0,0,0,3.8345-3.2037l.1694-1.89.0231.002Z" style="fill:#9bcbee"/><path d="M70.9681,192.0887a1.9358,1.9358,0,0,0-3.8562-.3457c.09-1.0011-11.9089,132.0711-13.26,147.8172l.5734.0518a3.5331,3.5331,0,0,0,3.8345-3.2037l.1694-1.89.0231.002Z" style="fill:#7bbbe8"/><path d="M49.3758,305.2711l-2.1331,24.9927-.4585,5.1155a3.5332,3.5332,0,0,0,3.2036,3.8346l4.53.406a3.5331,3.5331,0,0,0,3.8345-3.2037l.1694-1.89,2.4114-28.2789Z" style="fill:#332f2e"/><polygon points="49.363 305.27 49.076 308.392 60.658 309.37 60.945 306.248 49.363 305.27" style="fill:#ecedef"/><polygon points="57.73 286.143 56.157 285.987 55.179 297.569 56.752 297.725 57.73 286.143" style="fill:#332f2e"/><polygon points="55.441 313.249 53.867 313.105 53.378 318.896 54.952 319.041 55.441 313.249" style="fill:#ecedef"/><path d="M93.5383,281.31c-5.6378,2.6288-13.0643,2.3037-19.0483.6047s-11.5667-4.5578-17.4032-6.71a76.2117,76.2117,0,0,0-21.5219-4.9638C54.6688,261.6162,78.9561,266.2534,93.5383,281.31Z" style="fill:#a1bc31"/><path d="M59.129,168.3606a4.9878,4.9878,0,0,1-4.6572-3.2333l-8.9736-24.1456a5.6585,5.6585,0,0,1,3.33-7.2675,5.6671,5.6671,0,0,1,7.2671,3.3291l5.5776,15.0078a.673.673,0,1,1-1.2617.4687L54.8331,137.512a4.3065,4.3065,0,0,0-8.0732,3.001l8.9736,24.1455a3.6142,3.6142,0,1,0,6.7754-2.5186l-6.6054-17.7724a2.9215,2.9215,0,1,0-5.4771,2.0351l4.1108,11.0625a.673.673,0,1,1-1.2617.4688l-4.1108-11.0625a4.2675,4.2675,0,1,1,8-2.9727l6.6054,17.7725a4.9625,4.9625,0,0,1-4.6416,6.6894Z" style="fill:#c2c3c8"/><path d="M297.8336,309.86a5.6763,5.6763,0,0,1-5.539-4.541L289.1452,289.62a.6734.6734,0,1,1,1.32-.2656l3.1494,15.6982a4.3063,4.3063,0,0,0,8.4443-1.6943l-5.0674-25.2559a3.6136,3.6136,0,0,0-7.0859,1.4219l3.73,18.59a2.9213,2.9213,0,0,0,5.7285-1.1485l-2.3213-11.57a.6734.6734,0,1,1,1.32-.2656l2.3213,11.57a4.268,4.268,0,0,1-8.3691,1.68l-3.7295-18.59a4.96,4.96,0,0,1,9.7265-1.9531L303.38,303.094a5.6574,5.6574,0,0,1-5.5459,6.7657Z" style="fill:#c2c3c8"/><polygon points="260.447 88.401 233.451 93.81 119.348 100.751 86.643 88.27 176.62 58.764 260.447 88.401" style="fill:#273a53"/><path d="M261.1227,83.9713l-83.15-27.3145c-.05-.026-.1031-.0392-.1543-.0614a2.3607,2.3607,0,0,0-.2365-.0941c-.0708-.022-.1421-.0348-.2138-.05a2.3383,2.3383,0,0,0-.2335-.0422c-.0776-.0081-.1545-.007-.2319-.0075-.0745-.0005-.148-.0029-.2229.0039a2.31,2.31,0,0,0-.26.0443c-.0514.0106-.1024.012-.1537.0262L86.0211,83.66a2.3469,2.3469,0,1,0,1.2461,4.5254l89.3556-26.9387,82.3319,26.8889a2.3473,2.3473,0,0,0,2.168-4.1641Z" style="fill:#e8bb37"/><polygon points="163.212 66.04 163.212 61.131 159.691 62.387 159.691 67.298 163.212 66.04" style="fill:#e2a91f"/><path d="M233.4506,137.0244s-34.1524,3.6864-56.8309,3.6864c-26.6837,0-57.2722-3.6864-57.2722-3.6864V88.6591A184.2332,184.2332,0,0,1,176.62,79.2435c29.9472,0,56.8309,9.4156,56.8309,9.4156Z" style="fill:#39567d"/><path d="M146.1425,139.5c-16.5536-1.0912-26.795-2.4755-26.795-2.4755V88.6591a146.1988,146.1988,0,0,1,27.4465-8.274Z" style="fill:#273a53"/><path d="M176.7224,141.5337c-36.9991,0-52.9563-2.6089-57.3748-3.5133v-4.16c2.2155.5014,17.568,3.61,57.3749,3.61,20.7552,0,51.4422-3.1,56.7282-3.65v4.0851C227.0707,138.5638,197.1705,141.5337,176.7224,141.5337Z" style="fill:#e2a91f"/><path d="M176.62,142.7105c-43.1191,0-57.206-3.6-57.7841-3.7529a2,2,0,0,1,1.0234-3.8672c.1357.0352,14.3467,3.62,56.7607,3.62,22.31,0,56.2764-3.6386,56.6163-3.6748a2,2,0,0,1,.43,3.9766C233.323,139.0494,199.1452,142.7105,176.62,142.7105Z" style="fill:#e8bb37"/><path d="M162.6442,84.4245a11.8893,11.8893,0,0,1-.7484-2.8226l-.0015-.0076V61.7871a1.7606,1.7606,0,1,0-3.5212,0V81.6019c0,.0281.0069.0542.0083.0819a30.0677,30.0677,0,0,1-.6111,3.6172,26.47,26.47,0,0,0-.651,4.0518.88.88,0,1,0,1.7606,0,25.0737,25.0737,0,0,1,.5613-3.4352l.0014.029c.0913,1.72.1864,3.4983.1864,4.2489a.88.88,0,0,0,1.7607,0c0-.7975-.0921-2.52-.19-4.3424l-.0127-.24a8.7725,8.7725,0,0,1,.54,2.202.88.88,0,1,0,1.7606,0A12.05,12.05,0,0,0,162.6442,84.4245Z" style="fill:#e8bb37"/><path d="M176.3991,118.2347a.5.5,0,0,1-.5-.5V102.54a.5.5,0,1,1,1,0v15.1949A.5.5,0,0,1,176.3991,118.2347Z" style="fill:#273a53"/><path d="M49.7037,99.6873c-10.8662,0-22.562-2.0347-22.562-6.5019s11.6958-6.5015,22.562-6.5015,22.5621,2.0347,22.5621,6.5015S60.57,99.6873,49.7037,99.6873Zm0-10.7124c-13.1162,0-20.271,2.7813-20.271,4.21s7.1548,4.2109,20.271,4.2109,20.271-2.7817,20.271-4.2109S62.82,88.9749,49.7037,88.9749Z" style="fill:#e8bb37"/><path d="M59.6442,113.0745c-1.6753,0-3.8438-1.3667-6.4717-4.084a66.5132,66.5132,0,0,1-9.0991-12.5542c-5.4331-9.4106-9.5191-20.5561-5.65-22.79,1.7876-1.0337,4.4165.2236,7.812,3.7344a66.5458,66.5458,0,0,1,9.0991,12.5542c5.4336,9.4106,9.5191,20.5561,5.6509,22.79A2.6342,2.6342,0,0,1,59.6442,113.0745ZM39.7736,75.5892a.4224.4224,0,0,0-.2051.04c-1.2378.7148-.07,8.3027,6.4883,19.6611a64.2275,64.2275,0,0,0,8.7622,12.1074c3.1611,3.2686,4.7231,3.5147,5.02,3.3428h0c1.2378-.7148.0693-8.3022-6.4888-19.6606A64.2275,64.2275,0,0,0,44.5885,78.973C41.8776,76.1692,40.3434,75.5892,39.7736,75.5892Z" style="fill:#e8bb37"/><path d="M39.7633,113.0745a2.6334,2.6334,0,0,1-1.34-.35h0c-1.7886-1.0332-2.0152-3.9375-.6724-8.6328a66.5183,66.5183,0,0,1,6.3228-14.1572c5.4331-9.4107,13.042-18.5264,16.9116-16.2886,3.8682,2.2339-.2178,13.38-5.6509,22.79a66.53,66.53,0,0,1-9.0991,12.5542C43.6076,111.7073,41.4386,113.0745,39.7633,113.0745ZM59.5426,75.5608c-1.7129,0-7.3491,4.89-13.4858,15.52a64.2072,64.2072,0,0,0-6.1035,13.6411c-1.25,4.373-.6827,5.8476-.3848,6.0195h0c.2993.1724,1.8579-.0732,5.02-3.3428a64.2275,64.2275,0,0,0,8.7622-12.1074C59.9088,83.9324,61.0773,76.3445,59.84,75.63A.5883.5883,0,0,0,59.5426,75.5608Z" style="fill:#e8bb37"/><circle cx="49.7038" cy="93.1855" r="2.0531" style="fill:#be2d86"/><path d="M360.1244,186.6274a16.87,16.87,0,1,0,7.5234,22.6406A16.7457,16.7457,0,0,0,360.1244,186.6274Zm5.9374,20.5661-2.6635-1.3348a16.6891,16.6891,0,0,0,1.2887-5.3344l2.4418,1.2239A14.4526,14.4526,0,0,1,366.0618,207.1935ZM356.61,210.997l-5.9292-2.9717,2.3953-4.7793,7.2492,3.6331A14.2389,14.2389,0,0,1,356.61,210.997Zm-18.6177-9.3312a14.4582,14.4582,0,0,1,1.0749-5.4408l2.6651,1.3358a16.6509,16.6509,0,0,0-1.2873,5.3343Zm5.7879-3.0787,7.2492,3.6331L348.6337,207l-5.9329-2.9735A14.2577,14.2577,0,0,1,343.78,198.5871Zm4.7021-6.1845,5.9683,2.9912-2.3955,4.78-7.25-3.6338A14.3188,14.3188,0,0,1,348.4818,192.4026Zm10.9949-1.9291a15.9524,15.9524,0,0,1,2.7353,6.25l-4.6894-2.35Zm-4.0009,2.8736-4.6856-2.3484a15.991,15.991,0,0,1,6.639-1.5492Zm-7.8679,15.6992-1.951,3.8931a16.0964,16.0964,0,0,1-2.6914-6.22Zm2.0468,1.0256,4.6363,2.3239a16.1617,16.1617,0,0,1-6.5863,1.5668Zm4.4466-8.8725,2.3954-4.78,5.971,2.9924a14.3268,14.3268,0,0,1-1.1155,5.4212Zm12.78-2.136-2.2168-1.1111a17.4634,17.4634,0,0,0-2.0968-6.8447A14.6138,14.6138,0,0,1,366.8812,199.0634ZM352.5892,187.13a14.4862,14.4862,0,0,1,2.4361.2307,17.4882,17.4882,0,0,0-6.6874,2.4087l-2.2323-1.1188A14.676,14.676,0,0,1,352.5892,187.13Zm-8.7783,2.9314,2.4517,1.2287a16.6762,16.6762,0,0,0-3.5047,4.2239l-2.6733-1.34A14.4574,14.4574,0,0,1,343.8109,190.0617Zm-5.082,16.2453a14.7484,14.7484,0,0,1-.4883-1.9558l2.2279,1.1167a17.5079,17.5079,0,0,0,2.1122,6.8714A14.4975,14.4975,0,0,1,338.7289,206.307Zm11.3168,9.7569a17.5072,17.5072,0,0,0,6.75-2.4129l2.2166,1.1109A14.6193,14.6193,0,0,1,350.0457,216.0639Zm11.2658-2.71-2.4444-1.2251a16.64,16.64,0,0,0,3.508-4.222l2.6609,1.3335A14.4435,14.4435,0,0,1,361.3115,213.3537Z" style="fill:#9bcbee"/><path d="M323.5878,325.07l4.6248-.4907a.5693.5693,0,0,1,.6279.6091l-.9722,12.8762a.5694.5694,0,0,1-1.1139.1182l-3.6527-12.3855A.5694.5694,0,0,1,323.5878,325.07Z" style="fill:#d7d8dc"/><path d="M311.6481,192.0022a1.8756,1.8756,0,0,1-2.0616-1.6569l-1.5658-14.0278a1.8753,1.8753,0,0,1,1.6558-2.0715l.01-.0011a1.8755,1.8755,0,0,1,2.0616,1.6569l1.5658,14.0277a1.8753,1.8753,0,0,1-1.6558,2.0716Z" style="fill:#332f2e"/><path d="M325.9716,325.2325h0a7.0778,7.0778,0,0,1-7.7812-6.25L303.6082,184.9667c-.4211-3.8585,13.61-5.39,14.0311-1.5314l14.5821,134.016A7.0779,7.0779,0,0,1,325.9716,325.2325Z" style="fill:#d7d8dc"/><path d="M325.9716,325.2325h0L310.3079,181.3071c3.5078-.3829,7.1208.1989,7.3314,2.1282l14.5821,134.016A7.0779,7.0779,0,0,1,325.9716,325.2325Z" style="fill:#ecedef"/><path d="M309.423,238.2765a1.3469,1.3469,0,0,1-.2915-2.678l14.0268-1.5657.0073-.0008a1.347,1.347,0,0,1,.2915,2.6781L309.43,238.2758Z" style="fill:#332f2e"/><path d="M324.6484,219.795a1.3466,1.3466,0,0,1-1.4805-1.1882l-2.0387-18.0934a1.3469,1.3469,0,0,1,1.1872-1.49l.0091-.001a1.3468,1.3468,0,0,1,1.4806,1.1882l2.0386,18.0935a1.3468,1.3468,0,0,1-1.1872,1.49Z" style="fill:#332f2e"/><path d="M318.6484,192.7188a1.3469,1.3469,0,0,1-.2942-2.6777l5.4714-.6238.01-.0011a1.3469,1.3469,0,0,1,.2942,2.6777l-5.4714.6239Z" style="fill:#332f2e"/><path d="M304.6864,194.9038a2.0208,2.0208,0,0,1-.4329-4.0184l14.0314-1.5321.0063-.0007a2.0208,2.0208,0,0,1,.4329,4.0184l-14.0313,1.5321Z" style="fill:#332f2e"/><path d="M322.6089,201.7016a1.3469,1.3469,0,0,1-1.3075-2.0131l2.1368-3.7a1.3468,1.3468,0,1,1,2.3325,1.3473l-2.1368,3.7A1.3455,1.3455,0,0,1,322.6089,201.7016Z" style="fill:#332f2e"/><path d="M324.7466,198.0016a1.3473,1.3473,0,0,1-1.4815-1.1973l-.6268-5.9066a1.3469,1.3469,0,0,1,2.6788-.2842l.6267,5.9066A1.3474,1.3474,0,0,1,324.7466,198.0016Z" style="fill:#332f2e"/><path d="M330.3705,313.13l-11.295,1.1985a1.4721,1.4721,0,0,0-1.1871,1.7763c1.8719,17.6408,7.5591,17.4177,7.5591,17.4177l2.7207-.2887s5.6074-.9753,3.7356-18.6162A1.472,1.472,0,0,0,330.3705,313.13Z" style="fill:#9bcbee"/><path d="M317.6134,315.4651a.9376.9376,0,0,1-.2034-1.8642l14.0269-1.5657.0054-.0006a.9376.9376,0,0,1,.2034,1.8642l-14.0269,1.5657Z" style="fill:#332f2e"/><path d="M327.3567,338.5613a.4646.4646,0,0,1-.34-.0965.4632.4632,0,0,1-.07-.662.48.48,0,0,1,.6528-.0692.3956.3956,0,0,1,.1178.1385.4031.4031,0,0,1,.0562.1736.46.46,0,0,1-.1038.35.617.617,0,0,1-.1384.1187A.53.53,0,0,1,327.3567,338.5613Z" style="fill:#332f2e"/><polygon points="301.863 335.689 277.347 329.85 277.317 341.465 301.863 335.689" style="fill:#bb9d6c"/><polygon points="301.863 335.689 295.591 334.196 295.589 337.166 301.863 335.689" style="fill:#211915"/><path d="M277.0992,341.4647a1.9358,1.9358,0,0,0,.01-3.8716,1.9358,1.9358,0,0,0,.01-3.8716,1.9358,1.9358,0,1,0,.01-3.8716l-159.742-.113v-.0225l-5.1361-.0132a3.533,3.533,0,0,0-3.5423,3.524l-.0117,4.5484a3.5331,3.5331,0,0,0,3.524,3.5423l1.8979.0049v.0232Z" style="fill:#70a63b"/><path d="M277.0992,341.4647a1.9358,1.9358,0,0,0,.01-3.8716c1.0052.0026-152.6062-.414-168.41-.3952l-.0019.5757a3.5331,3.5331,0,0,0,3.524,3.5423l1.8979.0049v.0232Z" style="fill:#a1bc31"/><path d="M142.471,329.7662l-25.0836.0417-5.136-.0133a3.5332,3.5332,0,0,0-3.5424,3.524l-.0117,4.5484a3.5331,3.5331,0,0,0,3.5241,3.5423l1.8979.0049,28.3814-.0493Z" style="fill:#332f2e"/><polygon points="142.471 329.753 139.335 329.739 139.365 341.361 142.501 341.376 142.471 329.753" style="fill:#ecedef"/><polygon points="162.252 336.43 162.27 334.85 150.647 334.88 150.628 336.46 162.252 336.43" style="fill:#332f2e"/><polygon points="135.049 336.5 135.056 334.92 129.244 334.935 129.237 336.515 135.049 336.5" style="fill:#ecedef"/><g style="opacity:0.4"><circle cx="227.8466" cy="64.1953" r="26.628" style="fill:#9bcbee"/></g><path d="M213.2469,89.8383a29.5076,29.5076,0,1,1,22.4117,2.8254A29.428,29.428,0,0,1,213.2469,89.8383Zm26.3379-46.2594a23.7241,23.7241,0,1,0,11.1518,14.3354A23.6647,23.6647,0,0,0,239.5848,43.5789Z" style="fill:#211915"/><path d="M211.8261,53.5645c-.0368-.021-.0741-.0438-.11-.0692a1.4467,1.4467,0,0,1-.3638-2.0127,28.2936,28.2936,0,0,1,4.1612-4.754,1.4462,1.4462,0,1,1,1.9492,2.1369,25.3584,25.3584,0,0,0-3.7338,4.266A1.4469,1.4469,0,0,1,211.8261,53.5645Z" style="fill:#f7f7f8"/><path d="M208.492,60.1513a1.4465,1.4465,0,0,1-.6514-1.7246,27.9787,27.9787,0,0,1,1.3827-3.3278,1.445,1.445,0,0,1,1.9363-.6576,1.47,1.47,0,0,1,.6576,1.9362,25.3467,25.3467,0,0,0-1.24,2.9863,1.446,1.446,0,0,1-1.8367.9A1.4825,1.4825,0,0,1,208.492,60.1513Z" style="fill:#f7f7f8"/><path d="M244.9949,137.7456a4.3246,4.3246,0,0,1-2.0369-2.6224l-11.8656-42.706a4.3382,4.3382,0,1,1,8.367-2.2961l11.8657,42.7061a4.3386,4.3386,0,0,1-6.33,4.9184Z" style="fill:#211915"/><path d="M231.1674,98.4865a2.1693,2.1693,0,0,1,.4993-3.9769l8.3671-2.296a2.1691,2.1691,0,1,1,1.148,4.1835l-8.367,2.296A2.1624,2.1624,0,0,1,231.1674,98.4865Z" style="fill:#e8bb37"/><path d="M176.3991,30.9163a1.5,1.5,0,0,1-1.5-1.5V17.4007a1.5,1.5,0,0,1,3,0V29.4163A1.5,1.5,0,0,1,176.3991,30.9163Z" style="fill:#e8bb37"/><path d="M151.4743,35.5477a1.4952,1.4952,0,0,1-1.0606-.44l-8.4971-8.4966a1.5,1.5,0,0,1,2.1211-2.1211l8.4971,8.4966a1.5,1.5,0,0,1-1.06,2.5606Z" style="fill:#e8bb37"/><path d="M201.3239,35.5477a1.5,1.5,0,0,1-1.0606-2.5606l8.4961-8.4966a1.5,1.5,0,0,1,2.1211,2.1211l-8.4961,8.4966A1.495,1.495,0,0,1,201.3239,35.5477Z" style="fill:#e8bb37"/></g></g></svg>