<svg xmlns="http://www.w3.org/2000/svg" viewBox="0 0 460.2963 453.417"><g id="Layer_2" data-name="Layer 2"><g id="Brain_side_1" data-name="Brain side 1"><path d="M418.6831,95.8387A6.9744,6.9744,0,0,0,419.8005,91.8a6.7,6.7,0,0,0-1.2426-3.91,5.41,5.41,0,0,0-6.3285-1.78,5.4047,5.4047,0,0,0-2.7427-5.76,6.7012,6.7012,0,0,0-4.05-.6524,6.9744,6.9744,0,0,0-3.83,1.701,8.4871,8.4871,0,0,0-2.61,4.6449A12.0122,12.0122,0,0,0,399.6,91.681c.9845,2.9988,2.3493,6.8677,2.3493,6.8677s3.7484.26,6.86.7916a12.0081,12.0081,0,0,0,5.6652-.2347A8.4886,8.4886,0,0,0,418.6831,95.8387Z" style="fill:#f5f5f5"/><path d="M97.6859,272.5794a64.1585,64.1585,0,0,1,15.6545-6.8032l3.2247-15.4953,26.1794-.4588,3.768,15.37a64.1164,64.1164,0,0,1,15.8847,6.2492l13.2309-8.673,18.837,18.1878-8.2011,13.5248a64.1218,64.1218,0,0,1,6.803,15.6584l15.4934,3.2245.46,26.1789L193.65,343.3118a64.15,64.15,0,0,1-6.249,15.883l8.6714,13.2321-18.1847,18.8374-13.5269-8.202a64.1293,64.1293,0,0,1-15.657,6.8024l-3.225,15.4953-26.1789.459-3.7681-15.3716a64.1648,64.1648,0,0,1-15.8837-6.25l-13.2313,8.6732-18.837-18.187,8.2014-13.5263a64.0918,64.0918,0,0,1-6.8038-15.6564l-15.4942-3.2243-.4593-26.1793,15.3717-3.7689a64.1769,64.1769,0,0,1,6.2486-15.8829l-8.672-13.2319,18.1857-18.8367,13.5285,8.202Zm13.956,34.8751a28.0881,28.0881,0,1,0,39.7163-.698A28.0874,28.0874,0,0,0,111.6419,307.4545Z" style="fill:#e0e0e0"/><path d="M335.9872,137.8054a45.4986,45.4986,0,0,1,11.1009-4.8243l2.2868-10.988,18.5644-.3254,2.6719,10.9a45.4636,45.4636,0,0,1,11.2643,4.4315l9.3823-6.15,13.3578,12.8974L398.8,153.3365a45.4736,45.4736,0,0,1,4.8242,11.1038l10.9867,2.2866.3262,18.564-10.9,2.6725a45.488,45.488,0,0,1-4.4313,11.2631l6.1491,9.3831L392.86,221.9677l-9.5922-5.8163a45.4751,45.4751,0,0,1-11.1027,4.8238l-2.287,10.9881-18.5641.3254-2.672-10.9a45.5037,45.5037,0,0,1-11.2635-4.4317l-9.3826,6.15L314.6379,210.21l5.8158-9.5917a45.4542,45.4542,0,0,1-4.8248-11.1024L304.6417,187.23l-.3258-18.5643,10.9005-2.6727a45.5092,45.5092,0,0,1,4.431-11.2629l-6.1495-9.3831,12.8959-13.3575,9.5934,5.8162Zm9.8965,24.7308a19.9179,19.9179,0,1,0,28.1638-.495A19.9174,19.9174,0,0,0,345.8837,162.5362Z" style="fill:#e0e0e0"/><path d="M205.2794,25.963a36.56,36.56,0,0,1,8.9212-3.877l1.8377-8.8306,14.9193-.2614,2.1473,8.7593a36.5389,36.5389,0,0,1,9.0525,3.5614l7.54-4.9427,10.735,10.365-4.6737,7.7075a36.5447,36.5447,0,0,1,3.8769,8.9235l8.8294,1.8376.2622,14.919-8.76,2.1477a36.5589,36.5589,0,0,1-3.5613,9.0515l4.9417,7.5408L250.9848,93.6l-7.7087-4.6742a36.5467,36.5467,0,0,1-8.9227,3.8767l-1.8379,8.8305-14.919.2615-2.1474-8.76a36.5686,36.5686,0,0,1-9.0518-3.5615l-7.54,4.9427L188.1221,84.1509l4.6738-7.7084a36.5282,36.5282,0,0,1-3.8774-8.9224l-8.83-1.8375-.2618-14.9191,8.76-2.1479a36.5745,36.5745,0,0,1,3.561-9.0514l-4.942-7.5407L197.57,21.2888l7.71,4.6742Zm7.9532,19.8748a16.007,16.007,0,1,0,22.6338-.3978A16.0066,16.0066,0,0,0,213.2326,45.8378Z" style="fill:#e0e0e0"/><path d="M289.3456,8.8908a25.0671,25.0671,0,0,1,6.1159-2.6579l1.26-6.0537L306.9492,0l1.4721,6.0049a25.0513,25.0513,0,0,1,6.2059,2.4415l5.169-3.3884,7.3593,7.1056-3.204,5.2839a25.053,25.053,0,0,1,2.6578,6.1175l6.053,1.26.18,10.2276-6.0051,1.4724a25.0624,25.0624,0,0,1-2.4414,6.2052l3.3878,5.17-7.1045,7.3595-5.2847-3.2044a25.0537,25.0537,0,0,1-6.1169,2.6576l-1.26,6.0537-10.2276.1794L296.3174,54.94a25.0691,25.0691,0,0,1-6.2054-2.4416l-5.1693,3.3884-7.3593-7.1053,3.2042-5.2845a25.0405,25.0405,0,0,1-2.6582-6.1167l-6.0533-1.26-.1794-10.2277,6.0054-1.4725a25.0731,25.0731,0,0,1,2.4413-6.2052l-3.388-5.1695L284.06,5.6864l5.2854,3.2044Zm5.4523,13.6252a10.9735,10.9735,0,1,0,15.5165-.2728A10.9733,10.9733,0,0,0,294.7979,22.516Z" style="fill:#f5f5f5"/><path d="M75.4987,93.16a15.6293,15.6293,0,0,1,3.8139-1.6575l.7856-3.7751,6.3781-.1118.918,3.7447a15.6179,15.6179,0,0,1,3.87,1.5225l3.2235-2.113,4.5892,4.4311-1.998,3.2951a15.6225,15.6225,0,0,1,1.6574,3.8148l3.7747.7856.112,6.378-3.7448.9182a15.6288,15.6288,0,0,1-1.5224,3.87l2.1126,3.2237-4.43,4.5894-3.2955-1.9983a15.6212,15.6212,0,0,1-3.8145,1.6573l-.7857,3.7751-6.378.1118-.9181-3.7449a15.6363,15.6363,0,0,1-3.87-1.5226l-3.2236,2.113-4.5892-4.4309,1.9981-3.2954a15.6093,15.6093,0,0,1-1.6576-3.8144l-3.7749-.7855-.1119-6.3781,3.745-.9182a15.6335,15.6335,0,0,1,1.5224-3.87l-2.1128-3.2237,4.4306-4.5892,3.296,1.9983Zm3.4,8.4966a6.8431,6.8431,0,1,0,9.6761-.17A6.843,6.843,0,0,0,78.8988,101.657Z" style="fill:#f5f5f5"/><path d="M21.7107,150.7851a31.1888,31.1888,0,0,1,7.61-3.307l1.5676-7.5323,12.7259-.223,1.8316,7.4716a31.1646,31.1646,0,0,1,7.7216,3.0377l6.4316-4.216,9.1567,8.8412-3.9866,6.5744a31.1679,31.1679,0,0,1,3.307,7.6116l7.5314,1.5675.2236,12.7256-7.4718,1.832a31.1838,31.1838,0,0,1-3.0377,7.7208l4.2152,6.4322-8.84,9.1569-6.5754-3.987A31.1774,31.1774,0,0,1,46.51,207.798L44.9427,215.33l-12.7257.2231-1.8317-7.4722a31.1936,31.1936,0,0,1-7.7211-3.0379l-6.4317,4.2161-9.1568-8.8408,3.9868-6.5752a31.1529,31.1529,0,0,1-3.3074-7.6106L.2233,184.6654,0,171.94l7.4723-1.8321a31.1956,31.1956,0,0,1,3.0374-7.7207l-4.2155-6.4321,8.84-9.1566,6.5763,3.987Zm6.784,16.953a13.6537,13.6537,0,1,0,19.3062-.3393A13.6534,13.6534,0,0,0,28.4947,167.7381Z" style="fill:#f5f5f5"/><path d="M407.1848,287.9421a25.5662,25.5662,0,0,1,6.2387-2.7112l1.2851-6.1753,10.4332-.1828,1.5016,6.1255a25.5534,25.5534,0,0,1,6.3305,2.49l5.2728-3.4564,7.507,7.2483-3.2684,5.39a25.5546,25.5546,0,0,1,2.7112,6.24l6.1745,1.285.1833,10.433-6.1257,1.5019a25.5625,25.5625,0,0,1-2.49,6.33l3.4558,5.2733-7.247,7.5071-5.3908-3.2687a25.5553,25.5553,0,0,1-6.24,2.711l-1.2853,6.1752-10.4329.1829-1.5017-6.1259a25.5731,25.5731,0,0,1-6.33-2.4906l-5.273,3.4565-7.507-7.248,3.2685-5.3905a25.5418,25.5418,0,0,1-2.7115-6.2395l-6.1748-1.285-.1831-10.433,6.126-1.5021a25.576,25.576,0,0,1,2.49-6.33l-3.456-5.2732,7.2475-7.5069,5.3914,3.2687Zm5.5618,13.8986a11.1938,11.1938,0,1,0,15.8279-.2782A11.1935,11.1935,0,0,0,412.7466,301.8407Z" style="fill:#f5f5f5"/><path d="M211.65,378.5878a36.0319,36.0319,0,0,1,8.7917-3.8207l1.8111-8.7024,14.7027-.2577,2.1161,8.6323a36.0087,36.0087,0,0,1,8.9211,3.51l7.4307-4.8709,10.5791,10.2145-4.6059,7.5957a36.01,36.01,0,0,1,3.8207,8.794l8.7013,1.8109.2583,14.7025-8.6325,2.1165a36.0239,36.0239,0,0,1-3.51,8.92l4.87,7.4313-10.2128,10.5794-7.5969-4.6064a36.0179,36.0179,0,0,1-8.7931,3.82l-1.8113,8.7023-14.7024.2578-2.1162-8.6329a36.037,36.037,0,0,1-8.9205-3.51l-7.4309,4.871-10.5791-10.2141,4.606-7.5965a35.9984,35.9984,0,0,1-3.8211-8.7929l-8.7017-1.8108-.258-14.7026,8.6329-2.1167a36.0484,36.0484,0,0,1,3.5093-8.92l-4.87-7.4312,10.2134-10.5789,7.5978,4.6063Zm7.8378,19.5864a15.7747,15.7747,0,1,0,22.3053-.392A15.7743,15.7743,0,0,0,219.4879,398.1742Z" style="fill:#f5f5f5"/><path d="M314.3656,438.2863a5.9267,5.9267,0,1,1,.1875-8.38A5.9268,5.9268,0,0,1,314.3656,438.2863Z" style="fill:#e0e0e0"/><path d="M315.1974,436.3007c-.36-.0535.5264-6.2389,2.9462-13.4856,2.4312-7.2189,4.4264-13.0062,4.7424-12.9323.3862.0944-1.0767,6.1376-3.5,13.3328C316.9855,430.4034,315.551,436.3612,315.1974,436.3007Z" style="fill:#e0e0e0"/><path d="M335.1652,413.2607c.1449.308-2.9626,1.5355-6.8055.5992-3.8533-.8982-6.0725-3.3955-5.8045-3.6049.2465-.2971,2.623,1.5379,6.1069,2.3358C332.13,413.45,335.08,412.8846,335.1652,413.2607Z" style="fill:#e0e0e0"/><path d="M332.9092,418.9817c.1827.2994-2.861,1.6521-6.5474.471-3.7011-1.1391-5.4238-3.9892-5.1027-4.13.29-.25,2.2313,1.9013,5.4935,2.8849C329.9906,419.2656,332.8145,418.611,332.9092,418.9817Z" style="fill:#e0e0e0"/><path d="M159.9228,437.9746l.857,3.4353-13.768,3.4363-.6821-2.7333,5.37-8.3912a7.68,7.68,0,0,0,1.0521-2.2108,3.4368,3.4368,0,0,0,.01-1.62,2.075,2.075,0,0,0-1.16-1.4943,3.5585,3.5585,0,0,0-2.3194-.0428,5.1482,5.1482,0,0,0-2.0467.9951,4.2516,4.2516,0,0,0-1.2724,1.7685l-3.5649-1.212a7.427,7.427,0,0,1,2.32-3.2189,10.1121,10.1121,0,0,1,4.0705-1.97,9.09,9.09,0,0,1,3.7184-.2228,5.6393,5.6393,0,0,1,2.836,1.2828,5.0009,5.0009,0,0,1,1.5571,2.6391,6.5557,6.5557,0,0,1,.0708,2.9407,11.066,11.066,0,0,1-1.68,3.5718l-3.2025,5.0014Z" style="fill:#f5f5f5"/><circle cx="72.7306" cy="344.9327" r="8.607" transform="translate(-104.4016 40.15) rotate(-18.2574)" style="fill:#ff725e"/><path d="M74.5528,384.95a8.6071,8.6071,0,1,1-7.0164-9.9465A8.6072,8.6072,0,0,1,74.5528,384.95Z" style="fill:#ff725e"/><rect x="41.1734" y="357.9439" width="56.5976" height="10.1719" transform="translate(62.8072 -6.5275) rotate(9.8004)" style="fill:#ff725e"/><path d="M171.9657,61.885c-2.0716-.1288-3.9273,1.2763-4.9834,2.29a3.3071,3.3071,0,0,1-2.4983.8988c-1.8481-.115-3.5709-1.5138-3.4563-3.3617l.8631-20.273-19.1854-.8167a3.5372,3.5372,0,0,0-2.9807,3.4137,3.3072,3.3072,0,0,0,.8832,2.504c1.0069,1.0626,2.4,2.927,2.2583,4.9978-.22,3.21-2.9416,5.2778-6.58,5.0287s-6.0528-2.6687-5.8331-5.8789c.1419-2.0709,1.7764-3.7277,2.919-4.6431a3.3063,3.3063,0,0,0,1.2161-2.36,3.3417,3.3417,0,0,0-2.85-3.5286l-19.89-.8467-.7,21.2268a3.3525,3.3525,0,0,1-3.5539,3.138,3.3071,3.3071,0,0,1-2.3682-1.2015c-.9224-1.1364-2.59-2.7605-4.6611-2.8894-3.2115-.2-5.6162,2.23-5.8424,5.87s1.8586,6.3485,5.07,6.5483c2.0716.1287,3.9272-1.2764,4.9832-2.29a3.3056,3.3056,0,0,1,2.4985-.8989,3.3523,3.3523,0,0,1,3.138,3.554l-1.4285,22.7055,50.5311,2.151L160.61,73.35a3.3523,3.3523,0,0,1,3.554-3.1379,3.3049,3.3049,0,0,1,2.3679,1.2013c.9225,1.1366,2.59,2.7606,4.6616,2.8895,3.2113.2,5.6156-2.23,5.842-5.87S175.1773,62.0846,171.9657,61.885Z" style="fill:#ff725e"/><g style="opacity:0.30000000000000004"><path d="M126.829,95.8313c-.0172-.0007,4.9923-7.9763,11.1991-9.3537a51.8563,51.8563,0,0,0,8.7107-2.7271A33.9815,33.9815,0,0,0,157.9315,76.09l2.6789-2.74V90.93l-17.9955,6.2932Z"/></g><path d="M33.4433,197.3233a3.3468,3.3468,0,0,1-2.8341-2.2572,3.3069,3.3069,0,0,1,.2183-2.6463c.7044-1.2835,1.5785-3.44.9157-5.4074-1.0278-3.0492-4.1854-4.3579-7.6412-3.1933s-5.1768,4.118-4.1491,7.1673c.6629,1.9669,2.6646,3.1546,4.0022,3.75a3.3073,3.3073,0,0,1,1.7754,1.9741,3.8047,3.8047,0,0,1-.6544,3.7066l-1.6747.6192L1.8676,209.0267l7.04,19.1231c.6081,1.757,2.7459,2.3871,4.5031,1.779a3.3207,3.3207,0,0,0,1.9679-1.7991c.587-1.348,1.7635-3.3678,3.7334-4.05,3.0535-1.0569,6.0334.6474,7.2309,4.1084s-.0908,6.6424-3.1445,7.6993c-1.97.6817-4.1431-.1786-5.4376-.8754a3.32,3.32,0,0,0-2.6593-.1977,3.3668,3.3668,0,0,0-2.0806,4.2826l8.2173,22.5488,31.7292-11.6805,18.6153-6.853,2.2915-.8435-7.4564-21.5963a3.3665,3.3665,0,0,0-4.2826-2.08,3.3206,3.3206,0,0,0-1.9683,1.7992c-.5868,1.3479-1.7631,3.3677-3.733,4.0494-3.0537,1.0569-6.0337-.6474-7.2314-4.1084s.0912-6.6425,3.1449-7.6994c1.97-.6817,4.143.1788,5.4373.8755a3.3213,3.3213,0,0,0,2.66.1977,3.3666,3.3666,0,0,0,2.08-4.2826L54.9269,189.38Z" style="fill:#455a64"/><path d="M403.9251,400.082l-9.4175-25.535L306.0162,296.78l-19.1439,19.1439,88.1811,79.9449,26.181,7.0708A2.3352,2.3352,0,0,0,403.9251,400.082Z" style="fill:#455a64"/><path d="M394.5076,374.547c-1.3241.4126-2.28,1.6837-1.8524,2.8384-2.0336-.9959-4.969-.3939-6.96,1.4272a6.8454,6.8454,0,0,0-2.1282,6.8869,8.5985,8.5985,0,0,0-6.7221,3.2429,7.6494,7.6494,0,0,0-1.5638,6.9861l26.0271,7.0308a2.2935,2.2935,0,0,0,2.6427-2.8064Z" style="fill:#ffbf9d"/><path d="M393.1354,400.9321s-1.2726-6.1049,7.97-9.0576l3.737,10.1326a1.36,1.36,0,0,1-1.5664,1.6637Z" style="fill:#263238"/><path d="M375.0534,395.8687l.228.06a6.0121,6.0121,0,0,1-.2427-2.9385,8.61,8.61,0,0,1,1.6734-3.8758,8.8405,8.8405,0,0,1,4.2532-3.0488,7.24,7.24,0,0,1,2.602-.3659l-87.2918-79.1789-9.4032,9.4032Z" style="opacity:0.30000000000000004"/><path d="M394.5076,374.547,306.0162,296.78l-2.4887,2.4887,89.1277,78.1168a1.9853,1.9853,0,0,1-.1066-.4547A2.6664,2.6664,0,0,1,394.5076,374.547Z" style="opacity:0.30000000000000004"/><path d="M53.8627,308.749a5.4567,5.4567,0,0,1,1.5826,2.7582,5.7283,5.7283,0,0,1-.2663,3.7554,7.4414,7.4414,0,0,1-2.6091,3.0893,13.2334,13.2334,0,0,1-4.54,1.9943,13.11,13.11,0,0,1-4.9311.369,7.3454,7.3454,0,0,1-3.7245-1.5088,5.7809,5.7809,0,0,1-1.9833-3.1939,5.4528,5.4528,0,0,1,.1007-3.178,6.2929,6.2929,0,0,1,1.8831-2.68,5.3874,5.3874,0,0,1-2.2979-1.3921,5.19,5.19,0,0,1-1.28-2.3962,5.3881,5.3881,0,0,1,.23-3.5031,6.8518,6.8518,0,0,1,2.3763-2.8519,11.8076,11.8076,0,0,1,4.0974-1.8189,12.0233,12.0233,0,0,1,4.5162-.331,6.8439,6.8439,0,0,1,3.4532,1.397,5.3961,5.3961,0,0,1,1.85,2.9846,5.18,5.18,0,0,1-.005,2.7163,5.309,5.309,0,0,1-1.404,2.3164A6.2529,6.2529,0,0,1,53.8627,308.749Zm-12.6761-5.5971a2.459,2.459,0,0,0-.41,2.2,2.3916,2.3916,0,0,0,1.3681,1.7051,3.8977,3.8977,0,0,0,2.5937.1007,4.0366,4.0366,0,0,0,2.2715-1.3142,2.367,2.367,0,0,0,.4378-2.1569,2.4484,2.4484,0,0,0-1.411-1.7451,3.9858,3.9858,0,0,0-2.6276-.1077A3.8641,3.8641,0,0,0,41.1866,303.1519Zm8.6775,11.9741a2.7829,2.7829,0,0,0,.5245-2.5189,2.7442,2.7442,0,0,0-1.6434-1.9634,4.9227,4.9227,0,0,0-3.159-.09,4.7927,4.7927,0,0,0-2.7014,1.5526,2.7529,2.7529,0,0,0-.513,2.501,2.7856,2.7856,0,0,0,1.6353,1.9973,4.7877,4.7877,0,0,0,3.1137.1A4.846,4.846,0,0,0,49.8641,315.126Z" style="fill:#263238"/><path d="M66.8824,72.5435l.8571,3.4353L53.9714,79.4151l-.682-2.7333,5.37-8.3912a7.6762,7.6762,0,0,0,1.052-2.2108,3.4382,3.4382,0,0,0,.01-1.62,2.0745,2.0745,0,0,0-1.16-1.4942,3.5584,3.5584,0,0,0-2.3194-.0429,5.1476,5.1476,0,0,0-2.0467.9952,4.251,4.251,0,0,0-1.2724,1.7685L49.358,64.4744a7.427,7.427,0,0,1,2.32-3.2189,10.1113,10.1113,0,0,1,4.07-1.97,9.0891,9.0891,0,0,1,3.7185-.2229,5.6411,5.6411,0,0,1,2.836,1.2829,5.0008,5.0008,0,0,1,1.557,2.639,6.5528,6.5528,0,0,1,.0708,2.9407,11.0664,11.0664,0,0,1-1.68,3.5719l-3.2024,5.0013Z" style="fill:#263238"/><path d="M398.0334,138.3364a5.9268,5.9268,0,1,1,2.13-8.1066A5.9268,5.9268,0,0,1,398.0334,138.3364Z" style="fill:#263238"/><path d="M399.3039,136.5984c-.3373-.1356,1.9619-5.9457,6-12.4316,4.0423-6.4563,7.3279-11.6214,7.6181-11.4761.3537.1816-2.4737,5.7194-6.503,12.1543C402.4135,131.2781,399.6337,136.74,399.3039,136.5984Z" style="fill:#263238"/><path d="M424.08,118.83c.0693.3331-3.2384.8049-6.7585-.9989-3.539-1.7691-5.1171-4.7138-4.8077-4.8552.3088-.2316,2.1937,2.1054,5.3967,3.6911C421.0837,118.3087,424.0837,118.4442,424.08,118.83Z" style="fill:#263238"/><path d="M420.5557,123.87c.1081.3337-3.1666.9419-6.4776-1.0635-3.335-1.9681-4.3482-5.1405-4.0031-5.2029.34-.1762,1.7283,2.3678,4.6725,4.0827C417.651,123.4677,420.55,123.4873,420.5557,123.87Z" style="fill:#263238"/><path d="M396.9182,337.4a6.9061,6.9061,0,1,1-6.18-7.5629A6.9062,6.9062,0,0,1,396.9182,337.4Z" style="fill:#263238"/><path d="M396.1514,335.0106c-.5663.3516-4.6554-5.7352-8.0079-14.0047-3.3178-8.2415-5.7422-14.9285-5.19-15.2125.629-.3193,4.1017,6.09,7.4013,14.289C393.6646,328.2464,396.7168,334.6706,396.1514,335.0106Z" style="fill:#263238"/><path d="M404.898,301.4411c.4152.376-3.3817,4.7193-10.0877,6.6788a16.1786,16.1786,0,0,1-8.7847.2827c-2.2531-.6278-3.2643-1.8088-3.0835-2.0293.2016-.3147,1.3877.2333,3.4031.3655a21.9751,21.9751,0,0,0,7.8061-.9231C400.1784,304.0884,404.44,300.8407,404.898,301.4411Z" style="fill:#263238"/><path d="M418.8633,333.0472a6.906,6.906,0,1,1-6.18-7.5627A6.9059,6.9059,0,0,1,418.8633,333.0472Z" style="fill:#263238"/><path d="M418.0964,330.6584c-.566.3517-4.6554-5.7356-8.0078-14.0045-3.3177-8.2418-5.742-14.9292-5.19-15.2131.6294-.3188,4.102,6.09,7.4013,14.2891C415.61,323.8943,418.662,330.3183,418.0964,330.6584Z" style="fill:#263238"/><path d="M406.8752,305.7213c.5075.367-2.8465,4.7533-9.0687,6.8114-6.2054,2.1144-11.5261.64-11.3427.0417.0856-.6984,5.0141-.3921,10.58-2.3139C402.64,308.4349,406.3856,305.2164,406.8752,305.7213Z" style="fill:#263238"/><path d="M376.9108,67.1523a13.1485,13.1485,0,0,0-4.3466-6.5959,12.6312,12.6312,0,0,0-7.091-3.0861,10.1981,10.1981,0,0,0-10.377,6.7742,10.1877,10.1877,0,0,0-11.5781-3.252,12.6315,12.6315,0,0,0-5.95,4.94,13.1476,13.1476,0,0,0-2.3362,7.546,15.997,15.997,0,0,0,3.3551,9.4666,22.6414,22.6414,0,0,0,8.751,6.1372C352.8156,91.4045,360,94.2662,360,94.2662s5.0187-4.9976,9.6324-8.7545a22.6388,22.6388,0,0,0,6.6941-8.3324A16.0011,16.0011,0,0,0,376.9108,67.1523Z" style="fill:#ff725e"/><path d="M456.5084,218.8369c8.9946-18.363,1.4227-40.0635-16.9128-48.4691s-40.4914-.3332-49.4863,18.03a35.9252,35.9252,0,0,0,4.318,38.8175l-4.1089,8.3881,29.0982,13.3394s2.4818-4.6272,4.6053-8.8A38.2326,38.2326,0,0,0,456.5084,218.8369Z" style="fill:#ff725e"/><path d="M401.6926,240.5c5.114-10.864,10.9513-21.4009,15.8649-32.355.9927-2.2126,1.9545-4.4447,2.7585-6.7279,1.0089-2.8645,1.8565-6.175.0668-8.8492a4.62,4.62,0,0,0-3.4772-2.1363,5.9479,5.9479,0,0,0-3.8919,1.3924,15.3236,15.3236,0,0,0-4.9823,7.4708,15.95,15.95,0,0,0,3.6565,16.25,16.6206,16.6206,0,0,0,16.6671,4.0166C434.11,217.6642,439.3708,212.2046,440,206.1c.2718-2.636-.4543-6.0575-3.2812-6.9939-2.7448-.91-5.2634,1.1037-6.9345,3.1191a55.7014,55.7014,0,0,0-4.937,7.6883c-1.7645,3.036-3.4419,6.1192-5.0871,9.2174-3.3887,6.3807-6.6243,12.8367-10.0147,19.2166q-1.1235,2.114-2.2781,4.2117c-.26.4715.504.7856.7632.3158,6.1839-11.203,11.5556-22.826,18.0864-33.8493a37.8528,37.8528,0,0,1,4.841-7.113,6.5891,6.5891,0,0,1,3.6021-2.1693,3.5762,3.5762,0,0,1,3.6008,1.75c1.5789,2.6027.8039,6.06-.461,8.6882a16.9673,16.9673,0,0,1-5.9327,6.72,15.6708,15.6708,0,0,1-16.7862.3093,14.7875,14.7875,0,0,1-7.0479-14.4713,16.2365,16.2365,0,0,1,3.0829-7.8724c1.7178-2.2919,5.0334-5.1077,7.7363-2.6774,2.59,2.3284,1.5839,6.1405.556,9.038-.7131,2.0093-1.55,3.9785-2.4151,5.9312-4.5056,10.168-9.8226,19.9816-14.7028,29.9817q-.7405,1.518-1.4615,3.0448c-.2294.4869.5338.8035.7634.3158Z" style="fill:#fff"/><g id="_2gGvdE.tif" data-name="2gGvdE.tif"><path d="M391.041,253.7233a9.6326,9.6326,0,0,1,1.0742,2.5578,2.0756,2.0756,0,0,0,1.1847,1.4453l5.8576,2.68a2.2273,2.2273,0,0,0,2.0648-.1163,4.1847,4.1847,0,0,1,2.7648-.6439Z" style="fill:#455a64"/></g><path d="M392.6856,234.4866c-.0576.1179-3.1787,9.9028-4.3714,13.6446a4.6393,4.6393,0,0,0,.7986,4.4275,4.2711,4.2711,0,0,0,1.4878,1.1291c2.5106,1.1484,12.8126,5.8614,12.8126,5.8614s3.3483,1.5318,5.4076-.7812c2.168-2.4345,9.0635-12.7534,9.0635-12.7534Z" style="fill:#263238"/><path d="M411.2348,257.7445,387.9289,247.183a.681.681,0,0,1-.3273-.9249l.0336-.07a.7258.7258,0,0,1,.9448-.3487l23.3059,10.5617a.6815.6815,0,0,1,.3272.9251l-.0337.07A.7251.7251,0,0,1,411.2348,257.7445Z" style="fill:#455a64"/><path d="M412.9472,254.9958l-23.91-10.8353a.6813.6813,0,0,1-.3274-.925l.0339-.07a.7249.7249,0,0,1,.9443-.3487l23.91,10.8354a.6811.6811,0,0,1,.3273.9247l-.0336.07A.7255.7255,0,0,1,412.9472,254.9958Z" style="fill:#455a64"/><path d="M414.8431,252.33l-24.88-11.2747a.6816.6816,0,0,1-.3275-.925l.0338-.07a.7253.7253,0,0,1,.9446-.3488l24.88,11.2747a.6818.6818,0,0,1,.3276.9251l-.034.07A.7252.7252,0,0,1,414.8431,252.33Z" style="fill:#e0e0e0"/><path d="M414.8431,252.33a.7766.7766,0,0,0,.58-.0256.7967.7967,0,0,0,.4159-.5494.6468.6468,0,0,0-.4159-.7493c-1.3817-.6162-3.3568-1.4967-5.7915-2.5824l-19.0681-8.6023a.6017.6017,0,0,0-.6076.0725.74.74,0,0,0-.2695.5678.5662.5662,0,0,0,.3351.4882l.6818.3092,2.675,1.2144c1.7531.797,3.4444,1.566,5.0556,2.2987,3.2172,1.4686,6.1153,2.7915,8.5543,3.905l5.7581,2.6514,1.56.7318.4033.1959a.709.709,0,0,1,.1338.0741.7388.7388,0,0,1-.1446-.0521l-.4135-.1741c-.3751-.1642-.9048-.3958-1.58-.6914-1.3813-.6159-3.3565-1.4964-5.7912-2.5822-2.4456-1.1-5.3515-2.4073-8.577-3.8585l-5.0616-2.286-2.6767-1.2111q-.34-.1535-.6823-.3087a.797.797,0,0,1-.47-.6867.8548.8548,0,0,1,.0954-.4259.8874.8874,0,0,1,.2706-.3471.847.847,0,0,1,.8566-.1022c7.428,3.3814,14.1531,6.4425,19.0374,8.6657,2.4207,1.1146,4.3844,2.0192,5.7582,2.6516a.7247.7247,0,0,1,.4447.8477.8494.8494,0,0,1-.4663.5789.7156.7156,0,0,1-.4568.041A.4486.4486,0,0,1,414.8431,252.33Z" style="fill:#263238"/><path d="M392.4377,227.6c-.1161.2376-2.3322,6.0918-3.4678,9.0971a3.7487,3.7487,0,0,0,.3039,3.3046l.8927,1.4446,24.7728,11.3331,1.6967-.2456a3.9988,3.9988,0,0,0,2.8546-1.9044l4.9918-8.3694Z" style="fill:#455a64"/><g style="opacity:0.30000000000000004"><path d="M388.3822,247.3042a40.4146,40.4146,0,0,0,7.679,4.2164c2.2843,1.0335,4.4913,2.1147,6.99,3.1994,1.83.7946,3.54,1.4732,5.3839,2.2277a5.8446,5.8446,0,0,0,2.3082.5385Z"/></g><g style="opacity:0.30000000000000004"><path d="M389.7828,244.4392a40.4136,40.4136,0,0,0,7.6792,4.2163c2.2841,1.0335,4.4911,2.1146,6.9893,3.1992,1.83.7949,3.5406,1.4736,5.3842,2.2282a5.8453,5.8453,0,0,0,2.3081.5384Z"/></g><path d="M418.3,251.5469c-.0291.06-6.679-2.923-14.851-6.6614-8.1747-3.74-14.7757-6.819-14.7466-6.879s6.6779,2.9224,14.8526,6.6622C411.727,248.4073,418.3294,251.4873,418.3,251.5469Z" style="fill:#263238"/><path d="M424.3874,242.0158c-.03.0673-7.2653-3.1424-16.1586-7.1682-8.8963-4.027-16.0815-7.3453-16.0515-7.4126s7.2638,3.1415,16.16,7.1689C417.2306,238.63,424.4173,241.9484,424.3874,242.0158Z" style="fill:#263238"/><g style="opacity:0.2"><path d="M428.1552,177.07a6.3638,6.3638,0,0,1,4.2053-3.0164,10.8644,10.8644,0,0,1,8.1329.9534c7.2589,3.91,11.2985,8.5927,13.608,16.8729.7821,2.8047,1.0618,7.4308-.4175,10.166a5.8069,5.8069,0,0,1-3.4808,2.8932c-3.9309,1.0939-6.898-2.6695-7.9849-6.253-1.0126-3.34-1.2921-7.1064-3.5987-9.7168-1.9-2.1509-4.82-3.0859-7.2265-4.67S426.95,179.7393,428.1552,177.07Z" style="fill:#fff"/></g><g style="opacity:0.2"><path d="M444.7962,210.9894c1.7823-1.8458,5.105-2.0184,6.698-.7952a5.3763,5.3763,0,0,1,1.9823,4.3877,5.278,5.278,0,0,1-3.5286,4.5887,4.7915,4.7915,0,0,1-5.367-1.7846C443.4819,215.7121,443.366,212.47,444.7962,210.9894Z" style="fill:#fff"/></g><path d="M82.67,162.61l-10.8588-1.89A35.2006,35.2006,0,1,1,79.48,150.7088l.0134-.0148Z" style="fill:#fff"/><path d="M81.9386,159.608c-.5237-2.0617-1.2808-5.0428-2.2612-8.9032a35.1268,35.1268,0,0,0,3.9334-16.9481,34.52,34.52,0,0,0-2.0974-11.1247,35.246,35.246,0,0,0-17.4362-19.6761,35.4629,35.4629,0,0,0-50.7483,25.1367,36.1117,36.1117,0,0,0,.7488,16.3326,34.9084,34.9084,0,0,0,7.366,13.51A35.474,35.474,0,0,0,56.6,169.0648a34.9808,34.9808,0,0,0,15.2628-8.1681c3.4918.5627,6.1987.9987,8.0767,1.3011l2.0591.3209c.4571.07.6831.1009.6722.0909,0,0-.2589-.0614-.7338-.154l-2.0941-.4019c-1.8573-.3478-4.5363-.8494-8.0022-1.4986l-.0789-.0146-.0621.0555a34.96,34.96,0,0,1-49.7135-3.132,34.2552,34.2552,0,0,1-7.1785-13.2464,35.4177,35.4177,0,0,1-.7083-15.98,34.7836,34.7836,0,0,1,35.318-28.2849,34.8036,34.8036,0,0,1,31.527,22.8841,34.1465,34.1465,0,0,1,2.1369,10.9337,35.1349,35.1349,0,0,1-3.7566,16.8575v.1109c1.065,3.8109,1.8865,6.75,2.4539,8.7805.2782.9789.4937,1.7376.651,2.2906.1491.5186.2412.7992.2412.7992.0116.0106-.0462-.2383-.1692-.74C82.3652,161.3232,82.1789,160.5742,81.9386,159.608Z" style="fill:#263238"/><path d="M48.2989,170.3421A35.784,35.784,0,0,1,21.2559,158.1,35.2308,35.2308,0,0,1,13.837,144.492a36.3768,36.3768,0,0,1-.7539-16.4453A35.7486,35.7486,0,0,1,49.4542,98.9441a35.8475,35.8475,0,0,1,25.8574,12.4873,35.23,35.23,0,0,1,6.437,11.1167,34.5567,34.5567,0,0,1,2.1123,11.2051,35.5326,35.5326,0,0,1-3.918,16.9819l2.2378,8.8116.0005.0009.5625,2.2608c.09.3667.1436.5874.1651.7256a.2523.2523,0,0,1,.0107.1025.1548.1548,0,0,1-.0581.1489c-.0293.0459-.0654.0689-.1543.0718a.2243.2243,0,0,1-.083-.002c-.1289-.0083-.3311-.039-.6636-.0893l-10.0185-1.603A35.2975,35.2975,0,0,1,56.66,169.3074,33.6653,33.6653,0,0,1,48.2989,170.3421Zm-.3652-70.9336a35.2765,35.2765,0,0,0-34.3589,28.727,35.8885,35.8885,0,0,0,.7436,16.2217,34.73,34.73,0,0,0,7.314,13.4141,35.2228,35.2228,0,0,0,34.9053,11.0512q1.1923-.2951,2.3066-.6548-1.1169.3488-2.31.6353a35.2226,35.2226,0,0,1-34.7378-11.1748A34.6007,34.6007,0,0,1,14.566,144.284a35.6929,35.6929,0,0,1-.7129-16.0918A35.0343,35.0343,0,0,1,49.4283,99.7029a35.3089,35.3089,0,0,1,25.376,12.165,34.7675,34.7675,0,0,1,6.3745,10.8838,34.7462,34.7462,0,0,1,2.0639,14.7725,34.4141,34.4141,0,0,0,.1182-3.7617,34.059,34.059,0,0,0-2.083-11.0459,34.7475,34.7475,0,0,0-6.3462-10.96A35.35,35.35,0,0,0,49.4332,99.4436C48.9341,99.42,48.4332,99.4085,47.9337,99.4085Zm.0752.7632A34.5591,34.5591,0,0,0,14.3448,128.281a35.1961,35.1961,0,0,0,.7031,15.8692,34.0913,34.0913,0,0,0,7.127,13.15A34.699,34.699,0,0,0,71.5323,160.41l.062-.0556a.25.25,0,0,1,.2124-.06L81.984,162.21c.121.0235.228.0454.3208.0645-.0332-.1109-.0718-.2432-.1158-.3955l-.6513-2.291-2.4541-8.7813a.24.24,0,0,1-.0093-.0674v-.1113a.2559.2559,0,0,1,.0264-.1123,35.07,35.07,0,0,0,3.73-16.7373,33.6776,33.6776,0,0,0-2.1215-10.8555,34.27,34.27,0,0,0-6.2842-10.73,34.8032,34.8032,0,0,0-25.0161-11.9907C48.9429,100.1819,48.4752,100.1717,48.0089,100.1717Z" style="fill:#263238"/><path d="M37.9154,134.676a4.8935,4.8935,0,1,1-4.8935-4.8934A4.8935,4.8935,0,0,1,37.9154,134.676Z" style="fill:#263238"/><path d="M53.1123,134.676a4.8935,4.8935,0,1,1-4.8935-4.8934A4.8935,4.8935,0,0,1,53.1123,134.676Z" style="fill:#263238"/><path d="M68.3092,134.676a4.8935,4.8935,0,1,1-4.8934-4.8934A4.8935,4.8935,0,0,1,68.3092,134.676Z" style="fill:#263238"/><path d="M341.8409,132.618s4.5739-5.2273-3.2671-17.969-7.5143-17.6423-17.969-21.5628-12.7417-6.5342-19.9293-12.0883-22.543-24.83-46.72-18.9492-18.8049,27.4436-19.53,38.5518,1.7057,29.7306,0,39.5319-1.8881,23.85,0,29.7305,0,37.5717,0,37.5717v91.4787s-3.3392,83.311,4.8285,92.4589,24.88,20.256,48.868,12.0882,31.8294-15.0286,37.3834-21.2361c0,0,18.0077-7.8411,17.6617-29.0772a36.3411,36.3411,0,0,0,12.0689-13.7218c4.5739-9.1479,10.4547-15.3554,11.7616-24.1765s-1.96-11.1082-1.96-11.1082,3.9205-1.3068,5.5541-13.0683,5.8807-18.2958,4.9006-23.5231a20.87,20.87,0,0,0-4.5739-9.1479s3.2305-1.6336,4.719-7.841,2.4686-21.2362,2.1419-29.4039-2.287-12.7417-2.287-12.7417.98-23.5231-7.5143-26.79l-3.5938-1.6336s3.5938-2.94-.3267-10.128-3.2671-16.0087-6.8609-21.8895S350.0087,131.6379,341.8409,132.618Z" style="fill:#ff725e"/><g style="opacity:0.30000000000000004"><path d="M343.6605,296.52l-.0993.0278Z"/></g><g style="opacity:0.30000000000000004"><path d="M343.5612,296.548Z"/></g><g style="opacity:0.30000000000000004"><path d="M343.6605,296.52Z"/></g><g style="opacity:0.30000000000000004"><path d="M345.2943,304.4579c-.3223-2.6727-1.077-5.2932-1.6338-7.9377a22.93,22.93,0,0,1,4.8338,15.4265c2.79.3188,6.6477-1.6672,7.8432-1.99-3.303,3.8892-11.0148,8.5288-12.1479,13.23-1.1825,4.9057,4.9918,9.1237,2.4884,14.5889-1.7757-1.579-.96-2.7943-1.34-4.621-1.9353-9.3012-12.54-8.7146-17.4448-7.4627a83.6754,83.6754,0,0,1,8.6864-4.6194C345.1847,317.3626,346.4024,313.65,345.2943,304.4579Z"/></g><g style="opacity:0.30000000000000004"><path d="M322.7707,328.646c.48-.2645.9709-.5428,1.4653-.8255l-6.7273,6.4077c-1.604.5558-4.8629,1.5583-10.638-2.1436C316.7593,335.8257,318.6823,330.8983,322.7707,328.646Z"/></g><g style="opacity:0.30000000000000004"><path d="M327.893,325.6922c-1.2422.7271-2.4668,1.448-3.657,2.1283l1.217-1.1591A6.4867,6.4867,0,0,1,327.893,325.6922Z"/></g><g style="opacity:0.30000000000000004"><path d="M307.8449,371.9849c-5.225,5.1747-9.64,11.64-15.76,15.0025-5.7776,3.1743-13.35,3.0857-19.9366,5.304,8.8551,2.44,16.7435.7238,24.1344-4.7025,6.8091-4.9992,13.9013-9.6305,21.0253-14.1791,7.2753-4.6453,12.7848-10.5876,15.1391-19.0359.3845-1.38.054-2.9583-1.6428-4.8958-.7422,1.9628-1.6491,3.8809-2.1974,5.8965-2.0806,7.6487-7.0292,12.8851-14.0335,16.0485C312.4405,372.3861,309.639,371.8692,307.8449,371.9849Z"/></g><g style="opacity:0.30000000000000004"><path d="M262.39,144.88c8.7859,12.5668-2.8579,28.6159,2.767,34.0934.5749-1.5923-.7886-3.38.175-4.6C273.1122,164.5226,270.3989,149.7763,262.39,144.88Z"/></g><g style="opacity:0.30000000000000004"><path d="M257.7026,369.4891l9.5766,5.95,12.7018-5.95Z"/></g><path d="M233.2906,263.7124a2.1161,2.1161,0,0,1,.3768.0922l1.0872.3207,1.7609.5375c.6986.2017,1.5216.3743,2.4377.6036a60.13,60.13,0,0,0,15.8645,1.53,57.7064,57.7064,0,0,0,10.8881-1.617,43.5815,43.5815,0,0,0,11.5935-4.9064,35.1689,35.1689,0,0,0,10.1865-9.3449c2.6185-4.0625,4.1527-8.9366,6.7672-13.4416a19.38,19.38,0,0,1,2.0391-2.9193c.7746-.8992,1.6346-1.6818,2.4537-2.5047a41.3089,41.3089,0,0,1,5.4328-4.1692,49.5459,49.5459,0,0,1,11.7535-5.4962,84.5631,84.5631,0,0,1,22.0078-3.6716l-.1839.1483c1.0282-3.8275,1.9862-7.2926,2.9669-10.2973a77.21,77.21,0,0,1,2.8633-7.59,40.5167,40.5167,0,0,1,3.2462-6.1164,2.6631,2.6631,0,0,1-.2026.4093c-.1569.2881-.3683.6766-.6382,1.1725-.5448,1.0382-1.33,2.579-2.2006,4.6236-.8685,2.0448-1.828,4.5892-2.7643,7.5984-.95,3.0049-1.88,6.47-2.884,10.303l-.0368.1405-.1472.0081a85.2592,85.2592,0,0,0-21.8722,3.744,49.2916,49.2916,0,0,0-11.6238,5.463,40.9545,40.9545,0,0,0-5.358,4.1195c-.8029.8082-1.663,1.5933-2.4094,2.4612a18.91,18.91,0,0,0-1.9839,2.8431c-2.5775,4.4321-4.1135,9.3095-6.79,13.4576a35.4984,35.4984,0,0,1-10.3666,9.4774,43.7809,43.7809,0,0,1-11.7386,4.9152,57.4174,57.4174,0,0,1-10.9836,1.5659,58.4663,58.4663,0,0,1-15.9285-1.7045c-.9156-.2457-1.7369-.4347-2.4329-.653l-1.75-.5875-1.0719-.3712A2.0668,2.0668,0,0,1,233.2906,263.7124Z" style="fill:#263238"/><path d="M258.5273,323.2588a1.026,1.026,0,0,1-.0379-.2686c-.0154-.21-.0345-.4718-.0583-.7955a11.9428,11.9428,0,0,1,.3826-3.0417c.6228-2.6071,2.6319-6.07,6.0558-9.3882,1.7-1.6743,3.7322-3.3014,5.8244-5.1336a32.2634,32.2634,0,0,0,5.9737-6.4693,16.8954,16.8954,0,0,0,2.012-4.28,44.6079,44.6079,0,0,0,1.1351-4.8585,41.137,41.137,0,0,1,1.2242-5.0863,16.69,16.69,0,0,1,2.4843-4.8119,23.4249,23.4249,0,0,1,8.1755-6.7285,41.05,41.05,0,0,1,9.2955-3.3261c6.1193-1.4532,11.7271-2.1974,16.2542-3.5755a33.3487,33.3487,0,0,0,10.1035-4.6612,23.5231,23.5231,0,0,0,2.3619-1.9136l.5746-.546a1.0505,1.0505,0,0,1,.2095-.174,15.5126,15.5126,0,0,1-3.0239,2.8007,32.4189,32.4189,0,0,1-10.1176,4.8543c-4.5484,1.4341-10.1729,2.22-16.2445,3.6909a40.9235,40.9235,0,0,0-9.1719,3.3123,23.0065,23.0065,0,0,0-7.9881,6.5813,16.208,16.208,0,0,0-2.411,4.6643,40.9921,40.9921,0,0,0-1.215,5.02,44.6307,44.6307,0,0,1-1.1621,4.9112,17.3358,17.3358,0,0,1-2.086,4.3946,32.4024,32.4024,0,0,1-6.0945,6.5341c-2.1138,1.8252-4.1548,3.4327-5.8515,5.07-3.4234,3.2526-5.4438,6.6252-6.1184,9.1732A14.0806,14.0806,0,0,0,258.5273,323.2588Z" style="fill:#263238"/><path d="M344.3462,258.615c-.0323.16-3.1983-.4855-7.1556-.5552-3.9582-.093-7.1474.4223-7.1731.2607a7.093,7.093,0,0,1,2.07-.4785,31.3354,31.3354,0,0,1,10.211.21A7.093,7.093,0,0,1,344.3462,258.615Z" style="fill:#263238"/><path d="M330.0922,249.5755a8.4794,8.4794,0,0,1-.0747,9.04,13.5947,13.5947,0,0,0,.0747-9.04Z" style="fill:#263238"/><path d="M306.9713,309.9571a32.4146,32.4146,0,0,0,3.57-5.6875,24.6254,24.6254,0,0,0,2.0631-6.9467,22.9995,22.9995,0,0,0-4.0486-16.8643,24.6283,24.6283,0,0,0-4.9923-5.2534,32.4105,32.4105,0,0,0-5.7628-3.4464,1.58,1.58,0,0,1,.4531.1306c.2867.112.7276.24,1.2566.4946a21.8138,21.8138,0,0,1,4.2817,2.5227,23.6754,23.6754,0,0,1,7.0884,29.5251,21.8118,21.8118,0,0,1-2.67,4.1918c-.356.4668-.69.7814-.8952,1.0114C307.1029,309.8584,306.9849,309.9694,306.9713,309.9571Z" style="fill:#263238"/><path d="M306.1122,331.4038a23.0343,23.0343,0,0,0,2.4155,1.74,12.38,12.38,0,0,0,3.19,1.3464,8.5241,8.5241,0,0,0,4.5023.0206,9.3032,9.3032,0,0,0,4.4377-3.1458,31.8539,31.8539,0,0,1,4.441-4.75c1.8965-1.4327,4.3745-1.95,6.8053-2.3233a18.8017,18.8017,0,0,0,7.2118-2.1386,13.88,13.88,0,0,0,3.0206-2.327,15.4635,15.4635,0,0,0,2.32-2.8987,17.6735,17.6735,0,0,0,2.4981-6.5366,18.2081,18.2081,0,0,0-.1675-6.3471,21.2651,21.2651,0,0,0-1.861-5.2428,24.1677,24.1677,0,0,0-4.8216-6.4711c-.6925-.6632-1.2547-1.1559-1.65-1.4718a4.2676,4.2676,0,0,1-.58-.5139,4.2074,4.2074,0,0,1,.6461.4293,19.0279,19.0279,0,0,1,1.7252,1.4051,23.254,23.254,0,0,1,5.0143,6.45,21.3082,21.3082,0,0,1,1.9585,5.3248,18.4943,18.4943,0,0,1,.22,6.5147,18.0443,18.0443,0,0,1-2.5415,6.7377,15.893,15.893,0,0,1-2.3875,2.9956,14.3277,14.3277,0,0,1-3.127,2.412,14.0856,14.0856,0,0,1-3.657,1.4977c-1.26.3163-2.5177.5029-3.7391.6953-2.4315.3657-4.8031.8625-6.5972,2.2034a32.2386,32.2386,0,0,0-4.4023,4.6489,9.6382,9.6382,0,0,1-4.6654,3.2145,8.7558,8.7558,0,0,1-4.6811-.0956,12.1263,12.1263,0,0,1-3.2208-1.457A9.9044,9.9044,0,0,1,306.1122,331.4038Z" style="fill:#263238"/><path d="M297.3463,352.189c-.0128-.0985,1.2748-.1729,3.1961-.8505a14.4852,14.4852,0,0,0,9.6147-11.5787c.313-2.013.1495-3.2922.2487-3.2977a2.6415,2.6415,0,0,1,.1617.8879,12.129,12.129,0,0,1-.0378,2.46,14.0144,14.0144,0,0,1-9.8692,11.8852,12.1268,12.1268,0,0,1-2.4116.4893A2.6385,2.6385,0,0,1,297.3463,352.189Z" style="fill:#263238"/><path d="M263.4116,387.4937a5.2806,5.2806,0,0,1,.8166.287c.5237.2137,1.3107.4917,2.33.8259a35.54,35.54,0,0,0,8.9036,1.6114,33.64,33.64,0,0,0,26.713-11,33.3679,33.3679,0,0,0,3.9525-5.26l.0783-.13.1513.0025a23.7124,23.7124,0,0,0,13.2829-3.8784,23.0905,23.0905,0,0,0,7.5688-8.21,24.26,24.26,0,0,0,2.5588-7.0385c.1718-.8661.2677-1.5451.3175-2.0054a3.9133,3.9133,0,0,1,.1073-.7,3.9008,3.9008,0,0,1-.0106.7089,17.3251,17.3251,0,0,1-.2288,2.03,23.4523,23.4523,0,0,1-10.0573,15.602,24.0115,24.0115,0,0,1-13.5477,4.0168l.2293-.1269a33.5538,33.5538,0,0,1-4.01,5.3484,34.4171,34.4171,0,0,1-13.7417,9.1555,33.9049,33.9049,0,0,1-22.3326.07c-1.0152-.3665-1.7935-.6771-2.3055-.9234A5.2643,5.2643,0,0,1,263.4116,387.4937Z" style="fill:#263238"/><path d="M346.0313,341.5059c-.0891-.031.3684-1.1882.6641-3.1431a17.226,17.226,0,0,0-4.2669-14.247c-1.3216-1.47-2.34-2.1855-2.2823-2.26a2.54,2.54,0,0,1,.7528.4459,13.7526,13.7526,0,0,1,1.8038,1.5574,16.2948,16.2948,0,0,1,4.3631,14.5683,13.7388,13.7388,0,0,1-.6508,2.2926A2.5412,2.5412,0,0,1,346.0313,341.5059Z" style="fill:#263238"/><path d="M346.6781,312.7979c.0143-.094,1.03.118,2.6565-.0178a11.1378,11.1378,0,0,0,9.6042-7.1837c.59-1.5222.6734-2.5559.7676-2.5431a1.7673,1.7673,0,0,1,.0056.7292,9.0958,9.0958,0,0,1-.4192,1.9407,10.7526,10.7526,0,0,1-9.9365,7.4322,9.0931,9.0931,0,0,1-1.98-.1461A1.7676,1.7676,0,0,1,346.6781,312.7979Z" style="fill:#263238"/><path d="M350.4253,255.1271a5.1309,5.1309,0,0,1,.7924.8935,25.1756,25.1756,0,0,1,1.8649,2.6681,33.2193,33.2193,0,0,1,2.237,4.286A34.6084,34.6084,0,0,1,358.09,274.45a33.2087,33.2087,0,0,1-.035,4.8349,25.17,25.17,0,0,1-.442,3.2249,5.128,5.128,0,0,1-.2974,1.1564c-.0989-.0176.2305-1.684.3641-4.4049a37.9566,37.9566,0,0,0-.0784-4.7752,37.18,37.18,0,0,0-2.7333-11.321,37.9768,37.9768,0,0,0-2.1089-4.2845C351.3991,256.5207,350.3453,255.188,350.4253,255.1271Z" style="fill:#263238"/><g style="opacity:0.30000000000000004"><path d="M365.063,231.7459c.8128-4.7841.6124-10.22-2.2656-14.1275,4.2505,3.3379,5.4309,8.9551,4.5914,14.2937s-3.226,11.0983-8.2956,12.97A31.8749,31.8749,0,0,0,365.063,231.7459Z"/></g><path d="M359.3147,244.569a32.3108,32.3108,0,0,0,3.33-3.0338,17.6757,17.6757,0,0,0,2.6021-20.1364,32.3082,32.3082,0,0,0-2.4488-3.78,4.5662,4.5662,0,0,1,.8734.8585,15.6328,15.6328,0,0,1,1.9075,2.7455,17.3845,17.3845,0,0,1-2.6578,20.5677,15.6367,15.6367,0,0,1-2.5429,2.1706A4.5663,4.5663,0,0,1,359.3147,244.569Z" style="fill:#263238"/><path d="M336.6928,189.3825a19.0115,19.0115,0,0,0,4.8055-3.241,16.0964,16.0964,0,0,0,3.5628-5.125,14.2619,14.2619,0,0,0-1.5273-14.5327,16.0969,16.0969,0,0,0-4.5509-4.2725,19.01,19.01,0,0,0-5.3739-2.1709,1.1918,1.1918,0,0,1,.409.0239,8.8957,8.8957,0,0,1,1.1571.2007,13.9815,13.9815,0,0,1,4.0032,1.6251,15.9336,15.9336,0,0,1,4.7516,4.3053,14.5022,14.5022,0,0,1,1.5786,15.0209,15.9322,15.9322,0,0,1-3.7522,5.1987,13.9793,13.9793,0,0,1-3.5781,2.4221,8.8888,8.8888,0,0,1-1.09.4369A1.1937,1.1937,0,0,1,336.6928,189.3825Z" style="fill:#263238"/><path d="M306.4812,208.2567a1.5461,1.5461,0,0,1-.1058-.455,11.3476,11.3476,0,0,1-.1721-1.3282,17.667,17.667,0,0,1,.31-4.9166,19.7888,19.7888,0,0,1,2.7261-6.7813,18.336,18.336,0,0,1,14.9983-8.7137,19.7887,19.7887,0,0,1,7.2419.9906,17.6713,17.6713,0,0,1,4.4245,2.1657,11.36,11.36,0,0,1,1.0685.8072c.2362.1944.3541.3029.3427.3173a23.9571,23.9571,0,0,0-5.95-2.9321,20.0622,20.0622,0,0,0-7.1017-.8594,18.162,18.162,0,0,0-14.6114,8.4889,20.0613,20.0613,0,0,0-2.7707,6.5946A23.9655,23.9655,0,0,0,306.4812,208.2567Z" style="fill:#263238"/><path d="M282.7228,119.0711c.0055-.0044.052.043.138.14l.3753.4405c.33.3894.7985.9824,1.3793,1.7739a36.5378,36.5378,0,0,1,4.2026,7.3186,27.389,27.389,0,0,1,1.7245,5.7226,21.5057,21.5057,0,0,1,.1763,6.9844,22.5637,22.5637,0,0,1-.9046,3.7442,20.44,20.44,0,0,1-1.7218,3.6811,15.8552,15.8552,0,0,1-6.2532,5.9479l-.002-.4453a30.2554,30.2554,0,0,1,8.6734,6.3112,21.7939,21.7939,0,0,1,5.5266,10.0176,17.9884,17.9884,0,0,1-.7525,10.095,14.4874,14.4874,0,0,1-5.9765,7.3776l.0575-.3871a16.1075,16.1075,0,0,1,3.8226,8.2736,22.2718,22.2718,0,0,1-.3278,8.3349,26.2929,26.2929,0,0,1-2.6919,6.9065,40.3223,40.3223,0,0,1-3.5153,5.2872,79.1827,79.1827,0,0,1-5.9914,6.7051l-1.6977,1.6919-.4472.4269a.1059.1059,0,1,1-.0312-.0306l.4165-.4567,1.6381-1.7482a88.9186,88.9186,0,0,0,5.8635-6.78,40.7487,40.7487,0,0,0,3.4338-5.2754,26.0963,26.0963,0,0,0,2.6034-6.82,21.9265,21.9265,0,0,0,.28-8.1655,15.66,15.66,0,0,0-3.7289-8.009l-.2068-.2291.2644-.1583a14.0025,14.0025,0,0,0,5.7438-7.13,17.5047,17.5047,0,0,0,.7237-9.7958,21.3318,21.3318,0,0,0-5.3878-9.7723,29.8881,29.8881,0,0,0-8.5127-6.2233l-.443-.22.4411-.2253a15.4186,15.4186,0,0,0,6.081-5.7447,20.0826,20.0826,0,0,0,1.7-3.5854,22.2636,22.2636,0,0,0,.9077-3.66,24.09,24.09,0,0,0-1.768-12.5285,38.4837,38.4837,0,0,0-4.0529-7.3409c-.5578-.8035-1.0044-1.4112-1.3121-1.8167-.1386-.1886-.251-.3414-.3425-.4658A.7047.7047,0,0,1,282.7228,119.0711Z" style="fill:#263238"/><path d="M282.8593,112.159a4.1149,4.1149,0,0,1,.6575-.3958,15.9537,15.9537,0,0,1,2.0085-.9019,21.3167,21.3167,0,0,1,7.9747-1.2621,29.9936,29.9936,0,0,1,11.6371,2.8014,63.9934,63.9934,0,0,1,12.4912,7.7154,21.2135,21.2135,0,0,1,6.44,7.6221,11.7077,11.7077,0,0,1,.6143,8.8239l-.318-.285a38.5407,38.5407,0,0,1,7.2252-2.7446,31.5188,31.5188,0,0,1,5.8821-.9513,37.9925,37.9925,0,0,1,3.83-.0635l1.007.0559a1.2675,1.2675,0,0,1,.3443.0446,1.2828,1.2828,0,0,1-.3464.0277l-1.0063.0135c-.8806.0176-2.1729.04-3.8066.19a32.8962,32.8962,0,0,0-5.8062,1.0471,39.2453,39.2453,0,0,0-7.1184,2.7927l-.52.2592.2015-.5443a11.2864,11.2864,0,0,0-.6494-8.4534,20.8741,20.8741,0,0,0-6.3031-7.4179,65.1963,65.1963,0,0,0-12.3614-7.685,30.1536,30.1536,0,0,0-11.4472-2.8725,22.0508,22.0508,0,0,0-7.8949,1.0813,20.7132,20.7132,0,0,0-2.03.8029A4.1561,4.1561,0,0,1,282.8593,112.159Z" style="fill:#263238"/><path d="M311.2952,102.3151a1.7869,1.7869,0,0,1,.6985-.2141,9.8162,9.8162,0,0,1,1.9805-.174,11.7151,11.7151,0,0,1,10.5433,6.7846,9.8119,9.8119,0,0,1,.6623,1.8744,1.7864,1.7864,0,0,1,.0946.7243c-.09.0249-.3238-.9851-1.0932-2.4307a12.2735,12.2735,0,0,0-10.2206-6.5768C312.3261,102.2015,311.31,102.4072,311.2952,102.3151Z" style="fill:#263238"/><path d="M262.085,89.146a36.2942,36.2942,0,0,1,8.7686-.2039,36.309,36.309,0,0,1-8.7686.2039Z" style="fill:#263238"/><path d="M263.8147,129.1241c-.0514-.0268.3152-.668.777-1.9066a18.5038,18.5038,0,0,0,1.1168-5.4449,18.0732,18.0732,0,0,0-1.4524-8.0386,25.81,25.81,0,0,0-2.4628-4.2069,23.8159,23.8159,0,0,1-2.64-4.64,8.638,8.638,0,0,1-.5845-2.6946,7.9222,7.9222,0,0,1,.36-2.6562c.5056-1.6785,1.3127-3.1331,1.8375-4.5886a13.7945,13.7945,0,0,0,.3616-8.0823,14.53,14.53,0,0,0-2.3487-5.0088c-.7925-1.0548-1.3393-1.5529-1.3-1.5929a2.0239,2.0239,0,0,1,.4126.3426,10.7891,10.7891,0,0,1,1.0509,1.1238,14.1632,14.1632,0,0,1,2.2841,13.3841c-.5306,1.5039-1.3251,2.9639-1.7984,4.5689a7.4328,7.4328,0,0,0,.2214,5.0154c1.3151,3.307,3.86,5.8533,5.0556,8.84a18.0671,18.0671,0,0,1,1.3781,8.2559,17.349,17.349,0,0,1-1.3,5.4987,12.4026,12.4026,0,0,1-.6809,1.3784A2.0239,2.0239,0,0,1,263.8147,129.1241Z" style="fill:#263238"/><path d="M265.1565,178.973c-.015.0067-.0825-.098-.1779-.3147a4.0617,4.0617,0,0,1-.27-1,7.0844,7.0844,0,0,1,.6065-3.7335c.5982-1.5015,1.7271-3.05,2.5365-4.9473a20.6184,20.6184,0,0,0,1.6482-6.49,22.4,22.4,0,0,0-2.2871-11.8688,34.2779,34.2779,0,0,0-2.76-4.28,6.8289,6.8289,0,0,1,.9687.9863,18.7872,18.7872,0,0,1,2.1238,3.1187,21.7612,21.7612,0,0,1,2.4839,12.09,20.3573,20.3573,0,0,1-1.7308,6.644c-.8662,1.95-2.02,3.4626-2.6389,4.8971a7.3117,7.3117,0,0,0-.7456,3.5609A13.18,13.18,0,0,0,265.1565,178.973Z" style="fill:#263238"/><path d="M238.3752,194.6489c.0774-.0611.827,1.0254,2.4219,2.3757a15.7982,15.7982,0,0,0,15.2418,3.01c1.9886-.6425,3.0947-1.3624,3.1431-1.2764a2.777,2.777,0,0,1-.746.5462,13.1122,13.1122,0,0,1-2.2746,1.0857,15.2037,15.2037,0,0,1-15.6127-3.0836,13.1117,13.1117,0,0,1-1.6912-1.869A2.779,2.779,0,0,1,238.3752,194.6489Z" style="fill:#263238"/><path d="M272.0117,229.69a1.4381,1.4381,0,0,1-.9109.2794,4.7,4.7,0,0,1-2.4917-.7144,45.06,45.06,0,0,1-6.7755-5.038,47.283,47.283,0,0,1-5.7722-6.1534c-.6614-.8541-1.1668-1.5671-1.4983-2.0716a3.2167,3.2167,0,0,1-.4667-.8169c.067-.0477.8692,1.0151,2.2565,2.651a61.3372,61.3372,0,0,0,5.8351,5.9944,57.7126,57.7126,0,0,0,6.6092,5.1089,4.9169,4.9169,0,0,0,2.3011.8331C271.682,229.7894,271.9956,229.64,272.0117,229.69Z" style="fill:#263238"/><path d="M256.1873,236.6545c-.049-.0744.6864-.5438,1.646-1.5344a11.3138,11.3138,0,0,0,3.0912-9.8368c-.2205-1.3614-.5551-2.1669-.4724-2.2a5.2254,5.2254,0,0,1,.8415,2.1281A10.5751,10.5751,0,0,1,258.095,235.39,5.2289,5.2289,0,0,1,256.1873,236.6545Z" style="fill:#263238"/><g style="opacity:0.30000000000000004"><path d="M336.1378,189.14a20.1906,20.1906,0,0,0-29.8355,18.0614,18.5616,18.5616,0,0,1,18.961-23.7911c3.8288.24,7.7183,1.6556,11.4084.6065a13.0346,13.0346,0,0,0,5.4589-3.49c2.2122-2.1982,4.0712-5.1058,3.8175-8.2141,0,0,2.2491,7.0078-2.0421,11.29S336.1378,189.14,336.1378,189.14Z"/></g><g style="opacity:0.30000000000000004"><path d="M317.0035,116.8383a25.76,25.76,0,0,1,6.9437,6.7437,13.57,13.57,0,0,1,2.3381,9.2343,48.0845,48.0845,0,0,1,16.3672-.1983c-7.0712.5662-12.1238.2394-17.885,3.917a19.69,19.69,0,0,0-5.1373-14.3789,32.5618,32.5618,0,0,0-12.98-8.5418,97.2687,97.2687,0,0,0-15.151-4.0175C300.4786,108.66,309.6035,111.6657,317.0035,116.8383Z"/></g><g style="opacity:0.30000000000000004"><path d="M261.9254,89.0879l6.2981-.41a5.4331,5.4331,0,0,0,2.6688-.6428,12.963,12.963,0,0,0-5.2229-.6723,1.5245,1.5245,0,0,1-1.9134-1.262,13.1047,13.1047,0,0,0-4.4832-5.3717,8.5224,8.5224,0,0,0,1.5091,4.1335,5.998,5.998,0,0,1,1.0233,4.225"/></g><g style="opacity:0.30000000000000004"><path d="M261.48,223.7818a23.39,23.39,0,0,0,14.3461,6.5281,12.4941,12.4941,0,0,1-10.0529.1682,30.0947,30.0947,0,0,1-4.9187,5.77c-1.945,1.6253-5.3428,1.7791-7.8723,1.6187,2.22-1.33,5.4613-1.7688,6.73-4.0239a15.0452,15.0452,0,0,0,1.4394-5.9979c.1633-1.6727.2459-3.5878-.94-4.779"/></g><g style="opacity:0.30000000000000004"><path d="M343.2293,258.0234a8.0172,8.0172,0,0,0-4.3835-2.3792,21.5935,21.5935,0,0,0-5.0522-.3073,5.8586,5.8586,0,0,0-2.3628-4.5011.5207.5207,0,0,0-.38-.1384c-.3071.0564-.278.5027-.186.8011a7.955,7.955,0,0,1-.468,5.81c-.1274.2572-.2489.6164-.02.789a.5941.5941,0,0,0,.3411.0844,58.6243,58.6243,0,0,0,6.26-.3628,16.05,16.05,0,0,1,6.2111.5267"/></g><g style="opacity:0.30000000000000004"><path d="M258.4838,318.3274c3.3044-3.6273,1.3371-3.7114,5.05-6.9148,9.0136-7.7773,10.5237-10.2726,14.8146-16.1175,1.2722-1.7329,1.0315-4.0585,1.551-6.0484.6366-2.4391.5241-5.812,1.81-7.4348,4.0624-5.395,8.32-9.6771,13.2638-10.0285,2.8053-1.7992,8.2619-3.2,11.14-3.5835a53.9514,53.9514,0,0,0,12.56-2.9587c4.7136-1.6649,8.3442-3.2375,11.5248-7.0941l.6508.267c-3.1436,6.1354-9.4856,10.1324-16.12,12.0083a61.8661,61.8661,0,0,1-15.9348,1.88,12.5973,12.5973,0,0,1,1.97.8373c15.43,11.4056,14.7915,23.6043,8.3,32.9042-5.6288,8.0648-9.0776,18.1447-19.2064,22.374-6.8872,2.8757-13.8026,5.6839-20.7054,8.5223,1.3479-2.4084,3.2-4.7915,5.6351-5.9736,4.48-2.1745,9.419-3.39,13.9554-5.466,6.3756-2.9182,11.5848-6.9226,10.2886-15.5123,12.947-6.4923,15.3437-22.81,4.8168-32.283-1.7307-1.5572-6.5193-2.3352-7.9383-1.1443-4.76,3.9939-9.9875,8.4054-12.5407,13.8306-4.2259,8.98-8.3656,17.5041-16.538,23.6727-2.7645,2.0866-4.5123,5.49-6.8556,8.1776a24.0522,24.0522,0,0,1-3.3211,2.6959C256.024,324.3338,259.1141,318.9315,258.4838,318.3274Z"/></g><g style="opacity:0.30000000000000004"><path d="M276.776,261.3793c7.7727-4.2747,12.4336-12.9468,16.1411-20.2558-1.9,10.3021-8.2174,20.2793-17.5749,24.9888a34.634,34.634,0,0,1-30.3253.1574C255.8574,266.5112,267.2746,266.6046,276.776,261.3793Z"/></g><g style="opacity:0.2"><path d="M320.2943,161.2019a9.8083,9.8083,0,0,1,4.3444-1.1539,7.4167,7.4167,0,0,1,2.4915.3283,46.1225,46.1225,0,0,1,8.5118,3.2487,17.1751,17.1751,0,0,1,7.3395,6.9383c.8147,1.5682,1.2607,3.5816.25,5.0314a3.9755,3.9755,0,0,1-3.6433,1.46,9.4361,9.4361,0,0,1-3.8107-1.46c-4.1059-2.4229-7.7256-5.79-12.246-7.3047-2.0507-.6874-4.61-1.303-5.0374-3.5329A3.4512,3.4512,0,0,1,320.2943,161.2019Z" style="fill:#fff"/></g><g style="opacity:0.2"><path d="M295.11,115.1215a9.8083,9.8083,0,0,1,4.3444-1.1539,7.4164,7.4164,0,0,1,2.4915.3283,46.12,46.12,0,0,1,8.5118,3.2487,17.1751,17.1751,0,0,1,7.3395,6.9383c.8147,1.5682,1.2607,3.5816.25,5.0314a3.9754,3.9754,0,0,1-3.6432,1.46,9.4355,9.4355,0,0,1-3.8107-1.46c-4.1059-2.4229-7.7257-5.79-12.2461-7.3047-2.0507-.6874-4.61-1.303-5.0373-3.5329A3.451,3.451,0,0,1,295.11,115.1215Z" style="fill:#fff"/></g><g style="opacity:0.2"><path d="M241.9337,74.2491c1.0846-2.1713,1.952-4.8359,4.0366-6.0789a28.4758,28.4758,0,0,1,11.2858-3.7h0c8.7373-1.3018,17.32,3.0975,24.4153,8.3589s13.563,11.5948,21.64,15.1727a14.1206,14.1206,0,0,1,3.1926,1.6872,3.8054,3.8054,0,0,1,1.583,3.1c-.1538,2.1064-2.546,3.2583-4.6341,3.5751-6.9788,1.059-13.8707-2.3163-19.6348-6.3907s-11.0489-8.9966-17.5412-11.7667c-3.2053-1.3675-7.0777-2.1171-10.0485-.2956-2.0424,1.2521-3.31,3.5253-5.3843,4.7237a6.388,6.388,0,0,1-8.91-8.3858Z" style="fill:#fff"/></g><path d="M361.076,177.638a9.3939,9.3939,0,0,1-.3563-1.5752c-.1838-1.02-.499-2.4873-.94-4.2842-.4331-1.8-1.0529-3.9159-1.84-6.2306a69.7442,69.7442,0,0,0-6.8536-14.32c-1.3091-2.0655-2.5686-3.8757-3.6985-5.3418-1.1225-1.4709-2.0677-2.6368-2.7466-3.42a9.4061,9.4061,0,0,1-1.0031-1.2653,9.3726,9.3726,0,0,1,1.1575,1.1274c.7284.7428,1.7217,1.8765,2.8887,3.3262a62.591,62.591,0,0,1,3.8159,5.3109,64.3749,64.3749,0,0,1,6.9035,14.4242,62.5748,62.5748,0,0,1,1.7426,6.3027c.3971,1.8181.657,3.3031.7786,4.3364A9.3826,9.3826,0,0,1,361.076,177.638Z" style="fill:#fff"/><path d="M339.3839,180.26a18.3546,18.3546,0,0,0,1.9066-2.4811,9.3823,9.3823,0,0,0-3.3245-13.0016,18.3654,18.3654,0,0,0-2.8634-1.2612,2.2936,2.2936,0,0,1,.8554.0963,8.34,8.34,0,0,1,2.1958.8392,9.419,9.419,0,0,1,3.4579,13.523,8.3424,8.3424,0,0,1-1.5235,1.79A2.2957,2.2957,0,0,1,339.3839,180.26Z" style="fill:#fff"/><path d="M289.5434,178.4205a17.5086,17.5086,0,0,1,.2534-1.9021,12.0356,12.0356,0,0,0-2.4261-8.5643,17.4794,17.4794,0,0,1-1.2133-1.4865,4.4675,4.4675,0,0,1,1.5026,1.2464,10.6954,10.6954,0,0,1,2.5092,8.8571A4.468,4.468,0,0,1,289.5434,178.4205Z" style="fill:#fff"/><path d="M335.4717,119.6172c.0407-.05.398.1418.8423.6154a5.5434,5.5434,0,0,1,1.3212,4.7211c-.1339.6354-.34.9848-.4005.9631a12.6838,12.6838,0,0,0-.222-3.3345A12.6888,12.6888,0,0,0,335.4717,119.6172Z" style="fill:#fff"/><path d="M359.6265,234.4637c-.1458-.066.526-1.6129.7177-3.6418.2151-2.0272-.1363-3.6763.02-3.7121a8.1785,8.1785,0,0,1-.7375,7.3539Z" style="fill:#fff"/><path d="M367.9351,281.3255c-.0811-.0491.45-.9187,1.0213-2.4352a17.4935,17.4935,0,0,0-.0316-12.3516c-.58-1.5136-1.1145-2.38-1.0336-2.43.0309-.02.1881.1808.4477.5641a10.919,10.919,0,0,1,.9336,1.7224,15.8894,15.8894,0,0,1,.0323,12.6362,10.91,10.91,0,0,1-.9247,1.7272C368.1223,281.1436,367.9662,281.345,367.9351,281.3255Z" style="fill:#fff"/><path d="M338.63,313.9611c-.067-.0674.6833-.7324,1.4978-2.08a10.2837,10.2837,0,0,0-.4485-11.4952c-.9171-1.28-1.7168-1.8843-1.6552-1.9567.02-.0263.24.0954.5985.3722a8.4342,8.4342,0,0,1,1.3564,1.3575,9.9718,9.9718,0,0,1,.4653,11.9252,8.4344,8.4344,0,0,1-1.2466,1.4591C338.8616,313.8473,338.6519,313.9857,338.63,313.9611Z" style="fill:#fff"/><path d="M340.7128,337.42a37.4714,37.4714,0,0,0-.7428-4.0047A37.4571,37.4571,0,0,0,338.3,329.7a8.5447,8.5447,0,0,1,2.4131,7.72Z" style="fill:#fff"/><path d="M301.0178,302.7882a23.9227,23.9227,0,0,0,2.8011-2.0432,11.816,11.816,0,0,0,2.1306-15.1141,23.956,23.956,0,0,0-2.1269-2.7377,2.8023,2.8023,0,0,1,.7614.5663,10.4,10.4,0,0,1,1.6827,1.97,11.7194,11.7194,0,0,1-2.1987,15.5976,10.3967,10.3967,0,0,1-2.1617,1.4277A2.7982,2.7982,0,0,1,301.0178,302.7882Z" style="fill:#fff"/><path d="M307.0935,369.9075c-.0243-.0961,1.3586-.4216,3.4546-1.2983a28.1616,28.1616,0,0,0,3.55-1.8019,27.7468,27.7468,0,0,0,7.3126-6.3687,28.1691,28.1691,0,0,0,2.2725-3.2686c1.1562-1.9558,1.6685-3.2806,1.76-3.2433a3.6088,3.6088,0,0,1-.2927.9557,18.3527,18.3527,0,0,1-1.1408,2.4734,24.5229,24.5229,0,0,1-2.2156,3.3876,25.7995,25.7995,0,0,1-7.4471,6.4857,24.5025,24.5025,0,0,1-3.6595,1.7293,18.3568,18.3568,0,0,1-2.6067.79A3.6062,3.6062,0,0,1,307.0935,369.9075Z" style="fill:#fff"/><path d="M317.2356,259.26a19.028,19.028,0,0,0,7.9771-8.5965,12.5214,12.5214,0,0,1-7.9771,8.5965Z" style="fill:#fff"/><path d="M281.1994,209.9571c-.1028-.1279,1.946-1.74,3.8728-4.2666,1.948-2.511,2.9807-4.9046,3.1307-4.838a16.9932,16.9932,0,0,1-7.0035,9.1046Z" style="fill:#fff"/><g style="opacity:0.2"><path d="M356.4627,208.1812a3.6773,3.6773,0,0,0-4.262.4378,18.6353,18.6353,0,0,0-2.9575,3.5046c-4.122,5.2652-4.4478,10.5912-10.9917,11.9654s-13.3805,2.1385-19.2423,5.356c-1.4646.8039-2.96,1.9057-3.3385,3.5329a4.4574,4.4574,0,0,0,2.4546,4.6438,9.8716,9.8716,0,0,0,5.5084.8054c6.4939-.5334,12.5321-3.4094,18.4018-6.2379,8.0523-3.88,11.6854-10.2267,15.1042-18.4855C357.14,213.7037,359.2218,210.1888,356.4627,208.1812Z" style="fill:#fff"/></g><g style="opacity:0.2"><path d="M303.2214,240.6657l1.3665-.4961a4.19,4.19,0,1,1-4.34,5.3027A3.9054,3.9054,0,0,1,303.2214,240.6657Z" style="fill:#fff"/></g><path d="M115.8318,132.618s-4.5739-5.2273,3.2671-17.969,7.5144-17.6423,17.9691-21.5628S149.81,86.552,156.9973,80.9979s22.5429-24.83,46.72-18.9492,18.8049,27.4436,19.53,38.5518-1.7057,29.7306,0,39.5319,1.8882,23.85,0,29.7305,0,37.5717,0,37.5717v91.4787s3.3392,83.311-4.8285,92.4589-24.88,20.256-48.868,12.0882-31.8293-15.0286-37.3834-21.2361c0,0-18.0077-7.8411-17.6616-29.0772a36.3418,36.3418,0,0,1-12.069-13.7218c-4.5739-9.1479-10.4547-15.3554-11.7615-24.1765s1.96-11.1082,1.96-11.1082-3.9206-1.3068-5.5541-13.0683-5.8808-18.2958-4.9007-23.5231a20.8712,20.8712,0,0,1,4.574-9.1479s-3.2306-1.6336-4.719-7.841-2.4686-21.2362-2.1419-29.4039,2.2869-12.7417,2.2869-12.7417-.98-23.5231,7.5144-26.79l3.5938-1.6336s-3.5938-2.94.3267-10.128,3.2671-16.0087,6.8609-21.8895S107.6641,131.6379,115.8318,132.618Z" style="fill:#455a64"/><g style="opacity:0.30000000000000004"><path d="M114.0122,296.52l.0994.0278Z"/></g><g style="opacity:0.30000000000000004"><path d="M114.1116,296.548Z"/></g><g style="opacity:0.30000000000000004"><path d="M114.0122,296.52Z"/></g><g style="opacity:0.30000000000000004"><path d="M112.3784,304.4579c.3224-2.6727,1.0771-5.2932,1.6338-7.9377a22.9308,22.9308,0,0,0-4.8338,15.4265c-2.79.3188-6.6477-1.6672-7.8432-1.99,3.303,3.8892,11.0148,8.5288,12.148,13.23,1.1825,4.9057-4.9919,9.1237-2.4884,14.5889,1.7757-1.579.96-2.7943,1.34-4.621,1.9353-9.3012,12.54-8.7146,17.4447-7.4627a83.6742,83.6742,0,0,0-8.6863-4.6194C112.4881,317.3626,111.27,313.65,112.3784,304.4579Z"/></g><g style="opacity:0.30000000000000004"><path d="M134.9021,328.646c-.48-.2645-.9709-.5428-1.4653-.8255l6.7272,6.4077c1.6041.5558,4.8629,1.5583,10.638-2.1436C140.9135,335.8257,138.99,330.8983,134.9021,328.646Z"/></g><g style="opacity:0.30000000000000004"><path d="M129.78,325.6922c1.2423.7271,2.4669,1.448,3.6571,2.1283l-1.217-1.1591A6.4883,6.4883,0,0,0,129.78,325.6922Z"/></g><g style="opacity:0.30000000000000004"><path d="M149.8278,371.9849c5.2251,5.1747,9.64,11.64,15.7606,15.0025,5.7776,3.1743,13.35,3.0857,19.9365,5.304-8.855,2.44-16.7435.7238-24.1344-4.7025-6.8091-4.9992-13.9013-9.6305-21.0252-14.1791-7.2754-4.6453-12.7849-10.5876-15.1391-19.0359-.3845-1.38-.0541-2.9583,1.6428-4.8958.7422,1.9628,1.649,3.8809,2.1973,5.8965,2.0807,7.6487,7.0292,12.8851,14.0335,16.0485C145.2323,372.3861,148.0338,371.8692,149.8278,371.9849Z"/></g><g style="opacity:0.30000000000000004"><path d="M195.2833,144.88c-8.7859,12.5668,2.8579,28.6159-2.767,34.0934-.5749-1.5923.7886-3.38-.175-4.6C184.5606,164.5226,187.2738,149.7763,195.2833,144.88Z"/></g><g style="opacity:0.30000000000000004"><path d="M199.97,369.4891l-9.5766,5.95-12.7018-5.95Z"/></g><path d="M224.3821,263.7123a2.0558,2.0558,0,0,1-.3588.1436l-1.0719.3712-1.75.5875c-.696.2183-1.5173.4073-2.433.6529a58.46,58.46,0,0,1-15.9284,1.7046,57.4184,57.4184,0,0,1-10.9837-1.5659,43.779,43.779,0,0,1-11.7385-4.9152,35.4984,35.4984,0,0,1-10.3666-9.4774c-2.6764-4.1481-4.2123-9.0255-6.79-13.4576a18.9026,18.9026,0,0,0-1.9839-2.8431c-.7463-.8679-1.6065-1.653-2.4094-2.4612a40.9536,40.9536,0,0,0-5.3579-4.1195,49.2962,49.2962,0,0,0-11.6239-5.463,85.2585,85.2585,0,0,0-21.8721-3.744l-.1473-.0081-.0368-.1405c-1.0044-3.8332-1.9342-7.2981-2.8839-10.303-.9363-3.0092-1.8958-5.5536-2.7644-7.5984-.87-2.0447-1.6558-3.5854-2.2-4.6237l-.6382-1.1725a2.6835,2.6835,0,0,1-.2026-.4092,40.5134,40.5134,0,0,1,3.2461,6.1163,77.1949,77.1949,0,0,1,2.8634,7.59c.9807,3.0047,1.9387,6.47,2.9668,10.2973l-.1838-.1483a84.5645,84.5645,0,0,1,22.0078,3.6716,49.5434,49.5434,0,0,1,11.7534,5.4962,41.3023,41.3023,0,0,1,5.4328,4.1692c.8192.8229,1.6791,1.6055,2.4538,2.5047a19.3945,19.3945,0,0,1,2.0391,2.9193c2.6144,4.505,4.1486,9.3791,6.7672,13.4416a35.1664,35.1664,0,0,0,10.1865,9.3449,43.58,43.58,0,0,0,11.5934,4.9064,57.7086,57.7086,0,0,0,10.8882,1.617,60.13,60.13,0,0,0,15.8645-1.53c.916-.2294,1.739-.4019,2.4377-.6037l1.7609-.5375,1.0872-.3206A2.1128,2.1128,0,0,1,224.3821,263.7123Z" style="fill:#263238"/><path d="M199.1455,323.2588a14.0844,14.0844,0,0,0-.4862-4.0515c-.6745-2.5479-2.6949-5.92-6.1184-9.1731-1.6966-1.6376-3.7377-3.2451-5.8514-5.07a32.4,32.4,0,0,1-6.0946-6.5341,17.3358,17.3358,0,0,1-2.086-4.3946,44.6533,44.6533,0,0,1-1.162-4.9112,41.0287,41.0287,0,0,0-1.215-5.02,16.2105,16.2105,0,0,0-2.411-4.6643,23.0083,23.0083,0,0,0-7.9881-6.5813,40.927,40.927,0,0,0-9.1719-3.3123c-6.0716-1.47-11.6961-2.2568-16.2446-3.6909a32.4211,32.4211,0,0,1-10.1176-4.8543,15.5135,15.5135,0,0,1-3.0238-2.8007,1.0458,1.0458,0,0,1,.21.174l.5746.546a23.5231,23.5231,0,0,0,2.3619,1.9136,33.3464,33.3464,0,0,0,10.1035,4.6612c4.527,1.3781,10.1349,2.1223,16.2542,3.5755a41.0492,41.0492,0,0,1,9.2954,3.3261,23.4244,23.4244,0,0,1,8.1756,6.7285,16.6926,16.6926,0,0,1,2.4842,4.8119,41.1377,41.1377,0,0,1,1.2243,5.0863,44.6079,44.6079,0,0,0,1.135,4.8585,16.8991,16.8991,0,0,0,2.0121,4.28,32.263,32.263,0,0,0,5.9736,6.4693c2.0923,1.8322,4.124,3.4593,5.8244,5.1336,3.424,3.3178,5.4331,6.7811,6.0559,9.3882a11.9372,11.9372,0,0,1,.3825,3.0417c-.0236.3237-.0428.5854-.0582.7955A1.026,1.026,0,0,1,199.1455,323.2588Z" style="fill:#263238"/><path d="M113.3265,258.6151a7.0882,7.0882,0,0,1,2.0482-.5633,31.336,31.336,0,0,1,10.2111-.21,7.0853,7.0853,0,0,1,2.0694.4786c-.0256.1615-3.2148-.3538-7.173-.2608C116.5249,258.13,113.3588,258.7753,113.3265,258.6151Z" style="fill:#263238"/><path d="M127.5805,249.5754a13.597,13.597,0,0,0,.0747,9.04,8.48,8.48,0,0,1-.0747-9.04Z" style="fill:#263238"/><path d="M150.7015,309.957c-.0136.0124-.1316-.0986-.3445-.322-.2047-.23-.5393-.5446-.8952-1.0114a21.8065,21.8065,0,0,1-2.67-4.1918,23.6756,23.6756,0,0,1,7.0885-29.5251,21.808,21.808,0,0,1,4.2817-2.5227c.529-.2542.97-.3826,1.2566-.4946a1.5731,1.5731,0,0,1,.4531-.1305,32.4036,32.4036,0,0,0-5.7629,3.4463,24.6256,24.6256,0,0,0-4.9922,5.2534,22.9995,22.9995,0,0,0-4.0486,16.8643,24.6255,24.6255,0,0,0,2.063,6.9467A32.4017,32.4017,0,0,0,150.7015,309.957Z" style="fill:#263238"/><path d="M151.5605,331.4037a9.9,9.9,0,0,1-2.3072,1.917,12.1255,12.1255,0,0,1-3.2207,1.457,8.7558,8.7558,0,0,1-4.6811.0956,9.6382,9.6382,0,0,1-4.6654-3.2145,32.2449,32.2449,0,0,0-4.4024-4.6489c-1.794-1.3409-4.1656-1.8377-6.5971-2.2034-1.2214-.1924-2.479-.379-3.7391-.6953a14.0828,14.0828,0,0,1-3.657-1.4977,14.3283,14.3283,0,0,1-3.1271-2.412,15.893,15.893,0,0,1-2.3875-2.9956,18.0458,18.0458,0,0,1-2.5414-6.7377,18.49,18.49,0,0,1,.22-6.5147,21.3082,21.3082,0,0,1,1.9584-5.3248,23.2537,23.2537,0,0,1,5.0144-6.45,19.0012,19.0012,0,0,1,1.7252-1.4052,4.2213,4.2213,0,0,1,.6461-.4293,4.2591,4.2591,0,0,1-.58.5139c-.395.316-.9572.8086-1.65,1.4718a24.1634,24.1634,0,0,0-4.8216,6.4711,21.261,21.261,0,0,0-1.861,5.2428,18.21,18.21,0,0,0-.1676,6.3471,17.677,17.677,0,0,0,2.4981,6.5366,15.4675,15.4675,0,0,0,2.32,2.8987,13.8809,13.8809,0,0,0,3.0207,2.327,18.8012,18.8012,0,0,0,7.2117,2.1386c2.4309.3736,4.9088.8906,6.8053,2.3233a31.86,31.86,0,0,1,4.4411,4.75,9.3021,9.3021,0,0,0,4.4377,3.1458,8.5237,8.5237,0,0,0,4.5022-.0206,12.3768,12.3768,0,0,0,3.19-1.3464A22.9909,22.9909,0,0,0,151.5605,331.4037Z" style="fill:#263238"/><path d="M160.3265,352.1889a2.6352,2.6352,0,0,1-.9026-.0042,12.1166,12.1166,0,0,1-2.4116-.4892,14.014,14.014,0,0,1-9.8692-11.8852,12.129,12.129,0,0,1-.0378-2.46,2.6334,2.6334,0,0,1,.1618-.8879c.0991.0055-.0645,1.2847.2486,3.2977a14.4849,14.4849,0,0,0,9.6146,11.5787C159.0516,352.0161,160.3393,352.09,160.3265,352.1889Z" style="fill:#263238"/><path d="M194.2611,387.4936a5.2452,5.2452,0,0,1-.7751.3859c-.512.2463-1.29.5569-2.3055.9234a33.9049,33.9049,0,0,1-22.3326-.07,34.4157,34.4157,0,0,1-13.7417-9.1555,33.5545,33.5545,0,0,1-4.01-5.3484l.2294.1269a24.0121,24.0121,0,0,1-13.5478-4.0168,23.4515,23.4515,0,0,1-10.0572-15.602,17.3251,17.3251,0,0,1-.2288-2.03,3.8812,3.8812,0,0,1-.0105-.7089,3.9326,3.9326,0,0,1,.1072.7c.05.46.1457,1.1393.3174,2.0054a24.2579,24.2579,0,0,0,2.5589,7.0385,23.09,23.09,0,0,0,7.5687,8.21,23.7134,23.7134,0,0,0,13.2829,3.8783l.1514-.0025.0783.13a33.3617,33.3617,0,0,0,3.9525,5.26,33.64,33.64,0,0,0,26.7129,11,35.5391,35.5391,0,0,0,8.9036-1.6114c1.0189-.3342,1.806-.6123,2.33-.826A5.2946,5.2946,0,0,1,194.2611,387.4936Z" style="fill:#263238"/><path d="M111.6415,341.5059a2.54,2.54,0,0,1-.3838-.7864,13.7388,13.7388,0,0,1-.6508-2.2926,16.2951,16.2951,0,0,1,4.363-14.5683,13.7557,13.7557,0,0,1,1.8038-1.5573,2.5365,2.5365,0,0,1,.7528-.4459c.0574.0749-.9607.79-2.2822,2.26a17.226,17.226,0,0,0-4.2669,14.247C111.273,340.3177,111.7306,341.4749,111.6415,341.5059Z" style="fill:#263238"/><path d="M110.9946,312.7978a1.7646,1.7646,0,0,1-.6979.2115,9.0937,9.0937,0,0,1-1.98.1461,10.7526,10.7526,0,0,1-9.9366-7.4322,9.0944,9.0944,0,0,1-.4191-1.9407,1.7615,1.7615,0,0,1,.0057-.7292c.0941-.0128.1775,1.0208.7674,2.5431a11.1378,11.1378,0,0,0,9.6043,7.1837C109.965,312.9159,110.98,312.7039,110.9946,312.7978Z" style="fill:#263238"/><path d="M107.2474,255.1271c.08.0609-.9737,1.3936-2.3341,3.7539a37.9606,37.9606,0,0,0-2.1088,4.2845,37.1766,37.1766,0,0,0-2.7334,11.321,37.9756,37.9756,0,0,0-.0784,4.7752c.1336,2.7209.4631,4.3873.3641,4.4049a5.128,5.128,0,0,1-.2974-1.1564,25.1911,25.1911,0,0,1-.4419-3.2249,33.1945,33.1945,0,0,1-.035-4.8349,34.6019,34.6019,0,0,1,2.7707-11.4757,33.1943,33.1943,0,0,1,2.237-4.286,25.1775,25.1775,0,0,1,1.8648-2.6681A5.131,5.131,0,0,1,107.2474,255.1271Z" style="fill:#263238"/><g style="opacity:0.30000000000000004"><path d="M92.61,231.7459c-.8129-4.7841-.6125-10.22,2.2655-14.1275-4.25,3.3379-5.4308,8.9551-4.5913,14.2937S93.51,243.01,98.58,244.8825A31.8734,31.8734,0,0,1,92.61,231.7459Z"/></g><path d="M98.3581,244.569a4.5663,4.5663,0,0,1-1.0631-.6083,15.6283,15.6283,0,0,1-2.5429-2.1706,17.3847,17.3847,0,0,1-2.6579-20.5677,15.6328,15.6328,0,0,1,1.9075-2.7455,4.5614,4.5614,0,0,1,.8735-.8584,32.2891,32.2891,0,0,0-2.4488,3.78,17.6759,17.6759,0,0,0,2.602,20.1364A32.3041,32.3041,0,0,0,98.3581,244.569Z" style="fill:#263238"/><path d="M120.98,189.3824a1.19,1.19,0,0,1-.3952-.1084,8.8824,8.8824,0,0,1-1.09-.4369,13.98,13.98,0,0,1-3.5781-2.4221,15.9338,15.9338,0,0,1-3.7523-5.1987,14.5025,14.5025,0,0,1,1.5787-15.0209,15.9333,15.9333,0,0,1,4.7515-4.3053,13.9831,13.9831,0,0,1,4.0033-1.6251,8.8718,8.8718,0,0,1,1.1571-.2006,1.1918,1.1918,0,0,1,.409-.0239,19.005,19.005,0,0,0-5.3739,2.1708,16.0969,16.0969,0,0,0-4.5509,4.2725,14.2616,14.2616,0,0,0-1.5274,14.5327,16.0966,16.0966,0,0,0,3.5629,5.125A19.0035,19.0035,0,0,0,120.98,189.3824Z" style="fill:#263238"/><path d="M151.1916,208.2567a23.97,23.97,0,0,0-.4-6.622,20.0634,20.0634,0,0,0-2.7707-6.5946,18.1624,18.1624,0,0,0-14.6114-8.4889,20.0619,20.0619,0,0,0-7.1017.8594,23.9681,23.9681,0,0,0-5.95,2.932c-.0114-.0143.1065-.1229.3428-.3172a11.3247,11.3247,0,0,1,1.0684-.8072,17.6688,17.6688,0,0,1,4.4246-2.1657,19.7882,19.7882,0,0,1,7.2418-.9906,18.3357,18.3357,0,0,1,14.9983,8.7137,19.7871,19.7871,0,0,1,2.7262,6.7813,17.67,17.67,0,0,1,.31,4.9166,11.33,11.33,0,0,1-.172,1.3282A1.5461,1.5461,0,0,1,151.1916,208.2567Z" style="fill:#263238"/><path d="M174.95,119.0711a.7036.7036,0,0,1-.1052.1669l-.3424.4657c-.3077.4055-.7543,1.0133-1.3121,1.8167a38.4939,38.4939,0,0,0-4.0529,7.341,24.091,24.091,0,0,0-1.7679,12.5285,22.253,22.253,0,0,0,.9076,3.66,20.0831,20.0831,0,0,0,1.7,3.5854,15.4186,15.4186,0,0,0,6.081,5.7447l.4411.2253-.4431.22a29.8877,29.8877,0,0,0-8.5126,6.2233,21.3329,21.3329,0,0,0-5.3879,9.7723,17.5047,17.5047,0,0,0,.7238,9.7958,14.002,14.002,0,0,0,5.7438,7.13l.2643.1583-.2068.2291a15.66,15.66,0,0,0-3.7289,8.009,21.9286,21.9286,0,0,0,.28,8.1655,26.0927,26.0927,0,0,0,2.6033,6.82,40.7593,40.7593,0,0,0,3.4339,5.2754,88.896,88.896,0,0,0,5.8635,6.78l1.638,1.7482.4165.4567a.1059.1059,0,1,1-.0313.0306l-.4471-.4269-1.6976-1.6919a79.1668,79.1668,0,0,1-5.9914-6.7051,40.3123,40.3123,0,0,1-3.5153-5.2872,26.293,26.293,0,0,1-2.692-6.9065,22.27,22.27,0,0,1-.3277-8.3349,16.1059,16.1059,0,0,1,3.8226-8.2736l.0574.3871a14.4874,14.4874,0,0,1-5.9765-7.3776,17.9892,17.9892,0,0,1-.7524-10.095,21.7938,21.7938,0,0,1,5.5265-10.0176,30.2568,30.2568,0,0,1,8.6734-6.3112l-.002.4453a15.8549,15.8549,0,0,1-6.2531-5.9479,20.4474,20.4474,0,0,1-1.7219-3.6811,22.5533,22.5533,0,0,1-.9045-3.7442,21.5,21.5,0,0,1,.1763-6.9844,27.383,27.383,0,0,1,1.7245-5.7226,36.5426,36.5426,0,0,1,4.2025-7.3187c.5809-.7915,1.05-1.3845,1.3793-1.7738l.3753-.4406C174.8979,119.114,174.9444,119.0666,174.95,119.0711Z" style="fill:#263238"/><path d="M174.8135,112.1589a4.1585,4.1585,0,0,1-.705-.3,20.7138,20.7138,0,0,0-2.03-.8028,22.0512,22.0512,0,0,0-7.8949-1.0813,30.1531,30.1531,0,0,0-11.4472,2.8725,65.1931,65.1931,0,0,0-12.3614,7.685,20.8721,20.8721,0,0,0-6.3031,7.4179,11.2859,11.2859,0,0,0-.6494,8.4534l.2015.5444-.52-.2593a39.2453,39.2453,0,0,0-7.1184-2.7927,32.8972,32.8972,0,0,0-5.8063-1.0471c-1.6336-.15-2.926-.1723-3.8065-.19l-1.0064-.0134a1.2759,1.2759,0,0,1-.3464-.0278,1.2685,1.2685,0,0,1,.3443-.0446l1.007-.0559a38.0006,38.0006,0,0,1,3.83.0636,31.52,31.52,0,0,1,5.8821.9513,38.5433,38.5433,0,0,1,7.2252,2.7446l-.3181.285a11.7077,11.7077,0,0,1,.6144-8.8239,21.2122,21.2122,0,0,1,6.44-7.6221,63.994,63.994,0,0,1,12.4913-7.7154,29.9928,29.9928,0,0,1,11.637-2.8014,21.3167,21.3167,0,0,1,7.9747,1.2621,15.9272,15.9272,0,0,1,2.0086.9019A4.1362,4.1362,0,0,1,174.8135,112.1589Z" style="fill:#263238"/><path d="M146.3775,102.315c-.0146.0922-1.0309-.1135-2.6654-.0122a12.2738,12.2738,0,0,0-10.2206,6.5768c-.7694,1.4456-1.0032,2.4556-1.0932,2.4307a1.7879,1.7879,0,0,1,.0947-.7243,9.8033,9.8033,0,0,1,.6622-1.8744,11.7154,11.7154,0,0,1,10.5433-6.7846,9.8154,9.8154,0,0,1,1.9805.174A1.7863,1.7863,0,0,1,146.3775,102.315Z" style="fill:#263238"/><path d="M195.5878,89.1459a18.3025,18.3025,0,0,1-4.39.1639,18.3071,18.3071,0,0,1-4.3783-.3678,18.324,18.324,0,0,1,4.3907-.1638A18.3241,18.3241,0,0,1,195.5878,89.1459Z" style="fill:#263238"/><path d="M193.8581,129.1241a2.0272,2.0272,0,0,1-.2885-.4519,12.3938,12.3938,0,0,1-.6809-1.3784,17.3486,17.3486,0,0,1-1.3-5.4987,18.0671,18.0671,0,0,1,1.3781-8.2559c1.1955-2.987,3.7406-5.5333,5.0556-8.84a7.4328,7.4328,0,0,0,.2215-5.0154c-.4734-1.605-1.2679-3.065-1.7984-4.5689a14.1636,14.1636,0,0,1,2.284-13.3841,10.8092,10.8092,0,0,1,1.051-1.1238,2.0206,2.0206,0,0,1,.4126-.3425c.04.04-.5072.538-1.3,1.5928a14.5319,14.5319,0,0,0-2.3488,5.0088,13.7946,13.7946,0,0,0,.3617,8.0823c.5248,1.4555,1.3319,2.91,1.8374,4.5886a7.9248,7.9248,0,0,1,.3605,2.6562,8.6353,8.6353,0,0,1-.5846,2.6946,23.81,23.81,0,0,1-2.64,4.64,25.81,25.81,0,0,0-2.4629,4.2069,18.0732,18.0732,0,0,0-1.4523,8.0386,18.5006,18.5006,0,0,0,1.1168,5.4449C193.5429,128.4561,193.91,129.0973,193.8581,129.1241Z" style="fill:#263238"/><path d="M192.5163,178.973a13.2016,13.2016,0,0,0,.2423-1.3375,7.3123,7.3123,0,0,0-.7455-3.5609c-.6189-1.4345-1.7728-2.9472-2.6389-4.8971a20.3548,20.3548,0,0,1-1.7308-6.644,21.7621,21.7621,0,0,1,2.4838-12.09,18.7872,18.7872,0,0,1,2.1238-3.1187,6.8319,6.8319,0,0,1,.9688-.9863,34.27,34.27,0,0,0-2.76,4.28,22.4,22.4,0,0,0-2.2871,11.8688,20.6184,20.6184,0,0,0,1.6483,6.49c.8094,1.8974,1.9382,3.4458,2.5364,4.9473a7.0856,7.0856,0,0,1,.6066,3.7335,4.0669,4.0669,0,0,1-.27,1C192.5988,178.8751,192.5313,178.98,192.5163,178.973Z" style="fill:#263238"/><path d="M219.2975,194.6488a2.7769,2.7769,0,0,1-.4823.789,13.11,13.11,0,0,1-1.6911,1.869,15.2038,15.2038,0,0,1-15.6128,3.0836,13.12,13.12,0,0,1-2.2746-1.0857,2.7786,2.7786,0,0,1-.7459-.5463c.0484-.0859,1.1545.634,3.143,1.2765a15.7981,15.7981,0,0,0,15.2418-3.01C218.4706,195.6743,219.22,194.5878,219.2975,194.6488Z" style="fill:#263238"/><path d="M185.661,229.69c.0161-.05.33.0994.9134.0724a4.9169,4.9169,0,0,0,2.3012-.8331,57.7127,57.7127,0,0,0,6.6091-5.1089,61.34,61.34,0,0,0,5.8352-5.9944c1.3872-1.6359,2.1894-2.6987,2.2565-2.651a3.2167,3.2167,0,0,1-.4667.8169c-.3315.5045-.837,1.2175-1.4983,2.0716a47.2847,47.2847,0,0,1-5.7723,6.1534,45.0546,45.0546,0,0,1-6.7754,5.038,4.7007,4.7007,0,0,1-2.4917.7144A1.439,1.439,0,0,1,185.661,229.69Z" style="fill:#263238"/><path d="M201.4855,236.6544a5.2241,5.2241,0,0,1-1.9077-1.2643,10.5751,10.5751,0,0,1-3.1986-10.1786,5.2246,5.2246,0,0,1,.8415-2.1281c.0827.033-.2519.8385-.4724,2.2A11.3131,11.3131,0,0,0,199.84,235.12C200.7991,236.1107,201.5345,236.58,201.4855,236.6544Z" style="fill:#263238"/><g style="opacity:0.30000000000000004"><path d="M121.5349,189.14A20.1906,20.1906,0,0,1,151.37,207.2012,18.5616,18.5616,0,0,0,132.41,183.41c-3.8288.24-7.7184,1.6556-11.4085.6065a13.0352,13.0352,0,0,1-5.4589-3.49c-2.2121-2.1982-4.0712-5.1058-3.8175-8.2141,0,0-2.249,7.0078,2.0422,11.29S121.5349,189.14,121.5349,189.14Z"/></g><g style="opacity:0.30000000000000004"><path d="M140.6693,116.8383a25.7618,25.7618,0,0,0-6.9438,6.7437,13.5705,13.5705,0,0,0-2.3381,9.2343,48.0839,48.0839,0,0,0-16.3671-.1983c7.0711.5662,12.1237.2394,17.885,3.917a19.69,19.69,0,0,1,5.1372-14.3789,32.5624,32.5624,0,0,1,12.98-8.5418,97.2717,97.2717,0,0,1,15.151-4.0175C157.1941,108.66,148.0692,111.6657,140.6693,116.8383Z"/></g><g style="opacity:0.30000000000000004"><path d="M195.7474,89.0879l-6.2981-.41a5.4338,5.4338,0,0,1-2.6689-.6428,12.9632,12.9632,0,0,1,5.223-.6723,1.5244,1.5244,0,0,0,1.9133-1.262A13.1047,13.1047,0,0,1,198.4,80.7289a8.5223,8.5223,0,0,1-1.509,4.1335,5.998,5.998,0,0,0-1.0234,4.225"/></g><g style="opacity:0.30000000000000004"><path d="M196.1928,223.7818a23.39,23.39,0,0,1-14.3461,6.5281,12.4938,12.4938,0,0,0,10.0528.1682,30.0952,30.0952,0,0,0,4.9188,5.77c1.9449,1.6253,5.3427,1.7791,7.8723,1.6187-2.22-1.33-5.4614-1.7688-6.73-4.0239a15.0435,15.0435,0,0,1-1.4394-5.9979c-.1634-1.6727-.2459-3.5878.94-4.779"/></g><g style="opacity:0.30000000000000004"><path d="M114.4434,258.0234a8.0172,8.0172,0,0,1,4.3835-2.3792,21.5935,21.5935,0,0,1,5.0522-.3073,5.8587,5.8587,0,0,1,2.3629-4.5011.5206.5206,0,0,1,.38-.1384c.3071.0564.278.5027.186.8011a7.954,7.954,0,0,0,.468,5.81c.1274.2572.2489.6164.02.789a.5939.5939,0,0,1-.3411.0844,58.6209,58.6209,0,0,1-6.26-.3628,16.0507,16.0507,0,0,0-6.2112.5267"/></g><g style="opacity:0.30000000000000004"><path d="M199.1889,318.3274c-3.3044-3.6273-1.337-3.7114-5.0494-6.9148-9.0137-7.7773-10.5238-10.2726-14.8147-16.1175-1.2722-1.7329-1.0315-4.0585-1.5509-6.0484-.6367-2.4391-.5242-5.812-1.81-7.4348-4.0625-5.395-8.32-9.6771-13.2639-10.0285-2.8053-1.7992-8.2619-3.2-11.14-3.5835a53.9506,53.9506,0,0,1-12.56-2.9587c-4.7136-1.6649-8.3443-3.2375-11.5248-7.0941l-.6508.267c3.1436,6.1354,9.4856,10.1324,16.1194,12.0083a61.8661,61.8661,0,0,0,15.9348,1.88,12.5963,12.5963,0,0,0-1.97.8373c-15.43,11.4056-14.7915,23.6043-8.3,32.9042,5.6288,8.0648,9.0776,18.1447,19.2065,22.374,6.8872,2.8757,13.8026,5.6839,20.7054,8.5223-1.3479-2.4084-3.2-4.7915-5.6352-5.9736-4.48-2.1745-9.419-3.39-13.9553-5.466-6.3757-2.9182-11.5849-6.9226-10.2887-15.5123-12.9469-6.4923-15.3437-22.81-4.8168-32.283,1.7307-1.5572,6.5193-2.3352,7.9383-1.1443,4.76,3.9939,9.9875,8.4054,12.5407,13.8306,4.2259,8.98,8.3657,17.5041,16.538,23.6727,2.7645,2.0866,4.5124,5.49,6.8557,8.1776a24.0453,24.0453,0,0,0,3.321,2.6959C201.6488,324.3338,198.5586,318.9315,199.1889,318.3274Z"/></g><g style="opacity:0.30000000000000004"><path d="M180.8968,261.3793c-7.7728-4.2747-12.4337-12.9468-16.1412-20.2558,1.9,10.3021,8.2174,20.2793,17.5749,24.9888a34.6342,34.6342,0,0,0,30.3254.1574C201.8154,266.5112,190.3981,266.6046,180.8968,261.3793Z"/></g><g style="opacity:0.2"><path d="M137.3785,161.2019a9.8083,9.8083,0,0,0-4.3444-1.1539,7.4173,7.4173,0,0,0-2.4916.3283,46.1215,46.1215,0,0,0-8.5117,3.2487,17.1759,17.1759,0,0,0-7.34,6.9383c-.8146,1.5682-1.2606,3.5816-.25,5.0314a3.9753,3.9753,0,0,0,3.6432,1.46,9.4361,9.4361,0,0,0,3.8107-1.46c4.1059-2.4229,7.7257-5.79,12.246-7.3047,2.0507-.6874,4.61-1.303,5.0374-3.5329A3.4511,3.4511,0,0,0,137.3785,161.2019Z" style="fill:#fff"/></g><g style="opacity:0.2"><path d="M162.5624,115.1215a9.8086,9.8086,0,0,0-4.3444-1.1539,7.4173,7.4173,0,0,0-2.4916.3283,46.1225,46.1225,0,0,0-8.5118,3.2487,17.1762,17.1762,0,0,0-7.3395,6.9383c-.8146,1.5682-1.2606,3.5816-.25,5.0314a3.9753,3.9753,0,0,0,3.6432,1.46,9.4361,9.4361,0,0,0,3.8107-1.46c4.1059-2.4229,7.7256-5.79,12.246-7.3047,2.0507-.6874,4.6095-1.303,5.0374-3.5329A3.4511,3.4511,0,0,0,162.5624,115.1215Z" style="fill:#fff"/></g><g style="opacity:0.2"><path d="M215.739,74.2491c-1.0846-2.1713-1.952-4.8359-4.0365-6.0789a28.4763,28.4763,0,0,0-11.2858-3.7h0c-8.7374-1.3018-17.32,3.0975-24.4154,8.3589s-13.5629,11.5948-21.64,15.1727a14.1213,14.1213,0,0,0-3.1927,1.6872,3.8054,3.8054,0,0,0-1.583,3.1c.1538,2.1064,2.546,3.2583,4.6341,3.5751,6.9788,1.059,13.8708-2.3163,19.6348-6.3907s11.049-8.9966,17.5413-11.7667c3.2053-1.3675,7.0776-2.1171,10.0485-.2956,2.0423,1.2521,3.31,3.5253,5.3842,4.7237a6.388,6.388,0,0,0,8.91-8.3858Z" style="fill:#fff"/></g><path d="M96.5969,177.6381a9.3481,9.3481,0,0,1,.152-1.6089c.1215-1.0333.3815-2.5183.7785-4.3364A62.5748,62.5748,0,0,1,99.27,165.39a64.3695,64.3695,0,0,1,6.9036-14.4242,62.591,62.591,0,0,1,3.8159-5.3109c1.167-1.45,2.16-2.5834,2.8887-3.3262a9.3569,9.3569,0,0,1,1.1575-1.1273,9.4107,9.4107,0,0,1-1.0032,1.2653c-.6788.7827-1.6241,1.9486-2.7466,3.4195-1.13,1.4661-2.3893,3.2763-3.6984,5.3418a69.7377,69.7377,0,0,0-6.8537,14.32c-.7873,2.3147-1.4071,4.431-1.84,6.2306-.4415,1.7969-.7566,3.2644-.94,4.2842A9.4339,9.4339,0,0,1,96.5969,177.6381Z" style="fill:#fff"/><path d="M118.2889,180.26a2.2916,2.2916,0,0,1-.7043-.4951,8.34,8.34,0,0,1-1.5235-1.79,9.419,9.419,0,0,1,3.4579-13.523,8.34,8.34,0,0,1,2.1957-.8392,2.2964,2.2964,0,0,1,.8554-.0963,18.3672,18.3672,0,0,0-2.8633,1.2612,9.3825,9.3825,0,0,0-3.3246,13.0016A18.3533,18.3533,0,0,0,118.2889,180.26Z" style="fill:#fff"/><path d="M168.1294,178.4205a4.468,4.468,0,0,1-.6258-1.8494,10.6958,10.6958,0,0,1,2.5091-8.8571,4.4655,4.4655,0,0,1,1.5027-1.2463,17.49,17.49,0,0,1-1.2133,1.4864,12.035,12.035,0,0,0-2.4262,8.5643A17.5275,17.5275,0,0,1,168.1294,178.4205Z" style="fill:#fff"/><path d="M122.201,119.6172a12.6888,12.6888,0,0,0-1.541,2.9651,12.6889,12.6889,0,0,0-.222,3.3345c-.0608.0217-.2665-.3277-.4005-.9631a5.543,5.543,0,0,1,1.3213-4.7211C121.8031,119.759,122.16,119.5671,122.201,119.6172Z" style="fill:#fff"/><path d="M98.0463,234.4637a8.1776,8.1776,0,0,1-.7375-7.3538c.156.0357-.1953,1.6848.02,3.712C97.52,232.8508,98.192,234.3977,98.0463,234.4637Z" style="fill:#fff"/><path d="M89.7377,281.3254c-.0311.0195-.1872-.1818-.445-.5665a10.9173,10.9173,0,0,1-.9248-1.7272A15.89,15.89,0,0,1,88.4,266.3955a10.9026,10.9026,0,0,1,.9336-1.7224c.26-.3833.4168-.5838.4477-.5641.0809.05-.454.9161-1.0337,2.43a17.4935,17.4935,0,0,0-.0316,12.3516C89.2882,280.4068,89.8188,281.2764,89.7377,281.3254Z" style="fill:#fff"/><path d="M119.0431,313.9611c-.0222.0246-.2319-.1138-.5678-.4178a8.4388,8.4388,0,0,1-1.2466-1.4591,9.9718,9.9718,0,0,1,.4653-11.9252,8.4382,8.4382,0,0,1,1.3565-1.3575c.3584-.2768.5783-.3984.5984-.3722.0616.0724-.7381.6768-1.6551,1.9567a10.284,10.284,0,0,0-.4486,11.4952C118.36,313.2287,119.11,313.8937,119.0431,313.9611Z" style="fill:#fff"/><path d="M116.96,337.42a8.544,8.544,0,0,1,2.413-7.72,37.4086,37.4086,0,0,0-1.67,3.7151A37.3792,37.3792,0,0,0,116.96,337.42Z" style="fill:#fff"/><path d="M156.655,302.7881a2.7951,2.7951,0,0,1-.8885-.3337,10.4,10.4,0,0,1-2.1618-1.4277,11.7192,11.7192,0,0,1-2.1986-15.5976,10.3928,10.3928,0,0,1,1.6827-1.97,2.7973,2.7973,0,0,1,.7614-.5662,23.9363,23.9363,0,0,0-2.1269,2.7376,11.8161,11.8161,0,0,0,2.1305,15.1141A23.893,23.893,0,0,0,156.655,302.7881Z" style="fill:#fff"/><path d="M150.5792,369.9074a3.5981,3.5981,0,0,1-.987-.1586,18.3573,18.3573,0,0,1-2.6068-.79,24.5019,24.5019,0,0,1-3.6594-1.7293,25.8016,25.8016,0,0,1-7.4472-6.4857,24.5229,24.5229,0,0,1-2.2156-3.3876,18.3654,18.3654,0,0,1-1.1408-2.4734,3.61,3.61,0,0,1-.2926-.9557c.0918-.0374.604,1.2875,1.76,3.2433a28.1672,28.1672,0,0,0,2.2724,3.2686,27.7452,27.7452,0,0,0,7.3127,6.3687,28.1677,28.1677,0,0,0,3.5494,1.8019C149.2207,369.4859,150.6036,369.8114,150.5792,369.9074Z" style="fill:#fff"/><path d="M140.4372,259.26a12.5206,12.5206,0,0,1-7.977-8.5964,26.6971,26.6971,0,0,0,3.31,4.9283A26.7035,26.7035,0,0,0,140.4372,259.26Z" style="fill:#fff"/><path d="M176.4734,209.957a16.991,16.991,0,0,1-7.0035-9.1046c.15-.0665,1.1826,2.3271,3.1307,4.8381C174.5273,208.2166,176.5762,209.8292,176.4734,209.957Z" style="fill:#fff"/><g style="opacity:0.2"><path d="M101.21,208.1812a3.6774,3.6774,0,0,1,4.2621.4378,18.639,18.639,0,0,1,2.9575,3.5046c4.1219,5.2652,4.4477,10.5912,10.9917,11.9654s13.38,2.1385,19.2422,5.356c1.4647.8039,2.9595,1.9057,3.3385,3.5329a4.4573,4.4573,0,0,1-2.4546,4.6438,9.8713,9.8713,0,0,1-5.5084.8054c-6.4938-.5334-12.532-3.4094-18.4017-6.2379-8.0523-3.88-11.6855-10.2267-15.1043-18.4855C100.533,213.7037,98.451,210.1888,101.21,208.1812Z" style="fill:#fff"/></g><g style="opacity:0.2"><path d="M154.4514,240.6657l-1.3665-.4961a4.19,4.19,0,1,0,4.34,5.3027A3.9054,3.9054,0,0,0,154.4514,240.6657Z" style="fill:#fff"/></g></g></g></svg>