<svg xmlns="http://www.w3.org/2000/svg" viewBox="0 0 714.9349 439.0044"><g id="Layer_2" data-name="Layer 2"><g id="Coffee"><rect x="114.2099" y="14.7726" width="6.3621" height="91.233" style="fill:#e0e0e0"/><rect x="26.3067" y="14.7726" width="91.233" height="91.233" style="fill:#f5f5f5"/><rect x="28.835" y="17.3008" width="86.1764" height="86.1765" style="fill:#fff"/><path d="M117.54,14.7726s-.0493.0622-.1553.1746l-.4763.4951-1.86,1.8954-.0148.0152h-.0222c-6.99.0492-23.6515.0838-43.0859.0838-19.44,0-36.1011-.0346-43.09-.0838h-.022l-.0149-.0152-1.86-1.8954-.4764-.4951c-.106-.1124-.1553-.1746-.1553-.1746s.0623.0493.1746.1553l.4951.4763,1.8954,1.86-.0368-.0152c6.9893-.0493,23.65-.0839,43.09-.0839,19.4344,0,36.0964.0346,43.0859.0839l-.0367.0152,1.8953-1.86.4951-.4763C117.4774,14.8219,117.54,14.7726,117.54,14.7726Z" style="fill:#e0e0e0"/><path d="M26.3067,106.0056s.0493-.0622.1553-.1747l.4764-.4951,1.86-1.8952.0149-.0152.022,0c6.99-.0492,23.6516-.0839,43.086-.0839,19.4406,0,36.1011.0347,43.09.0839l.0222,0,.0148.0152,1.86,1.8952c.203.2111.3609.3753.4763.4951.106.1125.1553.1747.1553.1747s-.0623-.0493-.1747-.1553l-.4951-.4763-1.8953-1.86.0367.0153c-6.9892.0492-23.65.0839-43.09.0839-19.4344,0-36.0963-.0347-43.086-.0839l.0368-.0153-1.8954,1.86-.4951.4763C26.369,105.9563,26.3067,106.0056,26.3067,106.0056Z" style="fill:#e0e0e0"/><rect x="58.2108" y="44.0461" width="31.6772" height="31.6772" style="fill:#e0e0e0"/><rect x="29.8667" y="170.9028" width="60.7908" height="15.5436" style="fill:#ebebeb"/><path d="M64.9521,202.8186a1.8051,1.8051,0,0,1-.0188-.2826c-.005-.2078-.0116-.47-.02-.7971q-.0161-1.0973-.0456-3.0588c-.0245-2.6835-.06-6.5412-.104-11.4049l.1882.1817-60.7871.1174c.137-.1334-.3123.2987.3061-.2989v.4961l0,.5v.9966q0,.9945,0,1.9828,0,1.9763-.0012,3.9226-.0022,3.8916-.005,7.6453l-.3028-.2925c17.31.053,32.4571.0994,43.3213.133l12.7869.0834,3.4577.0385c.3723.0077.67.0141.9045.0188a2.287,2.287,0,0,1,.32.019,1.4272,1.4272,0,0,1-.2814.019c-.225.0049-.51.0109-.8672.0187-.8113.0093-1.945.0223-3.3923.0386l-12.7173.0833c-10.9169.0333-26.1376.08-43.5324.1333l-.3028.0008,0-.2939q-.0026-3.7492-.0052-7.6453,0-1.946-.0012-3.9226,0-.988,0-1.9828v-1.9923c.62-.5992.1741-.1662.3135-.3l60.7871.117.19,0-.0015.1821c-.0444,4.91-.08,8.8043-.1042,11.513q-.0291,1.9352-.0456,3.0182c-.008.3139-.0146.5656-.02.7653A1.0893,1.0893,0,0,1,64.9521,202.8186Z" style="fill:#e0e0e0"/><rect x="114.2099" y="132.9574" width="6.3621" height="91.233" style="fill:#e0e0e0"/><rect x="26.3067" y="132.9574" width="91.233" height="91.233" style="fill:#f5f5f5"/><rect x="28.835" y="135.4856" width="86.1764" height="86.1765" style="fill:#fff"/><path d="M117.54,132.9574s-.0493.0622-.1553.1746l-.4763.4951-1.86,1.8954-.0148.0152h-.0222c-6.99.0492-23.6515.0838-43.0859.0838-19.44,0-36.1011-.0346-43.09-.0838h-.022l-.0149-.0152-1.86-1.8954-.4764-.4951c-.106-.1124-.1553-.1746-.1553-.1746s.0623.0493.1746.1553l.4951.4763,1.8954,1.86-.0368-.0151c6.9893-.0493,23.65-.0839,43.09-.0839,19.4344,0,36.0964.0346,43.0859.0839l-.0367.0151c.8184-.8029,1.4543-1.4269,1.8953-1.86l.4951-.4763C117.4774,133.0067,117.54,132.9574,117.54,132.9574Z" style="fill:#e0e0e0"/><path d="M26.3067,224.19s.0493-.0622.1553-.1747l.4764-.4951,1.86-1.8953.0149-.0151.022,0c6.99-.0492,23.6516-.0839,43.086-.0839,19.4406,0,36.1011.0347,43.09.0839l.0222,0,.0148.0151,1.86,1.8953.4763.4951c.106.1125.1553.1747.1553.1747s-.0623-.0493-.1747-.1553l-.4951-.4763-1.8953-1.86.0367.0153c-6.9892.0492-23.65.0838-43.09.0838-19.4344,0-36.0963-.0346-43.086-.0838l.0368-.0153-1.8954,1.86-.4951.4763C26.369,224.1411,26.3067,224.19,26.3067,224.19Z" style="fill:#e0e0e0"/><rect x="58.2108" y="162.2309" width="31.6772" height="31.6772" style="fill:#e0e0e0"/><ellipse cx="87.7593" cy="429.5156" rx="33.601" ry="9.4888" style="fill:#f5f5f5"/><path d="M641.8036,397.3284c-5.5933-6.1844-13.4614-9.72-21.09-13.0857l-51.7762.5258c-2.7282,2.2319-1.0107,6.6136.9459,9.5456,7.2351,10.8422,15.6039,21.2517,26.5462,28.3342s24.8493,10.48,37.2746,6.5417c4.9062-1.555,9.6442-4.3909,12.2223-8.8452C650.1031,413.1278,647.3971,403.5126,641.8036,397.3284Z" style="fill:#f5f5f5"/><polygon points="541.493 435.671 175.464 435.671 183.728 413.977 534.115 413.977 541.493 435.671" style="fill:#f5f5f5"/><rect x="379.7841" width="60.7908" height="15.5436" style="fill:#ebebeb"/><path d="M414.87,31.9158a1.8051,1.8051,0,0,1-.0188-.2826c-.005-.2078-.0116-.47-.02-.7971q-.0161-1.0972-.0456-3.0588c-.0245-2.6835-.06-6.5412-.104-11.4049l.1882.1817-60.7871.1174c.137-.1334-.3123.2987.3061-.2989v.4961l0,.5v.9966q0,.9945,0,1.9828,0,1.9762-.0012,3.9226-.0023,3.8916-.005,7.6453l-.3028-.2925c17.31.053,32.4571.0994,43.3213.133l12.7869.0834,3.4577.0385c.3723.0077.67.0141.9045.0188a2.287,2.287,0,0,1,.32.019,1.4272,1.4272,0,0,1-.2814.019c-.225.0049-.51.0109-.8672.0187-.8113.0093-1.945.0223-3.3923.0386l-12.7173.0833c-10.9169.0333-26.1376.08-43.5324.1333l-.3028.0008,0-.2939q-.0025-3.7492-.0052-7.6453,0-1.9459-.0012-3.9226,0-.988,0-1.9828V16.3726c.62-.5992.1741-.1662.3135-.3l60.7871.117.19,0-.0015.1821c-.0444,4.91-.08,8.8043-.1042,11.513q-.0291,1.9351-.0456,3.0182c-.008.3139-.0146.5656-.02.7653A1.0893,1.0893,0,0,1,414.87,31.9158Z" style="fill:#e0e0e0"/><rect x="641.2482" y="149.561" width="60.7908" height="15.5436" style="fill:#ebebeb"/><path d="M676.3336,181.4768a1.8051,1.8051,0,0,1-.0188-.2826c-.005-.2078-.0116-.47-.02-.7971q-.016-1.0972-.0456-3.0588c-.0245-2.6835-.06-6.5412-.104-11.4049l.1882.1817-60.7871.1174c.137-.1334-.3123.2987.3061-.2989v.4961l0,.5v.9966q0,.9945,0,1.9828,0,1.9762-.0012,3.9226-.0023,3.8916-.005,7.6453l-.3028-.2925c17.31.053,32.4571.0994,43.3213.133l12.7869.0834,3.4577.0385c.3723.0077.67.0141.9045.0188a2.287,2.287,0,0,1,.32.019,1.4272,1.4272,0,0,1-.2814.019c-.225.0049-.51.0109-.8672.0187-.8113.0093-1.945.0223-3.3923.0386l-12.7173.0833c-10.9169.0333-26.1376.08-43.5324.1333l-.3028.0008,0-.2939q-.0025-3.7492-.0052-7.6453,0-1.946-.0012-3.9226,0-.9881,0-1.9828v-1.9923c.62-.5992.1741-.1662.3135-.3l60.7871.117.19,0-.0015.1821c-.0444,4.91-.08,8.8043-.1042,11.513q-.0291,1.9351-.0456,3.0182c-.008.3139-.0146.5656-.02.7653A1.0893,1.0893,0,0,1,676.3336,181.4768Z" style="fill:#e0e0e0"/><rect x="434.7619" y="300.22" width="64.4121" height="15.7942" style="fill:#ebebeb"/><path d="M223.5016,325.2869a2.0908,2.0908,0,0,1-.02-.3076c-.0052-.2269-.0122-.5124-.02-.869q-.0175-1.195-.048-3.3329c-.0254-2.9239-.0625-7.1275-.1091-12.4269l.197.1982-63.6037.1277c.1434-.1452-.327.3255.32-.3257v2.1709q0,1.0839,0,2.16-.0009,2.1535-.0016,4.2742-.0026,4.24-.0054,8.33l-.3168-.3189c18.1128.0581,33.9615.1087,45.3289.145l13.3795.091c1.5436.0179,2.7528.0319,3.6179.0422.3893.0081.701.0151.9463.02a2.3208,2.3208,0,0,1,.335.0208,1.4264,1.4264,0,0,1-.2944.0208c-.2352.0052-.5339.0118-.9074.02l-3.55.0419-13.3063.0908c-11.4229.0363-27.3487.0872-45.55.1452l-.3169.0012,0-.32q-.0027-4.0849-.0055-8.33,0-2.12-.0011-4.2742,0-1.0761,0-2.16l0-1.0859v-1.085c.6482-.6529.1818-.1811.3278-.3267,25.9829.0523,49.0807.0984,63.6037.1278l.1992,0-.0016.1984c-.0466,5.35-.0834,9.5932-.109,12.5449q-.0309,2.1087-.048,3.2887c-.0085.3422-.0151.6162-.0206.834A1.2239,1.2239,0,0,1,223.5016,325.2869Z" style="fill:#e0e0e0"/><path d="M232.1262,308.35a1.8526,1.8526,0,0,1-.0245-.3224c-.0066-.243-.0149-.5376-.0252-.8976q-.0213-1.25-.0578-3.3956c-.03-2.97-.073-7.1637-.1256-12.3208l.2327.2341-38.215.092c-.2911.2913.3913-.3975.3214-.3247v1.1082l0,1.1073-.0006,2.1967q-.0015,2.1833-.0031,4.31c-.0039,2.8331-.0078,5.58-.0115,8.2121l-.3082-.31c11.0326.0594,20.5313.1108,27.3388.1475l7.9637.0858c.8947.0161,1.6066.0291,2.1476.039a6.4659,6.4659,0,0,1,.7676.0382,4.484,4.484,0,0,1-.6939.0382l-2.0835.0391c-1.8984.0205-4.5652.05-7.8932.0857-6.8593.0367-16.43.0878-27.5471.1474l-.3082.0017L193.6,308.35c-.0039-2.6318-.0078-5.379-.0116-8.2121q-.0015-2.1252-.0031-4.31,0-1.0923-.0008-2.1967l0-1.1073v-1.1082c-.071.0689.6151-.6194.3268-.328,14.8451.0359,28.3145.0681,38.215.092l.2356,0-.0025.2341c-.0526,5.2169-.0951,9.4591-.1254,12.4634q-.0366,2.1111-.0578,3.343A9.756,9.756,0,0,1,232.1262,308.35Z" style="fill:#e0e0e0"/><path d="M634.1683,52.1081a2.0908,2.0908,0,0,1-.02-.3076c-.0052-.2269-.0122-.5124-.02-.869q-.0176-1.1951-.048-3.3329c-.0254-2.9239-.0625-7.1275-.1091-12.4269l.197.1982-63.6037.1277c.1434-.1452-.327.3255.32-.3257v2.1709q0,1.0839,0,2.16-.0009,2.1535-.0016,4.2742-.0025,4.24-.0054,8.3305l-.3168-.3189c18.1128.0581,33.9615.1087,45.3289.145l13.38.091c1.5436.0179,2.7528.0319,3.6179.0422.3893.0081.701.0151.9463.02a2.3208,2.3208,0,0,1,.335.0208,1.4264,1.4264,0,0,1-.2944.0208c-.2352.0052-.5339.0118-.9074.02l-3.55.0419-13.3063.0908c-11.4229.0363-27.3487.0872-45.55.1452l-.3169.0012,0-.3205q-.0027-4.085-.0055-8.33,0-2.12-.0011-4.2742,0-1.0761,0-2.16l0-1.0859v-1.085c.6482-.6529.1818-.1811.3278-.3267,25.9829.0523,49.0807.0984,63.6037.1278l.1992,0-.0016.1984c-.0466,5.35-.0834,9.5932-.109,12.5449q-.0309,2.1087-.048,3.2887c-.0085.3422-.0151.6162-.0206.834A1.2239,1.2239,0,0,1,634.1683,52.1081Z" style="fill:#e0e0e0"/><path d="M571.3762,53.321l-.3916-.3951-1.2412.0039V51.675l-.3867-.39.3867.0015-.0068-15.2876-.37.001.37-.375v-.6294l.1455-.1763c.0791-.08.1533-.1538.2226-.22l.1045-.1079.001.0014.1924-.13a.377.377,0,0,1,.3936-.0175l.205,0,.3838-.3857v.3862l62.08.1245-.0049-.5219.52.5229.8916.0025-.0088.8852.5049.5073-.5088.001-.1718,15.9844c-.001.022-.002.0439-.002.0654l.0674.0679-.1192.3057-.0107.0258a.4575.4575,0,0,1-.0693.1172.4245.4245,0,0,1-.1856.1323l-.0156.0064-.3311.1309-.0673-.0777-.0616.002-4.47.0625-13.31.0908-44.7373.1431Zm.002-2.0293,44.5137.142,17.7519.1495-.0635-3.9771-.1035-11.7349-62.0918.125Z" style="fill:#ff9a6c"/><path d="M642.7929,35.1715a1.8526,1.8526,0,0,1-.0245-.3224c-.0066-.243-.0149-.5376-.0252-.8976q-.0213-1.25-.0578-3.3956c-.03-2.97-.073-7.1637-.1256-12.3208l.2327.2341-38.215.092c-.2911.2913.3913-.3975.3214-.3247v1.1082l0,1.1073q0,1.1046-.0006,2.1967-.0015,2.1832-.0031,4.31c-.0039,2.8331-.0078,5.58-.0115,8.2121l-.3082-.31c11.0326.0594,20.5313.1108,27.3388.1475l7.9637.0858c.8947.0161,1.6066.0291,2.1476.039a6.4659,6.4659,0,0,1,.7676.0382,4.484,4.484,0,0,1-.6939.0382l-2.0835.0391c-1.8984.02-4.5652.05-7.8932.0857-6.8593.0367-16.43.0878-27.5471.1474l-.3082.0017-.0006-.3123c-.0039-2.6318-.0078-5.379-.0116-8.2121q-.0015-2.1252-.0031-4.31,0-1.0923-.0008-2.1967l0-1.1073V18.2365c-.071.0689.6151-.6194.3268-.328,14.8451.0359,28.3145.0681,38.215.092l.2356.0005-.0025.2341c-.0526,5.2169-.0951,9.4591-.1254,12.4634q-.0366,2.1111-.0578,3.343A9.756,9.756,0,0,1,642.7929,35.1715Z" style="fill:#e0e0e0"/><path d="M605.3811,36.383l-.3994-.4029-1.2148.0059-.001-1.23-.3975-.4009.3975.002-.0156-15.95-.3672-.001.5175-.5239L603.9,17.88l.13-.1289c.0733-.0776.1573-.1606.2481-.2519l.3535-.3516.0117.0108.1055-.1026v.1978l.1729.1557,37.1308.0894-.0049-.4907.4883.4922.9961.0019-.0088.9941.4668.47-.4717.0009L643.342,34.05c-.01.419-.0166.7178-.0292.9332l.0664.0668-.1006.2564a.3292.3292,0,0,1-.1836.2808.481.481,0,0,1-.1475.0615l-.2656.104-.0664-.062c-.1338.0078-.2979.0127-.5029.0185l-9.9844.125-26.7461.1431Zm.0029-2.0176,36.6514.2681c.082.0024.1582.0043.2275.0058l-.0771-4.0752-.1182-11.5928-36.6689.0879Z" style="fill:#ff9a6c"/><path d="M234.6131,42.3713a2.0908,2.0908,0,0,1-.02-.3076c-.0052-.2269-.0122-.5124-.02-.869q-.0176-1.195-.048-3.3329c-.0254-2.9239-.0625-7.1275-.1091-12.4269l.197.1982-63.6037.1277c.1434-.1452-.327.3255.32-.3257V27.606q0,1.0839,0,2.16-.0009,2.1535-.0016,4.2742-.0025,4.24-.0054,8.3305l-.3168-.3189c18.1128.0581,33.9615.1087,45.3289.145l13.38.091c1.5436.0179,2.7528.0319,3.6179.0422.3893.0081.701.0151.9463.02a2.3208,2.3208,0,0,1,.335.0208,1.4264,1.4264,0,0,1-.2944.0208c-.2352.0052-.5339.0118-.9074.02l-3.55.0419-13.3063.0908c-11.4229.0363-27.3487.0872-45.55.1452l-.3169.0012,0-.3205q-.0027-4.085-.0055-8.33,0-2.12-.0011-4.2742,0-1.0761,0-2.16l0-1.0859v-1.085c.6482-.6529.1818-.1811.3278-.3267,25.9829.0523,49.0807.0984,63.6037.1278l.1992,0-.0016.1984c-.0466,5.35-.0834,9.5932-.109,12.5449q-.0309,2.1087-.048,3.2887c-.0085.3422-.0151.6162-.0206.834A1.2239,1.2239,0,0,1,234.6131,42.3713Z" style="fill:#e0e0e0"/><path d="M685.4032,293.6146a2.0908,2.0908,0,0,1-.02-.3076c-.0052-.2269-.0122-.5124-.02-.869q-.0176-1.195-.048-3.3329c-.0254-2.9239-.0625-7.1275-.1091-12.4269l.197.1982-63.6037.1277c.1434-.1452-.327.3255.32-.3257v2.1709q0,1.0839,0,2.16-.0009,2.1535-.0016,4.2742-.0026,4.24-.0054,8.33l-.3168-.3189c18.1128.0581,33.9615.1087,45.3289.145l13.38.091c1.5436.0179,2.7528.0319,3.6179.0422.3893.0081.701.0151.9463.02a2.3208,2.3208,0,0,1,.335.0208,1.4264,1.4264,0,0,1-.2944.0208c-.2352.0052-.5339.0118-.9074.02l-3.55.0419-13.3063.0908c-11.4229.0363-27.3487.0872-45.55.1452l-.3169.0012,0-.3205q-.0027-4.0849-.0055-8.33,0-2.12-.0011-4.2742,0-1.0761,0-2.16l0-1.0859v-1.085c.6482-.6529.1818-.1811.3278-.3267,25.9829.0523,49.0807.0984,63.6037.1278l.1992,0-.0016.1984c-.0466,5.35-.0834,9.5932-.109,12.5449q-.0309,2.1087-.048,3.2887c-.0085.3422-.0151.6162-.0206.834A1.2239,1.2239,0,0,1,685.4032,293.6146Z" style="fill:#e0e0e0"/><path d="M694.0278,276.678a1.8526,1.8526,0,0,1-.0245-.3224c-.0066-.243-.0149-.5376-.0252-.8976q-.0213-1.25-.0578-3.3956c-.03-2.97-.073-7.1637-.1256-12.3208l.2327.2341-38.215.092c-.2911.2913.3913-.3975.3214-.3247v1.1082l0,1.1073-.0006,2.1967q-.0015,2.1833-.0031,4.3105c-.0039,2.8331-.0078,5.58-.0115,8.2121l-.3082-.31c11.0326.0594,20.5313.1108,27.3388.1475l7.9637.0858c.8947.0161,1.6066.0291,2.1476.039a6.4659,6.4659,0,0,1,.7676.0382,4.484,4.484,0,0,1-.6939.0382l-2.0835.0391c-1.8984.0205-4.5652.05-7.8932.0857-6.8593.0367-16.43.0878-27.5471.1474l-.3082.0017-.0006-.3123c-.0039-2.6318-.0078-5.379-.0116-8.2121q-.0015-2.1252-.0031-4.3105,0-1.0923-.0008-2.1967l0-1.1073V259.743c-.071.0689.6151-.6194.3268-.328,14.8451.0359,28.3145.0681,38.215.092l.2356,0-.0025.2341c-.0526,5.2169-.0951,9.4591-.1254,12.4634q-.0366,2.1111-.0578,3.343A9.756,9.756,0,0,1,694.0278,276.678Z" style="fill:#e0e0e0"/><path d="M714.9349,342.0456c0,.1439-160.0565.2605-357.45.2605C160.0221,342.3061,0,342.19,0,342.0456s160.0221-.26,357.4846-.26C554.8784,341.7852,714.9349,341.9019,714.9349,342.0456Z" style="fill:#263238"/><path d="M568.3653,389.0505a7.8489,7.8489,0,0,1-.6628-8.46c2.0651-3.7286,6.8979-8.2446,18.1917-9.684,20.3224-2.59,28.0927-.1992,42.8364,10.1612s31.8783,32.6752,3.5864,37.457C605.03,423.1362,588.1221,415.5161,568.3653,389.0505Z" style="fill:#455a64"/><g style="opacity:0.30000000000000004"><path d="M566.8868,382.91a51.657,51.657,0,0,1,21.1309,11.9555c9.7739,9.249,16.429,23.11,16.429,23.11s-17.8507,1.0662-28.8685-9.0631S566.8868,382.91,566.8868,382.91Z"/></g><path d="M584.3309,371.43c3.4212.17,6.4992,1.995,9.6508,3.3372a3.414,3.414,0,0,0,2.4763.3432c1.1669-.439,1.3011-1.3045.7663-2.4308a6.8007,6.8007,0,0,0-3.4147-2.6161c-4.1059-1.5421-8.2064-1.7349-10.626-.1206-.479.32-1.5657,1.3437-1.46,1.91Z" style="fill:#263238"/><polygon points="159.164 61.179 159.164 278.364 524.737 278.364 524.737 61.729 159.164 61.179" style="fill:#263238"/><path d="M357.9035,268.016a17.69,17.69,0,1,1-31.9056,0h-10.76v67.6117h53.426V268.016Z" style="fill:#263238"/><rect x="159.1645" y="266.3162" width="365.5724" height="13.6384" style="fill:#263238"/><rect x="162.4822" y="65.0154" width="358.937" height="201.3008" style="fill:#ff725e"/><rect x="270.9125" y="331.2823" width="142.0764" height="10.7634" style="fill:#263238"/><g style="opacity:0.1"><polygon points="401.746 65.015 208.191 266.316 268.119 266.316 463.338 65.015 401.746 65.015" style="fill:#fff"/></g><g style="opacity:0.1"><polygon points="164.185 66.473 164.955 198.319 293.418 65.854 164.185 66.473" style="fill:#fff"/></g><g style="opacity:0.1"><polygon points="477.389 65.015 283.835 266.316 307.415 266.316 502.635 65.015 477.389 65.015" style="fill:#fff"/></g><g style="opacity:0.1"><polygon points="301.811 65.015 164.185 208.149 164.185 232.961 327.057 65.015 301.811 65.015" style="fill:#fff"/></g><g style="opacity:0.1"><path d="M521.4192,130.7293c0,1.41-134.9163,134.9163-134.9163,134.9163h56.408l77.814-77.814Z" style="fill:#fff"/></g><path d="M169.6307,259.6975c-.1439,0-.26-41.3563-.26-92.36,0-51.0214.1165-92.3688.26-92.3688s.26,41.3474.26,92.3688C169.891,218.3412,169.7744,259.6975,169.6307,259.6975Z" style="fill:#fff"/><path d="M371.0994,280.0273c0,.1439-12.7406.26-28.4533.26-15.7181,0-28.456-.1165-28.456-.26s12.7379-.26,28.456-.26C358.3588,279.767,371.0994,279.8835,371.0994,280.0273Z" style="fill:#455a64"/><path d="M412.3045,331.2338c0,.1439-31.7333.26-70.8693.26-39.15,0-70.8761-.1165-70.8761-.26s31.7265-.26,70.8761-.26C380.5712,330.9735,412.3045,331.09,412.3045,331.2338Z" style="fill:#455a64"/><rect x="543.8894" y="65.0154" width="128.0005" height="273.2311" rx="12.7972" style="fill:#263238"/><rect x="551.6836" y="84.0801" width="111.2022" height="25.9949" style="fill:#455a64"/><path d="M645.19,337.3069h2.3885a2.13,2.13,0,0,1,2.13,2.13v.3334a2.13,2.13,0,0,1-2.13,2.13H645.19a2.13,2.13,0,0,1-2.13-2.13v-.3334A2.13,2.13,0,0,1,645.19,337.3069Z" style="fill:#263238"/><path d="M568.4324,337.3069h2.3886a2.13,2.13,0,0,1,2.13,2.13v.3335a2.13,2.13,0,0,1-2.13,2.13h-2.3887a2.13,2.13,0,0,1-2.13-2.13v-.3334a2.13,2.13,0,0,1,2.13-2.13Z" style="fill:#263238"/><path d="M659.8005,77.487c-.0011-.0171.2013-.0046.5749-.0942a2.5457,2.5457,0,0,0,1.8929-2.0252,4.18,4.18,0,0,0-.0516-1.4884,2.5725,2.5725,0,0,0-2.8428-1.8472l-24.33.0828-80.2694.0763a2.3265,2.3265,0,0,0-2.1039,1.3409,2.6977,2.6977,0,0,0-.2179,1.313,2.3278,2.3278,0,0,0,.33,1.2529,2.3633,2.3633,0,0,0,2.2215,1.1294l2.8731.0006,11.2739.0039,21.3124.0152,36.0872.0558,24.3288.0828,6.6144.0489,1.72.0258c.3875.0088.586.0267.586.0267s-.1985.0178-.586.0266l-1.72.0258-6.6144.0489-24.3288.0828c-10.278.0159-22.5079.0347-36.0872.0558l-21.3124.0151-11.2739.004-2.8731.0006a2.8909,2.8909,0,0,1-2.6677-1.3814,2.854,2.854,0,0,1-.4046-1.52,3.236,3.236,0,0,1,.2663-1.5327,2.849,2.849,0,0,1,2.5759-1.642l80.2694.0763,24.33.0827a2.9831,2.9831,0,0,1,1.9821.5155,2.6305,2.6305,0,0,1,1.0106,1.4955,4.26,4.26,0,0,1,.03,1.5509,2.6386,2.6386,0,0,1-.5449,1.1619,2.56,2.56,0,0,1-1.464.8916A1.9,1.9,0,0,1,659.8005,77.487Z" style="fill:#455a64"/><path d="M612.2266,132.1153a4.3369,4.3369,0,1,1-4.3369-4.3369A4.3369,4.3369,0,0,1,612.2266,132.1153Z" style="fill:#ff725e"/><path d="M566.2926,337.6976a1.9006,1.9006,0,0,1,1.3358.5488h.9707a2.68,2.68,0,0,0-2.3065-1.33h-.0047l-1.0484.7808Z" style="fill:#263238"/><path d="M564.2377,336.9168a2.6788,2.6788,0,0,0-2.3057,1.33h.97a1.8994,1.8994,0,0,1,1.3354-.5488h.4982l1.0387-.7808Z" style="fill:#263238"/><path d="M607.7648,227.6649c-35.341,26.4435-63.9426,47.9581-63.8753,48.0481s28.7779-21.279,64.1189-47.7225c35.3526-26.4524,63.9476-47.962,63.8815-48.0527h0C671.8216,179.8485,643.1175,201.2125,607.7648,227.6649Z" style="fill:#455a64"/><path d="M607.7648,234.7349c-35.341,26.4435-63.9426,47.9582-63.8753,48.0482s28.7779-21.2791,64.1189-47.7226c35.3526-26.4523,63.9476-47.9619,63.8815-48.0526h0C671.8216,186.9186,643.1175,208.2826,607.7648,234.7349Z" style="fill:#455a64"/><path d="M607.7648,241.805c-35.341,26.4435-63.9426,47.9581-63.8753,48.0481s28.7779-21.279,64.1189-47.7225c35.3526-26.4523,63.9476-47.9619,63.8815-48.0526h0C671.8216,193.9886,643.1175,215.3527,607.7648,241.805Z" style="fill:#455a64"/><path d="M607.7648,248.8751c-35.341,26.4435-63.9426,47.9581-63.8753,48.0481s28.7779-21.279,64.1189-47.7225c35.3526-26.4523,63.9476-47.9619,63.8815-48.0526h0C671.8216,201.0586,643.1175,222.4228,607.7648,248.8751Z" style="fill:#455a64"/><path d="M607.7648,255.9452c-35.341,26.4435-63.9426,47.958-63.8753,48.048s28.7779-21.2789,64.1189-47.7224c35.3526-26.4524,63.9476-47.962,63.8815-48.0527h0C671.8216,208.1287,643.1175,229.4928,607.7648,255.9452Z" style="fill:#455a64"/><path d="M607.7648,263.0152c-35.341,26.4435-63.9426,47.9581-63.8753,48.0481s28.7779-21.279,64.1189-47.7225c35.3526-26.4524,63.9476-47.962,63.8815-48.0527h0C671.8216,215.1988,643.1175,236.5628,607.7648,263.0152Z" style="fill:#455a64"/><path d="M607.7648,270.0853c-35.341,26.4435-63.9426,47.9581-63.8753,48.0481s28.7779-21.279,64.1189-47.7225c35.3526-26.4524,63.9476-47.962,63.8815-48.0527h0C671.8216,222.2689,643.1175,243.6329,607.7648,270.0853Z" style="fill:#455a64"/><path d="M607.7648,277.1553c-35.341,26.4435-63.9426,47.9582-63.8753,48.0482s28.7779-21.2791,64.1189-47.7226c35.3526-26.4523,63.9476-47.9619,63.8815-48.0527h0C671.8216,229.3389,643.1175,250.703,607.7648,277.1553Z" style="fill:#455a64"/><path d="M607.7648,284.2254c-32.2363,24.12-58.8533,44.131-63.2321,47.5305l.0207.0567c4.45-3.2066,31.1811-23.1131,63.455-47.2616,35.3526-26.4523,63.9476-47.9619,63.8815-48.0527h0C671.8216,236.409,643.1175,257.7731,607.7648,284.2254Z" style="fill:#455a64"/><path d="M607.7648,291.2955c-27.441,20.5324-50.81,38.0866-59.8589,44.9537.04.03.0791.06.1193.0892,9.1642-6.761,32.5746-24.2091,59.9832-44.7174,35.3526-26.4522,63.9476-47.9618,63.8815-48.0526h0C671.8216,243.479,643.1175,264.8432,607.7648,291.2955Z" style="fill:#455a64"/><path d="M607.7648,298.3656c-22.1787,16.5948-41.6987,31.2453-53.1489,39.8808h.3792c11.5468-8.5726,30.9911-23.0774,53.0133-39.5553,35.3526-26.4523,63.9476-47.9619,63.8815-48.0527h0C671.8216,250.5491,643.1175,271.9132,607.7648,298.3656Z" style="fill:#455a64"/><path d="M607.7648,305.4357c-16.0864,12.0364-30.7645,23.0427-41.99,31.4811l-1.0387.7808-.73.5488h.4963c.2449-.1822.4888-.3639.7371-.5488l1.0484-.7808c11.22-8.3568,25.7906-19.2362,41.7205-31.1556,35.3526-26.4523,63.9476-47.9619,63.8815-48.0527h0C671.8216,257.6192,643.1175,278.9833,607.7648,305.4357Z" style="fill:#455a64"/><path d="M607.7648,312.5057c-12.6523,9.4669-24.43,18.2942-34.3487,25.7407h.5737c9.865-7.3568,21.5228-16.0653,34.0186-25.4152,35.3526-26.4523,63.9476-47.9619,63.8815-48.0527h0C671.8216,264.6893,643.1175,286.0533,607.7648,312.5057Z" style="fill:#455a64"/><path d="M607.7648,319.5757c-8.8457,6.6187-17.2688,12.9283-24.9262,18.6707h.6261c7.563-5.6465,15.8508-11.8407,24.5437-18.3452,35.3526-26.4522,63.9476-47.9618,63.8815-48.0526h0C671.8216,271.7593,643.1175,293.1234,607.7648,319.5757Z" style="fill:#455a64"/><path d="M607.7648,326.6458c-5.3454,4-10.5328,7.8836-15.4939,11.6006h.6591c4.8382-3.6155,9.8837-7.3882,15.0784-11.2751C643.361,300.519,671.956,279.01,671.89,278.9187h0C671.8216,278.8294,643.1175,300.1935,607.7648,326.6458Z" style="fill:#455a64"/><path d="M607.7648,333.7159q-3.0642,2.2926-6.0536,4.5305h.6759q2.781-2.08,5.6213-4.205C643.361,307.5891,671.956,286.08,671.89,285.9888h0C671.8216,285.8994,643.1175,307.2636,607.7648,333.7159Z" style="fill:#455a64"/><path d="M611.1591,338.2464h.6776c33.5644-25.1221,60.1169-45.1,60.0532-45.1876h0C671.8238,292.9724,644.9364,312.98,611.1591,338.2464Z" style="fill:#455a64"/><path d="M620.6144,338.2464h.6646c28.9678-21.6992,50.6685-38.0385,50.6109-38.1175h0C671.83,300.0507,649.8192,316.4179,620.6144,338.2464Z" style="fill:#455a64"/><path d="M630.0776,338.2464h.6355c24.1169-18.0816,41.2279-30.9772,41.1768-31.0475h0C671.8368,307.13,654.4452,320.05,630.0776,338.2464Z" style="fill:#455a64"/><path d="M639.55,338.2464h.5879c19.0252-14.2793,31.796-23.9167,31.7518-23.9774h0C671.844,314.209,658.8252,323.868,639.55,338.2464Z" style="fill:#455a64"/><path d="M649.0342,338.2464h.5174c13.7-10.2974,22.3747-16.8573,22.3383-16.9073h0C671.852,321.29,662.9721,327.8642,649.0342,338.2464Z" style="fill:#455a64"/><path d="M671.8817,328.4167v-.0027c-.0945.013-5.062,3.6765-13.3461,9.8324h.412C667.0245,332.1608,671.831,328.5118,671.8817,328.4167Z" style="fill:#455a64"/><rect x="556.8483" y="89.0253" width="6.3395" height="4.0088" style="fill:#263238"/><rect x="565.8915" y="89.0253" width="10.4882" height="4.1953" style="fill:#263238"/><rect x="579.7359" y="89.0253" width="10.4882" height="4.1953" style="fill:#263238"/><rect x="647.1424" y="89.0253" width="10.4882" height="4.1953" style="fill:#263238"/><path d="M599.4071,91.1229a2.121,2.121,0,1,1-2.1209-2.1209A2.121,2.121,0,0,1,599.4071,91.1229Z" style="fill:#263238"/><path d="M606.6323,91.1229a2.121,2.121,0,1,1-2.1209-2.1209A2.121,2.121,0,0,1,606.6323,91.1229Z" style="fill:#263238"/><path d="M610.7907,137.303c.0136.0279-.1838.172-.5832.3548a6.7757,6.7757,0,0,1-1.7895.5138,6.909,6.909,0,0,1-2.7752-.1623,6.2366,6.2366,0,0,1-2.9223-1.7695,5.5935,5.5935,0,0,1-1.4812-3.0858,5.271,5.271,0,0,1,.4141-2.7631,4.5157,4.5157,0,0,1,1.0939-1.5222c.3344-.2923.5609-.3934.5764-.3709a7.2846,7.2846,0,0,0-1.33,2.0338,5.1855,5.1855,0,0,0-.279,2.5576,5.3126,5.3126,0,0,0,1.3872,2.7962,6.017,6.017,0,0,0,2.673,1.6627,7.102,7.102,0,0,0,2.6011.2577A20.6483,20.6483,0,0,0,610.7907,137.303Z" style="fill:#fff"/><g id="_2" data-name="2"><path d="M49.6579,230.0825c-.1686-.1435-.8667-.614-1.1082-.7835a10.6473,10.6473,0,0,0-1.2906-.8092,6.5746,6.5746,0,0,0,1.1689,1.073c.2326.1816.8235.6828,1.0042.811a.1641.1641,0,0,0,.26-.0444A.1674.1674,0,0,0,49.6579,230.0825Z" style="fill:#e0e0e0"/><path d="M48.1445,246.86c-.2185.0356-1.0292.2627-1.3147.337a10.6669,10.6669,0,0,0-1.4524.4592,6.5782,6.5782,0,0,0,1.5746-.1956c.289-.06,1.0537-.1852,1.2682-.24.065-.0165.1717-.0508.1348-.2269A.1676.1676,0,0,0,48.1445,246.86Z" style="fill:#e0e0e0"/><path d="M53.3469,259.8441c-.2056.0823-.9474.48-1.21.615a10.6556,10.6556,0,0,0-1.3177.7642,6.5812,6.5812,0,0,0,1.4943-.5335c.2691-.1211.9881-.41,1.1857-.51.06-.03.1565-.087.0821-.2508A.1675.1675,0,0,0,53.3469,259.8441Z" style="fill:#e0e0e0"/><path d="M58.1442,269.433c-.2057.0823-.9474.48-1.21.6149a10.6734,10.6734,0,0,0-1.3176.7642,6.5737,6.5737,0,0,0,1.4944-.5335c.2691-.1211.988-.41,1.1856-.51.06-.03.1565-.087.0821-.2509A.1674.1674,0,0,0,58.1442,269.433Z" style="fill:#e0e0e0"/><path d="M62.2206,278.1407c-.2057.0822-.9474.48-1.21.615a10.6452,10.6452,0,0,0-1.3176.7642,6.58,6.58,0,0,0,1.4942-.5335c.2692-.1211.9882-.41,1.1857-.51.06-.03.1565-.0869.0821-.2507A.1673.1673,0,0,0,62.2206,278.1407Z" style="fill:#e0e0e0"/><path d="M65.4779,285.8034c-.1992.0968-.9108.5466-1.163.7a10.6591,10.6591,0,0,0-1.26.8563,6.581,6.581,0,0,0,1.4525-.6388c.26-.14.9564-.4795,1.1462-.5934.0576-.0344.15-.0978.0641-.256A.1675.1675,0,0,0,65.4779,285.8034Z" style="fill:#e0e0e0"/><path d="M47.3456,237.3648c-.2207-.0175-1.062.01-1.3572.0146a10.6469,10.6469,0,0,0-1.52.1007,6.5823,6.5823,0,0,0,1.5759.1844c.295.0108,1.0675.0706,1.2889.0686.067-.0006.1789-.0085.1848-.1883A.1674.1674,0,0,0,47.3456,237.3648Z" style="fill:#e0e0e0"/><path d="M55.3315,226.7857c-.0767-.2077-.4548-.96-.5824-1.2259a10.6633,10.6633,0,0,0-.7288-1.3376,6.5846,6.5846,0,0,0,.4934,1.5081c.114.2722.3836.9987.4783,1.1988.0287.0606.0827.1587.2485.0887A.1674.1674,0,0,0,55.3315,226.7857Z" style="fill:#e0e0e0"/><path d="M57.87,225.0909a29.1837,29.1837,0,0,1-3.4171.4148c-.1284.1265-2.6928,2.3577-2.8629,2.5454-.1427.1226-2.9823,1.3283-3.0943,1.5117a30.0255,30.0255,0,0,0-.8095,3.85s-1.7386,3.7335-1.7084,4.4965c.0153.3871.9937,4.7624.9937,4.7624s-.0861,4.4174-.046,4.5836c.08.3323,2.7607,5.6058,3.0759,5.94,0,0,2.1839,6.8589,2.3125,7.2037a37.0827,37.0827,0,0,1,3.11,4.7967c.7175,1.5642,1.3656,4.9434,1.5089,4.93a28.5574,28.5574,0,0,1,2.8368,4.1c.4145,1.25.8066,4.5535.902,4.7064,0,0,1.3794,2.0035,1.673,2.491.9276,1.54,1.0169,3.4418,1.7316,5.0914a8.3744,8.3744,0,0,0,2.3548,1.8861c1.9963-.4721,5.7488-1.4858,7.0429-2.0074C74.0864,286.1468,57.87,225.0909,57.87,225.0909Z" style="fill:#455a64"/><path d="M75.8859,240.1611c.2106-.068,1.0356-.2359,1.3236-.3a10.6527,10.6527,0,0,1,1.5019-.2542,6.5789,6.5789,0,0,1-1.49.5445c-.2844.0788-1.0221.316-1.2379.3653-.0653.015-.176.0332-.2234-.14A.1676.1676,0,0,1,75.8859,240.1611Z" style="fill:#e0e0e0"/><path d="M77.211,254.0812c.22-.02,1.0621-.0049,1.3573-.0049a10.6494,10.6494,0,0,1,1.5212.0787,6.5812,6.5812,0,0,1-1.5732.2071c-.2948.0151-1.0664.0861-1.2877.0873-.067,0-.179-.006-.1876-.1857A.1676.1676,0,0,1,77.211,254.0812Z" style="fill:#e0e0e0"/><path d="M77.8169,264.6823c.2205-.0207,1.0621-.005,1.3573-.005a10.6654,10.6654,0,0,1,1.5212.0786,6.5759,6.5759,0,0,1-1.5731.2072c-.2948.015-1.0664.0861-1.2878.0873-.067,0-.1789-.006-.1875-.1857A.1674.1674,0,0,1,77.8169,264.6823Z" style="fill:#e0e0e0"/><path d="M78.5514,274.1971c.22-.0207,1.0621-.005,1.3572-.005a10.653,10.653,0,0,1,1.5213.0786,6.5777,6.5777,0,0,1-1.5732.2072c-.2948.015-1.0663.0861-1.2877.0872-.0671,0-.179-.0059-.1876-.1857A.1673.1673,0,0,1,78.5514,274.1971Z" style="fill:#e0e0e0"/><path d="M79.3849,282.5037c.2215-.0049,1.06.0707,1.3542.0917a10.651,10.651,0,0,1,1.5118.1871,6.5859,6.5859,0,0,1-1.584.0944c-.295-.006-1.07.01-1.2907-.0048-.0669-.0045-.178-.0187-.1738-.1986A.1674.1674,0,0,1,79.3849,282.5037Z" style="fill:#e0e0e0"/><path d="M72.5574,231.2765c.1884-.1163.95-.4755,1.2143-.6063a10.6517,10.6517,0,0,1,1.3983-.6042,6.5775,6.5775,0,0,1-1.3181.8834c-.2575.1442-.9176.55-1.1155.6492-.06.03-.163.074-.25-.0833A.1674.1674,0,0,1,72.5574,231.2765Z" style="fill:#e0e0e0"/><path d="M67.2936,225.2572c.0846-.2047.491-.9419.6286-1.2029a10.6393,10.6393,0,0,1,.7791-1.3089,6.5762,6.5762,0,0,1-.55,1.4881c-.1241.2677-.4212.9834-.5234,1.18-.031.06-.0886.1556-.2517.0793A.1675.1675,0,0,1,67.2936,225.2572Z" style="fill:#e0e0e0"/><path d="M61.5342,225.0963c-.0265-.22-.0333-1.0616-.0411-1.3566a10.6445,10.6445,0,0,1,.038-1.5227,6.5859,6.5859,0,0,1,.2491,1.567c.0229.2943.1145,1.0637.1215,1.285.0022.0669-.0011.179-.18.1924A.1676.1676,0,0,1,61.5342,225.0963Z" style="fill:#e0e0e0"/><path d="M58.0068,225.0555,61.47,223.78c.1481.0595,2.983.987,3.1877,1.0841.157.05,2.7648-.0595,2.9246.0583a32.8257,32.8257,0,0,1,2.2164,3.1188,26.15,26.15,0,0,1,3.1535,3.3225c.1512.3542,1.2657,4.6967,1.2657,4.6967s1.92,3.933,1.96,4.0992c.08.3324.3128,6.197.22,6.63,0,0,1.2661,7.0806,1.3157,7.4445a41.8777,41.8777,0,0,0-.2859,5.6167c.1264,1.707,1.0667,5.0156.9552,5.0641a31.9791,31.9791,0,0,0-.3762,4.8763c.2187,1.2975,1.3166,4.43,1.31,4.6078,0,0-.1787,2.38-.1911,2.9412-.0392,1.7736.6937,3.52.858,5.3023a8.3578,8.3578,0,0,1-.95,2.6842,52.5738,52.5738,0,0,1-6.0546,1.1554C72.4218,286.517,58.0068,225.0555,58.0068,225.0555Z" style="fill:#455a64"/><g style="opacity:0.30000000000000004"><path d="M58.0068,225.0555,61.47,223.78c.1481.0595,2.983.987,3.1877,1.0841.157.05,2.7648-.0595,2.9246.0583a32.8257,32.8257,0,0,1,2.2164,3.1188,26.15,26.15,0,0,1,3.1535,3.3225c.1512.3542,1.2657,4.6967,1.2657,4.6967s1.92,3.933,1.96,4.0992c.08.3324.3128,6.197.22,6.63,0,0,1.2661,7.0806,1.3157,7.4445a41.8777,41.8777,0,0,0-.2859,5.6167c.1264,1.707,1.0667,5.0156.9552,5.0641a31.9791,31.9791,0,0,0-.3762,4.8763c.2187,1.2975,1.3166,4.43,1.31,4.6078,0,0-.1787,2.38-.1911,2.9412-.0392,1.7736.6937,3.52.858,5.3023a8.3578,8.3578,0,0,1-.95,2.6842,52.5738,52.5738,0,0,1-6.0546,1.1554C72.4218,286.517,58.0068,225.0555,58.0068,225.0555Z"/></g><path d="M56.8626,225.96c-.0958-.1545-.2307-.3557-.3748-.55a5.0939,5.0939,0,0,0-.4172-.5214,1.1014,1.1014,0,0,0-.2564-.1912,1.0944,1.0944,0,0,0,.0856.3083,5.0851,5.0851,0,0,0,.3354.5773c.13.2048.2688.4029.3778.5484a.1346.1346,0,0,0,.2144.0306A.1374.1374,0,0,0,56.8626,225.96Z" style="fill:#e0e0e0"/><path d="M59.74,225.2652c.0147-.1811.0429-.4217.0823-.6607a5.0922,5.0922,0,0,1,.1332-.6543,1.1034,1.1034,0,0,1,.141-.2873,1.1,1.1,0,0,1,.0645.3134,5.0952,5.0952,0,0,1-.035.6668c-.0218.2413-.0553.4812-.0859.66-.0093.0542-.03.1438-.1769.1251A.1373.1373,0,0,1,59.74,225.2652Z" style="fill:#e0e0e0"/><path d="M68.5478,234.8428c.1693-.1429.4014-.3248.6418-.4959a6.2151,6.2151,0,0,1,.68-.4464,1.3408,1.3408,0,0,1,.3691-.1246,1.3376,1.3376,0,0,1-.2154.3246,6.2,6.2,0,0,1-.6064.542c-.2272.1883-.4633.3651-.6444.4925a.1642.1642,0,0,1-.26-.0455A.1674.1674,0,0,1,68.5478,234.8428Z" style="fill:#e0e0e0"/><path d="M64.2866,227.7811c.09-.202.22-.4668.3626-.7254a6.1972,6.1972,0,0,1,.4185-.6973,1.3411,1.3411,0,0,1,.2783-.2726,1.3383,1.3383,0,0,1-.053.386,6.2323,6.2323,0,0,1-.3106.7515c-.123.2683-.2588.53-.3666.7235-.0327.0585-.0931.1529-.2538.072A.1675.1675,0,0,1,64.2866,227.7811Z" style="fill:#e0e0e0"/><path d="M71.75,243.843c.2106-.0681.4943-.1488.7816-.2161a6.1944,6.1944,0,0,1,.7982-.1558.2059.2059,0,1,1,.0666.2433,6.2037,6.2037,0,0,1-.7664.2722c-.2816.0882-.567.1625-.7829.2119-.0653.0149-.1759.0331-.2233-.1405A.1673.1673,0,0,1,71.75,243.843Z" style="fill:#e0e0e0"/><path d="M73.3835,256.2588c.2187-.0348.5114-.0707.8057-.0929a6.2,6.2,0,0,1,.8126-.0307.2059.2059,0,1,1,.0282.2506,6.1808,6.1808,0,0,1-.7992.1507c-.2918.0436-.5852.0731-.8061.0884-.0669.0047-.179.0057-.1991-.1732A.1674.1674,0,0,1,73.3835,256.2588Z" style="fill:#e0e0e0"/><path d="M74.9543,267.2083c.2215-.0025.5164.0047.8106.0257a6.1662,6.1662,0,0,1,.8085.0881.2059.2059,0,1,1-.0086.252,6.1769,6.1769,0,0,1-.8126.0325c-.2951.0007-.59-.013-.8105-.03-.0668-.0052-.1779-.02-.1716-.2A.1673.1673,0,0,1,74.9543,267.2083Z" style="fill:#e0e0e0"/><path d="M75.7909,276.2862c.2028-.0022.4731.0044.7428.0235a5.6807,5.6807,0,0,1,.7408.0808.1887.1887,0,1,1-.008.231,5.6694,5.6694,0,0,1-.7446.03c-.27.0006-.54-.012-.7426-.0276-.0612-.0047-.1629-.0188-.1573-.1836A.1535.1535,0,0,1,75.7909,276.2862Z" style="fill:#e0e0e0"/><path d="M77.0151,284.8434c.1552.0577.359.1418.5588.2355a4.6247,4.6247,0,0,1,.5407.2784.154.154,0,1,1-.0738.1736,4.6583,4.6583,0,0,1-.5758-.1954c-.2061-.0788-.408-.1673-.5575-.2385-.0453-.0215-.1186-.0621-.0661-.1859A.1253.1253,0,0,1,77.0151,284.8434Z" style="fill:#e0e0e0"/><path d="M52.7729,238.5436c-.2158-.05-.5054-.1058-.7974-.1484a6.1738,6.1738,0,0,0-.8086-.0868.2059.2059,0,1,0-.0454.248,6.1911,6.1911,0,0,0,.7868.2056c.2881.0638.5788.1134.7981.144.0664.0093.1782.0179.2106-.159A.1673.1673,0,0,0,52.7729,238.5436Z" style="fill:#e0e0e0"/><path d="M53.9656,230.2736c-.1728-.1386-.4092-.3149-.6538-.48a6.1757,6.1757,0,0,0-.6906-.4295,1.3359,1.3359,0,0,0-.3721-.1156,1.3388,1.3388,0,0,0,.2234.3192,6.1937,6.1937,0,0,0,.6194.527c.2319.1826.4721.3536.6563.4765.0558.0372.1527.0936.2588-.0518A.1674.1674,0,0,0,53.9656,230.2736Z" style="fill:#e0e0e0"/><path d="M54.3122,248.054c-.2186.0356-.5077.0933-.7942.1645a6.2121,6.2121,0,0,0-.7813.2257.2058.2058,0,1,0,.0518.2468,6.1783,6.1783,0,0,0,.8062-.1076c.2908-.05.5787-.1141.7932-.1687.065-.0165.1717-.0508.1347-.2269A.1675.1675,0,0,0,54.3122,248.054Z" style="fill:#e0e0e0"/><path d="M58.569,259.9982c-.21.0687-.4872.17-.7592.2849a6.2018,6.2018,0,0,0-.7372.3436,1.34,1.34,0,0,0-.3.2485,1.34,1.34,0,0,0,.3895-.0126,6.2038,6.2038,0,0,0,.78-.2306c.28-.0944.5542-.2022.7577-.2893.0617-.0263.1618-.0767.0982-.2449A.1674.1674,0,0,0,58.569,259.9982Z" style="fill:#e0e0e0"/><path d="M62.2074,270.4079c-.1982.0989-.4572.24-.71.3928a6.2045,6.2045,0,0,0-.6791.4473,1.3376,1.3376,0,0,0-.2607.29,1.3352,1.3352,0,0,0,.3834-.0693,6.1959,6.1959,0,0,0,.7378-.3418c.263-.1342.5188-.2808.7076-.3967.057-.035.1488-.0994.0612-.2566A.1675.1675,0,0,0,62.2074,270.4079Z" style="fill:#e0e0e0"/><path d="M65.47,279.0122c-.1815.0905-.4188.22-.65.36a5.669,5.669,0,0,0-.6222.41,1.2226,1.2226,0,0,0-.2389.2654,1.2242,1.2242,0,0,0,.3513-.0635,5.653,5.653,0,0,0,.6761-.3133c.2409-.1228.4753-.2573.6482-.3634.0524-.0321.1364-.0911.0562-.2352A.1535.1535,0,0,0,65.47,279.0122Z" style="fill:#e0e0e0"/><path d="M68.0933,286.8028c-.1118.1221-.2547.29-.39.4645a4.6461,4.6461,0,0,0-.354.4945.9985.9985,0,0,0-.1041.272,1.0008,1.0008,0,0,0,.2489-.1512,4.6431,4.6431,0,0,0,.4232-.4367c.1475-.1641.2867-.3351.3873-.4666a.1226.1226,0,0,0-.026-.1955A.1252.1252,0,0,0,68.0933,286.8028Z" style="fill:#e0e0e0"/></g><path d="M57.885,225.0605a9.7949,9.7949,0,0,1-1.5748.5781,1.6342,1.6342,0,0,0-.8084.893c-.5814,1.1054-1.404,1.985-2.0751,3.0288a5.2938,5.2938,0,0,0-.6795,3.1836,21.8048,21.8048,0,0,1-.23,3.02c-.1614,1.1032-.6377,2.4974-.3612,3.5962.2489.99.5443,1.9835.7737,2.99a21.279,21.279,0,0,1,.45,2.8558,15.0175,15.0175,0,0,0,.7374,4.3666c.48,1.2339.9871,2.4592,1.5079,3.6764a21.5127,21.5127,0,0,1,.889,2.5c.288.9978.6711,2.3245.9953,3.4438a21.1344,21.1344,0,0,0,1.5577,3.9,30.2175,30.2175,0,0,1,1.3913,2.9666c.6331,1.6892.759,3.6017,1.5407,5.231a27.9731,27.9731,0,0,1,1.9091,3.64c.13.44.2848,1.1421.433,1.8722a21.9023,21.9023,0,0,0,1.7519,5.1714c.0169.0349.0316.0657.0438.092a34.6276,34.6276,0,0,1,1.165,3.8015c.1028.3129,1.3748,3.3082,1.9278,2.999,1.1231-.6277,3.5931-2.3721,3.5931-2.3721Z" style="fill:#455a64"/><g style="opacity:0.2"><path d="M57.885,225.0605a9.7949,9.7949,0,0,1-1.5748.5781,1.6342,1.6342,0,0,0-.8084.893c-.5814,1.1054-1.404,1.985-2.0751,3.0288a5.2938,5.2938,0,0,0-.6795,3.1836,21.8048,21.8048,0,0,1-.23,3.02c-.1614,1.1032-.6377,2.4974-.3612,3.5962.2489.99.5443,1.9835.7737,2.99a21.279,21.279,0,0,1,.45,2.8558,15.0175,15.0175,0,0,0,.7374,4.3666c.48,1.2339.9871,2.4592,1.5079,3.6764a21.5127,21.5127,0,0,1,.889,2.5c.288.9978.6711,2.3245.9953,3.4438a21.1344,21.1344,0,0,0,1.5577,3.9,30.2175,30.2175,0,0,1,1.3913,2.9666c.6331,1.6892.759,3.6017,1.5407,5.231a27.9731,27.9731,0,0,1,1.9091,3.64c.13.44.2848,1.1421.433,1.8722a21.9023,21.9023,0,0,0,1.7519,5.1714c.0169.0349.0316.0657.0438.092a34.6276,34.6276,0,0,1,1.165,3.8015c.1028.3129,1.3748,3.3082,1.9278,2.999,1.1231-.6277,3.5931-2.3721,3.5931-2.3721Z"/></g><path d="M72.8229,286.4946a4.4206,4.4206,0,0,1-.5886.4663c-.3963.2913-.9844.7154-1.7592,1.2384l-.6187.4073-.3388.2126c-.1241.0518-.2043.1859-.4523.1622a1.59,1.59,0,0,1-.6832-.665,8.92,8.92,0,0,1-.4911-.8386,11.3979,11.3979,0,0,1-.8507-1.97c-.221-.7256-.3932-1.5031-.6406-2.29a25.2643,25.2643,0,0,0-1.0129-2.3971,21.79,21.79,0,0,1-.9291-2.7056c-.2535-.9638-.4529-1.9519-.7-2.9535a11.2092,11.2092,0,0,0-1.4235-2.8219,10.1981,10.1981,0,0,1-1.2752-3.1888,18.3647,18.3647,0,0,0-.9709-3.36c-.5177-1.0793-1-2.1677-1.5677-3.2914A21.9166,21.9166,0,0,1,57.2,258.935c-.3661-1.2167-.6743-2.4471-1.0744-3.609-.4033-1.157-.8069-2.2971-1.2852-3.4079l-.6761-1.655a10.27,10.27,0,0,1-.5813-1.68,22.8114,22.8114,0,0,1-.4133-3.3917,41.8855,41.8855,0,0,0-1.2549-6.1189,9.5185,9.5185,0,0,1,.3486-2.8636,19.5757,19.5757,0,0,0,.3-2.5754c.0528-.8242.0033-1.62.1071-2.3885a4.2628,4.2628,0,0,1,.816-2.0029,28.7179,28.7179,0,0,0,1.9482-2.7714,1.6957,1.6957,0,0,1,.8783-.9055c.3522-.1158.64-.1869.8772-.2581a2.4287,2.4287,0,0,0,.695-.2464c.0413.04-.2057.175-.667.3331l-.8536.2954a1.56,1.56,0,0,0-.7742.8637,26.406,26.406,0,0,1-1.8947,2.8312,4.0078,4.0078,0,0,0-.74,1.898c-.0886.7263-.03,1.5251-.0729,2.3666a19.574,19.574,0,0,1-.2771,2.6267,9.3583,9.3583,0,0,0-.3193,2.7491,40.58,40.58,0,0,1,1.298,6.1295,22.7213,22.7213,0,0,0,.418,3.3272,9.9172,9.9172,0,0,0,.5689,1.6211q.336.8159.6783,1.6472c.4747,1.0948.891,2.2567,1.3048,3.4417.4079,1.1822.7122,2.3971,1.08,3.6183a42.8433,42.8433,0,0,0,2.8673,6.8209,18.6489,18.6489,0,0,1,.9778,3.4186,9.7859,9.7859,0,0,0,1.2142,3.0791A11.5119,11.5119,0,0,1,64.14,275.05c.247,1.03.4418,2.0333.68,2.9689a21.7658,21.7658,0,0,0,.8895,2.6694,24.9627,24.9627,0,0,1,.9957,2.4355c.2432.8086.4045,1.5874.6112,2.3031a11.3576,11.3576,0,0,0,.7995,1.9352,8.8436,8.8436,0,0,0,.462.8254,1.5556,1.5556,0,0,0,.5348.5838c.0392.03.1878-.0671.3-.129l.34-.2021.6261-.3881q1.1348-.7338,1.8035-1.166A4.9111,4.9111,0,0,1,72.8229,286.4946Z" style="fill:#263238"/><path d="M72.1758,284.37c-.1214.0294-3.1168-11.9429-6.6894-26.7376-3.574-14.8-6.3719-26.817-6.2505-26.8463s3.116,11.9405,6.69,26.74C69.4986,272.32,72.2971,284.34,72.1758,284.37Z" style="fill:#263238"/><path d="M57.8873,225.0845c1.0624-.0523,1.7939-.4234,2.7442.2038a35.2473,35.2473,0,0,0,3.2624,1.7956,4.64,4.64,0,0,1,2.07,2.4928,21.8218,21.8218,0,0,0,1.5822,2.5819,18.9961,18.9961,0,0,1,1.7834,3.0555,17.6856,17.6856,0,0,1,.8554,2.9937,21.2765,21.2765,0,0,0,.9033,2.7461,15.77,15.77,0,0,1,1.339,4.2478c.1268,1.31.2421,2.6211.3337,3.9337a21.5082,21.5082,0,0,0,.35,2.63c.1991,1.0192.4637,2.3746.686,3.5185a21.1212,21.1212,0,0,1,.3937,4.1809,30.2069,30.2069,0,0,0,.1159,3.2745c.2166,1.87.9355,3.715.9792,5.6013a25.9771,25.9771,0,0,0-.0006,3.8665c.0849.4508.268,1.1461.4693,1.8634a21.8975,21.8975,0,0,1,.8011,5.401c.001.0388.002.0729.0031.1021a41.7945,41.7945,0,0,0,.8059,4.5262c.046.3081.1271,2.9569-.4544,2.9361a41.3146,41.3146,0,0,1-4.1628-.5914Z" style="fill:#455a64"/><path d="M72.9787,286.4815a5.06,5.06,0,0,1,.7408.0885c.4832.0683,1.1952.1786,2.1143.2812.23.0241.4725.05.7271.0653a2.3964,2.3964,0,0,0,.3691.009c.057-.0039.131-.1152.1682-.2385a6.2739,6.2739,0,0,0,.1722-1.78,32.2636,32.2636,0,0,0-.7825-4.3814c-.1348-.842-.09-1.7132-.198-2.602a21.87,21.87,0,0,0-.452-2.76q-.3636-1.4226-.7506-2.9377a15.8809,15.8809,0,0,1-.0153-3.2394,11.9844,11.9844,0,0,0-.3934-3.28,18.0067,18.0067,0,0,1-.6112-3.48c-.0366-1.1946-.1069-2.4428-.115-3.6507a21.9255,21.9255,0,0,0-.4611-3.68c-.2267-1.2477-.5159-2.4578-.6815-3.692q-.1224-.9261-.2429-1.8382c-.0714-.6068-.1066-1.2037-.1608-1.7981q-.0742-.8906-.1472-1.7652a8.8343,8.8343,0,0,0-.2447-1.6859,24.8921,24.8921,0,0,0-1.1393-3.1362,21.3707,21.3707,0,0,1-.97-3.0833,12.5872,12.5872,0,0,0-.859-2.8477,18.93,18.93,0,0,0-1.3867-2.4241,25.4218,25.4218,0,0,1-1.4125-2.2006c-1.0475-3.4444-4.2024-3.8391-5.6166-5.0329a2.5859,2.5859,0,0,0-1.9957-.34c-.243.0276-.43.0392-.5559.0431a.609.609,0,0,1-.1908-.01c-.0005-.0174.254-.038.7342-.1232a5.1869,5.1869,0,0,1,.9073-.098,2.1511,2.1511,0,0,1,1.1973.3814,32.794,32.794,0,0,0,2.9673,1.5935,3.8479,3.8479,0,0,1,1.6691,1.3555c.4289.6433.7375,1.3665,1.1613,2.0722a25.6027,25.6027,0,0,0,1.4237,2.1635,19.0487,19.0487,0,0,1,1.4362,2.4582,12.8573,12.8573,0,0,1,.9077,2.9177,21.17,21.17,0,0,0,.97,3.02,24.95,24.95,0,0,1,1.1715,3.1861,9.2237,9.2237,0,0,1,.2621,1.7512q.0758.8769.1527,1.77a53.1624,53.1624,0,0,0,1.0875,7.2776,22.2289,22.2289,0,0,1,.4668,3.7494c.0073,1.2568.0748,2.4344.1065,3.6251a17.6974,17.6974,0,0,0,.5915,3.4274,12.35,12.35,0,0,1,.3885,3.3887,15.78,15.78,0,0,0-.01,3.1558q.3735,1.5069.7247,2.9244a21.8826,21.8826,0,0,1,.4338,2.8105c.1.9114.047,1.789.1672,2.59a30.6973,30.6973,0,0,1,.7187,4.4258A6.3148,6.3148,0,0,1,77.3,286.763a.5014.5014,0,0,1-.3361.3655,2.2975,2.2975,0,0,1-.4181-.0166c-.2589-.0226-.5026-.055-.7334-.086-.9217-.13-1.6294-.2687-2.1086-.3662A4.2243,4.2243,0,0,1,72.9787,286.4815Z" style="fill:#263238"/><g id="_2-2" data-name="2"><path d="M93.7538,193.2131c-.1693-.2938-.9337-1.3322-1.195-1.7011a16.2753,16.2753,0,0,0-1.4447-1.832,10.0868,10.0868,0,0,0,1.1333,2.15c.2421.3817.8362,1.4091,1.0306,1.687a.2515.2515,0,0,0,.3982.07A.2565.2565,0,0,0,93.7538,193.2131Z" style="fill:#e0e0e0"/><path d="M82.9264,216.6346c-.3335-.0613-1.62-.1514-2.07-.1912a16.3117,16.3117,0,0,0-2.3315-.086,10.0764,10.0764,0,0,0,2.3721.5291c.4476.0628,1.6153.2757,1.953.3074.1022.01.2737.0151.3112-.2579A.2566.2566,0,0,0,82.9264,216.6346Z" style="fill:#e0e0e0"/><path d="M83.741,238.0435c-.3389.0127-1.614.2047-2.0621.2637a16.3179,16.3179,0,0,0-2.2943.4234,10.0718,10.0718,0,0,0,2.43,0c.4505-.036,1.6364-.0824,1.9729-.1249.102-.0129.2706-.0448.2477-.3194A.2564.2564,0,0,0,83.741,238.0435Z" style="fill:#e0e0e0"/><path d="M85.72,254.3466c-.3389.0128-1.614.2047-2.0621.2636a16.3143,16.3143,0,0,0-2.2944.4235,10.079,10.079,0,0,0,2.43,0c.4506-.0361,1.6365-.0824,1.973-.1249.1019-.0129.2706-.0448.2476-.3194A.2564.2564,0,0,0,85.72,254.3466Z" style="fill:#e0e0e0"/><path d="M87.114,269.0073c-.3389.0127-1.614.2047-2.0622.2636a16.3123,16.3123,0,0,0-2.2943.4235,10.0783,10.0783,0,0,0,2.43,0c.4506-.0361,1.6366-.0824,1.9731-.125.1018-.0127.27-.0447.2476-.3193A.2565.2565,0,0,0,87.114,269.0073Z" style="fill:#e0e0e0"/><path d="M87.8644,281.7387c-.3371.0368-1.5952.3192-2.038.41a16.2971,16.2971,0,0,0-2.2584.586,10.0791,10.0791,0,0,0,2.4243-.173c.4468-.0682,1.6265-.1991,1.959-.2654.1008-.02.2667-.0639.2242-.3362A.2563.2563,0,0,0,87.8644,281.7387Z" style="fill:#e0e0e0"/><path d="M86.6664,202.5262c-.3093-.1389-1.5373-.5323-1.9652-.6782a16.3112,16.3112,0,0,0-2.2442-.6379,10.0782,10.0782,0,0,0,2.1783,1.078c.42.1675,1.5033.6519,1.8237.763.0971.0337.2624.08.3637-.1765A.2564.2564,0,0,0,86.6664,202.5262Z" style="fill:#e0e0e0"/><path d="M103.6362,191.3809c-.0037-.339-.1615-1.6189-.2085-2.0684a16.3,16.3,0,0,0-.3621-2.3049,10.084,10.084,0,0,0-.0652,2.43c.0241.4513.0388,1.6381.0723,1.9755.01.1022.0375.2717.3127.2562A.2565.2565,0,0,0,103.6362,191.3809Z" style="fill:#e0e0e0"/><path d="M108.1707,190.244a44.7188,44.7188,0,0,1-5.1427-1.1623c-.2505.1162-5.0991,2.0136-5.441,2.1965-.2689.1034-4.9862.38-5.2423.5863A45.9833,45.9833,0,0,0,89.1936,197s-4.4315,4.49-4.781,5.6059c-.1773.5662-1.02,7.3815-1.02,7.3815s-2.4,6.3275-2.428,6.5879c-.0554.5208,1.0939,9.5085,1.3764,10.153,0,0-.3838,11.0189-.3759,11.5826a56.8037,56.8037,0,0,1,2.015,8.5214c.229,2.626-.5773,7.8341-.3638,7.8891,0,0,1.9815,5.7087,1.9794,7.3762-.0463,2.0171-1.1827,6.9838-1.1237,7.2535,0,0,.9574,3.6006,1.13,4.4551.5445,2.6994-.3065,5.4885-.1254,8.2363-.029.4033,2.0174,3.8886,2.4249,3.9339,3.1226.3475,9.0577.8186,11.1932.7331C100.1049,286.6692,108.1707,190.244,108.1707,190.244Z" style="fill:#455a64"/><path d="M126.3935,221.2644c.339.01,1.6154.1932,2.064.2491a16.3262,16.3262,0,0,1,2.2973.407,10.0724,10.0724,0,0,1-2.43.0176c-.4509-.0328-1.6371-.0707-1.9739-.1109-.102-.0121-.2708-.0428-.25-.3176A.2565.2565,0,0,1,126.3935,221.2644Z" style="fill:#e0e0e0"/><path d="M121.133,242.0262c.3286.0839,1.5346.54,1.96.6921a16.3345,16.3345,0,0,1,2.1537.8972,10.0689,10.0689,0,0,1-2.3759-.5116c-.4329-.13-1.5825-.4253-1.9025-.5376-.0968-.0341-.255-.1009-.1748-.3645A.2566.2566,0,0,1,121.133,242.0262Z" style="fill:#e0e0e0"/><path d="M116.5451,257.63c.3286.0839,1.5347.54,1.96.6921a16.2871,16.2871,0,0,1,2.1537.8973,10.0823,10.0823,0,0,1-2.3759-.5117c-.4329-.13-1.5824-.4253-1.9024-.5377-.0968-.034-.2551-.1007-.1748-.3644A.2565.2565,0,0,1,116.5451,257.63Z" style="fill:#e0e0e0"/><path d="M112.7022,271.7328c.3287.0837,1.5347.54,1.96.6921a16.2989,16.2989,0,0,1,2.1537.8973,10.0823,10.0823,0,0,1-2.3759-.5117c-.4329-.13-1.5825-.4253-1.9024-.5377-.0969-.0341-.2551-.1008-.1749-.3645A.2564.2564,0,0,1,112.7022,271.7328Z" style="fill:#e0e0e0"/><path d="M109.6249,284.1441c.3218.1071,1.4922.6481,1.906.83a16.3148,16.3148,0,0,1,2.0842,1.0486,10.0721,10.0721,0,0,1-2.3334-.68c-.4225-.1606-1.5481-.537-1.8592-.6719-.0943-.041-.2473-.1187-.1483-.3761A.2563.2563,0,0,1,109.6249,284.1441Z" style="fill:#e0e0e0"/><path d="M126.17,206.7338c.3317-.0706,1.615-.1965,2.0639-.2489a16.3067,16.3067,0,0,1,2.3283-.151,10.0835,10.0835,0,0,1-2.3564.595c-.4458.0753-1.607.3206-1.9435.3618-.1021.0124-.2734.0227-.3184-.2492A.2565.2565,0,0,1,126.17,206.7338Z" style="fill:#e0e0e0"/><path d="M121.6786,195.3393c.2274-.2517,1.1934-1.1057,1.5264-1.4114a16.31,16.31,0,0,1,1.7982-1.4866,10.0765,10.0765,0,0,1-1.5607,1.8631c-.3171.3221-1.1142,1.2014-1.3629,1.432a.2514.2514,0,0,1-.404-.0153A.2564.2564,0,0,1,121.6786,195.3393Z" style="fill:#e0e0e0"/><path d="M113.4539,192.14c.0749-.3308.4987-1.5486.6394-1.9782a16.3305,16.3305,0,0,1,.8394-2.1769,10.0771,10.0771,0,0,1-.4479,2.3888c-.1187.4362-.383,1.5932-.4868,1.9161-.0314.0977-.0939.2577-.36.1845A.2564.2564,0,0,1,113.4539,192.14Z" style="fill:#e0e0e0"/><path d="M108.3866,190.2635l5.6526-.0565c.183.1623,3.7943,2.9608,4.04,3.2063.2007.1534,4.0186,1.3386,4.1886,1.5909a50.3107,50.3107,0,0,1,1.59,5.6407s2.7663,5.2563,2.8367,6.4171c.0358.589-.5941,7.427-.5941,7.427s.7428,6.6623.7151,6.9227c-.0555.5207-2.7417,9.1-3.0986,9.6764,0,0-1.8219,10.8657-1.9376,11.4162a64.1262,64.1262,0,0,0-3.3064,7.9546c-.6972,2.5273-1.0455,7.7843-1.2313,7.7968,0,0-2.7333,5.2064-3.055,6.84-.3531,1.9845-.3837,7.0691-.4844,7.3217,0,0-1.484,3.3405-1.7911,4.144-.97,2.5381-.8129,5.4345-1.4944,8.0905-.0544.4005-2.41,3.417-2.753,3.3823a80.5448,80.5448,0,0,1-9.3286-1.4527C97.5131,286.3456,108.3866,190.2635,108.3866,190.2635Z" style="fill:#455a64"/><g style="opacity:0.30000000000000004"><path d="M108.3866,190.2635l5.6526-.0565c.183.1623,3.7943,2.9608,4.04,3.2063.2007.1534,4.0186,1.3386,4.1886,1.5909a50.3107,50.3107,0,0,1,1.59,5.6407s2.7663,5.2563,2.8367,6.4171c.0358.589-.5941,7.427-.5941,7.427s.7428,6.6623.7151,6.9227c-.0555.5207-2.7417,9.1-3.0986,9.6764,0,0-1.8219,10.8657-1.9376,11.4162a64.1262,64.1262,0,0,0-3.3064,7.9546c-.6972,2.5273-1.0455,7.7843-1.2313,7.7968,0,0-2.7333,5.2064-3.055,6.84-.3531,1.9845-.3837,7.0691-.4844,7.3217,0,0-1.484,3.3405-1.7911,4.144-.97,2.5381-.8129,5.4345-1.4944,8.0905-.0544.4005-2.41,3.417-2.753,3.3823a80.5448,80.5448,0,0,1-9.3286-1.4527C97.5131,286.3456,108.3866,190.2635,108.3866,190.2635Z"/></g><path d="M106.27,190.9789c-.0586-.2721-.15-.6317-.2571-.9869a7.764,7.764,0,0,0-.3332-.967,1.6829,1.6829,0,0,0-.2713-.408,1.6831,1.6831,0,0,0-.0353.4887,7.7945,7.7945,0,0,0,.1864,1.0057c.0813.3621.18.72.2624.9856.0248.0805.0747.2123.2935.1547A.2106.2106,0,0,0,106.27,190.9789Z" style="fill:#e0e0e0"/><path d="M110.7792,191.4592c.1146-.2537.2792-.5861.4592-.9106a7.7881,7.7881,0,0,1,.5293-.8752,1.6867,1.6867,0,0,1,.3513-.3416,1.68,1.68,0,0,1-.0684.4852,7.8176,7.8176,0,0,1-.394.9438c-.1558.3368-.3277.6655-.4642.9082-.0413.0735-.1178.1919-.32.0894A.21.21,0,0,1,110.7792,191.4592Z" style="fill:#e0e0e0"/><path d="M118.549,209.8121c.3177-.1188.7463-.2617,1.1812-.3846a9.4933,9.4933,0,0,1,1.2106-.2935,2.0526,2.0526,0,0,1,.5967.01,2.0458,2.0458,0,0,1-.4781.3572,9.4794,9.4794,0,0,1-1.1538.4694c-.4248.1545-.8563.2879-1.1832.3783-.099.0273-.267.0629-.3516-.1994A.2565.2565,0,0,1,118.549,209.8121Z" style="fill:#e0e0e0"/><path d="M116.0407,197.4306c.2345-.2449.5584-.56.8968-.8595a9.4662,9.4662,0,0,1,.9629-.79,2.0454,2.0454,0,0,1,.542-.25,2.0486,2.0486,0,0,1-.2755.5294,9.484,9.484,0,0,1-.8353.924c-.3156.3237-.6462.6315-.9015.8548a.2514.2514,0,0,1-.4033-.0269A.2567.2567,0,0,1,116.0407,197.4306Z" style="fill:#e0e0e0"/><path d="M118.5312,224.4444c.3389.01.79.04,1.2389.0911a9.4777,9.4777,0,0,1,1.2315.1866,2.0506,2.0506,0,0,1,.5484.2354,2.0445,2.0445,0,0,1-.5777.15,9.459,9.459,0,0,1-1.2457-.0022c-.4517-.0178-.9016-.0577-1.2384-.0977-.1019-.0122-.2709-.0428-.25-.3177A.2566.2566,0,0,1,118.5312,224.4444Z" style="fill:#e0e0e0"/><path d="M114.49,243.1951c.3333.0625.774.1616,1.21.2812a9.47,9.47,0,0,1,1.188.3744,2.0487,2.0487,0,0,1,.5054.3173,2.0481,2.0481,0,0,1-.5938.0587,9.4881,9.4881,0,0,1-1.23-.1944c-.4435-.0874-.8819-.1962-1.2085-.2878-.0989-.0277-.2611-.0841-.1979-.3524A.2564.2564,0,0,1,114.49,243.1951Z" style="fill:#e0e0e0"/><path d="M111.1145,259.7986c.3207.1105.7422.2728,1.156.4547a9.4758,9.4758,0,0,1,1.1208.5436,2.0525,2.0525,0,0,1,.4538.3877,2.0479,2.0479,0,0,1-.5961-.0286,9.4732,9.4732,0,0,1-1.1889-.3717c-.426-.1511-.8438-.3227-1.1536-.4609-.0938-.0419-.246-.1214-.1444-.3776A.2566.2566,0,0,1,111.1145,259.7986Z" style="fill:#e0e0e0"/><path d="M107.644,273.3241c.2938.1012.68.25,1.0593.4166a8.6953,8.6953,0,0,1,1.027.4982,1.8765,1.8765,0,0,1,.4157.3552,1.88,1.88,0,0,1-.5461-.0261,8.7193,8.7193,0,0,1-1.09-.3407c-.39-.1385-.7732-.2957-1.057-.4224-.0859-.0382-.2253-.1111-.1323-.3459A.235.235,0,0,1,107.644,273.3241Z" style="fill:#e0e0e0"/><path d="M105.001,286.2981c.1941.1632.4447.39.6848.6276a7.117,7.117,0,0,1,.6363.68,1.532,1.532,0,0,1,.2126.3923,1.5316,1.5316,0,0,1-.4084-.18,7.1172,7.1172,0,0,1-.73-.5785c-.2567-.22-.5023-.4517-.6814-.6312a.1879.1879,0,0,1,.0006-.3022A.1918.1918,0,0,1,105.001,286.2981Z" style="fill:#e0e0e0"/><path d="M93.8876,207.0227c-.2855-.183-.6743-.413-1.0737-.6249a9.5074,9.5074,0,0,0-1.1216-.5418,2.049,2.049,0,0,0-.5854-.1155,2.0489,2.0489,0,0,0,.392.45,9.49,9.49,0,0,0,1.0291.7019c.3827.24.7765.4618,1.0771.619.0909.0476.2477.1177.3857-.1209A.2566.2566,0,0,0,93.8876,207.0227Z" style="fill:#e0e0e0"/><path d="M99.8689,195.7081c-.1777-.2889-.428-.6649-.6957-1.0291a9.4437,9.4437,0,0,0-.7749-.9753,2.0471,2.0471,0,0,0-.4771-.3585,2.0481,2.0481,0,0,0,.1577.5755A9.4821,9.4821,0,0,0,98.7009,195c.24.3829.4987.7534.7012,1.0255a.2513.2513,0,0,0,.4.0586A.2566.2566,0,0,0,99.8689,195.7081Z" style="fill:#e0e0e0"/><path d="M91.208,221.5341c-.3335-.0613-.7805-.127-1.23-.1718a9.4872,9.4872,0,0,0-1.2432-.0771,2.05,2.05,0,0,0-.5856.1147,2.0438,2.0438,0,0,0,.5331.268,9.4776,9.4776,0,0,0,1.2182.26c.4453.0778.8935.1336,1.2312.1653.1022.01.2738.0152.3112-.2579A.2566.2566,0,0,0,91.208,221.5341Z" style="fill:#e0e0e0"/><path d="M91.1944,240.9562c-.339-.0091-.7907-.0051-1.2421.02a9.48,9.48,0,0,0-1.24.1158,2.0493,2.0493,0,0,0-.561.2037,2.05,2.05,0,0,0,.5683.1824,9.4845,9.4845,0,0,0,1.2437.0692c.4519.0079.9034-.006,1.242-.0269.1024-.0062.2729-.0271.2677-.3028A.2565.2565,0,0,0,91.1944,240.9562Z" style="fill:#e0e0e0"/><path d="M91.0791,257.8463c-.3368.0405-.783.11-1.2259.201a9.4667,9.4667,0,0,0-1.21.2955,2.0518,2.0518,0,0,0-.5252.2832,2.0463,2.0463,0,0,0,.5887.0977,9.4591,9.4591,0,0,0,1.2405-.1131c.4483-.0579.8929-.1376,1.2249-.2075.1-.0211.2659-.0668.2205-.3386A.2565.2565,0,0,0,91.0791,257.8463Z" style="fill:#e0e0e0"/><path d="M91.3522,271.9386c-.3085.0371-.7175.1011-1.1233.1841a8.6881,8.6881,0,0,0-1.1089.2708,1.8717,1.8717,0,0,0-.4812.26,1.876,1.876,0,0,0,.5395.0894,8.683,8.683,0,0,0,1.1366-.1035c.4108-.0531.8183-.1261,1.1223-.19.0921-.0194.2438-.0611.2022-.31A.235.235,0,0,0,91.3522,271.9386Z" style="fill:#e0e0e0"/><path d="M91.1222,284.5277c-.2242.1185-.5168.287-.8016.4691a7.0952,7.0952,0,0,0-.7653.5309,1.5323,1.5323,0,0,0-.2905.3388,1.5323,1.5323,0,0,0,.4371-.09,7.08,7.08,0,0,0,.8354-.4118c.2973-.1607.5862-.3357.799-.4735.0645-.0417.1678-.118.0632-.2956A.1918.1918,0,0,0,91.1222,284.5277Z" style="fill:#e0e0e0"/></g><path d="M108.2084,190.2079a15.0155,15.0155,0,0,1-2.5694.0226,2.5031,2.5031,0,0,0-1.6262.8715c-1.4082,1.295-3.0478,2.14-4.5538,3.3s-1.9854,2.4995-2.62,4.242a33.4042,33.4042,0,0,1-1.8868,4.2374c-.8012,1.5081-2.2065,3.2738-2.3739,5.0011-.1508,1.5557-.2367,3.1417-.4245,4.7124a32.6133,32.6133,0,0,1-.823,4.351,23.0053,23.0053,0,0,0-1.186,6.6786c.0567,2.0271.1568,4.0558.2809,6.08a32.97,32.97,0,0,1-.0058,4.0647c-.0988,1.5875-.23,3.6986-.3387,5.48a32.3544,32.3544,0,0,0,.2376,6.4278,46.33,46.33,0,0,1,.4785,4.9961c.0428,2.7629-.7611,5.5863-.4729,8.3392.2156,2.06.9663,4.1154.8785,6.2341-.0387.7016-.1778,1.794-.34,2.9236a33.5522,33.5522,0,0,0-.1373,8.3622c.0064.0589.0117.111.0158.1553a53.0638,53.0638,0,0,1-.2782,6.0835c-.013.5043.2785,5.48,1.2356,5.3193,1.9433-.3269,6.405-1.57,6.405-1.57Z" style="fill:#455a64"/><g style="opacity:0.2"><path d="M108.2084,190.2079a15.0155,15.0155,0,0,1-2.5694.0226,2.5031,2.5031,0,0,0-1.6262.8715c-1.4082,1.295-3.0478,2.14-4.5538,3.3s-1.9854,2.4995-2.62,4.242a33.4042,33.4042,0,0,1-1.8868,4.2374c-.8012,1.5081-2.2065,3.2738-2.3739,5.0011-.1508,1.5557-.2367,3.1417-.4245,4.7124a32.6133,32.6133,0,0,1-.823,4.351,23.0053,23.0053,0,0,0-1.186,6.6786c.0567,2.0271.1568,4.0558.2809,6.08a32.97,32.97,0,0,1-.0058,4.0647c-.0988,1.5875-.23,3.6986-.3387,5.48a32.3544,32.3544,0,0,0,.2376,6.4278,46.33,46.33,0,0,1,.4785,4.9961c.0428,2.7629-.7611,5.5863-.4729,8.3392.2156,2.06.9663,4.1154.8785,6.2341-.0387.7016-.1778,1.794-.34,2.9236a33.5522,33.5522,0,0,0-.1373,8.3622c.0064.0589.0117.111.0158.1553a53.0638,53.0638,0,0,1-.2782,6.0835c-.013.5043.2785,5.48,1.2356,5.3193,1.9433-.3269,6.405-1.57,6.405-1.57Z"/></g><path d="M98.1032,286.52a1.3887,1.3887,0,0,1-.2751.1c-.2078.0624-.4787.1437-.8206.2461-.7236.2083-1.7923.51-3.18.858l-1.1025.2632-.5978.1294-.3119.06a.4676.4676,0,0,1-.386-.0495,2.4251,2.4251,0,0,1-.6115-1.2781,14.6916,14.6916,0,0,1-.2687-1.457,17.5277,17.5277,0,0,1-.202-3.2667c.0577-1.1569.2126-2.3665.2642-3.6339a38.4241,38.4241,0,0,0-.2181-3.9879,33.3943,33.3943,0,0,1,.06-4.3691c.0551-.7524.1578-1.52.2523-2.2877q.1313-1.15.2666-2.3356a17.232,17.232,0,0,0-.5957-4.8313,14.8646,14.8646,0,0,1-.3209-2.5771,20.4106,20.4106,0,0,1,.1295-2.6473,33.8557,33.8557,0,0,0,.371-5.3607c-.0875-1.827-.3788-3.6607-.6009-5.5634a33.5032,33.5032,0,0,1-.0684-5.8043q.1762-2.9178.3483-5.7619c.09-1.8852-.07-3.7415-.1389-5.5868q-.0624-1.3794-.1237-2.7341a15.6439,15.6439,0,0,1,.0246-2.7075,34.8331,34.8331,0,0,1,1.144-5.09,30.3559,30.3559,0,0,0,.8648-4.8286c.1645-1.6.2511-3.1216.4681-4.6513a14.5216,14.5216,0,0,1,1.96-3.9257,29.9537,29.9537,0,0,0,1.7592-3.5753c.5-1.1669.8368-2.3424,1.3745-3.3879a6.46,6.46,0,0,1,2.1806-2.45,43.3791,43.3791,0,0,0,4.23-3.0138,4.059,4.059,0,0,1,.82-.6225,2.2819,2.2819,0,0,1,.8836-.23c.5617.0108,1.0184.0529,1.396.0683a3.13,3.13,0,0,0,1.13-.0215c.0343.0712-.3854.13-1.133.1126-.3747-.0008-.8476-.0283-1.3862-.0251a2.1632,2.1632,0,0,0-.8182.2338,3.9614,3.9614,0,0,0-.7733.6144,41.0219,41.0219,0,0,1-4.2,3.0883,6.2076,6.2076,0,0,0-2.0737,2.3763c-.5093,1.0112-.8389,2.1923-1.3349,3.3789a29.9615,29.9615,0,0,1-1.7547,3.6314A14.3635,14.3635,0,0,0,92.84,207.446c-.3675,2.93-.3831,6.2151-1.2959,9.5045a34.75,34.75,0,0,0-1.1178,5.0309,15.2963,15.2963,0,0,0-.0164,2.6477q.0637,1.351.1285,2.7274c.071,1.8285.2357,3.7114.1459,5.6258q-.1709,2.8467-.3465,5.772a33.2009,33.2009,0,0,0,.0647,5.7316c.2163,1.8684.51,3.7376.5958,5.5871a34.0133,34.0133,0,0,1-.3839,5.4265,15.0951,15.0951,0,0,0,.1708,5.1,17.53,17.53,0,0,1,.5836,4.9337q-.1421,1.2-.28,2.3642c-.0989.7727-.2029,1.52-.2619,2.267a33.324,33.324,0,0,0-.0854,4.3218,38.1551,38.1551,0,0,1,.1889,4.0183c-.063,1.2866-.2286,2.4938-.2964,3.6365a17.49,17.49,0,0,0,.1654,3.217c.0638.5006.1413.9817.2461,1.4353a2.3631,2.3631,0,0,0,.5023,1.1533c.0937.09.3435-.0147.54-.0324l.5956-.1188q.5791-.1276,1.1031-.2428l3.1978-.7748.832-.2027A1.412,1.412,0,0,1,98.1032,286.52Z" style="fill:#263238"/><path d="M98.2646,283.1213c-.1242-.0133,1.7772-18.82,4.2463-42.0015,2.47-23.1893,4.5723-41.9709,4.6964-41.9576s-1.7768,18.8163-4.2467,42.0054C100.4915,264.3488,98.3887,283.1345,98.2646,283.1213Z" style="fill:#263238"/><path d="M108.1994,190.2438c1.5594.4719,2.8058.3134,3.8533,1.7078a54.0033,54.0033,0,0,0,3.7808,4.271c1.3605,1.4632,1.4327,2.71,1.7022,4.6624a33.4143,33.4143,0,0,0,.9519,4.54,29.0863,29.0863,0,0,1,.9983,5.3262,27.0907,27.0907,0,0,1-.3086,4.7591,32.6205,32.6205,0,0,0-.112,4.4265,24.16,24.16,0,0,1-.2569,6.8172c-.492,1.9544-1.0014,3.9054-1.5456,5.8459a32.9424,32.9424,0,0,0-.85,3.9748c-.2378,1.5727-.5546,3.664-.8233,5.4286a32.3606,32.3606,0,0,1-1.5862,6.2336,46.3162,46.3162,0,0,0-1.52,4.783c-.6511,2.81-.5646,5.8407-1.4735,8.5842-.6166,1.8616-1.656,3.6238-1.9928,5.5768-.11.6941-.2041,1.7913-.2833,2.93a33.55,33.55,0,0,1-1.6271,8.2036c-.0186.0562-.0347.106-.0481.1486-.7092,2.2547-.7141,4.64-1.17,6.944-.0925.4683-1.34,4.3308-2.1682,4.0011a63.2708,63.2708,0,0,1-5.7-2.9976Z" style="fill:#455a64"/><path d="M98.3348,286.5813a1.42,1.42,0,0,1,.262.1262l.7489.4042c.6583.3544,1.625.8872,2.8962,1.5159.3185.1548.6552.3187,1.0149.4745.1708.0757.3827.1672.5373.2175.13.023.2964-.1233.4216-.277a9.6844,9.6844,0,0,0,1.1833-2.4961,12.5244,12.5244,0,0,0,.6508-3.1277c.1392-1.133.2478-2.343.4981-3.6013.2392-1.2724.7556-2.507,1.0617-3.85a33.51,33.51,0,0,0,.7794-4.2256q.2111-2.2359.4361-4.6189a24.2722,24.2722,0,0,1,1.6458-4.6579c1.3288-3.0777,1.0164-6.7163,2.0018-10.2984.48-1.7742,1.1744-3.5259,1.7576-5.2984a33.6549,33.6549,0,0,0,1.2359-5.5637l.8753-5.6818c.3228-1.878.8793-3.6705,1.3294-5.4338q.3513-1.3239.6963-2.624a13.6419,13.6419,0,0,0,.5175-2.576,38.0839,38.0839,0,0,0-.0306-5.1264,32.6735,32.6735,0,0,1,.1829-4.9318,19.37,19.37,0,0,0,.2227-4.5726,29.0508,29.0508,0,0,0-.76-4.2245,38.9822,38.9822,0,0,1-.91-3.8938c-.2367-1.2549-.3012-2.4785-.5617-3.5693a5.5691,5.5691,0,0,0-1.59-2.6866,46.5419,46.5419,0,0,1-3.4037-3.912,3.9742,3.9742,0,0,0-2.7357-1.515c-.3653-.0815-.6419-.1572-.826-.2124a1.3944,1.3944,0,0,1-.273-.1011,1.3822,1.3822,0,0,1,.2849.0565l.8327.1678a8.08,8.08,0,0,1,1.3512.3357,3.262,3.262,0,0,1,1.5063,1.1622,49.4015,49.4015,0,0,0,3.4478,3.8454,5.8246,5.8246,0,0,1,1.6838,2.7885c.2816,1.1368.3525,2.3435.5978,3.5838a39.178,39.178,0,0,0,.9331,3.8627,29.1653,29.1653,0,0,1,.7956,4.2733,19.6394,19.6394,0,0,1-.2,4.6548,32.469,32.469,0,0,0-.1619,4.8717,38.1438,38.1438,0,0,1,.0442,5.1844,14.0315,14.0315,0,0,1-.5232,2.6434q-.343,1.3029-.6927,2.63c-.4512,1.7785-.9986,3.55-1.3144,5.3981q-.43,2.7966-.871,5.67a33.96,33.96,0,0,1-1.2541,5.6313c-.5985,1.8121-1.2808,3.5241-1.76,5.2809-.9717,3.4679-.6671,7.1525-2.0414,10.3336a24.1934,24.1934,0,0,0-1.6411,4.5708q-.2351,2.37-.456,4.5977a33.56,33.56,0,0,1-.8134,4.2667c-.3214,1.3615-.8475,2.5992-1.0866,3.8279-.5265,2.4617-.4572,4.82-1.224,6.75a9.7319,9.7319,0,0,1-1.2559,2.5492.7477.7477,0,0,1-.622.3419,5.2461,5.2461,0,0,1-.5826-.2413c-.3614-.1639-.6966-.3345-1.0139-.4962-1.2644-.6556-2.2174-1.2134-2.8621-1.594l-.7271-.4434A1.3444,1.3444,0,0,1,98.3348,286.5813Z" style="fill:#263238"/><polygon points="107.859 342.046 67.631 342.046 52.001 281.844 122.274 281.844 107.859 342.046" style="fill:#ff725e"/><g style="opacity:0.30000000000000004"><polygon points="52.001 281.844 67.631 342.046 88.66 342.046 86.5 281.983 52.001 281.844"/></g><path d="M89.0386,341.8557c-.1248.0053-.7942-13.3946-1.4951-29.9256-.701-16.5367-1.168-29.9422-1.0432-29.9475s.794,13.3917,1.495,29.9284C88.6962,328.442,89.1633,341.85,89.0386,341.8557Z" style="fill:#263238"/><path d="M535.3921,423.2564H184.0028a2.2411,2.2411,0,0,1-2.2409-2.2116l-.058-4.3993,356.4131-.6525v4.5385A2.7249,2.7249,0,0,1,535.3921,423.2564Z" style="fill:#263238"/><g style="opacity:0.30000000000000004"><path d="M535.3921,423.2564H184.0028a2.2411,2.2411,0,0,1-2.2409-2.2116l-.058-4.3993,356.4131-.6525v4.5385A2.7249,2.7249,0,0,1,535.3921,423.2564Z"/></g><path d="M519.9781,364.0009H197.2474a2.7329,2.7329,0,0,0-2.6472,2.0539L181.791,415.993a2.7329,2.7329,0,0,0,2.6489,3.4119l350.9441-.2259a2.733,2.733,0,0,0,2.6087-3.5418l-15.4042-49.7123A2.733,2.733,0,0,0,519.9781,364.0009Z" style="fill:#263238"/><path d="M429.6144,374.6964q.2357,2.6492.4712,5.2984h14.3475l-.0311-.35q-.2344-2.637-.469-5.2739H429.5855Z" style="fill:#455a64"/><path d="M352.4543,389.1505H329.2066l.1924,6.67h24.0793Z" style="fill:#455a64"/><path d="M416.92,381.5279H394.1883l.7067,6.0895h22.54Z" style="fill:#455a64"/><path d="M378.5485,389.1505H353.9952l1.024,6.67h24.7913Z" style="fill:#455a64"/><path d="M440.7025,381.5279h-22.25l.5155,6.0895h22.5091Z" style="fill:#455a64"/><path d="M513.1394,381.5279H490.2112l.634,6.0895h23.2272Z" style="fill:#455a64"/><path d="M477.2565,374.6964q.2355,2.6492.4711,5.2984h14.3476q-.0154-.1747-.0311-.35-.2344-2.637-.469-5.2739H477.2276Z" style="fill:#455a64"/><path d="M485.5772,389.1505H473.6833a.3915.3915,0,0,0-.3864.4537l.95,5.8869a.3914.3914,0,0,0,.3864.3291h11.8953a.3914.3914,0,0,0,.3864-.4538l-.951-5.8869A.3914.3914,0,0,0,485.5772,389.1505Z" style="fill:#455a64"/><path d="M488.6781,381.5279H466.4035l.6331,6.0895h22.2755Z" style="fill:#455a64"/><path d="M522.44,381.5279h-7.76l.9328,6.0895h8.6049Z" style="fill:#455a64"/><path d="M464.87,381.5279H442.2356l.7746,6.0895h22.4932Z" style="fill:#455a64"/><path d="M369.054,381.5279H347.1279l.5652,6.0895h22.1583Z" style="fill:#455a64"/><path d="M345.5948,381.5279H324.32l-.3431,6.0895H346.16Z" style="fill:#455a64"/><path d="M327.6735,389.1505H306.47l-.3178,6.67h21.7142Z" style="fill:#455a64"/><path d="M461.3758,374.6964q.2355,2.6492.4712,5.2984h14.3475l-.031-.35q-.2344-2.637-.469-5.2739H461.3469Q461.3615,374.5338,461.3758,374.6964Z" style="fill:#455a64"/><path d="M392.6552,381.5279H370.5871l.7973,6.0895H393.362Z" style="fill:#455a64"/><path d="M305.8333,381.5279h-5.5061l-.7708,6.0895h22.887l.3432-6.0895Z" style="fill:#455a64"/><path d="M257.5245,389.1505l-1.0957,6.67h23.9974l.9039-6.67Z" style="fill:#455a64"/><path d="M277.0957,381.5279a1.0127,1.0127,0,0,1-.0034.2116q-.066.4042-.1322.8083-.4148,2.5347-.8294,5.07h21.8926l.7708-6.0895Z" style="fill:#455a64"/><path d="M282.7379,389.1505l-.9038,6.67h22.6588l.3178-6.67Z" style="fill:#455a64"/><path d="M253.53,381.5279l-.547,6.0895h21.6028l.9963-6.0895Z" style="fill:#455a64"/><path d="M390.9157,397.3533H362.8488a.8212.8212,0,0,0-.8165.9092l.69,6.4017a.8212.8212,0,0,0,.8165.7333h28.0669a.8214.8214,0,0,0,.8166-.9093l-.69-6.4016A.8212.8212,0,0,0,390.9157,397.3533Z" style="fill:#455a64"/><path d="M483.8485,367.3605q.1446,2.739.2891,5.4777h20.79l-.0069-.1323q-.1611-3.0527-.3223-6.1052l-20.7911-.0214Q483.8279,366.97,483.8485,367.3605Z" style="fill:#455a64"/><path d="M221.5557,367.813q-.435,2.5125-.87,5.0252h23.4606l.0126-.1546q.2577-3.1753.5153-6.3507l-23.0964-.0238a.8839.8839,0,0,1,.1279.6379Q221.6306,367.38,221.5557,367.813Z" style="fill:#455a64"/><path d="M524.6656,389.1505H501.8205l1.0826,6.67h23.71Z" style="fill:#455a64"/><path d="M496.9833,397.3533h-14.277a.619.619,0,0,0-.6146.6922l.812,6.8064a.6189.6189,0,0,0,.6146.5456h14.2769a.619.619,0,0,0,.6146-.6923l-.8119-6.8063A.6189.6189,0,0,0,496.9833,397.3533Z" style="fill:#455a64"/><path d="M480.09,397.3533H460.6358a.6189.6189,0,0,0-.6146.6922l.8119,6.8064a.6189.6189,0,0,0,.6146.5456h19.4538a.6189.6189,0,0,0,.6146-.6923l-.8119-6.8063A.6189.6189,0,0,0,480.09,397.3533Z" style="fill:#455a64"/><path d="M464.9932,406.9306H447.2284a.485.485,0,0,0-.4837.522l.5211,6.838a.4851.4851,0,0,0,.4837.4482h17.8477a.485.485,0,0,0,.4832-.5278l-.6039-6.838A.4852.4852,0,0,0,464.9932,406.9306Z" style="fill:#455a64"/><path d="M513.0774,406.9306H493.58a.8935.8935,0,0,0-.889.9835l.6095,6.0212a.8935.8935,0,0,0,.889.8035h19.3628a.8936.8936,0,0,0,.8908-.9637l-.4747-6.0212A.8935.8935,0,0,0,513.0774,406.9306Z" style="fill:#455a64"/><path d="M426.625,389.1505H406.61a.6189.6189,0,0,0-.6109.7181l.8817,5.4318a.6189.6189,0,0,0,.6109.52h20.0149a.6189.6189,0,0,0,.6109-.7181l-.8817-5.4318A.619.619,0,0,0,426.625,389.1505Z" style="fill:#455a64"/><path d="M408.8,407.8586a1.053,1.053,0,0,0-1.0456-.928H291.6209a1.053,1.053,0,0,0-1.0514,1.1117l.3178,5.702a1.0531,1.0531,0,0,0,1.0515.9945H408.4361a1.0531,1.0531,0,0,0,1.0457-1.1782Z" style="fill:#455a64"/><path d="M436.5205,397.3533H416.1463a.6189.6189,0,0,0-.6154.6852l.7333,6.8063a.6189.6189,0,0,0,.6154.5527h20.4528a.619.619,0,0,0,.6146-.6923l-.8119-6.8063A.6189.6189,0,0,0,436.5205,397.3533Z" style="fill:#455a64"/><path d="M251.9445,381.5278H230.0368a.6113.6113,0,0,0-.61.5127c-.2678,1.5462-.5682,3.2814-.8388,4.8446a.6218.6218,0,0,0,.6174.7323h22.0782Z" style="fill:#455a64"/><path d="M283.142,374.6964q-.2379,2.6492-.4759,5.2984h14.7393q.0158-.1747.0313-.35.2369-2.637.4738-5.2739H283.1712Q283.1567,374.5338,283.142,374.6964Z" style="fill:#455a64"/><path d="M266.87,374.6964q-.2379,2.6492-.476,5.2984H281.133l.0314-.35.4737-5.2739H266.8989Z" style="fill:#455a64"/><path d="M243.7,379.9948h21.16l.0315-.35.4737-5.2739h-23.36l-.02.2222-.4851,5.4013Z" style="fill:#455a64"/><path d="M331.9591,374.6964q-.238,2.6492-.4759,5.2984h15.5384l-.0142-.35q-.1068-2.637-.2138-5.2739H331.9883Z" style="fill:#455a64"/><path d="M348.34,374.6964l.2148,5.2984h15.2678l-.0431-.34q-.3349-2.642-.67-5.2839h-14.783Z" style="fill:#455a64"/><path d="M269.0134,398.4516l-.9171,5.4065a1.3189,1.3189,0,0,0,1.3,1.5394h19.554a1.3189,1.3189,0,0,0,1.3179-1.2691l.2041-5.4065a1.3188,1.3188,0,0,0-1.3179-1.3686h-18.841A1.3189,1.3189,0,0,0,269.0134,398.4516Z" style="fill:#455a64"/><path d="M380.9786,374.4949q.5112,2.75,1.0223,5.5h14.1775q-.0167-.1747-.0335-.35-.2531-2.637-.5061-5.2739H380.9556Z" style="fill:#455a64"/><path d="M241.3942,398.0372l-1.0859,6.4017a.8213.8213,0,0,0,.81.9586h24.476a.8213.8213,0,0,0,.81-.6839l1.0859-6.4017a.8212.8212,0,0,0-.81-.9586h-24.476A.8213.8213,0,0,0,241.3942,398.0372Z" style="fill:#455a64"/><path d="M445.4662,374.3713q.0146.1624.0289.3251.2357,2.6492.4712,5.2984h14.3475l-.0311-.35q-.2344-2.637-.469-5.2739H445.4662Z" style="fill:#455a64"/><path d="M227.6281,381.5279H195.0548a.4249.4249,0,0,0-.4142.33l-1.1963,5.24a.4249.4249,0,0,0,.4143.5194h33.24a.9841.9841,0,0,1,.0026-.1307l.15-.8659.7956-4.5956A.4248.4248,0,0,0,227.6281,381.5279Z" style="fill:#455a64"/><path d="M449.979,389.2368c-.0047-.0291.0008-.0572-.0016-.0863H428.696l1.0827,6.67h21.2689Z" style="fill:#455a64"/><path d="M211.6741,407.4548l-1.294,6.5057a.6512.6512,0,0,0,.6387.7783H232.5a.6513.6513,0,0,0,.64-.53l1.228-6.5058a.6512.6512,0,0,0-.64-.772H212.3128A.6512.6512,0,0,0,211.6741,407.4548Z" style="fill:#455a64"/><path d="M236,407.6238l-1.2656,6.0659a.8711.8711,0,0,0,.8528,1.0491h21.4588a.8712.8712,0,0,0,.8635-.7556l.8115-6.0659a.8711.8711,0,0,0-.8635-.9867H236.8529A.8713.8713,0,0,0,236,407.6238Z" style="fill:#455a64"/><path d="M260.3018,407.5969l-.7956,6.2842a.762.762,0,0,0,.756.8577h11.7124a.7621.7621,0,0,0,.7586-.6891l.6041-6.2841a.7619.7619,0,0,0-.7585-.835H261.0579A.7622.7622,0,0,0,260.3018,407.5969Z" style="fill:#455a64"/><path d="M211.0368,397.91l-1.6985,6.5594a.7425.7425,0,0,0,.7188.9285h27.9146a.7415.7415,0,0,0,.7313-.6176c.3557-2.0974.7154-4.1947,1.207-6.2921.1284-.8054-.2648-1.1345-.8866-1.1345H211.7555A.7425.7425,0,0,0,211.0368,397.91Z" style="fill:#455a64"/><path d="M287.9166,406.9306h-11.58a1.1934,1.1934,0,0,0-1.1877,1.0763l-.5349,5.4212a1.1935,1.1935,0,0,0,1.1877,1.3107H287.991a1.1935,1.1935,0,0,0,1.1934-1.21l-.0744-5.4212A1.1936,1.1936,0,0,0,287.9166,406.9306Z" style="fill:#455a64"/><path d="M413.3681,397.3533H393.8755a.6189.6189,0,0,0-.6153.6852l.7331,6.8063a.619.619,0,0,0,.6154.5527h19.4927a.619.619,0,0,0,.6154-.6853l-.7333-6.8063A.6189.6189,0,0,0,413.3681,397.3533Z" style="fill:#455a64"/><path d="M218.5828,374.3713l-.0795.46q-.4471,2.582-.8941,5.1639h22.358q.02-.2262.0407-.4524l.4644-5.1711Z" style="fill:#455a64"/><path d="M190.9754,397.9131l-1.5077,6.604a.72.72,0,0,0,.702.88h16.787a.72.72,0,0,0,.6971-.54l1.71-6.604a.72.72,0,0,0-.6971-.9006H191.6774A.72.72,0,0,0,190.9754,397.9131Z" style="fill:#455a64"/><path d="M269.3759,367.2253q-.2832,2.8065-.5666,5.6129h21.32q.0224-.2232.045-.4465l.6069-6.0113-21.3173-.022Z" style="fill:#455a64"/><path d="M195.3678,379.9948h20.49l.2371-.2q.4452-2.5712.89-5.1422a.2407.2407,0,0,0-.2372-.2817H196.5417a.2408.2408,0,0,0-.2347.1871l-1.1738,5.1422A.2406.2406,0,0,0,195.3678,379.9948Z" style="fill:#455a64"/><path d="M192.817,389.8461l-1.1141,4.88a.8948.8948,0,0,0,.8723,1.0939h37.5486a.8949.8949,0,0,0,.8818-.7429l.84-4.88a.8947.8947,0,0,0-.8817-1.0466H193.6893A.8948.8948,0,0,0,192.817,389.8461Z" style="fill:#455a64"/><path d="M246.1363,367.2061q-.2285,2.8161-.457,5.6321h21.5969l.0451-.4465q.3046-3.0174.6092-6.0349l-21.7234-.0224Z" style="fill:#455a64"/><path d="M413.7048,374.3713l.0289.3251q.2355,2.6492.4711,5.2984h14.3476q-.0156-.1747-.031-.35-.2345-2.637-.469-5.2739Z" style="fill:#455a64"/><path d="M189.0482,407.4152l-1.498,6.5616a.6233.6233,0,0,0,.6077.762h20.2705a.6233.6233,0,0,0,.6119-.5043l1.2763-6.5616a.6233.6233,0,0,0-.6119-.7423H189.6558A.6232.6232,0,0,0,189.0482,407.4152Z" style="fill:#455a64"/><path d="M198.1083,366.6685l-1.271,5.5672a.4928.4928,0,0,0,.4805.6025h21.8189l.0525-.3032q.5191-2.9978,1.038-5.9955a.5728.5728,0,0,1,.1072-.2317l-21.7452-.0224A.4927.4927,0,0,0,198.1083,366.6685Z" style="fill:#455a64"/><path d="M458.2425,397.3533H439.3a.6189.6189,0,0,0-.6146.6922l.8119,6.8064a.6189.6189,0,0,0,.6146.5456h18.3927a.619.619,0,0,0,.6146-.6923Z" style="fill:#455a64"/><path d="M529.4886,406.9288l-13.5221-.0642a.4938.4938,0,0,0-.4947.5313l.5159,6.7678a.4938.4938,0,0,0,.4886.4563l14.9968.1138a.4938.4938,0,0,0,.4777-.6322l-1.99-6.8174A.4939.4939,0,0,0,529.4886,406.9288Z" style="fill:#455a64"/><path d="M444.296,406.9306H430.7209a.9711.9711,0,0,0-.9656,1.0752l.6318,5.8659a.9712.9712,0,0,0,.9656.8671h13.55a.9711.9711,0,0,0,.966-1.0711l-.6071-5.8659A.9713.9713,0,0,0,444.296,406.9306Z" style="fill:#455a64"/><path d="M490.5157,406.9306h-22.762a.59.59,0,0,0-.5867.649l.67,6.6288a.59.59,0,0,0,.5867.53h22.6456a.59.59,0,0,0,.5877-.6388l-.5538-6.6288A.59.59,0,0,0,490.5157,406.9306Z" style="fill:#455a64"/><path d="M514.5168,397.3533H499.7631a.6189.6189,0,0,0-.6146.6922l.8119,6.8064a.6189.6189,0,0,0,.6146.5456h14.7536a.619.619,0,0,0,.6146-.6923l-.8118-6.8063A.6189.6189,0,0,0,514.5168,397.3533Z" style="fill:#455a64"/><path d="M526.5966,397.3533h-9.311a.6189.6189,0,0,0-.6145.6931l.822,6.8064a.6189.6189,0,0,0,.6144.5447h10.4764a.6189.6189,0,0,0,.5941-.7924l-1.9873-6.8064A.6189.6189,0,0,0,526.5966,397.3533Z" style="fill:#455a64"/><path d="M506.1716,367.3605q.1446,2.739.2891,5.4777h13.442l-1.8171-6.2236-11.954-.0123Q506.1517,366.9814,506.1716,367.3605Z" style="fill:#455a64"/><path d="M427.006,406.9306H411.5594a1.2253,1.2253,0,0,0-1.2206,1.3326l.4712,5.3577a1.2252,1.2252,0,0,0,1.2205,1.1179h15.5526a1.2251,1.2251,0,0,0,1.2182-1.3564l-.5771-5.3578A1.2252,1.2252,0,0,0,427.006,406.9306Z" style="fill:#455a64"/><path d="M315.2881,398.1436l-.2417,6.4016a.8213.8213,0,0,0,.8207.8523h20.0838a.8213.8213,0,0,0,.8207-.79l.2417-6.4017a.8213.8213,0,0,0-.8207-.8522H316.1088A.8213.8213,0,0,0,315.2881,398.1436Z" style="fill:#455a64"/><path d="M233.5483,389.1505l-1.1281,6.67h22.4634l1.0956-6.67Z" style="fill:#455a64"/><path d="M292.0275,398.1436l-.2417,6.4016a.8214.8214,0,0,0,.8207.8523H312.69a.8213.8213,0,0,0,.8207-.79l.2417-6.4017a.8213.8213,0,0,0-.8207-.8522H292.8482A.8213.8213,0,0,0,292.0275,398.1436Z" style="fill:#455a64"/><path d="M360.4012,397.3533H338.5785l-.3037,8.0442h22.993Z" style="fill:#455a64"/><path d="M403.8116,389.1505H380.8511a.619.619,0,0,0-.6082.734l1.0277,5.4318a.619.619,0,0,0,.6082.5039h22.8144a.619.619,0,0,0,.611-.7181l-.8817-5.4318A.619.619,0,0,0,403.8116,389.1505Z" style="fill:#455a64"/><path d="M315.6867,374.6964q-.2379,2.6492-.4759,5.2984H329.95q.0156-.1747.0314-.35l.4737-5.2739H315.7159Z" style="fill:#455a64"/><path d="M397.2031,374.6964q.2542,2.6492.5084,5.2984h14.96q-.0156-.1747-.0311-.35-.2344-2.637-.469-5.2739h-15Z" style="fill:#455a64"/><path d="M364.6828,374.6863q.3363,2.6542.6728,5.3085h15.0911l-.0275-.1482q-.5088-2.7377-1.0177-5.4753H364.6428Z" style="fill:#455a64"/><path d="M299.4436,374.3713q-.0147.1624-.0292.3251-.2381,2.6492-.4759,5.2984h14.7392l.0315-.35q.2367-2.637.4737-5.2739H299.4436Z" style="fill:#455a64"/><path d="M471.1527,389.1505H452.237a.619.619,0,0,0-.611.7181l.8818,5.4318a.619.619,0,0,0,.6109.52h18.9158a.6189.6189,0,0,0,.6109-.7181l-.8817-5.4318A.6191.6191,0,0,0,471.1527,389.1505Z" style="fill:#455a64"/><path d="M315.0812,367.2253q-.2834,2.8065-.5666,5.6129h22.3223v-6.41l-21.6729-.0224Q315.1225,366.8155,315.0812,367.2253Z" style="fill:#455a64"/><path d="M414.2952,367.3605q.1446,2.739.2891,5.4777h23.374l-.007-.1323q-.163-3.087-.3259-6.1742l-23.3753-.0241Q414.2727,366.934,414.2952,367.3605Z" style="fill:#455a64"/><path d="M361.3027,366.4616l.0474.8989q.1447,2.739.2891,5.4777h24.8377q-.555-3.1747-1.11-6.3494l0-.0109-24.066-.0248Z" style="fill:#455a64"/><path d="M387.0067,367.005q.51,2.9166,1.02,5.8332h25.0247l-.007-.1323q-.1635-3.1-.3272-6.2l-25.8021-.0266Z" style="fill:#455a64"/><path d="M338.37,366.4294v6.4088h21.7361l-.0069-.1323q-.1647-3.1221-.33-6.2443l.0018-.01Z" style="fill:#455a64"/><path d="M292.2286,367.2253q-.2833,2.8065-.5666,5.6129h21.32q.0224-.2232.045-.4465l.6045-5.9878-21.3173-.0219Q292.2711,366.8036,292.2286,367.2253Z" style="fill:#455a64"/><path d="M499.7494,389.1505H488.1771a.619.619,0,0,0-.611.7181l.8818,5.4318a.619.619,0,0,0,.6109.52h11.5723a.619.619,0,0,0,.611-.7181L500.36,389.67A.6191.6191,0,0,0,499.7494,389.1505Z" style="fill:#455a64"/><path d="M509.0179,374.6964q.2355,2.6492.4712,5.2984h12.5032l-1.6419-5.6235H508.989Q509.0036,374.5338,509.0179,374.6964Z" style="fill:#455a64"/><path d="M493.1082,374.3713q.0144.1624.0289.3251.2357,2.6492.4712,5.2984h14.3476l-.0311-.35q-.2344-2.637-.469-5.2739Z" style="fill:#455a64"/><path d="M461.5254,367.3605q.1446,2.739.2891,5.4777h20.79l-.007-.1323q-.1618-3.064-.3235-6.1282l-20.7911-.0214Q461.5042,366.9585,461.5254,367.3605Z" style="fill:#455a64"/><path d="M439.2023,367.3605q.1445,2.739.2891,5.4777h20.79l-.0069-.1323q-.1624-3.0754-.3247-6.1511l-20.7911-.0215Q439.18,366.947,439.2023,367.3605Z" style="fill:#455a64"/><path d="M515.4907,365.9921c0,.1438-71.0007.26-158.5642.26-87.5939,0-158.5793-.1166-158.5793-.26s70.9854-.26,158.5793-.26C444.49,365.7317,515.4907,365.8483,515.4907,365.9921Z" style="fill:#fff"/><ellipse cx="86.2121" cy="424.0691" rx="37.733" ry="9.2899" style="fill:#e0e0e0"/><g style="opacity:0.30000000000000004"><path d="M104.24,425.6427c0,2.212-7.7914,4.0052-17.4026,4.0052s-17.4026-1.7932-17.4026-4.0052,7.7914-4.0053,17.4026-4.0053S104.24,423.4307,104.24,425.6427Z"/></g><path d="M120.9269,424.0691s-.0337.0509-.1069.1453a4.1194,4.1194,0,0,1-.3415.4052,8.05,8.05,0,0,1-1.5708,1.295,17.1049,17.1049,0,0,1-2.876,1.4537,34.7258,34.7258,0,0,1-4.0605,1.314,110.0832,110.0832,0,0,1-10.9038,2.0768,92.8466,92.8466,0,0,1-13.5441,1.12,122.9568,122.9568,0,0,1-13.5842-.5594,92.42,92.42,0,0,1-10.9739-1.6755,38.509,38.509,0,0,1-7.1511-2.194c-.4069-.1735-.7533-.3616-1.0595-.51-.2948-.1713-.5471-.311-.7447-.434l-.4348-.303c-.0972-.0691-.1443-.108-.1443-.108s.0543.0292.1548.0932l.4431.2876c.2.1177.4543.252.75.4176.3079.1429.6551.3252,1.0628.4934a39.7157,39.7157,0,0,0,7.15,2.135,94.54,94.54,0,0,0,10.9628,1.6355,125.2249,125.2249,0,0,0,13.5659.5448,94.0361,94.0361,0,0,0,13.52-1.1039c4.1283-.6388,7.8444-1.2322,10.8986-2.037a35.3027,35.3027,0,0,0,4.0555-1.2849,17.43,17.43,0,0,0,2.8754-1.42,8.38,8.38,0,0,0,1.5821-1.2616,4.956,4.956,0,0,0,.3532-.392C120.8834,424.1128,120.9269,424.0691,120.9269,424.0691Z" style="fill:#263238"/><path d="M48.5388,383.898s-.286,43.6211,37.03,44.5072h.2365c37.3159-.8861,38.08-45.0156,38.08-45.0156Z" style="fill:#ff725e"/><g style="opacity:0.30000000000000004"><path d="M84.464,425.6717c-5.4484-.9846-9.4138-1.6026-16.058-5.6675-4.4508-2.723-7.7026-6.6165-10.8628-10.7683-3.1268-4.1081-5.1109-9.3066-7.654-13.8,2.72,12.99,10.9254,32.3814,35.68,32.9693h.2365a37.8761,37.8761,0,0,0,14.406-3.0133C95.263,425.5533,89.3561,426.5557,84.464,425.6717Z"/></g><ellipse cx="86.2121" cy="383.898" rx="37.6733" ry="10.8581" style="fill:#ff725e"/><g style="opacity:0.30000000000000004"><path d="M53.86,386.5258c4.3667-3.4662,17.1372-5.9756,32.214-5.9756s27.8474,2.5094,32.214,5.9756a3.5172,3.5172,0,0,0,1.6092-2.6278c0-4.7515-15.1432-8.6033-33.8232-8.6033s-33.8232,3.8518-33.8232,8.6033A3.5169,3.5169,0,0,0,53.86,386.5258Z"/></g><path d="M123.8855,383.898a3.9994,3.9994,0,0,0-.4276-1.5947,6.32,6.32,0,0,0-1.2449-1.5753,13.0079,13.0079,0,0,0-2.2335-1.6054c-3.6062-2.0828-9.4666-3.7978-16.8126-4.857a112.7191,112.7191,0,0,0-12.1017-1.06,129.1136,129.1136,0,0,0-13.94.2355,93.823,93.823,0,0,0-15.2256,2.2543c-1.2991.31-2.5944.6825-3.8864,1.0977a33.047,33.047,0,0,0-3.8217,1.4815,16.0273,16.0273,0,0,0-3.5352,2.15,6.6962,6.6962,0,0,0-1.3982,1.528,3.3173,3.3173,0,0,0-.0037,3.8851,6.673,6.673,0,0,0,1.397,1.53,16.0006,16.0006,0,0,0,3.5354,2.1516,33.046,33.046,0,0,0,3.8225,1.4823c1.2923.4153,2.588.7883,3.8874,1.0982a93.8116,93.8116,0,0,0,15.2285,2.255,129.0913,129.0913,0,0,0,13.942.2355,112.7153,112.7153,0,0,0,12.1021-1.06c7.346-1.0594,13.2059-2.7746,16.8115-4.8572a13.0049,13.0049,0,0,0,2.2331-1.6054,6.3186,6.3186,0,0,0,1.2447-1.5751,4,4,0,0,0,.4274-1.5945s-.0064.1432-.0281.4238a3.727,3.727,0,0,1-.3676,1.1869,6.2921,6.2921,0,0,1-1.24,1.5971,12.9523,12.9523,0,0,1-2.2344,1.6266c-3.6093,2.1089-9.475,3.8447-16.8282,4.9214a112.1509,112.1509,0,0,1-12.1146,1.0826,128.61,128.61,0,0,1-13.9591-.2195,93.7257,93.7257,0,0,1-15.258-2.2492c-1.303-.31-2.603-.6838-3.9005-1.1a33.1681,33.1681,0,0,1-3.8426-1.4891,16.1593,16.1593,0,0,1-3.5745-2.1757,6.84,6.84,0,0,1-1.4324-1.57,3.4919,3.4919,0,0,1,.0039-4.0755,6.8641,6.8641,0,0,1,1.4335-1.5679,16.1871,16.1871,0,0,1,3.5743-2.1736,33.1968,33.1968,0,0,1,3.8417-1.4883c1.2971-.4163,2.5969-.79,3.8995-1.1a93.7261,93.7261,0,0,1,15.2551-2.2485,128.6061,128.6061,0,0,1,13.9575-.22,112.1521,112.1521,0,0,1,12.1143,1.0824c7.3532,1.0766,13.2194,2.8122,16.8293,4.9212a12.9555,12.9555,0,0,1,2.2347,1.6266,6.2923,6.2923,0,0,1,1.2407,1.5973,3.7267,3.7267,0,0,1,.3678,1.1871C123.8791,383.7549,123.8855,383.898,123.8855,383.898Z" style="fill:#263238"/><ellipse cx="86.0739" cy="386.5258" rx="32.214" ry="5.9756" style="fill:#6f4439"/><path d="M86.7465,391.0738a1.418,1.418,0,0,0-.6876-.2808,2.2231,2.2231,0,0,0-1.0411.1758.3783.3783,0,0,0-.2454.196c-.0644.18.128.3442.3028.4213a2.3647,2.3647,0,0,0,1.4451.1465c.1954-.0424.4226-.159.4194-.359A.4186.4186,0,0,0,86.7465,391.0738Z" style="fill:#6f4439"/><path d="M84.4676,391.8111a.5757.5757,0,0,0-.2792-.114.9025.9025,0,0,0-.4227.0714.1535.1535,0,0,0-.1.08c-.0262.073.052.14.1229.171a.96.96,0,0,0,.5867.06c.0793-.0173.1716-.0646.17-.1458A.17.17,0,0,0,84.4676,391.8111Z" style="fill:#6f4439"/><path d="M122.9067,395.5186q.2559-.0963.5188-.1695l-.7365.2008a5.9347,5.9347,0,0,1,1.4632-.196l-.79,0a6.7033,6.7033,0,0,1,1.7331.2342q-.3808-.1041-.7618-.2082a7.6748,7.6748,0,0,1,1.8245.7783l-.6576-.3876a8.0863,8.0863,0,0,1,1.5792,1.2332q-.2647-.2676-.5294-.5354a7.5912,7.5912,0,0,1,1.131,1.4751q-.1887-.3258-.3772-.6517a9.0537,9.0537,0,0,1,.86,2.0691l-.2007-.7364a10.7155,10.7155,0,0,1,.3593,2.7651l0-.79a13.1871,13.1871,0,0,1-.4763,3.4208l.2082-.7617a15.4279,15.4279,0,0,1-1.549,3.6326l.3876-.6576a16.4725,16.4725,0,0,1-2.6071,3.3437l.5354-.5294a16.163,16.163,0,0,1-3.1869,2.4319l.6517-.3771a15.9772,15.9772,0,0,1-3.7074,1.5431l.7364-.2007a16.5057,16.5057,0,0,1-4.2584.5747q.3949,0,.79,0a16.0738,16.0738,0,0,1-3.6141-.4127,2.9509,2.9509,0,0,0-2.1778.5782,2.944,2.944,0,0,0-.5532,4.1265q.2648.2677.5294.5354a2.9311,2.9311,0,0,0,1.4194.5958,18.76,18.76,0,0,0,5.2735.3879,18.9924,18.9924,0,0,0,5.1146-1.0565,18.7608,18.7608,0,0,0,8.1655-5.7412,19.0956,19.0956,0,0,0,2.6208-4.17,14.8429,14.8429,0,0,0,.7736-2.0334,18.6628,18.6628,0,0,0,.6478-2.8022,16.7619,16.7619,0,0,0,.1041-2.8648,10.3687,10.3687,0,0,0-.2925-2.1111,11.2613,11.2613,0,0,0-2.3665-4.879,11.0261,11.0261,0,0,0-1.9033-1.7474,10.8846,10.8846,0,0,0-2.3-1.2535,9.9621,9.9621,0,0,0-2.5059-.6232,11.6691,11.6691,0,0,0-1.6617-.0242,5.6948,5.6948,0,0,0-.9.1115,10.6235,10.6235,0,0,0-1.5842.4487,2.9438,2.9438,0,0,0-1.5819,3.852,2.9716,2.9716,0,0,0,1.5641,1.5747,3.1648,3.1648,0,0,0,2.2879.0072Z" style="fill:#ff725e"/><path d="M121.9564,395.761a1.22,1.22,0,0,1-.3847.0874,3.2922,3.2922,0,0,1-1.0788-.0316,2.53,2.53,0,0,1-1.3994-.7805,2.0321,2.0321,0,0,1-.4584-.85,2.685,2.685,0,0,1-.0424-1.03,5.7123,5.7123,0,0,1,.6146-1.8629,3.1452,3.1452,0,0,1,1.0835-1.1809,2.31,2.31,0,0,1,1.0234-.3474.952.952,0,0,1,.3949.0282c-.001.0154-.1413.0043-.3871.04a2.4454,2.4454,0,0,0-.9638.3843,3.1212,3.1212,0,0,0-1.008,1.1536,5.8047,5.8047,0,0,0-.5824,1.8082,2.5633,2.5633,0,0,0,.035.9644,1.8955,1.8955,0,0,0,.413.7851,2.461,2.461,0,0,0,1.304.7659,3.7064,3.7064,0,0,0,1.0456.0852A2.7374,2.7374,0,0,1,121.9564,395.761Z" style="fill:#263238"/><path d="M116.3507,413.0105c.0025.0055-.0361.0277-.1128.0651a1.86,1.86,0,0,1-.3509.1267,3.5316,3.5316,0,0,1-1.3669.0547c-.5762-.0643-1.2408-.26-1.9765-.3992a5.3486,5.3486,0,0,0-1.1652-.0874,2.5224,2.5224,0,0,0-1.18.3171,1.9113,1.9113,0,0,0-.7871.9081,3.6121,3.6121,0,0,0-.265,1.1266,4.4057,4.4057,0,0,0,.1972,1.9549,2.2314,2.2314,0,0,0,.7959,1.039,4.3659,4.3659,0,0,0,.4328.2352.3392.3392,0,0,1-.1284-.0237,1.5375,1.5375,0,0,1-.3416-.1536,2.204,2.204,0,0,1-.8745-1.05,4.3964,4.3964,0,0,1-.2436-2.0154,3.7091,3.7091,0,0,1,.2686-1.1821,2.0721,2.0721,0,0,1,.8559-.9911,2.6673,2.6673,0,0,1,1.2621-.3378,5.3744,5.3744,0,0,1,1.202.1c.7524.1526,1.4.3568,1.9647.4356a3.7737,3.7737,0,0,0,1.3341.0021C116.1819,413.0715,116.3439,412.9944,116.3507,413.0105Z" style="fill:#263238"/><g style="opacity:0.30000000000000004"><path d="M118.2879,386.5258c2.6313-4.6892,2.4013-6.7529,2.8057-12.1147.6942-9.2055-4.4244-16.3707-10.5428-18.6385-4.3412-1.609-9.34-.4665-13.5137-2.9354a6.0975,6.0975,0,0,1-2.724-3.25c-.9967-2.9754.9858-4.8817,2.5189-6.8558a21.4845,21.4845,0,0,0,3.5167-19.1248,11.6362,11.6362,0,0,0-4.4133-6.5473,6.8622,6.8622,0,0,0-4.9786-.9737,1.8571,1.8571,0,0,0-1.0805,2.9022c2.8241,4.1494,2.4162,10.4186-1.2674,13.93-3.0228,2.8814-7.3941,3.7294-11.5109,4.43-4.697.8-9.7224,1.7236-12.79,5.6323a7.4818,7.4818,0,0,0-1.3471,6.9484c2.259,6.7313,11.8618,2.6489,14.1463,7.9441A5.34,5.34,0,0,1,75.18,364.215c-3.9944,2.9031-8.7934,3.933-13.229,5.83-3.3559,1.4352-6.6289,3.5-8.4363,6.671s-1.7114,7.6349,1.001,10.0772c0,0,16.8972,5.3231,35.1928,4.4881S118.2879,386.5258,118.2879,386.5258Z" style="fill:#e0e0e0"/></g></g></g></svg>