<svg xmlns="http://www.w3.org/2000/svg" viewBox="0 0 2598.7264 1663.6996"><g id="Layer_2" data-name="Layer 2"><g id="_Layer_" data-name="&lt;Layer&gt;"><path d="M2598.7264,311.9639V1347.9066c0,173.985-165.0419,279.5766-338.8,300.7879-47.75,5.816-95.8023,9.828-146.6229,12.226-214.3084,10.2624-513.6669-11.845-533.2959-11.845-362.2241-20.14-261.7456-24.9323-1057.1674-4.023-1.9671,0-105.83,3.0179-184.0409,3.642C151.7,1650.1627,0,1514.0285,0,1347.9066V311.9639C0,145.8532,152.0132,1.4153,338.8,11.1872,512.2617,20.2643,767.4064,56.18,1033.3652,34.1825c316.3311-26.1554,916.7525-48.3887,1226.5615-22.9953C2446.2427,26.45,2598.7264,145.8532,2598.7264,311.9639Z" style="fill:#84d3ec"/><path d="M739.5965,479.2928s38.2322,5.3012,47.6473,26.071c7.95,17.5372-11.9655,17.0982-11.9655,17.0982l-33.2559-1.03-20.9844-15.17Z" style="fill:#ffb27d"/><path d="M1409.25,557.8346s-8.0067,22.2168,42.21,32.4988,27.2436,32.1516,36.2086,45.03c0,0,4.4825,5.7128,22.9729,9.2956s23.7281,49.0941-35.7627,37.825-85.9769-51.6274-85.9769-51.6274l-.8441-29.9184Z" style="fill:#331832"/><path d="M1152.7117,642.9642s-30.1169-13.6291-46.4273-2.8859c-13.7719,9.0712.8551,17.853.8551,17.853l24.56,14.45,22.1324-1.4008Z" style="fill:#ffb27d"/><path d="M1422.4657,650.2661c-41.02-36.8244-120.4493-12.63-174.3231-10.377-43.461,1.8171-96.1476-4.3186-96.1476-4.3186s-17.1342,25.9174-4.9484,45.1618c0,0,43.6046,18.007,95.333,26.0307,55.5092,8.61,110.9757,2.091,104.3451-.968C1346.7247,705.795,1435.7705,662.21,1422.4657,650.2661Z" style="fill:#daebe8"/><path d="M1461.6265,713.5246c-4.0656-48.75-.051-60.3582-47.1214-76.2023-6.2318-2.0991-35.9466-6.3567-42.6049-6.4616-38.7517-.61-55.0715,71.406-57.3629,136.2408.283,10.6073,1.4222,43.1657,2.3454,55.211,0,0,71.7887-24.1264,157.8225,8.7843C1474.72,829.16,1465.5291,760.3118,1461.6265,713.5246Z" style="fill:#daebe8"/><path d="M1474.8172,832.9865c-1.5814,10.3069-37.0059,23.6234-80.9966,16.0874s-78.5211-16.4549-76.94-26.7618,38.1965-13.7688,82.6665-10.563C1447.1311,815.1793,1476.3987,822.68,1474.8172,832.9865Z" style="fill:#331832"/><path d="M1369.3668,673.305a2.4537,2.4537,0,0,0-2.5879-2.3339,2.4927,2.4927,0,0,0-2.2479,2.6927,2.4539,2.4539,0,0,0,2.5879,2.334A2.4928,2.4928,0,0,0,1369.3668,673.305Z" style="fill:#6da49a"/><path d="M1366.7773,769.2463a2.4539,2.4539,0,0,0-2.5879-2.3341,2.4928,2.4928,0,0,0-2.2479,2.6929,2.4537,2.4537,0,0,0,2.5878,2.3339A2.4929,2.4929,0,0,0,1366.7773,769.2463Z" style="fill:#6da49a"/><path d="M1362.2028,718.2023a2.4538,2.4538,0,0,0-2.5878-2.334,2.493,2.493,0,0,0-2.248,2.6929,2.4538,2.4538,0,0,0,2.5879,2.3339A2.4927,2.4927,0,0,0,1362.2028,718.2023Z" style="fill:#6da49a"/><path d="M1320.2417,711.4167c-.0332,0-.0664-.0132-.1-.0132a.3753.3753,0,0,1-.2525-.4653c4.5126-15.7108-1.6814-26.9424-1.7412-27.0487a.3664.3664,0,0,1,.1395-.5051.3718.3718,0,0,1,.4985.1329c.0664.12,6.4133,11.59,1.8077,27.6337A.3688.3688,0,0,1,1320.2417,711.4167Z" style="fill:#331832"/><path d="M1302.14,1103.2354s.2353,19.4471-9.9432,17.5617c-11.32-2.0971-33.2076.7607-22.7085,9.5063,6.0243,5.0182,23.2283,7.4853,31.0114,9.36,11.49,2.7676,22.8664,6.0773,28.779.9377,6.5049-5.6544-.6577-37.47-.6577-37.47s-6.877,3.4635-13.0756,3.3338C1306.6123,1106.2779,1302.14,1103.2354,1302.14,1103.2354Z" style="fill:#331832"/><path d="M1322.0562,825.98s-65.1706,37.508-81.4248,95.6975c-15.896,56.907,39.9595,174.5482,49.1477,186.1549s49.9855,19.0268,53.3717-4.7016c4.9615-34.7664-26.7871-142.6006-18.3522-156.2641,15.0446-24.37,139.1318-68.9061,137.7474-65.1181,0,0-8.1432-49.9233-35.6522-57.7284C1395.0318,814.98,1351.8,816.3684,1322.0562,825.98Z" style="fill:#6da49a"/><path d="M1488.9114,1157.2651s-1.8555,13.5334-11.8756,16.1911-38.2094,2.7185-28.7832,12.7158c5.4085,5.7364,33.8644,5.9309,41.7968,6.8993s15.0161,5.1874,21.4728.8247c7.1034-4.8,3.6924-33.42,3.6924-33.42s-7.223,2.5778-13.3623,1.6732C1493.0048,1160.8457,1488.9114,1157.2651,1488.9114,1157.2651Z" style="fill:#331832"/><path d="M1348.2836,838.3912c87.2977,225.8552,125.1547,310.0679,136.3359,329.143,7.2318,12.3374,53.9945,3.6091,50.2243-21.919-5.4349-36.8-48.994-257.5278-68.8769-303.724C1457.0647,821.2077,1335.6307,805.6556,1348.2836,838.3912Z" style="fill:#6da49a"/><path d="M1378.513,916.6554a.6507.6507,0,0,1-.6247-.4918c-6.6061-25.2677-17.8842-32.3522-17.9971-32.4187a.649.649,0,0,1-.2194-.8906.64.64,0,0,1,.884-.2259c.4785.2924,11.83,7.3637,18.5818,33.2162a.6382.6382,0,0,1-.4585.7842A.776.776,0,0,1,1378.513,916.6554Z" style="fill:#331832"/><path d="M2025.41,876.21s-30.1169-13.6291-46.4273-2.8859c-13.7719,9.0712.8551,17.853.8551,17.853l24.56,14.45,22.1324-1.4008Z" style="fill:#ffb27d"/><path d="M1599.7309,775.9938s-30.1169-13.6292-46.4273-2.8859c-13.772,9.0711.855,17.8531.855,17.8531l24.5605,14.4493,22.1324-1.4008Z" style="fill:#ffb27d"/><path d="M1153.3957,1076.9163s-21.8433-59.9112-79.3433-80.6337-152.5438-31.6323-181.501-32.06-101.5128,56.3469-101.5128,56.3469Z" style="fill:#ffbd8f"/><path d="M814.8484,1373.2776s-51.2267-35.8311-97.815-90.6171c-24.4447-28.7462-127.0922-34.8529-136.5685-46.779-23.2979-29.3209-200.4735-76.864-221.631-96.22-28.7883-26.3366-118.52-72.3662-118.52-72.3662l217.407-216.01s144.6164,91.452,206.1,130.3176c22.4736,14.2061,46.9763,36.0214,88.7959,36.5279,58.3153.7063,118.5741,43.7308,177.3353,78.3584,27.5548,16.2379,77.5613,50.0173,94.2478,64.834,17.5825,15.6124,95.9785,48.1867,84.7314,75.8578-19.873,48.8937-81.3727-2.5072-119.5941-12.8448S814.8484,1373.2776,814.8484,1373.2776Z" style="fill:#f9a672"/><path d="M621.828,1058.0851a2.5676,2.5676,0,0,0-1.626,1.7974c-.2047.7748-4.9521,19.2572.0057,43.99a112.4677,112.4677,0,0,0,16.8715,40.5676c10.3158,15.4376,24.7135,28.9459,42.7932,40.15a2.4931,2.4931,0,0,0,3.5567-.9461,2.9,2.9,0,0,0-1.0219-3.783c-17.4-10.7822-31.2229-23.7319-41.0837-38.4889a106.6211,106.6211,0,0,1-15.9972-38.4581c-4.6952-23.4228-.1261-41.2063-.0793-41.383a2.8817,2.8817,0,0,0-1.8276-3.4552A2.4744,2.4744,0,0,0,621.828,1058.0851Z" style="fill:#f09268"/><path d="M1096.1686,1096.1213a2.1852,2.1852,0,0,1-.2924-.0134c-6.8917-.97-41.4372-6.26-44.78-15.3918-3.4227-9.3575,1.2494-15.8439,1.4488-16.11a2.0869,2.0869,0,0,1,3.3628,2.4722c-.14.1995-3.5157,5.0243-.8906,12.2019,1.8277,4.9845,25.3342,10.4208,41.4438,12.68a2.0907,2.0907,0,0,1-.2924,4.16Z" style="fill:#f59a6d"/><path d="M634.2757,914.1c-28.5708,74.6083-84.7594,182.7923-142.1068,249.5639-27.7123,32.3145-64.03,65.454-104.8349,77.01L0,1085.4442V586.4619C22.747,598.2119,611.9609,902.5661,634.2757,914.1Z" style="fill:#366f90"/><path d="M1540.5729,1228.4812l-72.2582,273.0748s-118.17-41.1271-216.1468-71.6642q-9.0265-2.8073-17.7956-5.4911c-7.2055-2.2076-14.2431-4.3256-21.0566-6.354-42.0683-12.4949-75.5415-21.1014-86.2212-20.53-.2913.0112-.5715.0334-.8516.0559-12.6966,1.0646-205.9829-52.2548-205.9829-52.2548s59.8966-229.7879,52.59-265.379c-13.4363-65.49-26.1319-95.8445,4.1475-85.7364,64.57,21.572,136.1,38.6168,176.3981,82.7137,8.7522,9.57,47.694,27.2424,97.7412,47.2231C1366.4048,1170.1637,1540.5729,1228.4812,1540.5729,1228.4812Z" style="fill:#ffbd8f"/><path d="M2568.3239,1468.5535c-53.6671,98.8506-172.4425,163.5445-308.3972,180.141-47.75,5.816-95.8023,9.828-146.6229,12.226-214.3084,10.2624-513.6669-11.845-533.2959-11.845l-328.871-114.629c-30.8523-116.7667-18.7943-300.8429,0-410.3071C2010.73,1322.7951,1634.1309,1224.2674,2568.3239,1468.5535Z" style="fill:#366f90"/><path d="M889.1843,1057.9488s-20.8522,55.0752-86.2047,51.1944c-54.184-3.2175-219.0315,59.7426-253.1037,110.72-7.0231,10.5074,15.3121,32.915,22.1175,35.8924,36.727,16.0681,157.4725-51.016,157.4725-51.016s-127.6989,42.1874-127.2736,77.9208c.1613,13.5461,12.5757,42.0388,32.0768,41.2625,49.3669-1.9652,135.33-36.5281,135.33-36.5281s-109.5331,31.1564-88.0682,67.3962c5.1434,8.684,21.5979,20.3526,35.0771,20.4844,42.7718.4186,109.34-27.8084,109.34-27.8084s-12.4-2.73-11.1,25.81c1.54,33.8119-11.5062,14.8439,100.5174-7.9691,55.6806-11.3391,177.408,22.1155,197.5424,1.9888C1173.551,1306.6781,889.1843,1057.9488,889.1843,1057.9488Z" style="fill:#ffbd8f"/><path d="M846.4245,1390.6492l-12.876-67.47c-7.5263-17.7332,2.006-37.7081,21.2963-44.6142h0c19.29-6.9054,41.0318,1.8723,48.5681,19.6088L922.936,1344.14c12.79,31.43,15.412,57.5494-15.6568,68.6477C863.4146,1428.4565,853.7106,1407.798,846.4245,1390.6492Z" style="fill:#f9a672"/><path d="M863.7815,1336.5432c-5.43,0-9.0849-1.6482-10.5071-4.8116-4.4794-9.9556-3.5223-29.0957-3.4559-30.3452.0466-1.7545,1.0168-3.4159,2.871-4.9179,6.3336-5.1439,22.3435-8.0681,30.0926-6.6193,10.72,2.0336,16.7012,18.8477,15.95,29.0824-.5649,7.789-17.2328,14.9931-28.5375,16.9869A37.4753,37.4753,0,0,1,863.7815,1336.5432Zm14.2621-42.547c-7.57,0-18.4756,2.7381-22.4964,5.9946-.87.7044-1.19,1.276-1.1962,1.5286v.08c-.0133.1994-1.0168,19.2067,3.0571,28.2716.9371,2.0736,5.6224,2.6983,11.9958,1.5818,12.2219-2.1666,24.5367-9.1846,24.8092-12.84.6181-8.56-4.6256-22.8486-12.275-24.2974A21.408,21.408,0,0,0,878.0436,1293.9962Zm-25.9589,7.4832h0Z" style="fill:#f59a6d"/><path d="M772.3432,1385.432l-.51-57.5956c-3.57-15.6652,7.3492-31.0177,24.3938-34.2892h0c17.0443-3.2709,33.7581,6.777,37.3363,22.4463l9.2667,40.6076c5.8724,27.6947,4.11,49.69-23.3385,54.9392C780.7385,1418.9506,775.8024,1400.582,772.3432,1385.432Z" style="fill:#f9a672"/><path d="M799.4359,1343.4417h-.1c-9.3309-.0266-12.0956-3.2565-12.7735-5.9547-2.2263-8.9056,1.4488-24.71,1.708-25.7728a6.1688,6.1688,0,0,1,3.323-3.9477c6.1142-3.4692,19.931-3.8546,26.1781-1.6481,8.8059,3.1234,11.3247,18.09,9.1249,26.6367C825.2154,1339.2947,809.551,1343.4417,799.4359,1343.4417Zm-8.952-31.2357,2.2064.5317c-.04.1594-3.715,15.6976-1.7279,23.646.3123,1.2362,3.0239,2.4989,8.3871,2.5121h.1064c10.9325,0,22.3368-4.5191,23.0412-7.2705,1.7347-6.7257-.4186-19.1668-6.24-21.227-5.5094-1.9539-17.5851-1.3026-22.2837,1.2361-1.1165.5982-1.2627,1.0235-1.2627,1.0235Zm0,0h0Z" style="fill:#f59a6d"/><path d="M837.5369,1346.3526a2.2641,2.2641,0,0,1-2.1267-1.4887c-.4985-1.3557-12.0889-33.2427-4.6322-45.75a2.2647,2.2647,0,1,1,3.8944,2.3128c-5.27,8.8523,1.8211,33.2294,4.9911,41.8691a2.26,2.26,0,0,1-1.3424,2.9108A2.3348,2.3348,0,0,1,837.5369,1346.3526Z" style="fill:#f59a6d"/><path d="M934.3006,1409.4809l-12.876-67.47c-7.5263-17.7332,2.006-37.7081,21.2963-44.6142h0c19.29-6.9054,41.0318,1.8723,48.5681,19.6088l19.5231,45.9661c12.79,31.43,15.412,57.5493-15.6568,68.6477C951.2907,1447.2882,941.5867,1426.63,934.3006,1409.4809Z" style="fill:#f9a672"/><path d="M951.6536,1355.3777c-5.43,0-9.0783-1.6481-10.5-4.8117-4.4793-9.9555-3.5223-29.0957-3.4559-30.3451.0465-1.7545,1.0169-3.416,2.871-4.918,6.34-5.1572,22.31-8.0814,30.0927-6.6193,11.0521,2.0868,16.6081,20.0042,15.9435,29.0692-.5583,7.8023-17.2262,15.0064-28.5375,17A37.4238,37.4238,0,0,1,951.6536,1355.3777Zm14.2621-42.547c-7.57,0-18.469,2.7381-22.49,5.9946-.8706.7044-1.1895,1.276-1.1962,1.5285v.08c-.0133.1993-1.0168,19.2066,3.0571,28.2716.9437,2.0869,5.6291,2.7116,11.9892,1.5817,12.2284-2.1665,24.5433-9.1846,24.8025-12.8531.6247-8.5732-4.6189-22.8486-12.2616-24.2842A21.4431,21.4431,0,0,0,965.9157,1312.8307Zm-25.9523,7.4833h0Z" style="fill:#f59a6d"/><path d="M925.4155,1365.1738a2.2641,2.2641,0,0,1-2.1266-1.4887c-.4985-1.3558-12.0889-33.2295-4.6322-45.75a2.2648,2.2648,0,1,1,3.8945,2.3128c-5.2768,8.8656,1.8143,33.23,4.9911,41.8691a2.26,2.26,0,0,1-1.3425,2.9109A2.3344,2.3344,0,0,1,925.4155,1365.1738Z" style="fill:#f59a6d"/><path d="M1008.5465,1403.6221l-12.8762-67.47c-7.5262-17.7331,2.0061-37.7081,21.2965-44.6142h0c19.29-6.9053,41.0317,1.8723,48.5681,19.6088l19.523,45.9662c12.79,31.43,15.412,57.5494-15.6568,68.6476C1025.5366,1441.4294,1015.8325,1420.7709,1008.5465,1403.6221Z" style="fill:#f9a672"/><path d="M1025.9082,1349.516c-5.4363,0-9.085-1.6481-10.5072-4.8116-4.4859-9.9556-3.5289-29.0958-3.4625-30.3451.0466-1.7546,1.0169-3.4161,2.8711-4.918,6.34-5.1307,22.3568-8.0815,30.0926-6.6194,10.72,2.0337,16.7011,18.8479,15.95,29.0825-.5648,7.8023-17.2461,14.9931-28.5508,16.9869A37.268,37.268,0,0,1,1025.9082,1349.516Zm14.2554-42.547c-7.57,0-18.4756,2.7381-22.4963,5.9946-.8706.7045-1.19,1.276-1.1962,1.5285v.08c-.0134.1993-1.0169,19.2066,3.0637,28.2717.9437,2.0735,5.6423,2.7115,11.9759,1.5817,12.2351-2.1533,24.55-9.1846,24.8224-12.84.6181-8.56-4.6255-22.8486-12.2749-24.2974A21.4091,21.4091,0,0,0,1040.1636,1306.969Zm-25.9589,7.4833h0Z" style="fill:#f59a6d"/><path d="M999.6569,1359.3254a2.264,2.264,0,0,1-2.1267-1.4887c-.4985-1.3558-12.0889-33.2428-4.6255-45.75a2.2648,2.2648,0,1,1,3.8945,2.3128c-5.2769,8.8657,1.8077,33.2295,4.9844,41.8692a2.26,2.26,0,0,1-1.3425,2.9109A2.3367,2.3367,0,0,1,999.6569,1359.3254Z" style="fill:#f59a6d"/><path d="M773.5635,1392.7144a2.2712,2.2712,0,0,1-2.253-2.02c-.2725-2.3793-6.513-58.4971-2.9575-72.8524,3.6952-14.9133,13.4048-20.5225,13.81-20.7617a2.2694,2.2694,0,0,1,2.24,3.9476c-.0864.0532-8.4469,4.9978-11.65,17.9041-3.3562,13.5842,3.0038,70.6858,3.0638,71.2574a2.2753,2.2753,0,0,1-2,2.512C773.73,1392.701,773.6432,1392.7144,773.5635,1392.7144Z" style="fill:#f59a6d"/><path d="M628.6712,959.3807s145.9393,42.98,197.8259,36.9019c58.2079-6.8186,124.2816-19.6963,155.153,30.732s43.854,74.4092,50.7269,94.5806-27.9125,130.2922-66.9219,100.4088c-37.1614-28.4678-10.7942-79.2491-17.7178-91.8916-27.4773-50.1734-87.888-36.08-87.888-36.08l-143.1738-42.3643-58.2726-42.5838Z" style="fill:#f9a672"/><path d="M985.5145,1202.4423c-7.2574,0-14.6011-1.2893-18.3029-5.011-5.855-5.8617-2.758-19.632.864-30.1591a8.7468,8.7468,0,0,1,9.9024-5.8218h.0066l24.6895,4.3863a10.6487,10.6487,0,0,1,8.3606,13.4513c-3.868,13.2652-4.2733,16.123-4.3065,16.6812-.1263,2.22-2.4125,3.3362-4.12,3.9875C999.0787,1201.2992,992.34,1202.4423,985.5145,1202.4423Zm-9.0783-36.5923a4.3017,4.3017,0,0,0-4.0674,2.9109c-4.4,12.76-5.1239,22.277-1.94,25.4671,2.3061,2.3261,7.8288,3.6552,15.146,3.6552h.0265c8.5467,0,15.1328-1.7279,16.6546-2.7513.3191-2.3793,1.8011-8.1213,4.42-17.12a6.0936,6.0936,0,0,0-4.7917-7.7092l-24.6895-4.3863A4.871,4.871,0,0,0,976.4362,1165.85Z" style="fill:#f59a6d"/><path d="M492.1689,1163.664c-27.7123,32.3145-64.03,65.454-104.8349,77.01L0,1085.4442V826.1755c39.39,41.62,108.7009,121.1176,139.8545,195.079C189.6709,1139.5561,472.6768,1049.6844,492.1689,1163.664Z" style="fill:#26617d"/><path d="M629.4159,1251.9358a700.8223,700.8223,0,0,1,73.4761-22.122c3.5028-.8489,2.0195-6.2533-1.49-5.403a700.8508,700.8508,0,0,0-73.4761,22.1219c-3.3648,1.2175-1.9126,6.634,1.49,5.4031Z" style="fill:#f9a672"/><path d="M728.9769,1306.2994a135.1014,135.1014,0,0,1,33.6638-9.3536c3.5547-.5173,2.0433-5.9172-1.49-5.403a140.1194,140.1194,0,0,0-35.0021,9.9184c-3.307,1.4089-.4554,6.237,2.8279,4.8382Z" style="fill:#f9a672"/><path d="M1149.0307,1079.2376a153.17,153.17,0,0,1,1.9388,70.29c-.7166,3.52,4.683,5.026,5.4029,1.49a160.1481,160.1481,0,0,0-1.9386-73.2695c-.9082-3.4866-6.3141-2.0083-5.4031,1.49Z" style="fill:#f9a672"/><path d="M2295.1635,883.5115c-41.02-36.8244-120.4492-12.63-174.323-10.377-43.461,1.8171-96.1477-4.3186-96.1477-4.3186s-17.1342,25.9174-4.9484,45.1618c0,0,43.6046,18.007,95.3331,26.0307,55.5091,8.61,110.9756,2.091,104.345-.968C2219.4225,939.04,2308.4682,895.4553,2295.1635,883.5115Z" style="fill:#68a1bf"/><path d="M2334.3243,946.77c-4.0655-48.75-.0509-60.3582-47.1214-76.2023-6.2318-2.0991-35.9466-6.3567-42.6049-6.4616-38.7518-.61-55.0715,71.406-57.3629,136.2408.283,10.6073,1.4222,43.1656,2.3455,55.211,0,0,71.7887-24.1264,157.8225,8.7843C2347.4176,1062.4052,2338.2268,993.5572,2334.3243,946.77Z" style="fill:#68a1bf"/><path d="M2347.515,1066.2319c-1.5815,10.3069-37.0059,23.6233-80.9966,16.0873s-78.5211-16.4548-76.94-26.7617,38.1965-13.7689,82.6665-10.563C2319.8289,1048.4247,2349.0965,1055.9249,2347.515,1066.2319Z" style="fill:#331832"/><path d="M2233.3394,775.87s-2.1466-22.3894,16.9319-24.1078,14.5721,13.1877,17.9744,17.0575-5.5,15.0144-14.6833,16.3786S2233.3394,775.87,2233.3394,775.87Z" style="fill:#331832"/><path d="M2279.84,867.1884c-6.7114,9.3718-14.7241,12.8185-25.4221,13.6123-16.2,1.2021-9.8208-16.6942-9.8208-16.6942,3.9728-.3936,6.0041-2.65,6.0577-6.7955l.0534-5.0948.0249-2.5253.0979-8.0709.0823-7.2473.338-29.7247,9.5041,29.5357,1.6162,5.0171,5.57,17.3127a15.6824,15.6824,0,0,0,11.8144,10.6588C2279.7812,867.1745,2279.8142,867.1862,2279.84,867.1884Z" style="fill:#ffb27d"/><path d="M2262.3713,839.2008s-4.1888,9.0838-11.6385,10.49l.0979-8.0709C2255.4493,840.3066,2262.3713,839.2008,2262.3713,839.2008Z" style="fill:#331832"/><path d="M2287.8278,808.586s-2.2516,4.4159-2.0716,14.774c.2635,15.1559-16.7394,16.8082-19.6992,11.6954-.3661-.6326,6.3178-24.4628,6.3178-24.4628l5.7314-1.7083Z" style="fill:#331832"/><ellipse cx="2253.0416" cy="809.0328" rx="34.292" ry="26.866" transform="translate(984.6413 2839.2769) rotate(-77.7572)" style="fill:#ffb27d"/><path d="M2249.1833,780.7078c.4637,1.2178-7.9153,17.2067,21.5482,29.6179s20.807-31.0345-1.4714-38.0474c-32.168-10.1259-42.6,11.2806-41.5317,20.3018S2249.1833,780.7078,2249.1833,780.7078Z" style="fill:#331832"/><path d="M2268.7389,803.9619s9.0291,17.0545,1.2012,29.8295c0,0,9.2888-6.2324,10.2186-9.252s1.7887-14.606,1.7887-14.606Z" style="fill:#331832"/><path d="M2274.2448,820.1819c-3.67,2.1126-7.8519,1.29-9.3412-1.838s.2781-7.3756,3.9477-9.4882,7.852-1.29,9.3413,1.838S2277.9144,818.0694,2274.2448,820.1819Z" style="fill:#ffb27d"/><path d="M2250.453,808.6686a.635.635,0,0,1-.3019-.4716.6278.6278,0,0,1,.5269-.707,6.5147,6.5147,0,0,1,7.1913,3.8546.6154.6154,0,1,1-1.0676.6117,10.2961,10.2961,0,0,0-5.97-3.2078A.5892.5892,0,0,1,2250.453,808.6686Z" style="fill:#080435"/><path d="M2253.4273,816.6794c-.3227,1.4743-1.4187,2.4707-2.4481,2.2256s-1.6021-1.6389-1.28-3.1131,1.4186-2.4707,2.4479-2.2256S2253.75,815.2051,2253.4273,816.6794Z" style="fill:#080435"/><path d="M2228.5966,806.1142a.61.61,0,0,1-.4518-.3168.6466.6466,0,0,1,.2279-.8627,6.4054,6.4054,0,0,1,8.0572.7182.6243.6243,0,0,1-.7624.9888,10.0665,10.0665,0,0,0-6.692-.6033A.5883.5883,0,0,1,2228.5966,806.1142Z" style="fill:#080435"/><path d="M2234.28,812.3479c.2421,1.4917-.4055,2.8477-1.4465,3.0287s-2.0809-.8819-2.323-2.3736.4057-2.8477,1.4465-3.0287S2234.038,810.8561,2234.28,812.3479Z" style="fill:#080435"/><g style="opacity:0.30000000000000004"><path d="M2265.3847,811.2313c.3866,8.5351-3.9986,16.7995-9.7947,18.4588s-10.8081-3.9147-11.1947-12.45,3.9986-16.7995,9.7946-18.4588S2264.9981,802.6961,2265.3847,811.2313Z" style="fill:#fff"/></g><g style="opacity:0.30000000000000004"><ellipse cx="2228.8601" cy="811.3891" rx="15.6051" ry="9.0049" transform="translate(928.0635 2794.8451) rotate(-76.7456)" style="fill:#fff"/></g><path d="M2266.1016,810.05c-.0339-.6612-.09-1.3-.1794-1.9388-.5828-4.4377-2.4205-8.0685-5.1774-10.1529a8.0319,8.0319,0,0,0-7.25-1.4232,10.3821,10.3821,0,0,0-1.5466.5827c-4.0455,1.9276-7.284,6.7575-8.5839,12.4614v.0112a18.5076,18.5076,0,0,0-.37,1.9387v.0113a24.0288,24.0288,0,0,0-.2352,4.7626,23.425,23.425,0,0,0,.661,4.3929,13.7613,13.7613,0,0,0,4.6956,7.6988,8.9366,8.9366,0,0,0,2.8577,1.4455q.4535.1176.9075.2017a8.2276,8.2276,0,0,0,3.4852-.2241,9.9981,9.9981,0,0,0,3.4292-1.7258c.0224-.0111.0334-.0336.0558-.0447a18.79,18.79,0,0,0,6.1635-9.4806v-.0113a.011.011,0,0,0,.0112-.0112c.1346-.4034.2465-.8292.3587-1.255a23.3271,23.3271,0,0,0,.5266-2.6895,24.0078,24.0078,0,0,0,.2129-3.3732C2266.135,810.8341,2266.1238,810.442,2266.1016,810.05Zm-19.7568,14.9043a15.1624,15.1624,0,0,1-1.9387-4.5385,20.5226,20.5226,0,0,1-.6388-4.1688,23.9646,23.9646,0,0,1,.19-4.3144v-.0113a18.95,18.95,0,0,1,.3587-1.961v-.0225c1.2328-5.5584,4.3482-10.2425,8.2816-11.9458l.0112-.0112a7.5057,7.5057,0,0,1,4.2133-.6276,7.3828,7.3828,0,0,1,3.34,1.4568,11.3688,11.3688,0,0,1,3.44,4.6057,15.3586,15.3586,0,0,1,.7844,2.2974.85.85,0,0,1,.0224.09c.0115.0337.0225.0672.0337.1009a.1637.1637,0,0,0,.0223.0785.1405.1405,0,0,0,.0113.0671.107.107,0,0,1,.0224.0785,13.2214,13.2214,0,0,1,.3026,1.39v.0112a19.06,19.06,0,0,1,.2914,2.5775,22.0784,22.0784,0,0,1-.0336,2.8575v.0336c-.0449.6388-.1232,1.2664-.2241,1.8939-.101.6612-.2353,1.3112-.3811,1.95v.0112a18.5164,18.5164,0,0,1-5.7824,10.0184c-.0673.0561-.1343.1121-.2129.1682a9.418,9.418,0,0,1-3.3618,1.7593,7.3257,7.3257,0,0,1-3.9334.0112c-.0561-.0224-.1235-.0336-.1795-.056a7.3364,7.3364,0,0,1-2.2747-1.21,10.006,10.006,0,0,1-2.3309-2.5439A.06.06,0,0,0,2246.3448,824.9541Z" style="fill:#68a1bf"/><path d="M2237.8167,811.2936a.5594.5594,0,0,0-.0783.0336c-.0336.0112-.056.0112-.0672.0224a27.0937,27.0937,0,0,1-1.5354,6.5893c.0784-.1905.157-.37.2352-.56.0115-.0337.034-.0785.0449-.1122v-.0111c.0786-.1906.1571-.3923.2353-.5827.0224-.0785.0561-.1682.0785-.2467.0337-.0784.0561-.1568.09-.2352.1235-.3362.2466-.6836.3475-1.031v-.0112c.0786-.2466.1456-.4931.2129-.74l.0337-.1344c0-.0112.0112-.0336.0112-.0448s.0111-.0337.0111-.0449.0112-.0224.0112-.0336c.0337-.112.0562-.2017.09-.3138l.0336-.1681c.0673-.2465.1234-.493.1682-.7508.0334-.1233.0559-.2353.0783-.3585.0112-.0337.0112-.0785.0225-.1122.0672-.3474.1345-.6948.1907-1.0534.0112-.056.0112-.1008.022-.1568C2237.9625,811.26,2237.884,811.2824,2237.8167,811.2936Zm0,0a.5594.5594,0,0,0-.0783.0336c-.0336.0112-.056.0112-.0672.0224a27.0937,27.0937,0,0,1-1.5354,6.5893c.0784-.1905.157-.37.2352-.56.0115-.0337.034-.0785.0449-.1122v-.0111c.0786-.1906.1571-.3923.2353-.5827.0224-.0785.0561-.1682.0785-.2467.0337-.0784.0561-.1568.09-.2352.1235-.3362.2466-.6836.3475-1.031v-.0112c.0786-.2466.1456-.4931.2129-.74l.0337-.1344c0-.0112.0112-.0336.0112-.0448s.0111-.0337.0111-.0449.0112-.0224.0112-.0336c.0337-.112.0562-.2017.09-.3138l.0336-.1681c.0673-.2465.1234-.493.1682-.7508.0334-.1233.0559-.2353.0783-.3585.0112-.0337.0112-.0785.0225-.1122.0672-.3474.1345-.6948.1907-1.0534.0112-.056.0112-.1008.022-.1568C2237.9625,811.26,2237.884,811.2824,2237.8167,811.2936Zm0,0a.5594.5594,0,0,0-.0783.0336c-.0336.0112-.056.0112-.0672.0224a27.0937,27.0937,0,0,1-1.5354,6.5893c.0784-.1905.157-.37.2352-.56.0115-.0337.034-.0785.0449-.1122v-.0111c.0786-.1906.1571-.3923.2353-.5827.0224-.0785.0561-.1682.0785-.2467.0337-.0784.0561-.1568.09-.2352.1235-.3362.2466-.6836.3475-1.031v-.0112c.0786-.2466.1456-.4931.2129-.74l.0337-.1344c0-.0112.0112-.0336.0112-.0448s.0111-.0337.0111-.0449.0112-.0224.0112-.0336c.0337-.112.0562-.2017.09-.3138l.0336-.1681c.0673-.2465.1234-.493.1682-.7508.0334-.1233.0559-.2353.0783-.3585.0112-.0337.0112-.0785.0225-.1122.0672-.3474.1345-.6948.1907-1.0534.0112-.056.0112-.1008.022-.1568C2237.9625,811.26,2237.884,811.2824,2237.8167,811.2936Zm0,0a.5594.5594,0,0,0-.0783.0336c-.0336.0112-.056.0112-.0672.0224a27.0937,27.0937,0,0,1-1.5354,6.5893c.0784-.1905.157-.37.2352-.56.0115-.0337.034-.0785.0449-.1122v-.0111c.0786-.1906.1571-.3923.2353-.5827.0224-.0785.0561-.1682.0785-.2467.0337-.0784.0561-.1568.09-.2352.1235-.3362.2466-.6836.3475-1.031v-.0112c.0786-.2466.1456-.4931.2129-.74l.0337-.1344c0-.0112.0112-.0336.0112-.0448s.0111-.0337.0111-.0449.0112-.0224.0112-.0336c.0337-.112.0562-.2017.09-.3138l.0336-.1681c.0673-.2465.1234-.493.1682-.7508.0334-.1233.0559-.2353.0783-.3585.0112-.0337.0112-.0785.0225-.1122.0672-.3474.1345-.6948.1907-1.0534.0112-.056.0112-.1008.022-.1568C2237.9625,811.26,2237.884,811.2824,2237.8167,811.2936Zm0,0a.5594.5594,0,0,0-.0783.0336c-.0336.0112-.056.0112-.0672.0224a27.0937,27.0937,0,0,1-1.5354,6.5893c.0784-.1905.157-.37.2352-.56.0115-.0337.034-.0785.0449-.1122v-.0111c.0786-.1906.1571-.3923.2353-.5827.0224-.0785.0561-.1682.0785-.2467.0337-.0784.0561-.1568.09-.2352.1235-.3362.2466-.6836.3475-1.031v-.0112c.0786-.2466.1456-.4931.2129-.74l.0337-.1344c0-.0112.0112-.0336.0112-.0448s.0111-.0337.0111-.0449.0112-.0224.0112-.0336c.0337-.112.0562-.2017.09-.3138l.0336-.1681c.0673-.2465.1234-.493.1682-.7508.0334-.1233.0559-.2353.0783-.3585.0112-.0337.0112-.0785.0225-.1122.0672-.3474.1345-.6948.1907-1.0534.0112-.056.0112-.1008.022-.1568C2237.9625,811.26,2237.884,811.2824,2237.8167,811.2936Zm0,0a.5594.5594,0,0,0-.0783.0336c-.0336.0112-.056.0112-.0672.0224a27.0937,27.0937,0,0,1-1.5354,6.5893c.0784-.1905.157-.37.2352-.56.0115-.0337.034-.0785.0449-.1122v-.0111c.0786-.1906.1571-.3923.2353-.5827.0224-.0785.0561-.1682.0785-.2467.0337-.0784.0561-.1568.09-.2352.1235-.3362.2466-.6836.3475-1.031v-.0112c.0786-.2466.1456-.4931.2129-.74l.0337-.1344c0-.0112.0112-.0336.0112-.0448s.0111-.0337.0111-.0449.0112-.0224.0112-.0336c.0337-.112.0562-.2017.09-.3138l.0336-.1681c.0673-.2465.1234-.493.1682-.7508.0334-.1233.0559-.2353.0783-.3585.0112-.0337.0112-.0785.0225-.1122.0672-.3474.1345-.6948.1907-1.0534.0112-.056.0112-.1008.022-.1568C2237.9625,811.26,2237.884,811.2824,2237.8167,811.2936Zm0,0a.5594.5594,0,0,0-.0783.0336c-.0336.0112-.056.0112-.0672.0224a27.0937,27.0937,0,0,1-1.5354,6.5893c.0784-.1905.157-.37.2352-.56.0115-.0337.034-.0785.0449-.1122v-.0111c.0786-.1906.1571-.3923.2353-.5827.0224-.0785.0561-.1682.0785-.2467.0337-.0784.0561-.1568.09-.2352.1235-.3362.2466-.6836.3475-1.031v-.0112c.0786-.2466.1456-.4931.2129-.74l.0337-.1344c0-.0112.0112-.0336.0112-.0448s.0111-.0337.0111-.0449.0112-.0224.0112-.0336c.0337-.112.0562-.2017.09-.3138l.0336-.1681c.0673-.2465.1234-.493.1682-.7508.0334-.1233.0559-.2353.0783-.3585.0112-.0337.0112-.0785.0225-.1122.0672-.3474.1345-.6948.1907-1.0534.0112-.056.0112-.1008.022-.1568C2237.9625,811.26,2237.884,811.2824,2237.8167,811.2936Zm0,0a.5594.5594,0,0,0-.0783.0336c-.0336.0112-.056.0112-.0672.0224a27.0937,27.0937,0,0,1-1.5354,6.5893c.0784-.1905.157-.37.2352-.56.0115-.0337.034-.0785.0449-.1122v-.0111c.0786-.1906.1571-.3923.2353-.5827.0224-.0785.0561-.1682.0785-.2467.0337-.0784.0561-.1568.09-.2352.1235-.3362.2466-.6836.3475-1.031v-.0112c.0786-.2466.1456-.4931.2129-.74l.0337-.1344c0-.0112.0112-.0336.0112-.0448s.0111-.0337.0111-.0449.0112-.0224.0112-.0336c.0337-.112.0562-.2017.09-.3138l.0336-.1681c.0673-.2465.1234-.493.1682-.7508.0334-.1233.0559-.2353.0783-.3585.0112-.0337.0112-.0785.0225-.1122.0672-.3474.1345-.6948.1907-1.0534.0112-.056.0112-.1008.022-.1568C2237.9625,811.26,2237.884,811.2824,2237.8167,811.2936Zm-3.8661-15.7a6.7762,6.7762,0,0,0-2.174-1.1431,6.0246,6.0246,0,0,0-1.8938-.2914,6.0929,6.0929,0,0,0-1.39.1906h-.0112l-.0112-.0112c-.1122.0224-.2353.0672-.3474.09-5.547,1.6025-9.9177,10.2089-9.7045,19.1851.1343,5.5247,1.95,10.1641,4.8745,12.4389a6.6413,6.6413,0,0,0,2.3759,1.21,6.1354,6.1354,0,0,0,3.0256.056h.0112c.0113-.0112.0225-.0112.0337-.0224.1231-.0224.2465-.0561.3811-.09a10.61,10.61,0,0,0,5.4012-4.18v-.0112h.0112a22.6089,22.6089,0,0,0,3.4629-7.721,24.477,24.477,0,0,0,.7058-4.2136,19.554,19.554,0,0,0,.1234-1.9835v-1.0759C2238.702,802.5079,2236.8755,797.8573,2233.9506,795.5936Zm2.1518,22.4238c-.0115.0112-.0115.0112-.0115.0224-.011.0224-.011.0336-.0222.056a1.9806,1.9806,0,0,0-.1234.269,17.6236,17.6236,0,0,1-3.1154,5.1436,8.8819,8.8819,0,0,1-3.3618,2.4542c-.0113,0-.0225.0113-.0337.0113a.011.011,0,0,1-.0112.0112l-.067.0336c-.0224,0-.0449.0112-.0673.0112a2.441,2.441,0,0,1-.4482.1681,4.64,4.64,0,0,1-.5381.1232h-.0112a5.2867,5.2867,0,0,1-4.3928-1.1206c-2.6112-2.04-4.2809-6.197-4.4713-11.24v-.1344c.0112-.0113,0-.0337,0-.0449v-.0448c.0112-.0113.0112-.0113.0112-.0225,0-.0448-.0112-.0784-.0112-.1119-.19-8.5393,3.8324-16.675,8.9762-18.1543a5.0023,5.0023,0,0,1,.9751-.1905h.011a5.063,5.063,0,0,1,1.9277.1457,5.8015,5.8015,0,0,1,2.0281,1.0309,1.68,1.68,0,0,0,.1458.1233l.0113.0112a10.8009,10.8009,0,0,1,3.0368,4.4938,20.96,20.96,0,0,1,1.2665,6.9815q.0163.6051,0,1.21v.0113c-.0115.6948-.0674,1.3895-.1346,2.0731v.0112a27.0937,27.0937,0,0,1-1.5354,6.5893C2236.1248,817.9614,2236.1133,817.995,2236.1024,818.0174Zm1.7143-6.7238a.5594.5594,0,0,0-.0783.0336c-.0336.0112-.056.0112-.0672.0224a27.0937,27.0937,0,0,1-1.5354,6.5893c.0784-.1905.157-.37.2352-.56.0115-.0337.034-.0785.0449-.1122v-.0111c.0786-.1906.1571-.3923.2353-.5827.0224-.0785.0561-.1682.0785-.2467.0337-.0784.0561-.1568.09-.2352.1235-.3362.2466-.6836.3475-1.031v-.0112c.0786-.2466.1456-.4931.2129-.74l.0337-.1344c0-.0112.0112-.0336.0112-.0448s.0111-.0337.0111-.0449.0112-.0224.0112-.0336c.0337-.112.0562-.2017.09-.3138l.0336-.1681c.0673-.2465.1234-.493.1682-.7508.0334-.1233.0559-.2353.0783-.3585.0112-.0337.0112-.0785.0225-.1122.0672-.3474.1345-.6948.1907-1.0534.0112-.056.0112-.1008.022-.1568C2237.9625,811.26,2237.884,811.2824,2237.8167,811.2936Zm0,0a.5594.5594,0,0,0-.0783.0336c-.0336.0112-.056.0112-.0672.0224a27.0937,27.0937,0,0,1-1.5354,6.5893c.0784-.1905.157-.37.2352-.56.0115-.0337.034-.0785.0449-.1122v-.0111c.0786-.1906.1571-.3923.2353-.5827.0224-.0785.0561-.1682.0785-.2467.0337-.0784.0561-.1568.09-.2352.1235-.3362.2466-.6836.3475-1.031v-.0112c.0786-.2466.1456-.4931.2129-.74l.0337-.1344c0-.0112.0112-.0336.0112-.0448s.0111-.0337.0111-.0449.0112-.0224.0112-.0336c.0337-.112.0562-.2017.09-.3138l.0336-.1681c.0673-.2465.1234-.493.1682-.7508.0334-.1233.0559-.2353.0783-.3585.0112-.0337.0112-.0785.0225-.1122.0672-.3474.1345-.6948.1907-1.0534.0112-.056.0112-.1008.022-.1568C2237.9625,811.26,2237.884,811.2824,2237.8167,811.2936Zm0,0a.5594.5594,0,0,0-.0783.0336c-.0336.0112-.056.0112-.0672.0224a27.0937,27.0937,0,0,1-1.5354,6.5893c.0784-.1905.157-.37.2352-.56.0115-.0337.034-.0785.0449-.1122v-.0111c.0786-.1906.1571-.3923.2353-.5827.0224-.0785.0561-.1682.0785-.2467.0337-.0784.0561-.1568.09-.2352.1235-.3362.2466-.6836.3475-1.031v-.0112c.0786-.2466.1456-.4931.2129-.74l.0337-.1344c0-.0112.0112-.0336.0112-.0448s.0111-.0337.0111-.0449.0112-.0224.0112-.0336c.0337-.112.0562-.2017.09-.3138l.0336-.1681c.0673-.2465.1234-.493.1682-.7508.0334-.1233.0559-.2353.0783-.3585.0112-.0337.0112-.0785.0225-.1122.0672-.3474.1345-.6948.1907-1.0534.0112-.056.0112-.1008.022-.1568C2237.9625,811.26,2237.884,811.2824,2237.8167,811.2936Zm0,0a.5594.5594,0,0,0-.0783.0336c-.0336.0112-.056.0112-.0672.0224a27.0937,27.0937,0,0,1-1.5354,6.5893c.0784-.1905.157-.37.2352-.56.0115-.0337.034-.0785.0449-.1122v-.0111c.0786-.1906.1571-.3923.2353-.5827.0224-.0785.0561-.1682.0785-.2467.0337-.0784.0561-.1568.09-.2352.1235-.3362.2466-.6836.3475-1.031v-.0112c.0786-.2466.1456-.4931.2129-.74l.0337-.1344c0-.0112.0112-.0336.0112-.0448s.0111-.0337.0111-.0449.0112-.0224.0112-.0336c.0337-.112.0562-.2017.09-.3138l.0336-.1681c.0673-.2465.1234-.493.1682-.7508.0334-.1233.0559-.2353.0783-.3585.0112-.0337.0112-.0785.0225-.1122.0672-.3474.1345-.6948.1907-1.0534.0112-.056.0112-.1008.022-.1568C2237.9625,811.26,2237.884,811.2824,2237.8167,811.2936Zm0,0a.5594.5594,0,0,0-.0783.0336c-.0336.0112-.056.0112-.0672.0224a27.0937,27.0937,0,0,1-1.5354,6.5893c.0784-.1905.157-.37.2352-.56.0115-.0337.034-.0785.0449-.1122v-.0111c.0786-.1906.1571-.3923.2353-.5827.0224-.0785.0561-.1682.0785-.2467.0337-.0784.0561-.1568.09-.2352.1235-.3362.2466-.6836.3475-1.031v-.0112c.0786-.2466.1456-.4931.2129-.74l.0337-.1344c0-.0112.0112-.0336.0112-.0448s.0111-.0337.0111-.0449.0112-.0224.0112-.0336c.0337-.112.0562-.2017.09-.3138l.0336-.1681c.0673-.2465.1234-.493.1682-.7508.0334-.1233.0559-.2353.0783-.3585.0112-.0337.0112-.0785.0225-.1122.0672-.3474.1345-.6948.1907-1.0534.0112-.056.0112-.1008.022-.1568C2237.9625,811.26,2237.884,811.2824,2237.8167,811.2936Zm0,0a.5594.5594,0,0,0-.0783.0336c-.0336.0112-.056.0112-.0672.0224a27.0937,27.0937,0,0,1-1.5354,6.5893c.0784-.1905.157-.37.2352-.56.0115-.0337.034-.0785.0449-.1122v-.0111c.0786-.1906.1571-.3923.2353-.5827.0224-.0785.0561-.1682.0785-.2467.0337-.0784.0561-.1568.09-.2352.1235-.3362.2466-.6836.3475-1.031v-.0112c.0786-.2466.1456-.4931.2129-.74l.0337-.1344c0-.0112.0112-.0336.0112-.0448s.0111-.0337.0111-.0449.0112-.0224.0112-.0336c.0337-.112.0562-.2017.09-.3138l.0336-.1681c.0673-.2465.1234-.493.1682-.7508.0334-.1233.0559-.2353.0783-.3585.0112-.0337.0112-.0785.0225-.1122.0672-.3474.1345-.6948.1907-1.0534.0112-.056.0112-.1008.022-.1568C2237.9625,811.26,2237.884,811.2824,2237.8167,811.2936Zm0,0a.5594.5594,0,0,0-.0783.0336c-.0336.0112-.056.0112-.0672.0224a27.0937,27.0937,0,0,1-1.5354,6.5893c.0784-.1905.157-.37.2352-.56.0115-.0337.034-.0785.0449-.1122v-.0111c.0786-.1906.1571-.3923.2353-.5827.0224-.0785.0561-.1682.0785-.2467.0337-.0784.0561-.1568.09-.2352.1235-.3362.2466-.6836.3475-1.031v-.0112c.0786-.2466.1456-.4931.2129-.74l.0337-.1344c0-.0112.0112-.0336.0112-.0448s.0111-.0337.0111-.0449.0112-.0224.0112-.0336c.0337-.112.0562-.2017.09-.3138l.0336-.1681c.0673-.2465.1234-.493.1682-.7508.0334-.1233.0559-.2353.0783-.3585.0112-.0337.0112-.0785.0225-.1122.0672-.3474.1345-.6948.1907-1.0534.0112-.056.0112-.1008.022-.1568C2237.9625,811.26,2237.884,811.2824,2237.8167,811.2936Z" style="fill:#68a1bf"/><path d="M2236.9945,811.4237a.9575.9575,0,0,1-.63-.5616.9968.9968,0,0,1,.4923-1.2918,9.95,9.95,0,0,1,8.4608.869,1.0031,1.0031,0,0,1,.4017,1.3262.9268.9268,0,0,1-1.2747.4161,8.1764,8.1764,0,0,0-6.8371-.8062A.9067.9067,0,0,1,2236.9945,811.4237Z" style="fill:#331832"/><path d="M2274.9,780.2818s7.8734-20.9423,25.6325-13.4574,11.2953,17.2446,8.5674,23.6748c-2.0324,4.7905-11.4664,10.7651-20.2494,7.64S2274.9,780.2818,2274.9,780.2818Z" style="fill:#331832"/><path d="M2276.7754,850.0783a.5673.5673,0,0,0,.3331-.067.6221.6221,0,0,0,.2452-.8244,27.0356,27.0356,0,0,0-10.2735-10.3292.5749.5749,0,0,0-.7941.2506.6236.6236,0,0,0,.2423.8259,26.2186,26.2186,0,0,1,9.7867,9.8209A.588.588,0,0,0,2276.7754,850.0783Z" style="fill:#331832"/><path d="M2244.5968,864.1065s-5.5891,17.4246,9.8208,16.6942c0,0-7.5115,9.0152-13.3949,6.0578s-.672-6.3608-3.2307-8.4335-5.3156-3.5024-3.0868-6.3074.3639-7.9039.3639-7.9039S2238.639,860.1056,2244.5968,864.1065Z" style="fill:#fff"/><path d="M2242.0646,906.55a2.4538,2.4538,0,0,0-2.5878-2.334,2.4929,2.4929,0,0,0-2.248,2.6928,2.4539,2.4539,0,0,0,2.5879,2.334A2.4927,2.4927,0,0,0,2242.0646,906.55Z" style="fill:#fff"/><path d="M2237.374,988.0212a2.4538,2.4538,0,0,0-2.5879-2.334,2.4929,2.4929,0,0,0-2.2479,2.6928,2.4537,2.4537,0,0,0,2.5879,2.3339A2.4927,2.4927,0,0,0,2237.374,988.0212Z" style="fill:#fff"/><path d="M2234.9007,951.4478a2.454,2.454,0,0,0-2.5879-2.3341,2.4928,2.4928,0,0,0-2.2479,2.6929,2.4536,2.4536,0,0,0,2.5878,2.3339A2.4929,2.4929,0,0,0,2234.9007,951.4478Z" style="fill:#fff"/><path d="M2241.8085,832.1461a9.609,9.609,0,0,1-7.2307-3.5489.287.287,0,0,1,.02-.4119.2979.2979,0,0,1,.4055.0132c5.8151,6.42,11.9227,1.821,12.1819,1.6216a.2938.2938,0,0,1,.412.0532.2855.2855,0,0,1-.0531.3987A10.2321,10.2321,0,0,1,2241.8085,832.1461Z" style="fill:#020202"/><path d="M2279.84,867.1884l11.0973,1.4086s2.3415,5.7737-2.8931,8.0477-6.3087,2.3535-7.7358,6.7961-8.0923,5.1256-10.54,3.7989-6.1841,4.607-9.9913,4.8894-6.5293-6.5637-5.3591-11.3284C2254.4176,880.8007,2268.5451,877.1936,2279.84,867.1884Z" style="fill:#fff"/><path d="M2192.9345,944.6612c-.0332,0-.0664-.0132-.1-.0132a.3754.3754,0,0,1-.2526-.4653c4.5192-15.7109-1.6747-26.9425-1.7346-27.0488a.3665.3665,0,0,1,.14-.5051.36.36,0,0,1,.4985.133c.0665.12,6.4133,11.59,1.8011,27.6336A.369.369,0,0,1,2192.9345,944.6612Z" style="fill:#331832"/><path d="M2174.8376,1336.4807s.2352,19.4472-9.9433,17.5617c-11.32-2.097-33.2076.7608-22.7085,9.5064,6.0244,5.0182,23.2284,7.4853,31.0114,9.36,11.49,2.7675,22.8663,6.0772,28.7791.9377,6.5048-5.6544-.6577-37.47-.6577-37.47s-6.8771,3.4635-13.0756,3.3338C2179.31,1339.5233,2174.8376,1336.4807,2174.8376,1336.4807Z" style="fill:#331832"/><path d="M2194.7541,1059.2255s-65.1707,37.508-81.4249,95.6975c-15.8959,56.907,39.96,174.5482,49.1477,186.1549s49.9855,19.0268,53.3718-4.7016c4.9614-34.7664-26.7873-142.6006-18.3523-156.2641,15.0446-24.37,139.1318-68.9061,137.7473-65.1181,0,0-8.143-49.9233-35.6521-57.7284C2267.73,1048.2257,2224.4974,1049.6138,2194.7541,1059.2255Z" style="fill:#ef8062"/><path d="M2361.6092,1390.5105s-1.8554,13.5334-11.8756,16.1911-38.2093,2.7185-28.7833,12.7158c5.4087,5.7364,33.8645,5.9309,41.7969,6.8993s15.0161,5.1874,21.4729.8247c7.1033-4.8,3.6922-33.42,3.6922-33.42s-7.2229,2.5778-13.3623,1.6732C2365.7025,1394.0911,2361.6092,1390.5105,2361.6092,1390.5105Z" style="fill:#331832"/><path d="M2220.9814,1071.6366c87.2977,225.8552,125.1547,310.0679,136.3359,329.1429,7.2318,12.3375,53.9946,3.6093,50.2243-21.9189-5.4349-36.8-48.9939-257.5278-68.8769-303.724C2329.7625,1054.4531,2208.3284,1038.901,2220.9814,1071.6366Z" style="fill:#ef8062"/><path d="M2251.2124,1149.9a.6509.6509,0,0,1-.6247-.4919c-6.6061-25.2677-17.8841-32.3522-17.9971-32.4186a.649.649,0,0,1-.2193-.8906.666.666,0,0,1,.8839-.226c.4785.2924,11.83,7.3637,18.5819,33.2163a.6384.6384,0,0,1-.4586.7842A.7888.7888,0,0,1,2251.2124,1149.9Z" style="fill:#331832"/><path d="M1929.3625,898.04c4.4455,16.2709-41.0868,21.8227-92.0091,28.9208s-91.0649,5.507-92.0089-1.6185,39.1812-21.8892,90.1036-28.9873S1927.4729,891.124,1929.3625,898.04Z" style="fill:#331832"/><path d="M1882.7351,701.1036s-15.225-35.4531-81.2491-23.574c-95.2133,17.131-70.9018,107.0446-56.1415,247.8129,0,0,7.4067-12.2206,60.947-22.7343,54.74-10.7492,117.5812-11.75,122.8817-5.1778C1929.1732,897.43,1912.9941,753.9756,1882.7351,701.1036Z" style="fill:#ef8062"/><path d="M1912.3679,695.5094l-45.04,28.72s-92.8094,26.5-118.5821,26.831-35.905-17.6525-35.905-17.6525,21.7756-33.8611,65.8-50.001a134.3963,134.3963,0,0,1,12.989-4.0431,126.7869,126.7869,0,0,1,22.9952-3.78C1873.2286,671.6907,1912.3679,695.5094,1912.3679,695.5094Z" style="fill:#ef8062"/><path d="M1823.1771,675.1724c-5.3339,10.074-17.8,11.1115-28.142,8.4557-8.3144-2.1361-7.1964-2.2721-6.3543-3.7671,2.0671-3.6945,4.0926-4.8717,3.61-8.5944l-.632-4.8783-.08-.6066-.826-6.36L1789.34,648.45l-3.7352-28.8614,13.4064,27.22,2.2791,4.632,7.8287,15.91C1811.6434,672.4871,1823.12,675.1711,1823.1771,675.1724Z" style="fill:#ffb27d"/><path d="M1803.0472,655.5578a19.7278,19.7278,0,0,1-11.388,10.83l-.08-.6066-.826-6.36C1795.3851,658.0711,1803.0472,655.5578,1803.0472,655.5578Z" style="fill:#331832"/><path d="M1821.2687,685.7857c-73.9112-18.4158-109.9026,42.4239-149.4105,60.9331-39.7051,18.6017-79.59,26.4485-79.59,26.4485s-1.5045,27.0515,5.5948,35.3674c0,0,66.87,11.1118,102.1119-.449,50.4874-16.5617,89.9827-44.1884,82.7479-44.5978C1782.7229,763.4879,1838.3154,690.0331,1821.2687,685.7857Z" style="fill:#ef8062"/><path d="M1746.3127,1220.8554s.2352,20.5692-9.9433,18.5749c-11.32-2.218-33.2076.8046-22.7084,10.0549,6.0243,5.3078,23.2283,7.9171,31.0113,9.9,11.49,2.9273,22.8663,6.428,28.7791.9918,6.5049-5.9807-.6577-39.6321-.6577-39.6321s-6.8771,3.6634-13.0756,3.5263C1750.7852,1224.0735,1746.3127,1220.8554,1746.3127,1220.8554Z" style="fill:#331832"/><path d="M1756.6139,923.8183s-55.5554,43.457-71.81,105.0039c-15.8959,60.19,39.96,184.6191,49.1477,196.8956s49.9856,20.1245,53.3718-4.973c4.9615-36.7723-26.7873-150.8283-18.3523-165.28,15.0446-25.7764,125.7194-114.6454,124.335-110.6388,0,0,7.7523-38.4746-23.2495-36.9744C1823.9484,910.0826,1786.3572,913.6521,1756.6139,923.8183Z" style="fill:#366f90"/><path d="M1933.0844,1278.0025s-1.8555,14.3142-11.8757,17.1253-38.2093,2.8753-28.7833,13.4493c5.4087,6.0674,33.8645,6.2733,41.7969,7.2976s15.0162,5.4866,21.4729.8722c7.1033-5.0765,3.6922-35.348,3.6922-35.348s-7.2229,2.7265-13.3622,1.77C1937.1776,1281.79,1933.0844,1278.0025,1933.0844,1278.0025Z" style="fill:#331832"/><path d="M1787.2529,917.9981c87.2977,238.8865,130.3584,350.69,141.54,370.8659,7.2318,13.0493,53.9946,3.8175,50.2243-23.1836-5.4349-38.9229-44.0473-302.87-55.9219-354.5079C1919.8856,897.2169,1787.2529,917.9981,1787.2529,917.9981Z" style="fill:#366f90"/><path d="M1819.3288,1006.1358a.681.681,0,0,1-.6314-.4387,96.2237,96.2237,0,0,0-16.3822-29.2286.6551.6551,0,0,1,.0532-.93.6832.6832,0,0,1,.9437.0531,97.4421,97.4421,0,0,1,16.648,29.654.6673.6673,0,0,1-.412.8507A.6384.6384,0,0,1,1819.3288,1006.1358Z" style="fill:#331832"/><path d="M1731.224,795.78c-.8706-12.3614-3.715-22.5828-8.2143-29.5742l.97-.6114c4.6056,7.1376,7.5031,17.5584,8.387,30.1059Z" style="fill:#331832"/><path d="M1764.28,609.7219a40.226,40.226,0,0,0,.1047,15.9634c1.823,8.8678,10.3026-13.0229,10.3026-13.0229Z" style="fill:#5f3563"/><path d="M1763.3756,628.254c2.0394-17.1859,14.7233-29.6816,28.33-27.91s22.9841,17.14,20.9446,34.3257-14.7233,29.6817-28.33,27.91S1761.3361,645.44,1763.3756,628.254Z" style="fill:#ffb27d"/><path d="M1813.2112,625.6886l-12.0258-1.22a8.69,8.69,0,0,1-6.516-4.0718c-2.4879-4.0189-5.4652-6.07-16.6723-5.5489-14.1908.66-23.6216-8.1362-25.2061-15.9051-1.6171-7.9292,5.6113-13.364,12.7658-9.6291s4.0333-5.5279,10.8828-6.5628c12.7993-1.9339,15.267,8.3935,25.754,7.9817,13.75-.54,38.4581,10.23,26.94,35.6733Z" style="fill:#5f3563"/><path d="M1783.4661,630.65a.4977.4977,0,0,1-.3911-.2321.5424.5424,0,0,1,.1349-.7309,5.26,5.26,0,0,1,6.6747.05.547.547,0,0,1,.1324.7328.5361.5361,0,0,1-.7.1388,8.2492,8.2492,0,0,0-5.5442-.0473A.4846.4846,0,0,1,1783.4661,630.65Z" style="fill:#080435"/><path d="M1786.9152,635.7876c-.308,1.2159-1.2406,2.0117-2.0829,1.7774s-1.2753-1.41-.9672-2.6255,1.2407-2.0115,2.0829-1.7774S1787.2233,634.5717,1786.9152,635.7876Z" style="fill:#080435"/><path d="M1767.9707,626.7587a.3875.3875,0,0,1-.1811-.338.6347.6347,0,0,1,.3964-.6145,3.468,3.468,0,0,1,4.6991,2.2431.6449.6449,0,0,1-.208.7043.3627.3627,0,0,1-.5518-.1053,5.1577,5.1577,0,0,0-3.901-1.8682A.32.32,0,0,1,1767.9707,626.7587Z" style="fill:#080435"/><path d="M1771.08,632.4335c.0059,1.2579-.6958,2.2813-1.5672,2.2857s-1.5827-1.0116-1.5885-2.27.6958-2.2813,1.5672-2.2857S1771.0737,631.1755,1771.08,632.4335Z" style="fill:#080435"/><path d="M1829.134,626.4063s-8.1743,18.8185-19.9341,20.2793c0,0,9.4222-14.3643-10.6917-22.9322C1798.5082,623.7534,1816.9033,620.5862,1829.134,626.4063Z" style="fill:#5f3563"/><path d="M1812.6115,636.878a4.99,4.99,0,0,1-7.1564-1.1772,5.5255,5.5255,0,0,1,1.9183-7.317,4.99,4.99,0,0,1,7.1564,1.1771A5.5256,5.5256,0,0,1,1812.6115,636.878Z" style="fill:#ffb27d"/><path d="M1773.9505,610.7181c-.6379-.1993-15.5181-4.7053-16.2159-13.0924-.2061-2.4722.2126-4.12,1.2759-5.0243,1.635-1.4222,4.42-.7576,6.8719-.1595.3656.08.7178.1728,1.0634.2393l-.08.3455c-.3389-.08-.6978-.1594-1.0633-.2525-2.3726-.5449-5.0576-1.183-6.5662.08-.977.8374-1.3557,2.3926-1.1564,4.7452.6779,8.1479,15.8106,12.7336,15.9635,12.7867Z" style="fill:#fff"/><path d="M1803.3587,593.9705c-11.7168,0-17.4522-6.9251-17.5121-7.0048l.2659-.2126c.08.093,7.2374,8.7194,21.9514,6.5129l.0532.3456A31.9979,31.9979,0,0,1,1803.3587,593.9705Z" style="fill:#fff"/><path d="M1784.8232,646.0345a.6113.6113,0,0,1-.2991-.08c-5.5227-2.8311-12.4743-.3721-12.5341-.3456a.63.63,0,0,1-.8374-.3854.6662.6662,0,0,1,.3855-.8374c.2991-.12,7.5431-2.7249,13.5842.4253a.6432.6432,0,0,1,.2792.864A.6608.6608,0,0,1,1784.8232,646.0345Z" style="fill:#331832"/><path d="M398.2381,765.3324s-1.0773,19.416-11.1032,16.7818c-11.1505-2.9295-33.1759-1.6988-23.293,7.802,5.6708,5.4516,22.6654,9.1857,30.3024,11.6317,11.2747,3.611,22.3994,7.7545,28.644,3.0653,6.87-5.1588,1.8716-37.425,1.8716-37.425s-7.0936,2.9458-13.2678,2.3577C402.4942,768.6984,398.2381,765.3324,398.2381,765.3324Z" style="fill:#331832"/><path d="M509.9029,486.779s-142.1929,36.6386-162.3318,93.48c-19.695,55.5883,33.4418,176.4867,41.824,188.7445s43.2439,14.7882,48.2223-8.63c7.2943-34.3123-11.151-131.5218,6.84-152.0286,18.7475-21.3687,149.8829-40.7912,148.2465-37.1151C592.7042,571.2293,540.8324,481.6468,509.9029,486.779Z" style="fill:#ef8062"/><path d="M606.6691,868.0656s-4.8354,12.6995,2.5843,20.2376,31.824,22.3166,18.8939,26.0577c-7.4193,2.1467-32.1763-12.55-39.5129-15.8543s-15.4852-3.3482-19.0045-10.5026c-3.8716-7.8709,12.7117-30.8958,12.7117-30.8958s5.0333,6.0075,10.7853,8.4306C601.4163,869.0308,606.6691,868.0656,606.6691,868.0656Z" style="fill:#331832"/><path d="M513.84,516.2661c26.6126,245.6557,48.8188,332.7357,55.1977,354.0988,4.1258,13.8173,51.505,17.3553,53.8205-8.3624,3.3377-37.0729,1.1583-307.4793-7.3139-357.37C611.7512,482.2949,510.0386,481.1744,513.84,516.2661Z" style="fill:#ef8062"/><path d="M518.5,315.3579c75.8463,4.5993,110.0135,76.6566,144.55,102.5874,35.3516,26.5429,78.9122,57.6983,78.9122,57.6983s1.0283,27.2245-19.8076,34.7706c0,0-56.662-12.1751-99.8981-42.9846-43.7429-31.17-77.04-68.5644-69.9975-66.78C552.2592,400.65,501.0072,314.2972,518.5,315.3579Z" style="fill:#6da49a"/><path d="M419.5151,379.2421s-1.2061-36.8668,60.2024-55.89C527.0135,308.7,566.6034,329.6628,581.2,371.95c20.1878,58.4838,29.6005,109.5839,29.28,141.3733,0,0-74.9047,48.9866-168.5633-3.4814,0,0,14.6454-31.1951-9.5425-110.2177C429.94,391.6683,418.9737,385.9865,419.5151,379.2421Z" style="fill:#6da49a"/><path d="M488.0317,312.431l6.8425-15.6744,1.9911-4.5634,11.7105-26.8316-2.2719,27.9663-1.3659,16.7858-.4322,5.3134c-.2933,3.6066,1.7169,4.6469,3.8971,8.1128.8833,1.4041,6.5872,9.966-1.3576,12.401-9.8968,3.0351-26.6329-5.8776-32.2613-15.3341C474.8375,320.6018,485.82,317.4967,488.0317,312.431Z" style="fill:#ffb27d"/><path d="M494.0445,325.6463s10.6354-7.3,14.55-5.3284,5.3353,15.9959.2874,18.8134S489.6209,330.4763,494.0445,325.6463Z" style="fill:#ef8062"/><path d="M512.1109,423.9052a3.131,3.131,0,0,1-1.116,4.1472,2.8261,2.8261,0,0,1-3.9563-1.1362c-.7843-1.4589-.7051-3.31.6955-4.1415A2.913,2.913,0,0,1,512.1109,423.9052Z" style="fill:#366f90"/><path d="M514.6569,466.3552a3.131,3.131,0,0,1-1.116,4.1472,2.8262,2.8262,0,0,1-3.9563-1.1362c-.7843-1.4589-.7051-3.31.6956-4.1415A2.9129,2.9129,0,0,1,514.6569,466.3552Z" style="fill:#366f90"/><path d="M517.9688,505.248a3.0935,3.0935,0,0,1-1.7566,3.8961,2.8605,2.8605,0,0,1-3.7218-1.8072c-.5427-1.5748-.1718-3.3866,1.341-3.9634A2.9462,2.9462,0,0,1,517.9688,505.248Z" style="fill:#366f90"/><path d="M500.1579,340.48c-2.2566,16.7869-16.3955,82.7285-101.2935,122.1594a36.8267,36.8267,0,0,0-13.935,11.2643l-14.643,19.47a6.6544,6.6544,0,0,0,2.8237,10.1908l23.8184,8.9046a33.037,33.037,0,0,0,25.1078-.7274c27.5711-12.3263,96.7753-70.9154,90.186-177.22-.2814-4.539-3.6431-.7736-7.7992.6536h0A6.4832,6.4832,0,0,0,500.1579,340.48Z" style="fill:#ef8062"/><path d="M505.7787,339.068a12.2557,12.2557,0,0,1-4.7871-1.5619.3112.3112,0,0,1-.1062-.4139.2835.2835,0,0,1,.3951-.1112c.0374.0222,3.8075,2.2644,7.0073,1.2336,3.1345-1.01,3.6421-7.4348,3.647-7.5a.2939.2939,0,0,1,.3107-.2789h0a.2994.2994,0,0,1,.266.3255c-.0207.2815-.547,6.9022-4.0542,8.0327A6.8872,6.8872,0,0,1,505.7787,339.068Z" style="fill:#331832"/><path d="M604.2659,457.0516a.6567.6567,0,0,1-.6448-.5715,196.6763,196.6763,0,0,0-18.3825-57.0617.6418.6418,0,0,1,.2858-.8639.63.63,0,0,1,.8706.2791,198.1522,198.1522,0,0,1,18.5155,57.487.643.643,0,0,1-.5649.7178A.17.17,0,0,1,604.2659,457.0516Z" style="fill:#4f8a80"/><path d="M505.0332,319.0143s-12.273-5.6321-15.0342-11.09-17.2008,8.7441-17.3617,12.4723c-.461,10.677,24.2328,22.819,26.0715,20.2538S508.553,322.6276,505.0332,319.0143Z" style="fill:#7bb6ab"/><path d="M503.7032,319.88a44.6173,44.6173,0,0,0,1.0308-7.2586l.3743-4.6c2.244-.0527,15.3734,7.8212,16.706,10.3907s2.75,15.1366-1.0762,16.4806-14.6-11.1676-15.8422-12.3863A3.804,3.804,0,0,1,503.7032,319.88Z" style="fill:#7bb6ab"/><path d="M535.8294,263.8321a38.24,38.24,0,0,1-3.7393,14.8707c-3.7343,7.8107-6.7034-14.7817-6.7034-14.7817Z" style="fill:#5c305d"/><ellipse cx="508.5863" cy="278.0653" rx="30.2083" ry="24.0818" transform="translate(185.1985 759.1066) rotate(-84.7557)" style="fill:#ffb27d"/><path d="M486.2431,266.2488l11.57,1.93a8.201,8.201,0,0,0,7.0469-2.1375c3.2527-3.1157,6.5162-4.2707,16.92-.9248,13.1739,4.2367,24.0353-1.5663,27.295-8.4122,3.3269-6.9872-2.2207-13.9032-9.79-12.2431s-2.5263-6.1877-8.7216-8.9009c-11.5768-5.07-16.2494,3.9378-26.0022.878-12.7878-4.012-38.4436-.2652-33.4323,26.4179Z" style="fill:#331832"/><path d="M511.8948,279.1237a.4636.4636,0,0,0,.4263-.0806.5265.5265,0,0,0,.0957-.7132,5.1913,5.1913,0,0,0-6.1047-2.1981.5144.5144,0,0,0-.34.6251.5346.5346,0,0,0,.5968.362,8.133,8.133,0,0,1,5.0725,1.8207A.4889.4889,0,0,0,511.8948,279.1237Z" style="fill:#080435"/><path d="M506.489,282.9117c.012,1.2132.7061,2.1938,1.55,2.19s1.519-.99,1.5071-2.2034-.7061-2.1938-1.55-2.19S506.4771,281.6984,506.489,282.9117Z" style="fill:#080435"/><path d="M527.168,280.362a.3609.3609,0,0,0,.2557-.2612.6267.6267,0,0,0-.2109-.68,3.3372,3.3372,0,0,0-4.9569.7425.6235.6235,0,0,0,.0123.71.3527.3527,0,0,0,.5413.059,4.9428,4.9428,0,0,1,4.1165-.622A.3149.3149,0,0,0,527.168,280.362Z" style="fill:#080435"/><path d="M522.3689,284.4318c-.4322,1.1237-.147,2.3037.637,2.6358s1.77-.31,2.2018-1.4336.1469-2.3037-.637-2.6357S522.801,283.3081,522.3689,284.4318Z" style="fill:#080435"/><path d="M471.1286,262.8562s3.3831,19.6474,14.0918,24.0109c0,0-5.5707-15.809,15.2695-18.6731C500.49,268.194,483.94,260.5453,471.1286,262.8562Z" style="fill:#5c305d"/><path d="M484.2541,276.8441c1.9662,2.2216,5.0949,2.5472,6.988.7272s1.834-5.0963-.1323-7.3178-5.0948-2.5472-6.988-.7273S482.2879,274.6225,484.2541,276.8441Z" style="fill:#ffb27d"/><path d="M500.49,268.194s-5.193,14.2439-3.023,17.8169,20.8014,10.0545,30.53,8.9687h0c-2.2211,9.4589-10.6884,15.9922-20.0037,15.06a26.8809,26.8809,0,0,1-9.03-2.5571h0c-5.9017-2.8534-11.2452-7.1963-12.2933-13.8813-.319-2.0343,4.75-12.5844,4.75-12.5844s2.4983-6.3248-.31-10.763C491.11,270.2535,496.3389,267.4754,500.49,268.194Z" style="fill:#5c305d"/><path d="M537.5637,242.7127a3.8178,3.8178,0,0,1-2.4284-4.0337l.6461.1124a3.152,3.152,0,0,0,2.7061,3.5l-.149.6681A5.6912,5.6912,0,0,1,537.5637,242.7127Z" style="fill:#331832"/><path d="M526.5251,262.2875l-.007-.343c.1538-.0034,15.4083-.4175,17.9017-7.84.7032-2.0924.7187-3.61.0472-4.6383-1.0829-1.6593-3.799-1.7526-6.196-1.8347-.3677-.0123-.727-.0246-1.0712-.0428l.0164-.3421c.342.0173.7.03,1.0655.0422,2.4751.0855,5.279.1821,6.4555,1.9838.7346,1.1254.7317,2.743-.0085,4.9462-1.0666,3.1741-4.56,5.5755-10.1034,6.9449A42.1284,42.1284,0,0,1,526.5251,262.2875Z" style="fill:#fff"/><path d="M499.2229,237.9892q-.4355-.1755-.8782-.368l.1261-.3166c13.3483,5.83,22.0191-.4188,22.1057-.4823l.1884.28C520.6792,237.1658,512.2281,243.23,499.2229,237.9892Z" style="fill:#fff"/><path d="M511.4091,299.58a14.266,14.266,0,0,1-5.1868-3.5463.5935.5935,0,0,1,.0424-.811.5312.5312,0,0,1,.7748.0433,13.5425,13.5425,0,0,0,11.7794,4.0082.5531.5531,0,0,1,.6248.4825.5718.5718,0,0,1-.4607.6545A14.0875,14.0875,0,0,1,511.4091,299.58Z" style="fill:#ffb27d"/><path d="M515.1643,584.2409a1.2978,1.2978,0,0,1-1.2893-1.13c-1.502-12.4545-10.3544-22.7423-10.4407-22.8486a1.2954,1.2954,0,1,1,1.9538-1.7014c.3855.4387,9.4638,11.0056,11.0588,24.231a1.3006,1.3006,0,0,1-1.13,1.4488Z" style="fill:#331832"/><path d="M132.9948,575.6138C201.7455,598.6405,275.0064,594.49,337.6894,555.81c53.7249-33.1531,85.0136-82.3966,154.357-86.71,51.7033-3.2161,104.9554,6.9217,155.084,18.2815,191.4365,43.382,361.853,147.0372,549.1605,203.39,184.7669,55.5885,374.7586,92.3152,562.448,136.3554C1947.6768,871.46,2126.2164,946.4552,2313.917,993.45c3.4985.8758,4.991-4.5264,1.49-5.4031-184.0588-46.0824-359.1011-120.035-544.2667-163.764-191.2652-45.17-385.0071-82.247-573.3595-138.9141C1014.1909,630.134,847.0166,529.7753,660.0737,484.745c-68.2052-16.4292-158.8861-38.753-226.0676-8.2246-37.9111,17.2275-64.1684,52.8155-99.1448,74.4509-61.4192,37.9924-132.7989,41.8734-200.377,19.2395-3.4269-1.1478-4.8969,4.2617-1.4895,5.403Z" style="fill:#764678"/><path d="M1568.9823,805.8952s10.089,7.1186,15.4778-2.0251c6.8661-11.65,4.1234-34.0237-.33-26.7132-3.9479,6.4813-7.3216,17.2851-7.3216,17.2851s8.2-27.6271,1.96-27.9425-12.9719,23.5681-12.9719,23.5681,5.4808-27.9031-.3429-26.2083-12.07,23.33-12.07,23.33,6.7931-26.8418.0864-24.7031-7.4551,17.0063-9.1611,23.1057c-1.6121,5.7638,1.5247,9.0384,7.1115,10.7469,0,0,4.8891,5.0063,8.7307,5.18,1.4729.0668,2.4472,1.8812,3.4054,2.3832A38.457,38.457,0,0,0,1568.9823,805.8952Z" style="fill:#f8a16a"/><path d="M1994.661,906.111s10.0889,7.1186,15.4778-2.0251c6.8659-11.65,4.1232-34.0237-.33-26.7132-3.9479,6.4814-7.3215,17.2851-7.3215,17.2851s8.2-27.6271,1.96-27.9425-12.972,23.5681-12.972,23.5681,5.4809-27.9031-.3427-26.2082-12.07,23.33-12.07,23.33,6.7931-26.8418.0864-24.703-7.4552,17.0063-9.1612,23.1055c-1.6121,5.764,1.5246,9.0385,7.1115,10.747,0,0,4.8891,5.0063,8.7306,5.18,1.473.0667,2.4472,1.8813,3.4056,2.3832A38.4523,38.4523,0,0,0,1994.661,906.111Z" style="fill:#f8a16a"/><path d="M1884.9318,836.0022c-5.9064-2.9641-18.8514-6.0578-24.8126-8.902-2.5847-1.2332-11.557-4.7548-13.1039-2.2353-1.3442,2.1893,4.472,8.5211,7.5934,11.1863-23.013,4.0788-51.2686,18.6352-4.8407,12.8365.0017.022.0044.0453.0064.0673-3.9468.8272-33.118,5.83-30.2475,12.38,2.1027,4.7981,25.9795-.0951,32.485-1.3835q.0262.0919.0529.1839c-6.5093,1.9052-26.4625,6.5119-24.6656,11.2,2.3645,6.1689,27.9-.6584,27.9-.6584s-21.3216,5.1-16.2488,10.6617c2.86,3.1355,15.38-.3169,23.1459-2.5863h0l.0026-.0008c1.6279-.4759,3.0516-.9008,4.1279-1.2006a10.5758,10.5758,0,0,0,2.3326-.9466,96.1538,96.1538,0,0,0,20.24-9.8542s9.8044-4.48,7.6215-16.5152C1895.13,842.5658,1887.4927,837.2874,1884.9318,836.0022Z" style="fill:#ffb27d"/><path d="M1879.8193,833.9117c2.4639-7.2414,64.5257-26.1787,64.5257-33.44,0-6.2539-51.2665-23.1551-51.2665-23.1551l-17.9666-92.4186s49.8212,7.4813,99.1814,44.2479c42.7164,31.8178,51.0148,59.0608,39.6578,85.7314-13.9338,32.7219-98.8133,66.0768-114.0161,59.5482C1877.0137,864.5823,1877.3555,841.1531,1879.8193,833.9117Z" style="fill:#ef8062"/><path d="M1803.0316,692.32c7.6271,15.1235,40.9023,86.44,134.03,95.909a36.8271,36.8271,0,0,1,16.8544,6.0824l20.2093,13.6041a6.6543,6.6543,0,0,1,.6675,10.5536l-19.5915,16.21a33.0371,33.0371,0,0,1-23.9628,7.5311c-30.0869-2.6225-122.51-44.3648-143.4326-147.8552-.9012-4.4576,2.6052-2.7707,6.9994-2.7824l3.8372-.28C1801.0511,691.2871,1801.91,690.0953,1803.0316,692.32Z" style="fill:#366f90"/><path d="M1802.7051,683.5474s-12.026-2.7108-14.92.5247.4309,16.5056,5.9259,17.2041S1808.2968,686.3052,1802.7051,683.5474Z" style="fill:#366f90"/><path d="M1795.5687,681.0044s14.8862-7.08,17.4409-13.02,19.4166,5.6777,19.44,9.609-26.8884,28.2508-28.9646,25.6894S1792.11,685.0611,1795.5687,681.0044Z" style="fill:#ff9e89"/><path d="M1795.5687,681.0044s-2.7425-5.7342-1.8877-9.0637c0,0,.5112-2.9043-1.808-2.4931s-14.307,10.8618-15.2109,13.7972-.0758,16.2324,4.1066,16.8289,12.994-14.5852,14.05-16.1039A4.0955,4.0955,0,0,0,1795.5687,681.0044Z" style="fill:#ff9e89"/><path d="M1794.6126,701.5676c-3.283,0-6.4864-5.875-6.6259-6.1408l.505-.2659c.0333.0532,3.5822,6.513,6.6,5.7819a6.39,6.39,0,0,0,4.2334-3.0836l.5184.2392a6.8131,6.8131,0,0,1-4.619,3.4027A2.43,2.43,0,0,1,1794.6126,701.5676Z" style="fill:#331832"/><path d="M2335.5289,954.4041a.5193.5193,0,0,1-.2392-.0532l-22.7423-10.7663a.5582.5582,0,0,1-.2658-.7443.5754.5754,0,0,1,.7443-.2659l22.7423,10.7664a.5584.5584,0,0,1-.2393,1.0633Z" style="fill:#331832"/><path d="M1121.9631,672.8656s10.089,7.1186,15.4779-2.0251c6.866-11.65,4.1233-34.0237-.33-26.7132-3.948,6.4814-7.3215,17.2851-7.3215,17.2851s8.2-27.6271,1.96-27.9425-12.9719,23.5681-12.9719,23.5681,5.4809-27.9031-.3428-26.2083-12.07,23.33-12.07,23.33,6.7931-26.8418.0863-24.703-7.4552,17.0063-9.1611,23.1055c-1.6121,5.764,1.5246,9.0385,7.1115,10.747,0,0,4.889,5.0063,8.7306,5.1805,1.473.0667,2.4472,1.8812,3.4056,2.3831A38.4527,38.4527,0,0,0,1121.9631,672.8656Z" style="fill:#f8a16a"/><path d="M1444.3541,759.3066s-19.6642-20.3128-29.7923-21.9009-24.2774,4.4106-18.21,6.7925,14.6406,3.176,14.6406,3.176-18.4007-.7941-16.7513,3.7932,17.66,5.1167,17.66,5.1167-21.9827.8819-19.08,4.6753,19.5987,3,19.5987,3-20.4283,1.6759-16.9572,5.9985,16.8741-1.4994,18.5236,3.0879,12.1563,10.6194,24.9545,8.4167Z" style="fill:#ffb27d"/><path d="M1440.0885,755.8771c1.11-6.7924,43.5751-15.9041,42.0613-21.2351-2.7587-9.7144-59.8031-32.2454-59.8031-32.2454l-24.7492-69.8433s48.2847,4.3035,89.5095,32.3359c49.31,33.53,58.9592,69.7528,46.8242,97.2111-12.881,29.1461-73.4675,38.3554-87.8531,35.0443C1424.3889,792.1526,1438.9782,762.6694,1440.0885,755.8771Z" style="fill:#daebe8"/><path d="M1461.3939,797.0957c-6.7987,0-15.5514-.4387-20.137-2.4457-8.2409-3.6286-7.55-12.6936-7.5431-12.7867a.5568.5568,0,0,1,.5583-.5051h.0465a.5573.5573,0,0,1,.5117.6114c-.0266.3323-.618,8.3473,6.8785,11.6436,7.7491,3.4027,28.81,2.1,29.0227,2.1h.0332a.5588.5588,0,0,1,.5582.5183.5523.5523,0,0,1-.525.5982C1470.4258,796.8564,1466.4514,797.0957,1461.3939,797.0957Z" style="fill:#331832"/><path d="M1440.0872,756.4361a.5659.5659,0,0,1-.5317-.3721.5724.5724,0,0,1,.3523-.7178,5.89,5.89,0,0,0,1.1829-1.2229c2.3526-2.8178,7.8555-9.384,23.6329-10.9258a.6309.6309,0,0,1,.6113.5051.56.56,0,0,1-.505.6114c-15.3188,1.4887-20.4229,7.59-22.8818,10.5271-.7244.864-1.1631,1.3956-1.6814,1.5684A.8367.8367,0,0,1,1440.0872,756.4361Z" style="fill:#331832"/><path d="M1462.83,721.16a.5211.5211,0,0,1-.2393-.0531L1439.848,710.34a.5584.5584,0,0,1-.2659-.7444.5657.5657,0,0,1,.7444-.2658l22.7422,10.7663a.5584.5584,0,0,1-.2392,1.0633Z" style="fill:#331832"/><path d="M1968.216,1663.7c-65.0525-.3136-136.38-2.4092-217.4467-5.9617-37.2048-1.6248-76.46-3.5636-118.1031-5.7824q-25.7017-1.3616-52.6473-2.88h-.011l-328.871-114.629c-8.9539-33.8878-14.1422-71.5971-16.7646-110.0458-2.1964-19.7342-2.2076-51.1231-2.2076-51.1231s.0449.2241.1457.65a283.1748,283.1748,0,0,0,19.8575,55.9641c16.7984,35.0084,45.5536,74.6226,91.2865,81.862,84.91,13.4476,203.607-7.3514,320.1523,64.3688C1750.9709,1629.8791,1866.0373,1635.7849,1968.216,1663.7Z" style="fill:#25607d"/><path d="M1407.1419,633.943c-6.7114,9.3718-14.7241,12.8185-25.4222,13.6123-16.2,1.2021-9.8207-16.6942-9.8207-16.6942,3.9727-.3936,6.0041-2.65,6.0576-6.7955l.0535-5.0948.0249-2.5254.0978-8.0708.0824-7.2473.338-29.7247,9.504,29.5358,1.6164,5.017,5.57,17.3127a15.6823,15.6823,0,0,0,11.8144,10.6588C1407.0834,633.9291,1407.1165,633.9408,1407.1419,633.943Z" style="fill:#ffb27d"/><path d="M1389.6736,605.9554s-4.189,9.0838-11.6386,10.49l.0978-8.0708C1382.7515,607.0612,1389.6736,605.9554,1389.6736,605.9554Z" style="fill:#331832"/><path d="M1415.13,575.3406s-2.2517,4.416-2.0717,14.774c.2635,15.1559-16.7395,16.8082-19.6992,11.6954-.3662-.6326,6.3178-24.4628,6.3178-24.4628l5.7314-1.7083Z" style="fill:#331832"/><ellipse cx="1380.3438" cy="575.7874" rx="34.292" ry="26.8661" transform="translate(524.9444 1802.6419) rotate(-77.7573)" style="fill:#ffb27d"/><path d="M1376.4855,547.4624c.4637,1.2178-7.9153,17.2067,21.5483,29.6179s20.8069-31.0345-1.4715-38.0474c-32.168-10.1259-42.6,11.2806-41.5318,20.3018S1376.4855,547.4624,1376.4855,547.4624Z" style="fill:#331832"/><path d="M1396.0411,570.7165s9.0291,17.0545,1.2012,29.8294c0,0,9.2888-6.2323,10.2187-9.2519s1.7886-14.606,1.7886-14.606Z" style="fill:#331832"/><path d="M1401.547,586.9365c-3.67,2.1126-7.8518,1.29-9.3412-1.838s.2781-7.3756,3.9477-9.4882,7.8519-1.29,9.3412,1.838S1405.2166,584.8239,1401.547,586.9365Z" style="fill:#ffb27d"/><path d="M1377.7552,575.4232a.6354.6354,0,0,1-.302-.4716.628.628,0,0,1,.527-.707,6.5147,6.5147,0,0,1,7.1913,3.8546.6154.6154,0,1,1-1.0676.6117,10.2962,10.2962,0,0,0-5.97-3.2078A.5893.5893,0,0,1,1377.7552,575.4232Z" style="fill:#080435"/><path d="M1380.7294,583.434c-.3226,1.4743-1.4186,2.4707-2.4479,2.2256s-1.6023-1.6388-1.28-3.1131,1.4186-2.4707,2.448-2.2256S1381.0521,581.96,1380.7294,583.434Z" style="fill:#080435"/><path d="M1355.8988,572.8688a.6093.6093,0,0,1-.4518-.3168.6465.6465,0,0,1,.228-.8627,6.4052,6.4052,0,0,1,8.0571.7182.6243.6243,0,0,1-.7624.9888,10.0672,10.0672,0,0,0-6.692-.6033A.5882.5882,0,0,1,1355.8988,572.8688Z" style="fill:#080435"/><path d="M1361.5821,579.1025c.2421,1.4917-.4055,2.8477-1.4465,3.0287s-2.0809-.8819-2.3229-2.3735.4055-2.8478,1.4465-3.0288S1361.34,577.6107,1361.5821,579.1025Z" style="fill:#080435"/><g style="opacity:0.30000000000000004"><path d="M1392.6869,577.9859c.3866,8.5351-3.9986,16.7994-9.7946,18.4588s-10.8082-3.9147-11.1948-12.45,3.9986-16.8,9.7946-18.4588S1392.3,569.4507,1392.6869,577.9859Z" style="fill:#fff"/></g><g style="opacity:0.30000000000000004"><path d="M1365.5816,575.8236c-.5246,8.3684-5.1671,16.1911-10.3693,17.4726s-8.994-4.4638-8.4693-12.8323,5.1671-16.1912,10.3693-17.4726S1366.1063,567.455,1365.5816,575.8236Z" style="fill:#fff"/></g><path d="M1393.4008,576.8021c-.0337-.6612-.0784-1.2888-.1681-1.9275v-.0113c-.5941-4.4376-2.4318-8.0684-5.1773-10.1528a8.0451,8.0451,0,0,0-7.25-1.4232,9.5651,9.5651,0,0,0-1.5465.5939c-4.0566,1.9163-7.2953,6.7462-8.5951,12.45v.0112a15.96,15.96,0,0,0-.3587,1.9387v.0112a23.2119,23.2119,0,0,0-.2464,4.7626,22.5091,22.5091,0,0,0,.6723,4.3929,13.6494,13.6494,0,0,0,4.6843,7.6988,8.8245,8.8245,0,0,0,2.8575,1.4456,8.381,8.381,0,0,0,.9188.2016,8.01,8.01,0,0,0,3.4741-.224,9.9963,9.9963,0,0,0,3.429-1.7258c.0225-.0112.0449-.0336.0672-.0448a18.74,18.74,0,0,0,6.1634-9.4805v-.0113c.1347-.4146.2579-.8292.3587-1.2551a24.2253,24.2253,0,0,0,.5267-2.6894,25.9738,25.9738,0,0,0,.2241-3.3844v-.0112C1393.4343,577.5753,1393.4232,577.1943,1393.4008,576.8021Zm-19.7567,14.9043a15.5144,15.5144,0,0,1-1.9387-4.5273,19.9864,19.9864,0,0,1-.6276-4.18,23.0243,23.0243,0,0,1,.1793-4.3143v-.0113a19.1468,19.1468,0,0,1,.3585-1.9723V576.69c1.2329-5.5583,4.3482-10.2314,8.2817-11.9571h.0112a7.51,7.51,0,0,1,4.2134-.6276,7.3831,7.3831,0,0,1,3.34,1.4568,11.3676,11.3676,0,0,1,3.44,4.6058,16.2227,16.2227,0,0,1,.84,2.4878.1615.1615,0,0,0,.0223.0785.1421.1421,0,0,0,.0112.0672c.0112.0225.0112.0336.0224.0448,0,.0113.0113.0225.0113.0337a11.773,11.773,0,0,1,.2913,1.39v.0112a19.092,19.092,0,0,1,.2914,2.5774,22.02,22.02,0,0,1-.0337,2.8576v.0337c-.0448.6387-.1231,1.2663-.2128,1.8938-.1122.6611-.2353,1.3223-.3924,1.95v.0112a18.5724,18.5724,0,0,1-5.7711,10.0184c-.0785.0673-.1457.1233-.224.1793a9.576,9.576,0,0,1-3.3619,1.7482,7.2177,7.2177,0,0,1-3.9335.0112c-.056-.0224-.1233-.0337-.1793-.056a7.3351,7.3351,0,0,1-2.2749-1.21,9.9714,9.9714,0,0,1-2.32-2.5439l-.0336-.0335Z" style="fill:#68a1bf"/><path d="M1365.2282,578.0235c-.1121.0337-.2017.0673-.2466.0785a25.9485,25.9485,0,0,1-1.6024,6.7014v.0224c0-.0113,0-.0113.0111-.0113a.5454.5454,0,0,0,.0449-.1233c.09-.1792.1681-.37.2464-.56V584.12a.3573.3573,0,0,1,.0337-.1008c.056-.1344.1121-.2689.1682-.4146.0448-.1344.1007-.28.1455-.4258.0673-.1906.1459-.37.213-.56a.1572.1572,0,0,1,.0225-.0671c.0671-.213.1456-.4259.2129-.6389.0672-.2241.1231-.4482.19-.6835q.0841-.3193.1682-.6388c.112-.4146.2017-.84.2913-1.2775s.1569-.8741.2241-1.3223C1365.3066,578.0012,1365.2618,578.0123,1365.2282,578.0235Zm0,0c-.1121.0337-.2017.0673-.2466.0785a25.9485,25.9485,0,0,1-1.6024,6.7014v.0224c0-.0113,0-.0113.0111-.0113a.5454.5454,0,0,0,.0449-.1233c.09-.1792.1681-.37.2464-.56V584.12a.3573.3573,0,0,1,.0337-.1008c.056-.1344.1121-.2689.1682-.4146.0448-.1344.1007-.28.1455-.4258.0673-.1906.1459-.37.213-.56a.1572.1572,0,0,1,.0225-.0671c.0671-.213.1456-.4259.2129-.6389.0672-.2241.1231-.4482.19-.6835q.0841-.3193.1682-.6388c.112-.4146.2017-.84.2913-1.2775s.1569-.8741.2241-1.3223C1365.3066,578.0012,1365.2618,578.0123,1365.2282,578.0235Zm0,0c-.1121.0337-.2017.0673-.2466.0785a25.9485,25.9485,0,0,1-1.6024,6.7014v.0224c0-.0113,0-.0113.0111-.0113a.5454.5454,0,0,0,.0449-.1233c.09-.1792.1681-.37.2464-.56V584.12a.3573.3573,0,0,1,.0337-.1008c.056-.1344.1121-.2689.1682-.4146.0448-.1344.1007-.28.1455-.4258.0673-.1906.1459-.37.213-.56a.1572.1572,0,0,1,.0225-.0671c.0671-.213.1456-.4259.2129-.6389.0672-.2241.1231-.4482.19-.6835q.0841-.3193.1682-.6388c.112-.4146.2017-.84.2913-1.2775s.1569-.8741.2241-1.3223C1365.3066,578.0012,1365.2618,578.0123,1365.2282,578.0235Zm0,0c-.1121.0337-.2017.0673-.2466.0785a25.9485,25.9485,0,0,1-1.6024,6.7014v.0224c0-.0113,0-.0113.0111-.0113a.5454.5454,0,0,0,.0449-.1233c.09-.1792.1681-.37.2464-.56V584.12a.3573.3573,0,0,1,.0337-.1008c.056-.1344.1121-.2689.1682-.4146.0448-.1344.1007-.28.1455-.4258.0673-.1906.1459-.37.213-.56a.1572.1572,0,0,1,.0225-.0671c.0671-.213.1456-.4259.2129-.6389.0672-.2241.1231-.4482.19-.6835q.0841-.3193.1682-.6388c.112-.4146.2017-.84.2913-1.2775s.1569-.8741.2241-1.3223C1365.3066,578.0012,1365.2618,578.0123,1365.2282,578.0235Zm0,0c-.1121.0337-.2017.0673-.2466.0785a25.9485,25.9485,0,0,1-1.6024,6.7014v.0224c0-.0113,0-.0113.0111-.0113a.5454.5454,0,0,0,.0449-.1233c.09-.1792.1681-.37.2464-.56V584.12a.3573.3573,0,0,1,.0337-.1008c.056-.1344.1121-.2689.1682-.4146.0448-.1344.1007-.28.1455-.4258.0673-.1906.1459-.37.213-.56a.1572.1572,0,0,1,.0225-.0671c.0671-.213.1456-.4259.2129-.6389.0672-.2241.1231-.4482.19-.6835q.0841-.3193.1682-.6388c.112-.4146.2017-.84.2913-1.2775s.1569-.8741.2241-1.3223C1365.3066,578.0012,1365.2618,578.0123,1365.2282,578.0235Zm0,0c-.1121.0337-.2017.0673-.2466.0785a25.9485,25.9485,0,0,1-1.6024,6.7014v.0224c0-.0113,0-.0113.0111-.0113a.5454.5454,0,0,0,.0449-.1233c.09-.1792.1681-.37.2464-.56V584.12a.3573.3573,0,0,1,.0337-.1008c.056-.1344.1121-.2689.1682-.4146.0448-.1344.1007-.28.1455-.4258.0673-.1906.1459-.37.213-.56a.1572.1572,0,0,1,.0225-.0671c.0671-.213.1456-.4259.2129-.6389.0672-.2241.1231-.4482.19-.6835q.0841-.3193.1682-.6388c.112-.4146.2017-.84.2913-1.2775s.1569-.8741.2241-1.3223C1365.3066,578.0012,1365.2618,578.0123,1365.2282,578.0235Zm0,0c-.1121.0337-.2017.0673-.2466.0785a25.9485,25.9485,0,0,1-1.6024,6.7014v.0224c0-.0113,0-.0113.0111-.0113a.5454.5454,0,0,0,.0449-.1233c.09-.1792.1681-.37.2464-.56V584.12a.3573.3573,0,0,1,.0337-.1008c.056-.1344.1121-.2689.1682-.4146.0448-.1344.1007-.28.1455-.4258.0673-.1906.1459-.37.213-.56a.1572.1572,0,0,1,.0225-.0671c.0671-.213.1456-.4259.2129-.6389.0672-.2241.1231-.4482.19-.6835q.0841-.3193.1682-.6388c.112-.4146.2017-.84.2913-1.2775s.1569-.8741.2241-1.3223C1365.3066,578.0012,1365.2618,578.0123,1365.2282,578.0235Zm0,0c-.1121.0337-.2017.0673-.2466.0785a25.9485,25.9485,0,0,1-1.6024,6.7014v.0224c0-.0113,0-.0113.0111-.0113a.5454.5454,0,0,0,.0449-.1233c.09-.1792.1681-.37.2464-.56V584.12a.3573.3573,0,0,1,.0337-.1008c.056-.1344.1121-.2689.1682-.4146.0448-.1344.1007-.28.1455-.4258.0673-.1906.1459-.37.213-.56a.1572.1572,0,0,1,.0225-.0671c.0671-.213.1456-.4259.2129-.6389.0672-.2241.1231-.4482.19-.6835q.0841-.3193.1682-.6388c.112-.4146.2017-.84.2913-1.2775s.1569-.8741.2241-1.3223C1365.3066,578.0012,1365.2618,578.0123,1365.2282,578.0235Zm-3.9671-15.6776a7.2614,7.2614,0,0,0-2.1739-1.143h-.0113a6.31,6.31,0,0,0-1.8938-.2914,6.6827,6.6827,0,0,0-1.3895.1906h-.0113c-.1121.0112-.2464.056-.3587.0785-5.547,1.6024-9.9063,10.2088-9.7045,19.1963.1343,5.5135,1.95,10.1641,4.8746,12.4277a6.643,6.643,0,0,0,2.3758,1.21,6.18,6.18,0,0,0,3.0369.056.0411.0411,0,0,1,.0336-.0112c.1233-.0336.2578-.056.381-.1008a10.5652,10.5652,0,0,0,5.4014-4.18h.0112a22.6767,22.6767,0,0,0,3.474-7.7323,25.6023,25.6023,0,0,0,.6947-4.2136,19.612,19.612,0,0,0,.1234-1.9835v-.0111c.0112-.3587,0-.706,0-1.0647C1366.0013,569.26,1364.1749,564.61,1361.2611,562.3459Zm2.1181,22.4911a.011.011,0,0,0-.0112.0112,2.8937,2.8937,0,0,0-.1121.28,17.9577,17.9577,0,0,1-3.1154,5.1325,8.9177,8.9177,0,0,1-3.3731,2.4542c-.0112.0112-.0112.0224-.0225.0112a.0346.0346,0,0,1-.0223.0112.595.595,0,0,1-.1232.056,3.7,3.7,0,0,1-.46.1569,4.6373,4.6373,0,0,1-.5379.1233h-.0112a5.2962,5.2962,0,0,1-4.3929-1.1207c-2.6335-2.0507-4.3032-6.2754-4.46-11.3743v-.0336l-.0112-.0112c.0112,0,.0112-.0113.0112-.0225v-.0448a.381.381,0,0,0-.0112-.112c-.1792-8.5392,3.8437-16.675,8.9763-18.1542a5.0988,5.0988,0,0,1,.9861-.19,5.0434,5.0434,0,0,1,1.9276.1457,5.7986,5.7986,0,0,1,2.0282,1.0309,1.6206,1.6206,0,0,1,.1457.1345,10.7148,10.7148,0,0,1,3.0481,4.5049,20.9309,20.9309,0,0,1,1.2775,6.97v1.2216q-.0336,1.0422-.1345,2.0843a25.9485,25.9485,0,0,1-1.6024,6.7014Zm1.849-6.8135c-.1121.0337-.2017.0673-.2466.0785a25.9485,25.9485,0,0,1-1.6024,6.7014v.0224c0-.0113,0-.0113.0111-.0113a.5454.5454,0,0,0,.0449-.1233c.09-.1792.1681-.37.2464-.56V584.12a.3573.3573,0,0,1,.0337-.1008c.056-.1344.1121-.2689.1682-.4146.0448-.1344.1007-.28.1455-.4258.0673-.1906.1459-.37.213-.56a.1572.1572,0,0,1,.0225-.0671c.0671-.213.1456-.4259.2129-.6389.0672-.2241.1231-.4482.19-.6835q.0841-.3193.1682-.6388c.112-.4146.2017-.84.2913-1.2775s.1569-.8741.2241-1.3223C1365.3066,578.0012,1365.2618,578.0123,1365.2282,578.0235Zm0,0c-.1121.0337-.2017.0673-.2466.0785a25.9485,25.9485,0,0,1-1.6024,6.7014v.0224c0-.0113,0-.0113.0111-.0113a.5454.5454,0,0,0,.0449-.1233c.09-.1792.1681-.37.2464-.56V584.12a.3573.3573,0,0,1,.0337-.1008c.056-.1344.1121-.2689.1682-.4146.0448-.1344.1007-.28.1455-.4258.0673-.1906.1459-.37.213-.56a.1572.1572,0,0,1,.0225-.0671c.0671-.213.1456-.4259.2129-.6389.0672-.2241.1231-.4482.19-.6835q.0841-.3193.1682-.6388c.112-.4146.2017-.84.2913-1.2775s.1569-.8741.2241-1.3223C1365.3066,578.0012,1365.2618,578.0123,1365.2282,578.0235Zm0,0c-.1121.0337-.2017.0673-.2466.0785a25.9485,25.9485,0,0,1-1.6024,6.7014v.0224c0-.0113,0-.0113.0111-.0113a.5454.5454,0,0,0,.0449-.1233c.09-.1792.1681-.37.2464-.56V584.12a.3573.3573,0,0,1,.0337-.1008c.056-.1344.1121-.2689.1682-.4146.0448-.1344.1007-.28.1455-.4258.0673-.1906.1459-.37.213-.56a.1572.1572,0,0,1,.0225-.0671c.0671-.213.1456-.4259.2129-.6389.0672-.2241.1231-.4482.19-.6835q.0841-.3193.1682-.6388c.112-.4146.2017-.84.2913-1.2775s.1569-.8741.2241-1.3223C1365.3066,578.0012,1365.2618,578.0123,1365.2282,578.0235Zm0,0c-.1121.0337-.2017.0673-.2466.0785a25.9485,25.9485,0,0,1-1.6024,6.7014v.0224c0-.0113,0-.0113.0111-.0113a.5454.5454,0,0,0,.0449-.1233c.09-.1792.1681-.37.2464-.56V584.12a.3573.3573,0,0,1,.0337-.1008c.056-.1344.1121-.2689.1682-.4146.0448-.1344.1007-.28.1455-.4258.0673-.1906.1459-.37.213-.56a.1572.1572,0,0,1,.0225-.0671c.0671-.213.1456-.4259.2129-.6389.0672-.2241.1231-.4482.19-.6835q.0841-.3193.1682-.6388c.112-.4146.2017-.84.2913-1.2775s.1569-.8741.2241-1.3223C1365.3066,578.0012,1365.2618,578.0123,1365.2282,578.0235Zm0,0c-.1121.0337-.2017.0673-.2466.0785a25.9485,25.9485,0,0,1-1.6024,6.7014v.0224c0-.0113,0-.0113.0111-.0113a.5454.5454,0,0,0,.0449-.1233c.09-.1792.1681-.37.2464-.56V584.12a.3573.3573,0,0,1,.0337-.1008c.056-.1344.1121-.2689.1682-.4146.0448-.1344.1007-.28.1455-.4258.0673-.1906.1459-.37.213-.56a.1572.1572,0,0,1,.0225-.0671c.0671-.213.1456-.4259.2129-.6389.0672-.2241.1231-.4482.19-.6835q.0841-.3193.1682-.6388c.112-.4146.2017-.84.2913-1.2775s.1569-.8741.2241-1.3223C1365.3066,578.0012,1365.2618,578.0123,1365.2282,578.0235Zm0,0c-.1121.0337-.2017.0673-.2466.0785a25.9485,25.9485,0,0,1-1.6024,6.7014v.0224c0-.0113,0-.0113.0111-.0113a.5454.5454,0,0,0,.0449-.1233c.09-.1792.1681-.37.2464-.56V584.12a.3573.3573,0,0,1,.0337-.1008c.056-.1344.1121-.2689.1682-.4146.0448-.1344.1007-.28.1455-.4258.0673-.1906.1459-.37.213-.56a.1572.1572,0,0,1,.0225-.0671c.0671-.213.1456-.4259.2129-.6389.0672-.2241.1231-.4482.19-.6835q.0841-.3193.1682-.6388c.112-.4146.2017-.84.2913-1.2775s.1569-.8741.2241-1.3223C1365.3066,578.0012,1365.2618,578.0123,1365.2282,578.0235Zm0,0c-.1121.0337-.2017.0673-.2466.0785a25.9485,25.9485,0,0,1-1.6024,6.7014v.0224c0-.0113,0-.0113.0111-.0113a.5454.5454,0,0,0,.0449-.1233c.09-.1792.1681-.37.2464-.56V584.12a.3573.3573,0,0,1,.0337-.1008c.056-.1344.1121-.2689.1682-.4146.0448-.1344.1007-.28.1455-.4258.0673-.1906.1459-.37.213-.56a.1572.1572,0,0,1,.0225-.0671c.0671-.213.1456-.4259.2129-.6389.0672-.2241.1231-.4482.19-.6835q.0841-.3193.1682-.6388c.112-.4146.2017-.84.2913-1.2775s.1569-.8741.2241-1.3223C1365.3066,578.0012,1365.2618,578.0123,1365.2282,578.0235Z" style="fill:#68a1bf"/><path d="M1364.2967,578.1783a.9573.9573,0,0,1-.63-.5616.9967.9967,0,0,1,.4923-1.2917,9.9493,9.9493,0,0,1,8.4608.8689,1.003,1.003,0,0,1,.4017,1.3262.9268.9268,0,0,1-1.2747.4161,8.1766,8.1766,0,0,0-6.8372-.8062A.9064.9064,0,0,1,1364.2967,578.1783Z" style="fill:#331832"/><path d="M1404.0776,616.8329a.5675.5675,0,0,0,.3331-.067.6221.6221,0,0,0,.2452-.8244,27.0345,27.0345,0,0,0-10.2736-10.3292.5748.5748,0,0,0-.794.2506.6236.6236,0,0,0,.2423.8259,26.22,26.22,0,0,1,9.7867,9.8209A.588.588,0,0,0,1404.0776,616.8329Z" style="fill:#331832"/><path d="M1361.6922,597.8251a.299.299,0,0,1-.1795-.0664.2933.2933,0,0,1-.0465-.4121c4.5458-5.7155,10.6136-2.1666,10.6734-2.1533a.2941.2941,0,0,1,.1063.3988.32.32,0,0,1-.3988.1063,7.5216,7.5216,0,0,0-9.9289,2.02A.2938.2938,0,0,1,1361.6922,597.8251Z" style="fill:#020202"/><path d="M2367.7337,1014.1211c59.2757,11.3973,42.849,66.9926,69.4585,104.3563,6.4391,9.0415,14.6168,15.239,22.9961,22.4507,23.4875,20.2148,38.3948,39.4467,43.7818,70.6891.6116,3.5466,6.0121,2.043,5.403-1.4895-2.997-17.3809-7.5143-32.0671-17.8555-46.6582-21.086-29.7515-53.0868-40.7655-63.0006-79.7259-9.7793-38.4312-15.7346-66.65-59.2938-75.0255-3.5233-.6774-5.0324,4.7219-1.4895,5.403Z" style="fill:#764678"/><path d="M2317.0518,991.2967s-19.6642-20.3127-29.7922-21.9007-24.2774,4.41-18.2106,6.7924,14.6407,3.176,14.6407,3.176-18.4007-.7942-16.7513,3.7931,17.66,5.1169,17.66,5.1169-21.9826.8818-19.08,4.6752,19.5987,3,19.5987,3-20.4282,1.6758-16.9572,5.9985,16.8741-1.4994,18.5235,3.0879,12.1563,10.6193,24.9546,8.4166Z" style="fill:#ffb27d"/><path d="M2312.7863,987.8673c1.11-6.7924,43.5752-15.9041,42.0613-21.2351-2.7587-9.7145-59.803-32.2454-59.803-32.2454l-2.7505-63.38s26.2858-2.16,67.5107,25.8724c49.31,33.53,58.9593,69.7528,46.8243,97.211-12.881,29.1463-73.4676,38.3555-87.8531,35.0445C2297.0867,1024.1428,2311.6761,994.66,2312.7863,987.8673Z" style="fill:#68a1bf"/><path d="M2334.12,1029.0907c-6.7988,0-15.5647-.4386-20.1636-2.459-8.241-3.6154-7.55-12.68-7.5432-12.7734a.5568.5568,0,0,1,.5582-.5051h.0466a.5574.5574,0,0,1,.5117.6114c-.0266.3323-.6181,8.3473,6.8786,11.63,7.7558,3.4293,28.8032,2.1133,29.0159,2.1133h.0333a.559.559,0,0,1,.5582.5184.5522.5522,0,0,1-.525.5981C2343.1185,1028.8514,2339.1642,1029.0907,2334.12,1029.0907Z" style="fill:#331832"/><path d="M2312.7867,988.4311a.56.56,0,0,1-.1861-1.09,6.0789,6.0789,0,0,0,1.1829-1.2229c2.346-2.8178,7.8489-9.384,23.6395-10.9391a.5777.5777,0,0,1,.6114.5051.56.56,0,0,1-.5051.6114c-15.332,1.502-20.4361,7.6029-22.8885,10.54-.7244.8639-1.1563,1.3823-1.6681,1.5684A.8962.8962,0,0,1,2312.7867,988.4311Z" style="fill:#331832"/><path d="M772.2485,532.9552s12.1468,6.1741,16.5817-4.6662c5.6506-13.8116-.893-37.81-4.5966-29.12-3.2835,7.7043-5.2543,20.0377-5.2543,20.0377s4.5734-31.4712-2.2908-30.826S766.26,516.1756,766.26,516.1756s1.56-31.3414-4.5308-28.567S752.2482,515,752.2482,515s3.1615-30.39-3.8235-26.9911-5.4444,19.7544-6.34,26.6859c-.8464,6.55,3.0984,9.6288,9.4707,10.6086,0,0,6.1331,4.6918,10.356,4.2726,1.6192-.1607,2.9709,1.6663,4.097,2.0627A42.456,42.456,0,0,0,772.2485,532.9552Z" style="fill:#f8a16a"/><path d="M480.7106,454.0189c5.2946-2.6571,16.8987-5.43,22.2424-7.98,2.3168-1.1055,10.36-4.2624,11.7464-2.0038,1.205,1.9625-4.0086,7.6384-6.8068,10.0275,20.6291,3.6563,45.9577,16.7048,4.3393,11.5068l-.0059.06c3.538.7415,29.6874,5.2262,27.1142,11.0981-1.8848,4.301-23.2882-.0853-29.12-1.24q-.0235.0825-.0475.165c5.8351,1.7077,23.7214,5.8372,22.1105,10.04-2.12,5.53-25.01-.59-25.01-.59s19.113,4.5714,14.5655,9.5572c-2.5635,2.8108-13.7871-.2841-20.7481-2.3184h0l-.0024-.0007c-1.4592-.4265-2.7354-.8074-3.7-1.0762a9.4773,9.4773,0,0,1-2.091-.8485,86.1941,86.1941,0,0,1-18.1434-8.8334s-8.7888-4.0155-6.832-14.8044C471.5689,459.9025,478.415,455.1709,480.7106,454.0189Z" style="fill:#ffb27d"/><path d="M486.7263,449.2668c-2.2086-6.4913-59.85-16.6135-55.7511-25.5761,4.18-9.1407,42.4327-36.0358,42.4327-36.0358l14.6238-75.2239s-56.765,4.2777-86.9046,44.9445-44.1237,70.2754-33.9432,94.1834c12.49,29.3322,85.0513,47.7149,98.6792,41.8626C486.41,484.5977,488.935,455.758,486.7263,449.2668Z" style="fill:#6da49a"/><path d="M453.1581,494.6941a37.0119,37.0119,0,0,1-7.7292-.7311.64.64,0,0,1-.4852-.7709.6274.6274,0,0,1,.7776-.4785c.2193.0532,20.6621,4.6388,32.6314-10.4473a.672.672,0,0,1,.91-.1064.6379.6379,0,0,1,.1.9038C471.627,492.82,460.5284,494.6941,453.1581,494.6941Z" style="fill:#4f8a80"/><path d="M487.1917,452.1337a.7228.7228,0,0,1-.3588-.1063.6591.6591,0,0,1-.1928-.89,1.2389,1.2389,0,0,0,0-1.05c-.2991-.8108-1.5152-2.4457-6.307-4.147-8.5466-3.0572-39.4234-13.2786-39.7358-13.3849a.6458.6458,0,0,1-.412-.8108.6315.6315,0,0,1,.8241-.4121c.3056.0931,31.2025,10.3278,39.7624,13.3849,4.0938,1.4621,6.493,3.15,7.1178,5.011a2.4711,2.4711,0,0,1-.16,2.1134A.64.64,0,0,1,487.1917,452.1337Z" style="fill:#4f8a80"/><path d="M437.1082,416.9769a.6482.6482,0,0,1-.4187-1.1431l16.123-13.6639a.6318.6318,0,0,1,.9105.0664.6509.6509,0,0,1-.0732.9171l-16.1229,13.664A.6351.6351,0,0,1,437.1082,416.9769Z" style="fill:#4f8a80"/><path d="M1879.82,834.2861a.17.17,0,0,1-.08-.0132.3625.3625,0,0,1-.2791-.4387c.8773-4.0673,6.1142-7.882,6.3335-8.0548a.3764.3764,0,0,1,.4387.6114c-.0532.0266-5.237,3.8148-6.0544,7.603A.3632.3632,0,0,1,1879.82,834.2861Z" style="fill:#331832"/><path d="M1905.3665,875.7033c-8.8922,0-16.4087-8.3339-16.7477-8.7193a.3681.3681,0,0,1,.0332-.5184.3955.3955,0,0,1,.5251.04c.0864.093,8.7327,9.73,18.13,8.3206,9.53-1.4488,18.3027-3.6818,18.3891-3.7084.226,0,.3987.08.4519.2659a.3739.3739,0,0,1-.2658.4519c-.0864.0266-8.8989,2.2728-18.469,3.7084A13.3418,13.3418,0,0,1,1905.3665,875.7033Z" style="fill:#331832"/><path d="M1936.682,788.6687c-16.3955-14.3286-59.421-28.4444-61.6873-28.923l.2393-1.1165c2.3726.4918,45.3051,14.4083,62.2056,29.1623Z" style="fill:#331832"/><g style="opacity:0.6000000000000001"><path d="M1185.6479,401.1122s-13.5862-26.1306-47.9649-22.8565-30.2859,29.4674-46.6567,27.0118-39.29,0-44.2011,16.3708-27.0119,7.3669-27.83,21.282,25.3747,23.7376,55.6607,11.46,45.02,9.5384,87.5837,5.5877,47.8374-8.8619,73.0311-6.4063,24.5956-14.7944,13.1354-26.2545S1190.56,416.9382,1185.6479,401.1122Z" style="fill:#fff"/></g><g style="opacity:0.6000000000000001"><path d="M2198.3942,456.9872s-23.8275-45.8277-84.12-40.0856-53.1153,51.68-81.8262,47.3731-68.9063,0-77.5195,28.7109-47.373,12.92-48.8086,37.3242,44.502,41.6308,97.6172,20.0976,78.955,16.7285,153.6034,9.8,83.8967-15.5419,128.0812-11.2353,43.1356-25.9462,23.0369-46.0448S2207.0078,484.7425,2198.3942,456.9872Z" style="fill:#fff"/></g><g style="opacity:0.30000000000000004"><path d="M1553.24,233.7935s-27.5477-52.9831-97.2545-46.3444-61.4082,59.7486-94.6019,54.77-79.6647,0-89.6228,33.1937-54.77,14.9371-56.4292,43.1517,51.45,48.1308,112.8584,23.2356,91.2826,19.34,177.586,11.33,96.9959-17.9686,148.0789-12.99,49.87-29.9973,26.6338-53.234S1563.1984,265.8823,1553.24,233.7935Z" style="fill:#fff"/></g></g></g></svg>