<svg xmlns="http://www.w3.org/2000/svg" viewBox="0 0 425.2764 425.2011"><g style="isolation:isolate"><g id="Layer_2" data-name="Layer 2"><g id="Capa_1" data-name="Capa 1"><rect x="0.0395" width="425.1973" height="401.8418" style="fill:#e8e2c3"/><path d="M425.2363,327.3847V54.8945c-10.5845,3.1816-21.1548,10.93-32.0317,12.4629-15.4785,2.1875-27.6084-2.7344-41.1665-6.5547-22.3262-6.291-47.3726-7.4707-71.6231-5.7168-36.7309,2.6563-72.3217,18.3906-108.6679,4.6914-15.7032-5.9238-18.668-12.58-35.1465-10.6387-13.2588,1.5606-22.6587,9.9864-34.4107,14.6231-16.936,6.6777-45.7841,14.3125-64.9941,11.2266C24.6685,72.9726,19.9639,64.6015,5.0737,67.2129A26.4671,26.4671,0,0,0,0,68.6894V327.3847Z" style="fill:#f4eee5;mix-blend-mode:multiply"/><path d="M425.2363,327.3847V102.4433c-10.5845,2.6953-21.1548,9.26-32.0317,10.5586-15.4785,1.8516-27.6084-2.3183-41.1665-5.5547-22.3262-5.3261-47.3726-6.3281-71.6231-4.84-36.7309,2.25-72.3217,15.5781-108.6679,3.9707-15.7032-5.02-18.668-10.6582-35.1465-9.0117-13.2588,1.3242-22.6587,8.459-34.4107,12.3867-16.936,5.66-45.7841,12.1269-64.9941,9.5137-12.5273-1.7051-17.2319-8.8008-32.1221-6.5879A30.6032,30.6032,0,0,0,0,114.1289V327.3847Z" style="fill:#f4eee5;mix-blend-mode:multiply"/><path d="M425.2363,327.3847V163.8633c-10.5845,2.0683-21.1548,7.1-32.0317,8.0976-15.4785,1.416-27.6084-1.7793-41.1665-4.2617-22.3262-4.0859-47.3726-4.8516-71.6231-3.7149-36.7309,1.7247-72.3217,11.9532-108.6679,3.0469-15.7032-3.85-18.668-8.1738-35.1465-6.9121-13.2588,1.0176-22.6587,6.4922-34.4107,9.5-16.936,4.3457-45.7841,9.3047-64.9941,7.3008-12.5273-1.3106-17.2319-6.7539-32.1221-5.0586A38.6913,38.6913,0,0,0,0,172.8222V327.3847Z" style="fill:#f4eee5;mix-blend-mode:multiply"/><path d="M425.2368,327.3847V224.0957c-10.5845,1.4511-21.1548,4.9843-32.0317,5.68-15.4785,1-27.6084-1.2442-41.1665-2.99-22.3262-2.8672-47.3726-3.4023-71.6231-2.6054-36.7309,1.2109-72.3218,8.3906-108.668,2.1386-15.7036-2.705-18.6684-5.74-35.1464-4.8535-13.2593.7149-22.6587,4.5547-34.4112,6.6719-16.936,3.0488-45.7841,6.5312-64.9941,5.1211-12.5273-.9141-17.2319-4.7383-32.1221-3.541-1.7124.1347-3.4013.373-5.0737.6718v96.9961Z" style="fill:#f4eee5;mix-blend-mode:multiply"/><path d="M425.2368,327.3847V273.5722c-10.5845.9453-21.1548,3.2481-32.0317,3.7051-15.4785.6485-27.6084-.8144-41.1665-1.9512-22.3262-1.8711-47.3726-2.2187-71.6231-1.6933-36.7309.7871-72.3218,5.4629-108.668,1.3867-15.7031-1.7617-18.6684-3.7363-35.1464-3.16-13.2593.4649-22.6587,2.9688-34.4112,4.3438-16.936,1.9883-45.7837,4.26-64.9941,3.34-12.5273-.5976-17.2319-3.0859-32.1221-2.31-1.7124.09-3.4013.25-5.0737.4453v49.707Z" style="fill:#f4eee5;mix-blend-mode:multiply"/><rect x="0.0395" y="318.3242" width="425.1973" height="106.8769" style="fill:#725265"/><path d="M425.2368,318.3222v81.6231c-10.5845-.9531-21.1548-3.2735-32.0317-3.7344-15.4785-.6543-27.6084.82-41.1656,1.9649-22.3271,1.8847-47.3735,2.2382-71.624,1.7128-36.7309-.7968-72.3208-5.51-108.668-1.4062-15.7036,1.7754-18.6684,3.7695-35.1464,3.1875-13.2593-.4688-22.6587-2.9922-34.4112-4.3809-16.936-2-45.7841-4.2871-64.9941-3.3632-12.5273.6035-17.2319,3.1113-32.1221,2.33-1.7114-.09-3.4-.2461-5.0737-.4433v-77.49Z" style="fill:#f0c9d0;mix-blend-mode:multiply"/><path d="M425.2368,318.3222V360.43c-10.5845-.5039-21.1548-1.7325-32.0317-1.9766-15.4785-.3457-27.6084.4336-41.1656,1.041-22.3271.9961-47.3735,1.1836-71.624.9063-36.7309-.4219-72.3208-2.918-108.668-.7442-15.7036.94-18.6684,1.9961-35.1464,1.6875-13.2593-.248-22.6587-1.584-34.4112-2.3183-16.936-1.0606-45.7841-2.2715-64.9941-1.7813-12.5273.3184-17.2319,1.6465-32.1221,1.2324-1.7114-.0468-3.4-.1308-5.0737-.2343v-39.92Z" style="fill:#f0c9d0;mix-blend-mode:multiply"/><g style="mix-blend-mode:multiply"><g style="mix-blend-mode:multiply"><path d="M235.1816,38.6816s.1328,2.0117.2334,5.0274c.0342,1.5087.1109,3.2685.127,5.1543s.0366,3.8964.0552,5.9072c-.0186,2.0107-.0372,4.0224-.0547,5.9072-.0137,1.8857-.0928,3.6455-.1265,5.1543-.1006,3.0166-.2344,5.0273-.2344,5.0273s-.1338-2.0107-.2343-5.0273c-.0337-1.5088-.1128-3.2686-.1265-5.1543-.0176-1.8848-.0361-3.8965-.0547-5.9072.0186-2.0108.0376-4.0225.0552-5.9072.0161-1.8858.0928-3.6456.1269-5.1543C235.0488,40.6933,235.1816,38.6816,235.1816,38.6816Z" style="fill:#e2cbbe"/></g><g style="mix-blend-mode:multiply"><path d="M281.6465,70.8593s-3.91.1329-9.774.2334c-2.9326.0372-6.3535.0811-10.0185.127-3.6655.0176-7.5752.0361-11.4849.0557-3.91-.02-7.8193-.0371-11.4848-.0547-3.6651-.0137-7.086-.0928-10.0186-.127-5.8642-.1006-9.7739-.2344-9.7739-.2344s3.91-.1337,9.7739-.2343c2.9326-.0342,6.3535-.1133,10.0186-.127,3.6655-.0176,7.5752-.0351,11.4848-.0547,3.91.02,7.8194.0381,11.4849.0557,3.665.0459,7.0859.09,10.0185.1269C277.7368,70.7265,281.6465,70.8593,281.6465,70.8593Z" style="fill:#e2cbbe"/></g><g style="mix-blend-mode:multiply"><path d="M241.77,108.5859s-2.6006.1328-6.5019.2334c-1.95.0342-4.2261.1113-6.6641.127-2.438.0175-5.0391.0361-7.64.0556-2.6006-.02-5.2017-.0371-7.64-.0547-2.438-.0136-4.7139-.0927-6.6641-.1269-3.9013-.1006-6.5019-.2344-6.5019-.2344s2.6006-.1338,6.5019-.2344c1.95-.0341,4.2261-.1132,6.6641-.1269,2.438-.0176,5.0391-.0352,7.64-.0547,2.6005.02,5.2016.0381,7.64.0557,2.438.0156,4.7139.0927,6.6641.1269C239.1689,108.4531,241.77,108.5859,241.77,108.5859Z" style="fill:#e2cbbe"/></g><g style="mix-blend-mode:multiply"><path d="M326.0312,108.5859s-4.0742.1328-10.186.2334c-3.0557.0371-6.6211.0811-10.44.127-3.82.0175-7.8946.0361-11.9688.0556-4.0742-.02-8.1489-.0371-11.9687-.0547-3.8194-.0136-7.3848-.0927-10.4405-.1269-6.1118-.1006-10.186-.2344-10.186-.2344s4.0742-.1338,10.186-.2344c3.0557-.0341,6.6211-.1132,10.4405-.1269,3.82-.0176,7.8945-.0352,11.9687-.0547,4.0742.02,8.149.0381,11.9688.0557,3.8193.0459,7.3847.09,10.44.1269C321.957,108.4531,326.0312,108.5859,326.0312,108.5859Z" style="fill:#e2cbbe"/></g><g style="mix-blend-mode:multiply"><path d="M386.7822,108.5859s-3.1426.1328-7.8559.2334c-2.357.0342-5.1065.1113-8.0528.127-2.9463.0175-6.0884.0361-9.2309.0556-3.1426-.02-6.2847-.0371-9.231-.0547-2.9463-.0136-5.6958-.0927-8.0527-.1269-4.7134-.1006-7.856-.2344-7.856-.2344s3.1426-.1338,7.856-.2344c2.3569-.0341,5.1064-.1132,8.0527-.1269,2.9463-.0176,6.0884-.0352,9.231-.0547,3.1425.02,6.2846.0381,9.2309.0557,2.9463.0156,5.6958.0927,8.0528.1269C383.64,108.4531,386.7822,108.5859,386.7822,108.5859Z" style="fill:#e2cbbe"/></g><g style="mix-blend-mode:multiply"><path d="M360.915,70.8593s-3.91.1329-9.7744.2334c-2.9321.0372-6.353.0811-10.0185.127-3.6656.0176-7.5752.0361-11.4849.0557-3.91-.02-7.8193-.0371-11.4849-.0547-3.6655-.0137-7.0864-.0928-10.0185-.127-5.8648-.1006-9.7744-.2344-9.7744-.2344s3.91-.1337,9.7744-.2343c2.9321-.0342,6.353-.1133,10.0185-.127,3.6656-.0176,7.5752-.0351,11.4849-.0547,3.91.02,7.8193.0381,11.4849.0557,3.6655.0459,7.0864.09,10.0185.1269C357.0054,70.7265,360.915,70.8593,360.915,70.8593Z" style="fill:#e2cbbe"/></g><g style="mix-blend-mode:multiply"><path d="M396.7685,70.8593s-1.7294.1329-4.3237.2334c-1.2969.0342-2.81.1114-4.4316.127-1.6211.0176-3.3506.0361-5.08.0557-1.73-.02-3.459-.0371-5.08-.0547-1.6216-.0137-3.1347-.0928-4.4316-.127-2.5943-.1006-4.3238-.2344-4.3238-.2344s1.7295-.1337,4.3238-.2343c1.2969-.0342,2.81-.1133,4.4316-.127,1.6211-.0176,3.3506-.0351,5.08-.0547,1.7295.02,3.459.0381,5.08.0557,1.6216.0156,3.1347.0928,4.4316.1269C395.0391,70.7265,396.7685,70.8593,396.7685,70.8593Z" style="fill:#e2cbbe"/></g><g style="mix-blend-mode:multiply"><path d="M304.6709,38.6816s.1328,2.0117.2334,5.0274c.0342,1.5087.1108,3.2685.1269,5.1543.0176,1.8847.0367,3.8964.0552,5.9072-.0185,2.0107-.0371,4.0224-.0547,5.9072-.0136,1.8857-.0927,3.6455-.1264,5.1543-.1006,3.0166-.2344,5.0273-.2344,5.0273s-.1338-2.0107-.2344-5.0273c-.0337-1.5088-.1128-3.2686-.1265-5.1543-.0175-1.8848-.0361-3.8965-.0546-5.9072.0185-2.0108.0376-4.0225.0551-5.9072s.0928-3.6456.127-5.1543C304.5381,40.6933,304.6709,38.6816,304.6709,38.6816Z" style="fill:#e2cbbe"/></g><g style="mix-blend-mode:multiply"><path d="M374.1611,38.6816s.1328,2.0117.2334,5.0274c.0342,1.5087.1109,3.2685.127,5.1543.0176,1.8847.0366,3.8964.0552,5.9072-.0186,2.0107-.0372,4.0224-.0547,5.9072-.0137,1.8857-.0928,3.6455-.1265,5.1543-.1006,3.0166-.2344,5.0273-.2344,5.0273s-.1338-2.0107-.2344-5.0273c-.0336-1.5088-.1127-3.2686-.1264-5.1543-.0176-1.8848-.0361-3.8965-.0547-5.9072.0186-2.0108.0376-4.0225.0552-5.9072s.0927-3.6456.1269-5.1543C374.0283,40.6933,374.1611,38.6816,374.1611,38.6816Z" style="fill:#e2cbbe"/></g><g style="mix-blend-mode:multiply"><path d="M212.1562,76.4082s.1329,2.0117.2334,5.0273c.0342,1.5088.1109,3.2686.127,5.1543s.0366,3.8965.0552,5.9072c-.0186,2.0108-.0371,4.0225-.0547,5.9073-.0137,1.8857-.0928,3.6455-.1265,5.1543-.1006,3.0166-.2344,5.0273-.2344,5.0273s-.1337-2.0107-.2343-5.0273c-.0337-1.5088-.1128-3.2686-.1265-5.1543-.0176-1.8848-.0361-3.8965-.0547-5.9073.0186-2.0107.0376-4.0224.0552-5.9072s.0928-3.6455.1269-5.1543C212.0234,78.42,212.1562,76.4082,212.1562,76.4082Z" style="fill:#e2cbbe"/></g><g style="mix-blend-mode:multiply"><path d="M281.6465,76.4082s.1328,2.0117.2334,5.0273c.0342,1.5088.1108,3.2686.1269,5.1543.0176,1.8848.0366,3.8965.0552,5.9072-.0186,2.0108-.0371,4.0225-.0547,5.9073-.0137,1.8857-.0928,3.6455-.1265,5.1543-.1005,3.0166-.2343,5.0273-.2343,5.0273s-.1338-2.0107-.2344-5.0273c-.0337-1.5088-.1128-3.2686-.1265-5.1543-.0175-1.8848-.0361-3.8965-.0547-5.9073.0186-2.0107.0376-4.0224.0552-5.9072s.0928-3.6455.127-5.1543C281.5137,78.42,281.6465,76.4082,281.6465,76.4082Z" style="fill:#e2cbbe"/></g><g style="mix-blend-mode:multiply"><path d="M351.1357,76.4082s.1328,2.0117.2334,5.0273c.0342,1.5088.1109,3.2686.127,5.1543s.0366,3.8965.0552,5.9072c-.0186,2.0108-.0371,4.0225-.0547,5.9073-.0137,1.8857-.0928,3.6455-.1265,5.1543-.1006,3.0166-.2344,5.0273-.2344,5.0273s-.1338-2.0107-.2343-5.0273c-.0337-1.5088-.1128-3.2686-.1265-5.1543-.0176-1.8848-.0361-3.8965-.0547-5.9073.0186-2.0107.0376-4.0224.0552-5.9072.0161-1.8857.0928-3.6455.1269-5.1543C351.0029,78.42,351.1357,76.4082,351.1357,76.4082Z" style="fill:#e2cbbe"/></g></g><g style="mix-blend-mode:multiply"><g style="mix-blend-mode:multiply"><path d="M235.1816,113.164s.1328,2.0118.2334,5.0274c.0342,1.5088.1109,3.2685.127,5.1543s.0366,3.8965.0552,5.9072c-.0186,2.0107-.0372,4.0225-.0547,5.9072-.0137,1.8858-.0928,3.6455-.1265,5.1543-.1006,3.0166-.2344,5.0274-.2344,5.0274s-.1338-2.0108-.2343-5.0274c-.0337-1.5088-.1128-3.2685-.1265-5.1543-.0176-1.8847-.0361-3.8965-.0547-5.9072.0186-2.0107.0376-4.0225.0552-5.9072.0161-1.8858.0928-3.6455.1269-5.1543C235.0488,115.1758,235.1816,113.164,235.1816,113.164Z" style="fill:#e2cbbe"/></g><g style="mix-blend-mode:multiply"><path d="M281.6465,145.3418s-6.7617.0937-16.9043.2334c-5.0713.0371-10.9878.081-17.3272.1269-6.3393.0176-13.101.0362-19.8628.0557-6.7617-.0195-13.5234-.0371-19.8628-.0547-6.3393-.0469-12.2558-.09-17.3271-.127l-16.9043-.2343,16.9043-.2344c5.0713-.0371,10.9878-.08,17.3271-.127,6.3394-.0175,13.1011-.0351,19.8628-.0546,6.7618.0195,13.5235.038,19.8628.0556,6.3394.0459,12.2559.09,17.3272.127C274.8848,145.248,281.6465,145.3418,281.6465,145.3418Z" style="fill:#e2cbbe"/></g><g style="mix-blend-mode:multiply"><path d="M241.77,183.07s-3.8359.1328-9.59.2334c-2.877.0371-6.2339.081-9.83.1269-3.5962.0176-7.4321.0362-11.2681.0557-3.8359-.0195-7.6718-.0371-11.268-.0547-3.5962-.0137-6.9532-.0928-9.83-.1269-5.7539-.1006-9.59-.2344-9.59-.2344s3.836-.1338,9.59-.2344c2.8769-.0342,6.2339-.1133,9.83-.1269,3.5962-.0176,7.4321-.0352,11.268-.0547,3.836.0195,7.6719.0381,11.2681.0556,3.5962.0459,6.9531.09,9.83.127C237.9336,182.9375,241.77,183.07,241.77,183.07Z" style="fill:#e2cbbe"/></g><g style="mix-blend-mode:multiply"><path d="M326.0312,183.07s-4.0742.1328-10.186.2334c-3.0557.0371-6.6211.081-10.44.1269-3.82.0176-7.8946.0362-11.9688.0557-4.0742-.0195-8.1489-.0371-11.9687-.0547-3.8194-.0137-7.3848-.0928-10.4405-.1269-6.1118-.1006-10.186-.2344-10.186-.2344s4.0742-.1338,10.186-.2344c3.0557-.0342,6.6211-.1133,10.4405-.1269,3.82-.0176,7.8945-.0352,11.9687-.0547,4.0742.0195,8.149.0381,11.9688.0556,3.8193.0459,7.3847.09,10.44.127C321.957,182.9375,326.0312,183.07,326.0312,183.07Z" style="fill:#e2cbbe"/></g><g style="mix-blend-mode:multiply"><path d="M416.4648,183.07s-1.25.0254-3.436.0693c-2.1865.0362-5.31.127-9.0581.1641s-8.1211.081-12.8062.1269c-4.6855.0176-9.6831.0362-14.6806.0557-4.9976-.0195-9.9951-.0371-14.6807-.0547-4.685-.0469-9.0581-.09-12.8061-.1269s-6.8716-.1289-9.0581-.1641c-2.1866-.0449-3.4361-.07-3.4361-.07s1.25-.0254,3.4361-.07c2.1865-.0352,5.3095-.128,9.0581-.1641s8.1211-.08,12.8061-.1269c4.6856-.0176,9.6831-.0352,14.6807-.0547,4.9975.0195,9.9951.0381,14.6806.0556,4.6851.0459,9.0581.09,12.8062.127s6.8716.1279,9.0581.164C415.2153,183.0449,416.4648,183.07,416.4648,183.07Z" style="fill:#e2cbbe"/></g><g style="mix-blend-mode:multiply"><path d="M360.915,145.3418s-3.91.1328-9.7744.2334c-2.9321.0371-6.353.081-10.0185.1269-3.6656.0176-7.5752.0362-11.4849.0557-3.91-.0195-7.8193-.0371-11.4849-.0547-3.6655-.0137-7.0864-.0928-10.0185-.127-5.8648-.1005-9.7744-.2343-9.7744-.2343s3.91-.1338,9.7744-.2344c2.9321-.0342,6.353-.1133,10.0185-.127,3.6656-.0175,7.5752-.0351,11.4849-.0546,3.91.0195,7.8193.038,11.4849.0556,3.6655.0459,7.0864.09,10.0185.127C357.0054,145.209,360.915,145.3418,360.915,145.3418Z" style="fill:#e2cbbe"/></g><g style="mix-blend-mode:multiply"><path d="M425.2764,145.3418s-3.5113.1328-8.7779.2334c-2.6333.0341-5.7055.1113-8.9975.1269-3.2915.0176-6.8028.0362-10.314.0557-3.5112-.0195-7.0225-.0371-10.314-.0547-3.292-.0137-6.3642-.0928-8.9975-.127-5.2666-.1005-8.7779-.2343-8.7779-.2343s3.5113-.1338,8.7779-.2344c2.6333-.0342,5.7055-.1133,8.9975-.127,3.2915-.0175,6.8028-.0351,10.314-.0546,3.5112.0195,7.0225.038,10.314.0556,3.292.0156,6.3642.0928,8.9975.127C421.7651,145.209,425.2764,145.3418,425.2764,145.3418Z" style="fill:#e2cbbe"/></g><g style="mix-blend-mode:multiply"><path d="M304.6709,113.164s.1328,2.0118.2334,5.0274c.0342,1.5088.1108,3.2685.1269,5.1543.0176,1.8847.0367,3.8965.0552,5.9072-.0185,2.0107-.0371,4.0225-.0547,5.9072-.0136,1.8858-.0927,3.6455-.1264,5.1543-.1006,3.0166-.2344,5.0274-.2344,5.0274s-.1338-2.0108-.2344-5.0274c-.0337-1.5088-.1128-3.2685-.1265-5.1543-.0175-1.8847-.0361-3.8965-.0546-5.9072.0185-2.0107.0376-4.0225.0551-5.9072s.0928-3.6455.127-5.1543C304.5381,115.1758,304.6709,113.164,304.6709,113.164Z" style="fill:#e2cbbe"/></g><g style="mix-blend-mode:multiply"><path d="M374.1611,113.164s.1328,2.0118.2334,5.0274c.0342,1.5088.1109,3.2685.127,5.1543.0176,1.8847.0366,3.8965.0552,5.9072-.0186,2.0107-.0372,4.0225-.0547,5.9072-.0137,1.8858-.0928,3.6455-.1265,5.1543-.1006,3.0166-.2344,5.0274-.2344,5.0274s-.1338-2.0108-.2344-5.0274c-.0336-1.5088-.1127-3.2685-.1264-5.1543-.0176-1.8847-.0361-3.8965-.0547-5.9072.0186-2.0107.0376-4.0225.0552-5.9072s.0927-3.6455.1269-5.1543C374.0283,115.1758,374.1611,113.164,374.1611,113.164Z" style="fill:#e2cbbe"/></g><g style="mix-blend-mode:multiply"><path d="M212.1562,150.8906s.1329,2.0117.2334,5.0283c.0342,1.5088.1109,3.2686.127,5.1533s.0366,3.8965.0552,5.9082c-.0186,2.0118-.0371,4.0225-.0547,5.9082-.0137,1.8848-.0928,3.6455-.1265,5.1534-.1006,3.0166-.2344,5.0283-.2344,5.0283s-.1337-2.0117-.2343-5.0283c-.0337-1.5079-.1128-3.2686-.1265-5.1534-.0176-1.8857-.0361-3.8964-.0547-5.9082.0186-2.0117.0376-4.0224.0552-5.9082s.0928-3.6445.1269-5.1533C212.0234,152.9023,212.1562,150.8906,212.1562,150.8906Z" style="fill:#e2cbbe"/></g><g style="mix-blend-mode:multiply"><path d="M281.6465,150.8906s.1328,2.0117.2334,5.0283c.0342,1.5088.1108,3.2686.1269,5.1533.0176,1.8858.0366,3.8965.0552,5.9082-.0186,2.0118-.0371,4.0225-.0547,5.9082-.0137,1.8848-.0928,3.6455-.1265,5.1534-.1005,3.0166-.2343,5.0283-.2343,5.0283s-.1338-2.0117-.2344-5.0283c-.0337-1.5079-.1128-3.2686-.1265-5.1534-.0175-1.8857-.0361-3.8964-.0547-5.9082.0186-2.0117.0376-4.0224.0552-5.9082s.0928-3.6445.127-5.1533C281.5137,152.9023,281.6465,150.8906,281.6465,150.8906Z" style="fill:#e2cbbe"/></g><g style="mix-blend-mode:multiply"><path d="M351.1357,150.8906s.1328,2.0117.2334,5.0283c.0342,1.5088.1109,3.2686.127,5.1533s.0366,3.8965.0552,5.9082c-.0186,2.0118-.0371,4.0225-.0547,5.9082-.0137,1.8848-.0928,3.6455-.1265,5.1534-.1006,3.0166-.2344,5.0283-.2344,5.0283s-.1338-2.0117-.2343-5.0283c-.0337-1.5079-.1128-3.2686-.1265-5.1534-.0176-1.8857-.0361-3.8964-.0547-5.9082.0186-2.0117.0376-4.0224.0552-5.9082.0161-1.8847.0928-3.6445.1269-5.1533C351.0029,152.9023,351.1357,150.8906,351.1357,150.8906Z" style="fill:#e2cbbe"/></g></g><g style="mix-blend-mode:multiply"><g style="mix-blend-mode:multiply"><path d="M235.1816,187.6465s.1328,2.0117.2334,5.0283c.0342,1.5088.1109,3.2685.127,5.1533s.0366,3.8965.0552,5.9082c-.0186,2.0117-.0372,4.0225-.0547,5.9082-.0137,1.8848-.0928,3.6455-.1265,5.1533-.1006,3.0166-.2344,5.0283-.2344,5.0283s-.1338-2.0117-.2343-5.0283c-.0337-1.5078-.1128-3.2685-.1265-5.1533-.0176-1.8857-.0361-3.8965-.0547-5.9082.0186-2.0117.0376-4.0225.0552-5.9082.0161-1.8848.0928-3.6445.1269-5.1533C235.0488,189.6582,235.1816,187.6465,235.1816,187.6465Z" style="fill:#e2cbbe"/></g><g style="mix-blend-mode:multiply"><path d="M281.6465,219.8261s-2.3755.1329-5.9385.2334c-1.7813.0342-3.86.1114-6.0864.127-2.2271.0176-4.6021.0361-6.9776.0557-2.3755-.02-4.75-.0372-6.9775-.0547-2.2266-.0137-4.3052-.0928-6.0864-.127-3.563-.1006-5.9385-.2344-5.9385-.2344s2.3755-.1337,5.9385-.2343c1.7812-.0342,3.86-.1133,6.0864-.127,2.227-.0176,4.602-.0351,6.9775-.0547,2.3755.02,4.75.0381,6.9776.0557,2.2265.0156,4.3051.0928,6.0864.1269C279.271,219.6933,281.6465,219.8261,281.6465,219.8261Z" style="fill:#e2cbbe"/></g><g style="mix-blend-mode:multiply"><path d="M326.0312,257.5527s-1.3525.0254-3.7192.0693c-2.3662.04-5.7471.0967-9.8042.1641-4.0571.0371-8.79.0811-13.8618.127-5.0713.0175-10.4805.0361-15.89.0556-5.41-.0195-10.8188-.0371-15.89-.0547-5.0713-.0468-9.8047-.09-13.8618-.1269-4.0571-.0684-7.438-.125-9.8047-.1641-2.3662-.0449-3.7187-.07-3.7187-.07s1.3525-.0254,3.7187-.07c2.3667-.0391,5.7476-.0957,9.8047-.1641,4.0571-.0371,8.7905-.08,13.8618-.1269,5.0713-.0176,10.4805-.0352,15.89-.0547,5.41.0195,10.8189.0381,15.89.0557,5.0713.0459,9.8047.09,13.8618.1269,4.0571.0674,7.438.124,9.8042.1641C324.6787,257.5273,326.0312,257.5527,326.0312,257.5527Z" style="fill:#e2cbbe"/></g><g style="mix-blend-mode:multiply"><path d="M360.1514,257.5527s-1.4781.1328-3.6949.2334c-1.1089.0361-2.4018.1064-3.7876.1318-1.3857.0352-2.8637.042-4.3418.0508-1.478-.0088-2.956-.0137-4.3418-.05-1.3857-.0244-2.6787-.0957-3.7876-.1318-2.2168-.1006-3.6948-.2344-3.6948-.2344s1.478-.1338,3.6948-.2344c1.1089-.0361,2.4019-.1074,3.7876-.1318,1.3858-.0361,2.8638-.041,4.3418-.05,1.4781.0088,2.9561.0156,4.3418.0508,1.3858.0254,2.6787.0957,3.7876.1318C358.6733,257.42,360.1514,257.5527,360.1514,257.5527Z" style="fill:#e2cbbe"/></g><g style="mix-blend-mode:multiply"><path d="M360.915,219.8261s-3.91.1329-9.7744.2334c-2.9321.0371-6.353.0811-10.0185.127-3.6656.0176-7.5752.0361-11.4849.0557-3.91-.02-7.8193-.0372-11.4849-.0547-3.6655-.0137-7.0864-.0928-10.0185-.127-5.8648-.1006-9.7744-.2344-9.7744-.2344s3.91-.1337,9.7744-.2343c2.9321-.0342,6.353-.1133,10.0185-.127,3.6656-.0176,7.5752-.0351,11.4849-.0547,3.91.02,7.8193.0381,11.4849.0557,3.6655.0459,7.0864.09,10.0185.1269C357.0054,219.6933,360.915,219.8261,360.915,219.8261Z" style="fill:#e2cbbe"/></g><g style="mix-blend-mode:multiply"><path d="M304.6709,187.6465s.1328,2.0117.2334,5.0283c.0342,1.5088.1108,3.2685.1269,5.1533.0176,1.8857.0367,3.8965.0552,5.9082-.0185,2.0117-.0371,4.0225-.0547,5.9082-.0136,1.8848-.0927,3.6455-.1264,5.1533-.1006,3.0166-.2344,5.0283-.2344,5.0283s-.1338-2.0117-.2344-5.0283c-.0337-1.5078-.1128-3.2685-.1265-5.1533-.0175-1.8857-.0361-3.8965-.0546-5.9082.0185-2.0117.0376-4.0225.0551-5.9082s.0928-3.6445.127-5.1533C304.5381,189.6582,304.6709,187.6465,304.6709,187.6465Z" style="fill:#e2cbbe"/></g><g style="mix-blend-mode:multiply"><path d="M374.1611,187.6465s.1328,2.0117.2334,5.0283c.0342,1.5088.1109,3.2685.127,5.1533.0176,1.8857.0366,3.8965.0552,5.9082-.0186,2.0117-.0372,4.0225-.0547,5.9082-.0137,1.8848-.0928,3.6455-.1265,5.1533-.1006,3.0166-.2344,5.0283-.2344,5.0283s-.1338-2.0117-.2344-5.0283c-.0336-1.5078-.1127-3.2685-.1264-5.1533-.0176-1.8857-.0361-3.8965-.0547-5.9082.0186-2.0117.0376-4.0225.0552-5.9082s.0927-3.6445.1269-5.1533C374.0283,189.6582,374.1611,187.6465,374.1611,187.6465Z" style="fill:#e2cbbe"/></g><g style="mix-blend-mode:multiply"><path d="M235.1816,260.4668s.1328,2.0117.2334,5.0273c.0342,1.5088.1109,3.2686.127,5.1543s.0366,3.8965.0552,5.9072c-.0186,2.0108-.0372,4.0225-.0547,5.9073-.0137,1.8857-.0928,3.6455-.1265,5.1543-.1006,3.0166-.2344,5.0273-.2344,5.0273s-.1338-2.0107-.2343-5.0273c-.0337-1.5088-.1128-3.2686-.1265-5.1543-.0176-1.8848-.0361-3.8965-.0547-5.9073.0186-2.0107.0376-4.0224.0552-5.9072.0161-1.8857.0928-3.6455.1269-5.1543C235.0488,262.4785,235.1816,260.4668,235.1816,260.4668Z" style="fill:#e2cbbe"/></g><g style="mix-blend-mode:multiply"><path d="M304.6709,260.4668s.1328,2.0117.2334,5.0273c.0342,1.5088.1108,3.2686.1269,5.1543.0176,1.8848.0367,3.8965.0552,5.9072-.0185,2.0108-.0371,4.0225-.0547,5.9073-.0136,1.8857-.0927,3.6455-.1264,5.1543-.1006,3.0166-.2344,5.0273-.2344,5.0273s-.1338-2.0107-.2344-5.0273c-.0337-1.5088-.1128-3.2686-.1265-5.1543-.0175-1.8848-.0361-3.8965-.0546-5.9073.0185-2.0107.0376-4.0224.0551-5.9072s.0928-3.6455.127-5.1543C304.5381,262.4785,304.6709,260.4668,304.6709,260.4668Z" style="fill:#e2cbbe"/></g><g style="mix-blend-mode:multiply"><path d="M374.1611,260.4668s.1328,2.0117.2334,5.0273c.0342,1.5088.1109,3.2686.127,5.1543.0176,1.8848.0366,3.8965.0552,5.9072-.0186,2.0108-.0372,4.0225-.0547,5.9073-.0137,1.8857-.0928,3.6455-.1265,5.1543-.1006,3.0166-.2344,5.0273-.2344,5.0273s-.1338-2.0107-.2344-5.0273c-.0336-1.5088-.1127-3.2686-.1264-5.1543-.0176-1.8848-.0361-3.8965-.0547-5.9073.0186-2.0107.0376-4.0224.0552-5.9072s.0927-3.6455.1269-5.1543C374.0283,262.4785,374.1611,260.4668,374.1611,260.4668Z" style="fill:#e2cbbe"/></g><g style="mix-blend-mode:multiply"><path d="M281.6465,225.373s.1328,2.0117.2334,5.0283c.0342,1.5088.1108,3.2686.1269,5.1534.0176,1.8857.0366,3.8964.0552,5.9082-.0186,2.0117-.0371,4.0224-.0547,5.9082-.0137,1.8847-.0928,3.6455-.1265,5.1533-.1005,3.0166-.2343,5.0283-.2343,5.0283s-.1338-2.0117-.2344-5.0283c-.0337-1.5078-.1128-3.2686-.1265-5.1533-.0175-1.8858-.0361-3.8965-.0547-5.9082.0186-2.0118.0376-4.0225.0552-5.9082s.0928-3.6446.127-5.1534C281.5137,227.3847,281.6465,225.373,281.6465,225.373Z" style="fill:#e2cbbe"/></g><g style="mix-blend-mode:multiply"><path d="M351.1357,225.373s.1328,2.0117.2334,5.0283c.0342,1.5088.1109,3.2686.127,5.1534s.0366,3.8964.0552,5.9082c-.0186,2.0117-.0371,4.0224-.0547,5.9082-.0137,1.8847-.0928,3.6455-.1265,5.1533-.1006,3.0166-.2344,5.0283-.2344,5.0283s-.1338-2.0117-.2343-5.0283c-.0337-1.5078-.1128-3.2686-.1265-5.1533-.0176-1.8858-.0361-3.8965-.0547-5.9082.0186-2.0118.0376-4.0225.0552-5.9082.0161-1.8848.0928-3.6446.1269-5.1534C351.0029,227.3847,351.1357,225.373,351.1357,225.373Z" style="fill:#e2cbbe"/></g></g><rect x="53.8457" y="19.6269" width="123.4687" height="188.1641" style="fill:#005177"/><rect x="60.4492" y="29.6894" width="110.2617" height="168.0391" style="fill:#56b9d6"/><polygon points="63.614 34.045 170.711 34.045 170.711 29.689 60.449 29.689 60.449 197.729 63.614 197.729 63.614 34.045" style="fill:#1a97b4"/><polygon points="167.258 29.689 167.258 194.074 60.449 194.074 60.449 197.729 170.711 197.729 170.711 29.689 167.258 29.689" style="fill:#002c48"/><g style="mix-blend-mode:soft-light"><polygon points="90.77 63.457 145.021 34.045 131.484 34.045 77.234 63.457 90.77 63.457" style="fill:#fff"/><polygon points="99.685 63.457 153.937 34.045 147.957 34.045 93.703 63.457 99.685 63.457" style="fill:#fff"/><polygon points="105.586 63.457 159.84 34.045 156.85 34.045 102.596 63.457 105.586 63.457" style="fill:#fff"/><polygon points="71.673 63.457 125.926 34.045 123.822 34.045 69.57 63.457 71.673 63.457" style="fill:#fff"/></g><g style="mix-blend-mode:soft-light"><polygon points="63.614 166.564 63.614 184.883 167.131 104.141 167.131 85.82 63.614 166.564" style="fill:#fff"/><polygon points="63.614 188.855 63.614 194.074 67.3 194.074 167.131 116.207 167.131 108.111 63.614 188.855" style="fill:#fff"/><polygon points="72.352 194.074 77.541 194.074 167.131 124.193 167.131 120.147 72.352 194.074" style="fill:#fff"/><polygon points="165.848 76.451 63.614 156.193 63.614 159.039 167.131 78.295 167.131 76.451 165.848 76.451" style="fill:#fff"/></g><polygon points="167.258 102.121 164.782 102.121 164.782 95.404 165.699 95.404 165.699 93.434 164.782 93.434 164.782 90.803 163.603 90.803 163.603 87.517 154.56 87.517 154.56 90.803 153.383 90.803 153.383 93.434 152.465 93.434 152.465 95.404 153.383 95.404 153.383 103.217 148.435 103.217 148.435 90.551 146.764 91.926 146.764 85.201 136.621 93.533 136.621 100.256 134.949 101.629 134.949 127.766 132.488 127.766 132.488 124.732 133.279 124.732 133.279 120.051 120.672 120.051 120.672 124.732 121.463 124.732 121.463 134.631 118.293 134.631 118.293 103.729 108.17 90.441 108.17 134.631 105.484 134.631 105.484 124.732 106.178 124.732 106.178 123.08 103.891 123.08 103.891 116.408 104.549 116.408 104.549 114.754 99.73 114.754 99.73 109.682 100.424 109.682 100.424 108.193 99.73 108.193 99.73 106.209 98.841 106.209 98.841 103.729 92.014 103.729 92.014 106.209 91.124 106.209 91.124 108.193 90.432 108.193 90.432 109.682 91.124 109.682 91.124 115.582 89.008 115.582 89.008 73.045 89.61 73.045 89.61 69.572 87.232 66.678 87.232 57.994 87.825 57.994 87.825 55.43 87.232 55.43 87.232 54.381 86.869 54.381 86.869 53.17 84.363 53.17 84.363 41.26 83.945 41.26 83.945 53.17 81.856 53.17 81.856 54.381 81.197 54.381 81.197 55.43 80.602 55.43 80.602 57.994 81.197 57.994 81.197 66.678 78.283 69.572 78.283 73.045 78.883 73.045 78.883 124.732 76.942 124.732 76.942 88.51 77.404 88.51 77.404 86.525 76.942 86.525 76.942 84.045 75.854 84.045 75.854 82.557 74.369 82.557 74.369 80.074 71.896 80.074 71.896 82.805 70.611 82.805 70.611 84.045 66.817 84.045 66.817 86.525 66.389 86.525 66.389 88.51 66.817 88.51 66.817 133.666 63.614 133.666 63.614 194.074 167.258 194.074 167.258 102.121" style="fill:#a3bac6;mix-blend-mode:multiply"/><polygon points="167.258 153.115 166.529 152.604 166.529 176.215 163.846 176.215 163.846 170.926 164.537 170.926 164.537 170.043 162.248 170.043 162.248 166.479 162.91 166.479 162.91 165.594 158.09 165.594 158.09 162.885 158.783 162.885 158.783 162.09 158.09 162.09 158.09 161.029 157.199 161.029 157.199 159.703 150.373 159.703 150.373 161.029 149.482 161.029 149.482 162.09 148.79 162.09 148.79 162.885 149.482 162.885 149.482 166.037 147.367 166.037 147.367 143.309 147.969 143.309 147.969 141.453 145.592 139.906 145.592 137.25 139.557 137.25 139.557 139.906 136.643 141.453 136.643 143.309 137.244 143.309 137.244 170.926 135.301 170.926 135.301 151.572 135.763 151.572 135.763 150.512 135.301 150.512 135.301 149.188 134.215 149.188 134.215 148.391 132.73 148.391 132.73 147.066 130.256 147.066 130.256 148.523 128.969 148.523 128.969 149.188 125.178 149.188 125.178 150.512 124.748 150.512 124.748 151.572 125.178 151.572 125.178 158.846 121.646 158.846 121.646 155.256 122.564 155.256 122.564 154.203 121.646 154.203 121.646 152.797 120.469 152.797 120.469 151.043 111.425 151.043 111.425 152.797 110.246 152.797 110.246 154.203 109.328 154.203 109.328 155.256 110.246 155.256 110.246 159.43 105.301 159.43 105.301 152.662 103.629 153.398 103.629 149.805 93.486 154.256 93.486 157.848 91.813 158.582 91.813 172.547 89.354 172.547 89.354 170.926 90.145 170.926 90.145 168.424 77.535 168.424 77.535 170.926 78.327 170.926 78.327 176.215 75.159 176.215 75.159 159.703 63.614 152.219 63.614 194.074 167.258 194.074 167.258 153.115" style="fill:#a3bac6;mix-blend-mode:multiply"/><rect x="58.5547" y="67.7793" width="115.416" height="8.6445" style="fill:#005177"/><rect x="60.4492" y="63.457" width="108.8125" height="4.3223" style="fill:#002c48"/><path d="M147.9756,379.0742c0,4.2812-12.9019,7.7519-28.8169,7.7519s-28.8174-3.4707-28.8174-7.7519c0-4.2832,12.9019-7.7539,28.8174-7.7539S147.9756,374.791,147.9756,379.0742Z" style="fill:#e6e7e8;mix-blend-mode:multiply"/><path d="M360.915,377.5664c0,4.2812-20.4546,7.7519-45.686,7.7519s-45.687-3.4707-45.687-7.7519c0-4.2832,20.4546-7.7539,45.687-7.7539S360.915,373.2832,360.915,377.5664Z" style="fill:#e6e7e8;mix-blend-mode:multiply"/><ellipse cx="229.115" cy="390.6914" rx="76.2263" ry="7.7519" style="fill:#e6e7e8;mix-blend-mode:multiply"/><path d="M300.5625,364.1465v5.7148a124.5213,124.5213,0,0,1-20.5581,7.83s-1.04,4.1308,6.5,4.1308c0,0,17.1035-1.6172,24.11-5.7558l-.0381-11.92Z" style="fill:#fab58f"/><path d="M301.8393,369.9785a1.3475,1.3475,0,0,1-.9462,0h-.5655a125.88,125.88,0,0,1-20.3232,7.7129s-1.04,4.1308,6.5,4.1308c0,0,17.1035-1.6172,24.11-5.7558l-.0152-6.0879Z"/><path d="M336.4141,364.1465v5.7148a124.5,124.5,0,0,0,20.5576,7.83s1.039,4.1308-6.5,4.1308c0,0-17.1045-1.6172-24.1109-5.7558l.0391-11.92Z" style="fill:#fab58f"/><path d="M356.9717,377.6914a124.5,124.5,0,0,1-20.5576-7.83v-.0781a.47.47,0,0,1-.0489-.0489h-9.9887l-.0152,6.3321c7.0064,4.1386,24.1109,5.7558,24.1109,5.7558C358.0107,381.8222,356.9717,377.6914,356.9717,377.6914Z"/><rect x="310.73" y="117.1328" width="14.7446" height="8.7715" style="fill:#f9a374"/><path d="M320.0654,124.73c-3.0908-.9863-5.6777-2.9218-6.0693-6.32a3.0334,3.0334,0,0,1,.1235-1.2773h-3.39v8.7715h14.7446v-1.1016A9.9656,9.9656,0,0,1,320.0654,124.73Z" style="fill:#d1d3d4;mix-blend-mode:multiply"/><path d="M352.21,135.455c-8.9341-3.2089-26.3321-9.916-26.3321-9.916H311.0268s-17.3989,6.7071-26.3295,9.916c-8.3165,2.99-10.1846,11.086-10.1846,21.1446h87.88C362.3926,146.541,360.5225,138.4453,352.21,135.455Z" style="fill:#fab58f"/><path d="M352.21,135.455c-8.9341-3.2089-26.3321-9.916-26.3321-9.916H311.0268s-17.3989,6.7071-26.3295,9.916c-8.3165,2.99-10.1846,11.086-10.1846,21.1446h87.88C362.3926,146.541,360.5225,138.4453,352.21,135.455Z" style="fill:#fff"/><path d="M337.1748,370.8418,325.43,372.9824l-7.4278-127.8457-6.1982,110.1211s-.1338,6.8711-1.2305,17.7246L298.83,370.8418l-3.9707-116.043s-.2046-5.6836-.5474-15.1543V217.3164h47.3794v22.3281c-.3408,9.4707-.5449,15.1543-.5449,15.1543Z" style="fill:#00182a"/><path d="M346.207,156.6H289.9961s1.415,16.7246,4.0732,30.834c0,0-.7773,15.5859-2.4765,30.832h53.0166c-1.6968-15.2461-2.4737-30.832-2.4737-30.832C344.7939,173.3242,346.207,156.6,346.207,156.6Z" style="fill:#fab58f"/><path d="M346.207,156.6H289.9961s1.415,16.7246,4.0732,30.834c0,0-.7773,15.5859-2.4765,30.832h53.0166c-1.6968-15.2461-2.4737-30.832-2.4737-30.832C344.7939,173.3242,346.207,156.6,346.207,156.6Z" style="fill:#fff"/><path d="M321.5469,137.0586l-.0064-.0137.0064.0137,1.435-6.5743a3.1558,3.1558,0,0,0-1.8022-4.7168,14.2671,14.2671,0,0,0-3.9668-.15,3.2673,3.2673,0,0,0-3.0645,1.2461,3.1128,3.1128,0,0,0-.2182,3.621l1.434,6.5743a1.1691,1.1691,0,0,1,.2164-.2461c-.0718.08-.1436.1562-.2164.2461l-1.91,74.123,5.4756,9.4961,5.4751-9.6172Z" style="fill:#d83633"/><path d="M315.123,136.0371s4.3243-2.2246,6.4053,1.0215a6.3284,6.3284,0,0,0-6.1816,0Z" style="fill:#bcbec0;mix-blend-mode:multiply"/><path d="M291.52,242.2422c-1.26-25.709-.852-54.8086-.852-54.8086-.5044-14.7168-2.6753-30.834-2.6753-30.834h-13.48c0-10.0586,1.8681-18.1543,10.1846-21.1446,8.9306-3.2089,19.5781-7.3242,19.5781-7.3242L318.86,193.834l13.9331-65.6446s10.4829,4.0567,19.417,7.2656c8.3125,2.99,10.1826,11.086,10.1826,21.1446H349.0884a148.1065,148.1065,0,0,0-2.795,29.4648s-.4145,30.2324-1.6469,56.1817H319.42l-.56-48.4121-.7579,48.4121Z" style="fill:#002d41"/><polygon points="318.452 125.539 311.364 142.844 304.275 128.131 318.452 125.539" style="fill:#bcbec0;mix-blend-mode:multiply"/><path d="M310.73,124.2578a57.9682,57.9682,0,0,1-6.4546,3.873l6.7959,11.6485s4.0517-9.461,7.3808-14.24Z" style="fill:#fff"/><polygon points="318.386 125.539 325.475 142.844 332.562 128.131 318.386 125.539" style="fill:#bcbec0;mix-blend-mode:multiply"/><path d="M326.1084,124.2578a58.0465,58.0465,0,0,0,6.4536,3.873l-6.7954,11.6485s-4.0527-9.461-7.38-14.24Z" style="fill:#fff"/><path d="M294.0517,152.5039l8.3448-2.9024c1.8789-1.9609-4.13-2.4472-4.13-2.4472-5.9971,1.1875-5.835-4.3106-5.835-4.3106l-.61-9.998,12.4536-4.7149L318.86,193.834Z" style="fill:#003950"/><path d="M342.8975,152.5039l-8.3433-2.9024c-1.88-1.9609,4.13-2.4472,4.13-2.4472,5.9966,1.1875,5.8364-4.3106,5.8364-4.3106l.6084-9.998-12.4551-4.7149L318.86,193.834Z" style="fill:#003950"/><path d="M338.2978,89.6914c-.3076,4.6933,1.8428,8.6484,4.793,8.8359,2.9483.1914,5.5864-3.4531,5.8872-8.1465.2984-4.6894-1.8462-8.6465-4.7988-8.8359C341.2314,81.3535,338.5972,85.0019,338.2978,89.6914Z" style="fill:#f9a374"/><path d="M342.4751,88.0175s.0083-.2617.0659-.6933a7.0256,7.0256,0,0,1,.4751-1.7188c.2788-.6484.769-1.4082,1.499-1.5078a1.905,1.905,0,0,1,.5655.0117c.0327.0157.2338.0606.2973.0938a2.3839,2.3839,0,0,1,.2237.1211,2.476,2.476,0,0,1,.83.9453,5.7459,5.7459,0,0,1,.7095,2.5977c-.0264.4687.01.9472-.04,1.3593-.0425.418-.0826.8125-.12,1.1778-.0688.3711-.1162.7129-.1562,1.0175-.0381.3067-.1172.5625-.1563.7832-.0922.4317-.1338.6895-.1338.6895s.1211-.2266.31-.6328c.0845-.207.2192-.4473.3218-.7422.1089-.2949.2314-.627.3515-.998.1109-.3731.1968-.795.294-1.24a11.7032,11.7032,0,0,0,.1689-1.3691,5.0561,5.0561,0,0,0-.14-1.586,6.0785,6.0785,0,0,0-.58-1.5293,3.419,3.419,0,0,0-1.1875-1.2636,2.262,2.262,0,0,0-.4438-.2032,3.0838,3.0838,0,0,0-.4136-.0957,2.76,2.76,0,0,0-.877.0411,2.1936,2.1936,0,0,0-1.31.9375,3.7883,3.7883,0,0,0-.53,1.2168,5.9493,5.9493,0,0,0-.1406,1.8906A3.6952,3.6952,0,0,0,342.4751,88.0175Z" style="fill:#c8825f"/><path d="M342.4751,88.0175s-.333-.4707,1.5552-.75c0,0,2.1684.1329,1.226,2.5333a6.3453,6.3453,0,0,0-.4306,1.6035c-.0865.7851.3921,1.7988-.0274,2.5273a1.4723,1.4723,0,0,1-2.5171-.416c-.1811-.7637.6246-2.1738,1.002-2.7656A1.8249,1.8249,0,0,0,342.4751,88.0175Z" style="fill:#c8825f"/><path d="M342.2685,93.416a.7642.7642,0,0,0-.1308.1367,1.3684,1.3684,0,0,0-.2222.4551,1.1127,1.1127,0,0,0-.0561.3359.9789.9789,0,0,0,.0166.3848,3.8116,3.8116,0,0,0,.1.4062,2.837,2.837,0,0,0,.2065.3711,1.8151,1.8151,0,0,0,.2627.33,3.3321,3.3321,0,0,0,.3169.2441,1.3457,1.3457,0,0,0,.627.2833,2.1949,2.1949,0,0,0,.6655.0722,3.4623,3.4623,0,0,0-.3711-.5332,1.7071,1.7071,0,0,0-.1885-.2031c-.0571-.0762-.1045-.17-.1689-.2422a2.0717,2.0717,0,0,0-.19-.23,1.1573,1.1573,0,0,1-.1567-.2441,2.556,2.556,0,0,1-.2988-.4844,1.8383,1.8383,0,0,1-.1163-.2441c-.0258-.086-.0839-.168-.1044-.2461C342.3428,93.6972,342.2676,93.416,342.2685,93.416Z" style="fill:#c8825f"/><path d="M288.854,73.0547s-3.3716,35.2539,13.8887,46.3476c0,0,8.6215,8.4785,18.9809,1.0508,0,0,15.3662-8.2891,17.9-14.6113,0,0,13.2666-57.2422-18.9438-59.0918C320.68,46.75,293.1684,40.3828,288.854,73.0547Z" style="fill:#f9a374"/><path d="M320.68,46.75a26.2806,26.2806,0,0,0-5.4229-.5c5.7144,2.2187,10.0845,6.9609,13.002,12.7383A71.7733,71.7733,0,0,1,335.7139,86.42c.6313,12.1855-5.625,24.6172-16.5865,30.5156-4.57,2.459-10.2851,4.7754-15.5337,3.1914,2.4161,1.8789,9.6973,6.3731,18.13.3262,0,0,15.3662-8.2891,17.9-14.6113C339.624,105.8418,352.8906,48.6,320.68,46.75Z" style="fill:#e6e7e8;mix-blend-mode:multiply"/><path d="M321.44,81.7011a2.7776,2.7776,0,1,0,2.7774-2.7753A2.7771,2.7771,0,0,0,321.44,81.7011Z" style="fill:#363436"/><path d="M324.0561,79.9238c-.2241.3125.0992.9277.7222,1.377.6221.4453,1.3086.5566,1.5322.246s-.0991-.9277-.7207-1.375C324.9663,79.7246,324.28,79.6152,324.0561,79.9238Z" style="fill:#fff"/><path d="M318.9282,72.4A2.0991,2.0991,0,0,0,317.59,74.164s.0542,1.6153,1.4024,1.4766c0,0,9.9472-1.2832,13.7861,1.1855C332.7783,76.8261,332.313,69.5312,318.9282,72.4Z" style="fill:#632a15"/><path d="M304.7334,81.7011a2.7774,2.7774,0,1,1-2.7764-2.7753A2.7765,2.7765,0,0,1,304.7334,81.7011Z" style="fill:#363436"/><path d="M302.1172,79.9238c.2236.3125-.0987.9277-.7217,1.377-.6221.4453-1.3081.5566-1.5322.246s.0986-.9277.7212-1.375S301.894,79.6152,302.1172,79.9238Z" style="fill:#fff"/><path d="M307.2466,72.4a2.0989,2.0989,0,0,1,1.3379,1.7636s-.0552,1.6153-1.4024,1.4766c0,0-9.9477-1.2832-13.7861,1.1855C293.396,76.8261,293.8608,69.5312,307.2466,72.4Z" style="fill:#632a15"/><path d="M311.0459,88.0566s-.0908.2871-.249.7881c-.1592.4971-.4136,1.1826-.7041,2-.3028.8008-.6563,1.7353-1.0347,2.7363q-.1392.3706-.2817.7549l-.1441.3838-.0361.0967-.0181.0478-.0093.0244c.0435-.1318.0113-.0332.02-.06l-.0019.0059-.0029.0117-.0357.1611a6.35,6.35,0,0,0-.1758,1.4912,4.3,4.3,0,0,0,.23,1.3653,2.317,2.317,0,0,0,.72.9853,4.691,4.691,0,0,0,2.4351.7939,16.9192,16.9192,0,0,0,2.0718.0411c.5166-.0176.812-.0274.812-.0274l-.7456.3389a10.0182,10.0182,0,0,1-2.106.5928,5.1182,5.1182,0,0,1-3.2944-.4844,3.5975,3.5975,0,0,1-1.4268-1.542,4.7835,4.7835,0,0,1-.4917-2.0088,7.85,7.85,0,0,1,.17-1.9561l.0669-.2548.03-.0948.0108-.0254.0214-.0507.0435-.1006.1714-.4024c.1138-.2656.2265-.5293.3369-.788.2632-.4971.5156-.9766.7725-1.4209.2846-.43.5351-.8438.8056-1.2022A11.4651,11.4651,0,0,1,311.0459,88.0566Z" style="fill:#d78e65"/><path d="M305.126,104.9179h15.4819s-.2754,5.7207-7.7407,6.3184C312.8672,111.2363,306.0449,111.6211,305.126,104.9179Z" style="fill:#fff"/><path d="M303.8437,104.9179s1.1724-.1425,2.9312-.2636c1.7588-.1172,4.104-.1953,6.4492-.1983,2.3452.003,4.69.0791,6.4492.1963,1.7588.1221,2.9312.2656,2.9312.2656s-1.1724.1436-2.9312.2657c-1.7588.1172-4.104.1933-6.4492.1963-2.3452-.003-4.69-.0811-6.4492-.1983C305.0161,105.0605,303.8437,104.9179,303.8437,104.9179Z" style="fill:#cd8861"/><path d="M305.3154,105.8847a5.0782,5.0782,0,0,0,.2554.833,5.9587,5.9587,0,0,0,1.1772,1.8916,6.2737,6.2737,0,0,0,2.5689,1.6524,9.2391,9.2391,0,0,0,1.7016.4023,11.9324,11.9324,0,0,0,1.816.1231,10.5517,10.5517,0,0,0,3.5014-.6338,7.1126,7.1126,0,0,0,2.607-1.6494,6.9154,6.9154,0,0,0,1.3032-1.8223,8.6433,8.6433,0,0,0,.3618-.7969l-.0435.2256a4.6133,4.6133,0,0,1-.1523.6367,6.2746,6.2746,0,0,1-.3687.9571,5.5267,5.5267,0,0,1-.7041,1.1484,6.8238,6.8238,0,0,1-2.6958,2.0508,10.0345,10.0345,0,0,1-3.7959.8076,12.3133,12.3133,0,0,1-1.9692-.1641,8.3923,8.3923,0,0,1-1.8535-.5234,6.1451,6.1451,0,0,1-2.6914-2.0791,5.6047,5.6047,0,0,1-.9365-2.1768A3.5883,3.5883,0,0,1,305.3154,105.8847Z" style="fill:#cd8861"/><path d="M307.2949,107.6347s.6968-.0742,1.7412-.13c.5225-.0186,1.1319-.0616,1.7852-.07s1.3491-.02,2.0459-.03c.6968.01,1.393.02,2.0459.03.6533.0069,1.2627.0518,1.7851.07,1.0445.0556,1.7412.13,1.7412.13s-.6967.0743-1.7412.13c-.5224.0186-1.1318.0635-1.7851.07-.6529.01-1.3491.02-2.0459.03-.6968-.01-1.3931-.02-2.0459-.03s-1.2627-.0517-1.7852-.07C307.9917,107.709,307.2949,107.6347,307.2949,107.6347Z" style="fill:#d1d3d4"/><path d="M310.5259,105.8847a4.8256,4.8256,0,0,1,.1294.6075c.019.1816.062.3945.0708.622s.02.4707.0307.7139c-.01.2432-.021.4863-.03.7139s-.0518.44-.0708.622a4.7634,4.7634,0,0,1-.13.6075,4.7634,4.7634,0,0,1-.13-.6075c-.0191-.1816-.063-.3945-.0708-.622s-.02-.4707-.03-.7139c.0108-.2432.021-.4863.0308-.7139s.0517-.44.0708-.622A4.8038,4.8038,0,0,1,310.5259,105.8847Z" style="fill:#d1d3d4"/><path d="M314.2822,105.8847a4.8256,4.8256,0,0,1,.1294.6075c.0191.1816.062.3945.0708.622s.02.4707.0308.7139c-.01.2432-.02.4863-.03.7139-.0078.2275-.0518.44-.0708.622a4.7634,4.7634,0,0,1-.13.6075,4.7634,4.7634,0,0,1-.13-.6075c-.019-.1816-.063-.3945-.0708-.622-.01-.2276-.02-.4707-.03-.7139.0107-.2432.021-.4863.0307-.7139s.0518-.44.0708-.622A4.8256,4.8256,0,0,1,314.2822,105.8847Z" style="fill:#d1d3d4"/><path d="M346.7607,55.91c2.357,14.8711-1.2666,25.8145-1.2666,25.8145-2.5381-.3867-3.1543,0-3.1543,0l-.6626,11.17h-1.6587V80.7363c-.1543-7.8457-5.8564-7.875-5.8564-7.875,3.3564-6.5977.0459-13.0488.0459-13.0488C331.83,54.0312,300.99,55.8808,300.99,55.8808c-11.7846.2325-8.7466,14.3614-8.7466,14.3614a3.3455,3.3455,0,0,0-3.3877,3.2128,51.66,51.66,0,0,0-.2543,8.2461s-7.9581-22.1211,3.83-38.582a3.1657,3.1657,0,0,0,3.0059,2.1289s-2.9116-10.17,6.75-14.793c0,0-1.0352,3.6973,1.6552,5.086,0,0-.2954-6.4746,8.71-8.7852,0,0,.0727,5.086,4.4233,6.01,0,0,8.7432-1.1563,14.522,2.7754,5.7793,3.9277,7.9907,0,6.769-3.9317,0,0,2.2461,4.6231-.99,7.8594a5.9769,5.9769,0,0,1,6.7759-1.3867s-4.7451.4629-1.7158,5.7793A37.8291,37.8291,0,0,1,346.7607,55.91Z" style="fill:#ac543a"/><path d="M310.2373,112.6972s.3169-.0351.731-.0488c.21-.0156.4462-.0176.6948-.02.251-.02.51.0127.7729-.0127.2617.0117.5235.0127.7725.0088.2485-.001.49.0312.6968.0264a3.6829,3.6829,0,0,1,.7363.0839,2.96,2.96,0,0,1-.6211.4336,2.4588,2.4588,0,0,1-.7183.2647,2.807,2.807,0,0,1-.4238.0859l-.4453.02a3.6222,3.6222,0,0,1-.8706-.1054,1.9968,1.9968,0,0,1-.3858-.1241,2.0627,2.0627,0,0,1-.3325-.1474A2.01,2.01,0,0,1,310.2373,112.6972Z" style="fill:#cd8861"/><path d="M245.4243,219.8906l-5.6426-4.2871s-7.51,5.0879-6.4614,13.039c0,0,1.124,2.59,2.0664,1.4434a7.8244,7.8244,0,0,1,4.4736-6.625,14.6048,14.6048,0,0,1-.0078,5.6524s1.2383,1.5429,3.0376-3.4A13.0366,13.0366,0,0,1,245.4243,219.8906Z" style="fill:#f9a374"/><path d="M279.0122,139.1465s-36.0957,38.6425-41.6714,76.5312l8.793,6.4238c9.0845-36.59,44.1743-67.8047,44.1743-67.8047,13.7231-12.7128-8.6987-16.5214-8.6987-16.5214" style="fill:#002d41"/><path d="M144.25,92.3633s-7.1377,50.371,2.4072,82.8281c0,0-49.9375-1.6387-53.5537-21.7617,0,0-11.5435-93.9454,35.8174-93.9454C128.9209,59.4843,141.7549,62.1582,144.25,92.3633Z"/><path d="M112.4321,133.99s-13.42,2.7148-20.2265,7.0606c-5.2618,3.2324-5.1148,7.5507-5.7276,16.6621l7.9614-.2989,2.8291,6.7735,22.418-7.0332v.2715h.249l22.5713,6.7187,2.73-6.8145,7.8892.0958c-.7515-9.1055.2226-13.2208-5.0811-16.375-6.8711-4.2442-21.456-7.129-21.456-7.129Z" style="fill:#f9a374"/><path d="M100.603,189.3886c2.7388-13.7089-2.0376-21.2148-2.0376-21.2148-4.1308-5.8789-4.2676-10.748-4.2676-10.748l.1416-.0118a22.3879,22.3879,0,0,0,3.9517-7.7949L99.53,137.5683c2.7505-.789,3.5141-1.1328,6.07-1.7715a31.85,31.85,0,0,0,28.5219-.0214,22.921,22.921,0,0,1,5.1885,1.4707l.981,12.9316c1.7715,7.0918,4.9448,7.2481,4.9448,7.2481h.023a86.1463,86.1463,0,0,1-4.05,10.748s-4.7759,7.5059-2.0367,21.2148l8.79,35.3282H90.1221Z" style="fill:#fff"/><polygon points="96.891 157.4 92.503 230.064 87.236 229.932 86.495 157.139 96.891 157.4" style="fill:#f9a374"/><rect x="114.0171" y="125.6777" width="11.2583" height="8.6016" style="fill:#f9a374"/><path d="M118.1162,133.125A7.0546,7.0546,0,0,0,122.77,126.93a3.757,3.757,0,0,0-.0942-1.252h2.6v8.6016H113.97v-1.0782A6.0346,6.0346,0,0,0,118.1162,133.125Z" style="fill:#d1d3d4;mix-blend-mode:multiply"/><path d="M96.0547,205.35h21.354c3.5639-.2227,8.6406-.4453,9.8213,0h15.1172c2.29,6.1172,3.478,15.0488.84,33.01,0,0-4.2,28.3321-4.3311,30.959,0,0-3.642,18.1231-3.9653,31.51,0,0,3.0191,15.2422-1.8252,42.666,0,0-.8139,5.16-1.6543,10.252-.8471,5.1445-1.5244,8.457-1.5244,8.457h-6.4014s-.8188-45.377-.8711-50.2754c0,0-.5034-9.1523,0-19.5879L120.457,240.082c-.3379-.8516-1.1567-2.1289-2.5224.2578l-2.147,52c.501,10.4356,0,19.5879,0,19.5879-.0542,4.8984-.7456,50.2754-.7456,50.2754h-6.28s-.9888-4.1777-1.5137-6.5352c-1.3315-5.99-2.1025-10.7675-2.1025-10.7675-4.8457-27.4219-1.6338-44.0723-1.6338-44.0723-.3232-13.3867-3.9683-31.51-3.9683-31.51-.1293-2.6269-3.6782-29.9765-3.6782-29.9765C92.2646,217.7949,93.7637,211.4668,96.0547,205.35Z" style="fill:#f9a374"/><path d="M102.5679,288.6035c-1.1817-10.1113-3.0245-19.2852-3.0245-19.2852-.1293-2.6269-3.6782-29.9765-3.6782-29.9765-3.6006-21.5469-2.1015-27.875.1895-33.9922h21.354c3.5639-.2227,8.6406-.4453,9.8213,0h15.1172c2.29,6.1172,3.478,15.0488.84,33.01,0,0-4.2,28.3321-4.3311,30.959,0,0-1.8417,9.1739-3.0229,19.2852Z" style="fill:#002133"/><polygon points="153.265 144.006 171.104 177.783 164.034 175.96 207.767 152.944 210.826 158.215 169.255 184.954 164.948 187.725 162.185 183.131 142.527 150.444 153.265 144.006" style="fill:#f9a374"/><path d="M209.6924,159.4375l-4.7959-3.66s1.3862-4.9551,1.28-7.4941a4.34,4.34,0,0,1,1.8891,5.4433s10.3589-3.0156,14.2764,5.1055c0,0,.3149,1.877-1.752.2949C220.59,159.1269,214.43,155.2851,209.6924,159.4375Z" style="fill:#f9a374"/><path d="M123.2812,371.4765a3.6568,3.6568,0,0,0-.9863,2.1094v6.1h-.7178v-7.9414a7.3135,7.3135,0,0,0-.8447-3.0332Z" style="fill:#231f20"/><path d="M123.7646,361.9531c-1.9267,1.3789-.0918,3.8086-.0918,3.8086,1.3233,1.0918,2.9527,5.7969,2.9527,5.7969a12.8616,12.8616,0,0,0,2.13,5.5429c1.17,2.4785,4.1577,1.2676,4.1577,1.2676,3.3091-.51,1.12-1.6641,1.12-1.6641a16.4735,16.4735,0,0,1-3.0781-6.3964,42.33,42.33,0,0,1-1.0161-8.3555h-6.1744" style="fill:#f9a374"/><path d="M134.0332,376.705c.4814.2305.959.4708,1.44.709.9346.4532,1.8052,1.01,2.7114,1.5078.2291.129.4805.2422.7032.3868.2783.1816.4936.6269.3379.8945-.5083.8633-1.8921,1.0117-2.8394,1.1309-.5415.07-1.0947.1093-1.6465.1445a19.1711,19.1711,0,0,1-5.4-.2012,4.5635,4.5635,0,0,1-1.15-.3945c-.1889-.1-.6889-.3887-.7451-.6113,0,0-1.6968-6.8555-3.8047-8.543,0,0-3.188-2.1192-3.1455-4.0059,0,0,.1646-4.6855,3.27-5.7695a2.8287,2.8287,0,0,0,.3316,3.8477s2.3144,2.164,3.2236,7.9335c0,0,1.2061,4.9668,3.7075,4.8516C131.0273,378.5859,136.1416,378.3945,134.0332,376.705Z" style="fill:#001123"/><path d="M121.9116,363.8105a24.5766,24.5766,0,0,0-.74,3.9707s.0249,1.3535,2.2763,2.92a6.9953,6.9953,0,0,1-1.6137-2.4921s1.6176,2.6308,2.76,3.2675c0,0-2.74-3.66-2.74-4.6386a5.2736,5.2736,0,0,0,.3164,1.3886S121.3037,367.6035,121.9116,363.8105Z" style="fill:#fff"/><path d="M123.6406,371.2968c2.1079,1.69,3.8047,8.545,3.8047,8.545.0562.2246.5562.5117.7451.6113a4.7271,4.7271,0,0,0,1.15.3945,19.0971,19.0971,0,0,0,5.4.2012c.5518-.0371,1.105-.0762,1.6465-.1465.9473-.1191,2.3311-.2637,2.8394-1.1289a.04.04,0,0,1,.0092-.0156.5375.5375,0,0,1-.0092.4453c-.5083.8633-1.8921,1.0117-2.8394,1.1309-.5415.07-1.0947.1093-1.6465.1445a19.1711,19.1711,0,0,1-5.4-.2012,4.5635,4.5635,0,0,1-1.15-.3945c-.1889-.1-.6889-.3887-.7451-.6113,0,0-1.6968-6.8555-3.8047-8.543,0,0-3.188-2.1192-3.1455-4.0059,0,0,.002-.0644.0127-.1875C120.7187,369.3535,123.6406,371.2968,123.6406,371.2968Z" style="fill:#231f20"/><path d="M134.74,377.3125s4.0464,1.834,3.857,2.248c0,0,.414,1.043-3.6158,1.1426a7.2257,7.2257,0,0,0,2.3467-.7285,17.638,17.638,0,0,1-4.4946.7285s4.918-.7793,4.3559-1.6035A5.3318,5.3318,0,0,0,134.74,377.3125Z" style="fill:#fff"/><path d="M115.3686,371.7265a3.6551,3.6551,0,0,1,.9854,2.1075v6.1015h.7183v-7.9433a7.3327,7.3327,0,0,1,.8466-3.0332Z" style="fill:#231f20"/><path d="M114.8857,362.2031c1.9263,1.3769.09,3.8086.09,3.8086-1.3233,1.0937-2.9517,5.793-2.9517,5.793a12.8615,12.8615,0,0,1-2.1328,5.5468c-1.1665,2.4785-4.1553,1.2657-4.1553,1.2657-3.3095-.51-1.1206-1.6622-1.1206-1.6622a16.4312,16.4312,0,0,0,3.0791-6.3945,46.5841,46.5841,0,0,0,1.0674-8.3574h6.124" style="fill:#f9a374"/><path d="M104.6152,376.955c-.48.2286-.958.4747-1.437.7071-.937.4531-1.8061,1.0137-2.7114,1.5117-.2315.125-.4805.2422-.7061.3867-.2749.1778-.4936.6231-.3379.8926.5083.8633,1.8926,1.01,2.8384,1.1309.5454.07,1.0962.1074,1.647.1445a19.1243,19.1243,0,0,0,5.4033-.2031,4.6064,4.6064,0,0,0,1.148-.3907c.1889-.1015.6889-.3906.7465-.6152,0,0,1.6949-6.8555,3.8062-8.5391,0,0,3.1841-2.123,3.1411-4.0078,0,0-.1626-4.6875-3.2676-5.7695a2.8307,2.8307,0,0,1-.33,3.8477s-2.3145,2.1621-3.2266,7.9335c0,0-1.207,4.9688-3.7061,4.85C107.623,378.834,102.51,378.6445,104.6152,376.955Z" style="fill:#001123"/><path d="M116.7373,364.0605a24.2678,24.2678,0,0,1,.7373,3.9688s-.0234,1.3535-2.2729,2.9218a6.942,6.942,0,0,0,1.61-2.4941s-1.6162,2.6328-2.7563,3.2695c0,0,2.7382-3.66,2.7382-4.6386a5.2715,5.2715,0,0,1-.3159,1.3906S117.3462,367.8515,116.7373,364.0605Z" style="fill:#fff"/><path d="M115.0122,371.5508c-2.1113,1.6835-3.8062,8.539-3.8062,8.539-.0576.2266-.5576.5137-.7465.6133a4.6152,4.6152,0,0,1-1.148.3926,19.05,19.05,0,0,1-5.4033.2011c-.5508-.0351-1.1016-.0742-1.647-.1406-.9458-.123-2.33-.2695-2.8384-1.1347l-.0063-.0157a.5446.5446,0,0,0,.0063.4473c.5083.8633,1.8926,1.01,2.8384,1.1309.5454.07,1.0962.1074,1.647.1445a19.1243,19.1243,0,0,0,5.4033-.2031,4.6064,4.6064,0,0,0,1.148-.3907c.1889-.1015.6889-.3906.7465-.6152,0,0,1.6949-6.8555,3.8062-8.5391,0,0,3.1841-2.123,3.1411-4.0078,0,0-.0029-.0644-.0107-.1894C117.9307,369.6015,115.0122,371.5508,115.0122,371.5508Z" style="fill:#231f20"/><path d="M103.9082,377.5644s-4.0454,1.834-3.8565,2.2422c0,0-.4116,1.0488,3.6133,1.1465a7.2594,7.2594,0,0,1-2.3427-.7285,17.6238,17.6238,0,0,0,4.496.7285s-4.9169-.7793-4.3588-1.6035A5.3259,5.3259,0,0,1,103.9082,377.5644Z" style="fill:#fff"/><path d="M92.55,229.998l-5.2588-.293s-1.9512,6.7657,1.1221,11.4942c0,0,1.376,1.1816,1.4565,0a8.2771,8.2771,0,0,1,0-6.3809,11.9775,11.9775,0,0,1,1.8233,3.7012s1.0932.4434.354-3.6152C91.9341,234.291,92.4311,232.9863,92.55,229.998Z" style="fill:#f9a374"/><polygon points="130.928 134.898 138.536 136.668 130.227 162.49 132.708 163.022 119.801 198.117 108.66 162.607 111.377 162.193 101.115 136.994 108.529 134.898 119.801 193.633 130.928 134.898" style="fill:#002b3f"/><path d="M97.85,98.4433c.6377,4.52-1.16,8.5-4,8.8965-2.8374.3926-5.6514-2.9414-6.2818-7.4609-.6274-4.5156,1.1636-8.4961,4.0069-8.8946C94.4106,90.5879,97.2226,93.9277,97.85,98.4433Z" style="fill:#f9a374"/><path d="M93.689,97.1269s-.0274-.2539-.1158-.6679a6.6778,6.6778,0,0,0-.58-1.627c-.3174-.6113-.8477-1.3066-1.5591-1.3516a1.7512,1.7512,0,0,0-.5454.0528c-.03.0156-.2217.0761-.2818.1113a2.2,2.2,0,0,0-.209.1328,2.4111,2.4111,0,0,0-.7363.9727,5.6387,5.6387,0,0,0-.499,2.5664c.062.4531.0605.9179.1387,1.3105.0683.4024.1377.7813.2,1.1348.0932.35.1626.6777.2246.9707.0605.2949.1533.5351.206.7461.1226.414.1817.6562.1817.6562s-.1333-.2089-.3462-.5859c-.0972-.1973-.2432-.4219-.3653-.6992-.125-.2754-.267-.59-.41-.9375-.1343-.3555-.2485-.7578-.3745-1.18a11.6556,11.6556,0,0,1-.2637-1.3145,4.8555,4.8555,0,0,1,.0225-1.541,5.7893,5.7893,0,0,1,.45-1.5215,3.3633,3.3633,0,0,1,1.0571-1.3086,2.48,2.48,0,0,1,.4141-.2285,2.9792,2.9792,0,0,1,.394-.123,2.6426,2.6426,0,0,1,.8506-.0215,2.1261,2.1261,0,0,1,1.3354.8086A3.7,3.7,0,0,1,93.48,94.625a5.8578,5.8578,0,0,1,.271,1.8164A3.6781,3.6781,0,0,1,93.689,97.1269Z" style="fill:#c8825f"/><path d="M93.689,97.1269s.288-.48-1.5572-.6152c0,0-2.0893.2851-1.0058,2.543a6.0176,6.0176,0,0,1,.5327,1.5175c.1411.752-.2495,1.77.2085,2.4414a1.43,1.43,0,0,0,2.4067-.5839c.1187-.75-.7612-2.0567-1.1675-2.6036A1.7678,1.7678,0,0,1,93.689,97.1269Z" style="fill:#c8825f"/><path d="M94.28,102.332a1.05,1.05,0,0,1,.1362.123,1.3235,1.3235,0,0,1,.2461.4239,1.1927,1.1927,0,0,1,.0811.3242,1.0144,1.0144,0,0,1,.0107.3711c-.0234.1269-.0327.2695-.07.4a2.7208,2.7208,0,0,1-.1709.3711,1.7675,1.7675,0,0,1-.231.3437c-.0889.0938-.1977.1739-.291.2578a1.3142,1.3142,0,0,1-.585.3184,2.0084,2.0084,0,0,1-.6377.1172,3.1426,3.1426,0,0,1,.3194-.541,1.4327,1.4327,0,0,1,.1679-.2129c.05-.0781.0884-.17.1456-.2461a1.6961,1.6961,0,0,1,.1679-.2324,1.1928,1.1928,0,0,0,.1343-.25,2.5645,2.5645,0,0,0,.2554-.4922,1.8291,1.8291,0,0,0,.0927-.2461c.02-.0821.07-.166.0845-.2422C94.2256,102.6093,94.28,102.332,94.28,102.332Z" style="fill:#c8825f"/><path d="M114.9219,127.9629s-1.6607-.7715-4.0088-2.1856c-5.2969-3.1933-14.0962-9.6621-15.24-17.9629,0,0-13.2485-48.5371,17.9273-51.3515,0,0,24.3608-6.8516,29.58,24.6914,0,0,3.2509,34.7246-13.646,45.9336,0,0-4.4146,3.0429-6.4024,3.5664A27.2363,27.2363,0,0,1,114.9219,127.9629Z" style="fill:#f9a374"/><path d="M113.6006,56.4629a27.8253,27.8253,0,0,1,8.4707-.5782A29.2084,29.2084,0,0,0,103.998,71.0508c-4.72,9.5507-7.4575,21.5468-4.872,31.8359,2.6338,10.4668,11.7031,21.6016,23.2705,23.2793,6.4433.9336,11.5805-3.7031,15.6767-8.9219a26.8377,26.8377,0,0,1-8.5385,9.8438s-4.4146,3.0429-6.4024,3.5664a27.2363,27.2363,0,0,1-8.21-2.6914s-1.6607-.7715-4.0088-2.1856c-5.2969-3.1933-14.0962-9.6621-15.24-17.9629C95.6733,107.8144,82.4248,59.2773,113.6006,56.4629Z" style="fill:#e6e7e8;mix-blend-mode:multiply"/><path d="M130.7593,93.5508a2.694,2.694,0,1,0,2.603-2.7793A2.69,2.69,0,0,0,130.7593,93.5508Z" style="fill:#363436"/><path d="M133.2392,91.7441c-.208.3125.126.8984.7422,1.3106.6182.414,1.2867.5019,1.4932.1894.209-.3047-.124-.8906-.7412-1.3066C134.1142,91.5215,133.4453,91.4355,133.2392,91.7441Z" style="fill:#fff"/><path d="M126.7632,86.32a5.5337,5.5337,0,0,0,.3716,2.9941s8.4335-3.9511,12.5507-1.4765c0,0,2.4185,1.3652,2.58,2.6425a6.0431,6.0431,0,0,0-5.87-5.7421A17.26,17.26,0,0,0,126.7632,86.32Z" style="fill:#120e1a"/><path d="M128.5439,93.6738a2.75,2.75,0,0,0,.6353-.3486,7.0476,7.0476,0,0,0,.5693-.4453c.3662-.3145.7095-.6534,1.0547-.9883l-.0141.0136a4.6652,4.6652,0,0,1,1.5878-1.1337,3.6469,3.6469,0,0,1,1.9717-.2725,3.9174,3.9174,0,0,1,1.8072.8057,6.0869,6.0869,0,0,1,1.3012,1.4043l.0117.0166a2.6667,2.6667,0,0,0,.4454.5273,2.5108,2.5108,0,0,0,.59.3945,2.3874,2.3874,0,0,0,1.4521.1631,2.2856,2.2856,0,0,1-1.5532.1094,2.3278,2.3278,0,0,1-.7368-.3535,2.61,2.61,0,0,1-.6069-.5772l.0117.0166a4.8666,4.8666,0,0,0-2.8223-1.834,3.17,3.17,0,0,0-1.6343.1905,4.8365,4.8365,0,0,0-1.46.8838l-.0147.0156a11.04,11.04,0,0,1-1.2148.8652A3.6858,3.6858,0,0,1,128.5439,93.6738Z" style="fill:#1c0200"/><path d="M137.167,92.5068a6.2381,6.2381,0,0,0,1.6665.4,2.292,2.292,0,0,0,.6225-.0371.9856.9856,0,0,0,.4834-.2295c.0684-.0449.0943-.1191.1377-.169a.4309.4309,0,0,0,.0718-.1533c.0308-.0908.0488-.1425.0488-.1425l-.0351.1474a.4511.4511,0,0,1-.0581.1641.7574.7574,0,0,1-.127.19,1.0641,1.0641,0,0,1-.4931.2969,2.4692,2.4692,0,0,1-.6538.1035,6.4973,6.4973,0,0,1-1.773-.249Z" style="fill:#1c0200"/><path d="M136.6421,92.0058a6.2546,6.2546,0,0,0,1.7095.1162,2.3279,2.3279,0,0,0,.6079-.14.9911.9911,0,0,0,.4384-.3076.7142.7142,0,0,0,.1075-.1885.43.43,0,0,0,.0449-.1641c.0156-.0937.0244-.1484.0244-.1484s-.0034.0547-.01.15a.4443.4443,0,0,1-.03.1719.7521.7521,0,0,1-.0937.2089,1.066,1.066,0,0,1-.4365.375,2.4367,2.4367,0,0,1-.6275.21,6.4918,6.4918,0,0,1-1.789.0518Z" style="fill:#1c0200"/><path d="M114.99,94.0644a2.6938,2.6938,0,1,1-2.7793-2.6035A2.689,2.689,0,0,1,114.99,94.0644Z" style="fill:#363436"/><path d="M112.4009,92.4258c.2256.2949-.0674.9023-.6587,1.3574-.5889.4511-1.2505.58-1.48.2851-.2246-.2929.0674-.9.6587-1.3535C111.5132,92.26,112.1728,92.1347,112.4009,92.4258Z" style="fill:#fff"/><path d="M118.5068,86.5879A5.5338,5.5338,0,0,1,118.33,89.6s-8.6729-3.3906-12.6192-.6524c0,0-2.3232,1.5235-2.4018,2.8047a6.0428,6.0428,0,0,1,5.4819-6.1113A17.2729,17.2729,0,0,1,118.5068,86.5879Z" style="fill:#120e1a"/><path d="M117.208,94.0429a3.6421,3.6421,0,0,1-1.4146-.455,10.98,10.98,0,0,1-1.2675-.7871l-.0147-.0137a4.8145,4.8145,0,0,0-1.5146-.7852,3.1813,3.1813,0,0,0-1.6426-.084,4.8685,4.8685,0,0,0-2.6958,2.0127l.0107-.0175a2.649,2.649,0,0,1-.5678.6162,2.3872,2.3872,0,0,1-.7129.4023,2.2882,2.2882,0,0,1-1.5581-.0078,2.3937,2.3937,0,0,0,1.4394-.2578,2.5618,2.5618,0,0,0,.5635-.4336,2.64,2.64,0,0,0,.41-.5557l.0107-.0176a6.1113,6.1113,0,0,1,1.2065-1.4853,3.9032,3.9032,0,0,1,1.75-.92,3.6478,3.6478,0,0,1,1.9839.1426,4.6634,4.6634,0,0,1,1.6582,1.0263l-.0146-.0127c.3662.3135.73.63,1.1152.92a6.9664,6.9664,0,0,0,.5972.4073A2.6774,2.6774,0,0,0,117.208,94.0429Z" style="fill:#1c0200"/><path d="M108.6587,93.7568a6.4664,6.4664,0,0,1-1.7525.3623,2.44,2.44,0,0,1-.6587-.06,1.0728,1.0728,0,0,1-.5117-.2627.7674.7674,0,0,1-.14-.1816.4468.4468,0,0,1-.0684-.16c-.0288-.0917-.0449-.1445-.0449-.1445s.021.0508.0581.1387a.4259.4259,0,0,0,.0815.1484c.0469.0469.0772.1192.149.1592a.9993.9993,0,0,0,.497.1973,2.3089,2.3089,0,0,0,.6241-.0049,6.251,6.251,0,0,0,1.6362-.5068Z" style="fill:#1c0200"/><path d="M109.0952,93.2422a6.5188,6.5188,0,0,1-1.7886.0644,2.4421,2.4421,0,0,1-.64-.17,1.0737,1.0737,0,0,1-.46-.3457.77.77,0,0,1-.1074-.2022.4438.4438,0,0,1-.0405-.1689l-.02-.15s.0122.0537.0341.1465a.42.42,0,0,0,.0557.16.6993.6993,0,0,0,.12.1817.99.99,0,0,0,.4576.2783,2.3219,2.3219,0,0,0,.6157.1006A6.25,6.25,0,0,0,109.02,92.91Z" style="fill:#1c0200"/><path d="M95.9731,88.5429s-.1225,8.3516-.48,10.3008c0,0-.8872-8.5234-5.2241-7.2812-1.7187.4883-2.67,4.582-2.67,4.582-7.145-14.0234-.6323-34.2539-1.3569-32.3516,0,0,4.4892-15.23,23.9463-17.1757,0,0,19.0337-1.5547,27.9077,9.1757,13.4311,16.24,5.0483,38.7012,4.8169,42.2676,0,0,2.7182-21.9238-7.2075-26.623,0,0-6.5342-2.2442-7.0455-5.1563C128.66,66.2812,125.68,82.33,95.9731,88.5429Z" style="fill:#120e1a"/><path d="M131.042,112.6054l-15.1992.4961a8.1525,8.1525,0,0,0,8.5078,5.8086S129.34,118.748,131.042,112.6054Z" style="fill:#fff"/><path d="M130.9077,112.7031a32.31,32.31,0,0,1-3.6479.5693q-1.8955.1979-3.795.2608c-.6338.02-1.2675.0146-1.9028-.0235l-1.9058-.12a26.6347,26.6347,0,0,0-3.8056-.0488l.2246-.2969a6.5626,6.5626,0,0,0,1.2309,2.1758,7.2932,7.2932,0,0,0,.8716.8818,4.4757,4.4757,0,0,0,.48.378,3.6376,3.6376,0,0,0,.4976.3437c.1757.0986.3374.2158.5126.3115l.5386.26a8.2484,8.2484,0,0,0,1.1192.4043,7.5866,7.5866,0,0,0,1.1762.2178,8.3486,8.3486,0,0,0,1.2032.0693l.6059.0117a3.6733,3.6733,0,0,0,.5171-.0742,5.8047,5.8047,0,0,0,1.1172-.2988,7.5053,7.5053,0,0,0,1.0674-.4863,6.6362,6.6362,0,0,0,.9878-.6583,8.3215,8.3215,0,0,0,.8969-.8105,7.9578,7.9578,0,0,0,.7857-.958c.26-.3311.4472-.709.6846-1.0693C130.5649,113.4091,130.72,113.0527,130.9077,112.7031Zm.2075-.0772a12.5419,12.5419,0,0,1-.2466,1.3174,7.111,7.111,0,0,1-.4536,1.2832,8.9289,8.9289,0,0,1-.6513,1.2237,7.6588,7.6588,0,0,1-.89,1.0937,6.498,6.498,0,0,1-1.09.9229,6.3355,6.3355,0,0,1-1.2583.7021,7.4811,7.4811,0,0,1-1.3838.4531,5.0583,5.0583,0,0,1-.7783.1l-.7017-.0166a6.7326,6.7326,0,0,1-1.3994-.1552,9.27,9.27,0,0,1-1.3725-.3545,9.5778,9.5778,0,0,1-1.3013-.5762,7.0062,7.0062,0,0,1-1.17-.8027,6.54,6.54,0,0,1-.981-1.0059,9.2473,9.2473,0,0,1-.7837-1.1387,10.8663,10.8663,0,0,1-1.043-2.5127l-.082-.2949.3067-.0019a26.6376,26.6376,0,0,0,3.7944-.2969l1.8935-.2432c.6314-.08,1.2642-.1259,1.8975-.1484q1.9-.063,3.8042.0127a31.92,31.92,0,0,1,3.8149.3428l.0884.0136Z" style="fill:#d97374"/><path d="M124.9419,91.0468s.0278.3331.0908.9053c.0649.5713.167,1.39.355,2.3535.0889.4834.17,1.0069.31,1.5518.1387.543.2413,1.126.4165,1.71s.3545,1.1855.5376,1.7978c.2164.6006.4649,1.1992.6963,1.8037a13.1384,13.1384,0,0,0,.8072,1.751q.2124.4276.42.8486a4.617,4.617,0,0,1,.3994.9678,2.2353,2.2353,0,0,1-.0073,1.0879,1.9257,1.9257,0,0,1-.5469.89,3.2552,3.2552,0,0,1-1.5518.7666,6.2961,6.2961,0,0,1-1.3769.1807c-.41.0029-.7632.0264-1.0542-.001-.5816-.0371-.91-.07-.91-.07l.9033-.1045c.2876-.0166.63-.0928,1.0215-.1553a4.8767,4.8767,0,0,0,.6114-.1445,4.4226,4.4226,0,0,0,.6552-.1972,2.9778,2.9778,0,0,0,1.22-.7393,1.336,1.336,0,0,0,.271-1.3154,17.3008,17.3008,0,0,0-.8247-1.6162,13.5961,13.5961,0,0,1-.8662-1.8067c-.2314-.6308-.478-1.2558-.6914-1.8808-.1631-.6387-.3237-1.2676-.48-1.876-.1587-.6074-.21-1.2158-.3081-1.78a13.8332,13.8332,0,0,1-.1621-1.6074,11.2131,11.2131,0,0,1-.043-1.3623c.0064-.4053,0-.7569.024-1.0489C124.8911,91.373,124.9419,91.0468,124.9419,91.0468Z" style="fill:#cf8962"/><path d="M122.0254,104.5429s-.0615.2735-.1509.6026c-.0366.1679-.0879.3506-.1079.5263a1.09,1.09,0,0,0,.0083.4678.9921.9921,0,0,0,.1694.4014,1.7129,1.7129,0,0,1,.1587.2041,1.8788,1.8788,0,0,1,.1821.1885c.2413.2343.4283.4531.4283.4531a1.377,1.377,0,0,1-.1822.0254,1.4666,1.4666,0,0,1-.4809-.02,1.541,1.541,0,0,1-.6572-.2842,1.3607,1.3607,0,0,1-.4971-.7891,1.3962,1.3962,0,0,1,.123-.8955,1.65,1.65,0,0,1,.4258-.5576A1.4636,1.4636,0,0,1,122.0254,104.5429Z" style="fill:#cf8962"/><g style="opacity:0.2;mix-blend-mode:multiply"><path d="M101.1777,102.041c.0908,2.8223,3.5532,5.0039,7.7266,4.8672,4.1807-.1387,7.49-2.5391,7.394-5.3594-.0874-2.8242-3.5464-4.998-7.726-4.8613C104.3975,96.8261,101.0869,99.2207,101.1777,102.041Z" style="fill:#fff"/><path d="M101.4528,102.032c.0875,2.7219,3.4264,4.8254,7.4512,4.6937,4.0315-.1337,7.2228-2.4484,7.13-5.1684-.0843-2.7233-3.42-4.82-7.45-4.6878C104.5577,97.0029,101.3653,99.3121,101.4528,102.032Z" style="fill:#fef4f3"/><path d="M101.7278,102.0229c.0843,2.6217,3.3,4.647,7.176,4.52,3.8821-.1287,6.9557-2.3577,6.8668-4.9773-.081-2.6225-3.2942-4.6416-7.175-4.5144C104.7178,97.18,101.6437,99.4036,101.7278,102.0229Z" style="fill:#feeceb"/><path d="M102.0029,102.0139c.0811,2.5213,3.173,4.4685,6.9006,4.3468,3.7329-.1237,6.6888-2.267,6.6032-4.7863-.0777-2.5217-3.1681-4.4633-6.8994-4.3409C104.878,97.3564,101.922,99.495,102.0029,102.0139Z" style="fill:#fde4e3"/><path d="M102.2779,102.0049c.0779,2.4209,3.0464,4.29,6.6253,4.1733,3.5837-.1187,6.4219-2.1763,6.34-4.5952-.0746-2.4209-3.042-4.2851-6.624-4.1675S102.2,99.5864,102.2779,102.0049Z" style="fill:#fcdcdc"/><path d="M102.553,101.9958c.0746,2.3206,2.92,4.1116,6.35,4,3.4344-.1136,6.1549-2.0856,6.0761-4.4042-.0713-2.32-2.9159-4.1069-6.3484-3.994S102.4788,99.6779,102.553,101.9958Z" style="fill:#fcd4d4"/><path d="M102.828,101.9868c.0714,2.22,2.793,3.9331,6.0747,3.8264,3.2851-.1086,5.8879-1.9949,5.8125-4.2131-.0682-2.2192-2.79-3.9287-6.073-3.8206S102.7572,99.7693,102.828,101.9868Z" style="fill:#fbcccd"/><path d="M103.1031,101.9778c.0682,2.12,2.6663,3.7546,5.7993,3.6529,3.1358-.1036,5.6209-1.9042,5.549-4.0221-.0651-2.1184-2.6638-3.7505-5.7975-3.6471C105.5186,98.0634,103.0356,99.8607,103.1031,101.9778Z" style="fill:#fac4c6"/><path d="M103.3781,101.9688c.065,2.0195,2.54,3.5761,5.524,3.48,2.9866-.0987,5.354-1.8135,5.2854-3.8311-.0618-2.0176-2.5376-3.5723-5.522-3.4736C105.6788,98.24,103.314,99.9522,103.3781,101.9688Z" style="fill:#f9bcbf"/><path d="M103.6532,101.96c.0617,1.9192,2.4129,3.3977,5.2486,3.3061,2.8374-.0937,5.0871-1.7228,5.0218-3.64-.0586-1.9167-2.4115-3.394-5.2464-3.3C105.8389,98.417,103.5923,100.0436,103.6532,101.96Z" style="fill:#f8b4b8"/><path d="M103.9283,101.9507c.0585,1.8189,2.2861,3.2192,4.9732,3.1326,2.6881-.0887,4.82-1.6321,4.7583-3.4491-.0554-1.8158-2.2855-3.2158-4.9709-3.1266C105.9991,98.5937,103.8707,100.135,103.9283,101.9507Z" style="fill:#f8adb1"/><path d="M104.2033,101.9417c.0553,1.7185,2.1594,3.0407,4.698,2.9591,2.5388-.0837,4.5531-1.5414,4.4947-3.258-.0522-1.7151-2.1594-3.0376-4.6955-2.9532C106.1592,98.7705,104.1491,100.2264,104.2033,101.9417Z" style="fill:#f7a5ab"/><path d="M104.4784,101.9326c.052,1.6182,2.0327,2.8623,4.4226,2.7857,2.3895-.0786,4.2861-1.4507,4.2311-3.067-.049-1.6142-2.0333-2.8593-4.42-2.78C106.3194,98.9473,104.4275,100.3179,104.4784,101.9326Z" style="fill:#f69da5"/><path d="M104.7534,101.9236c.0488,1.5178,1.9061,2.6838,4.1473,2.6122,2.24-.0736,4.0192-1.36,3.9676-2.8759-.0458-1.5134-1.9072-2.6812-4.1445-2.6063C106.48,99.124,104.7059,100.4093,104.7534,101.9236Z" style="fill:#f5969f"/><path d="M105.0285,101.9146c.0456,1.4175,1.7793,2.5053,3.872,2.4387,2.091-.0686,3.7522-1.2693,3.7039-2.6849-.0426-1.4125-1.7811-2.5029-3.8689-2.4328C106.64,99.3008,104.9842,100.5007,105.0285,101.9146Z" style="fill:#f58e99"/><path d="M105.3035,101.9055c.0424,1.3172,1.6527,2.3269,3.5967,2.2653,1.9417-.0636,3.4825-1.1785,3.44-2.4938-.042-1.3117-1.6549-2.3248-3.5934-2.2594C106.8,99.4775,105.2626,100.5922,105.3035,101.9055Z" style="fill:#f48793"/><path d="M105.5786,101.8965c.0391,1.2168,1.5259,2.1484,3.3213,2.0918,1.7925-.0586,3.2183-1.0879,3.1768-2.3028-.0362-1.2109-1.5289-2.1465-3.3179-2.0859C106.96,99.6543,105.541,100.6836,105.5786,101.8965Z" style="fill:#f37f8e"/></g><g style="opacity:0.2;mix-blend-mode:multiply"><path d="M128.0576,101.289c.0908,2.8184,3.5527,5,7.7266,4.8633,4.1806-.1348,7.4887-2.5351,7.3945-5.3574-.0918-2.8223-3.5493-4.9981-7.7285-4.8594C131.2764,96.0683,127.9643,98.4668,128.0576,101.289Z" style="fill:#fff"/><path d="M128.3326,101.28c.0875,2.718,3.4257,4.8215,7.4511,4.69,4.0314-.13,7.222-2.4445,7.1311-5.1661-.0886-2.7217-3.4231-4.82-7.4531-4.6862C131.4366,96.2454,128.2425,98.5584,128.3326,101.28Z" style="fill:#fef4f3"/><path d="M128.6076,101.2709c.0841,2.6178,3.2987,4.6431,7.1757,4.5162,3.8822-.1251,6.9551-2.354,6.8675-4.9749-.0853-2.6211-3.2967-4.6419-7.1777-4.5129C131.5967,96.4226,128.5206,98.65,128.6076,101.2709Z" style="fill:#feeceb"/><path d="M128.8826,101.2619c.0808,2.5174,3.1717,4.4646,6.9,4.3425,3.733-.12,6.6884-2.2633,6.6041-4.7835-.082-2.52-3.1705-4.4638-6.9023-4.34C131.7569,96.6,128.7988,98.7414,128.8826,101.2619Z" style="fill:#fde4e3"/><path d="M129.1576,101.2529c.0775,2.417,3.0447,4.2861,6.6247,4.1689,3.5839-.1152,6.4216-2.1728,6.3406-4.5922-.0787-2.42-3.0442-4.2857-6.6268-4.1665C131.917,96.7768,129.077,98.833,129.1576,101.2529Z" style="fill:#fcdcdc"/><path d="M129.4326,101.2438c.0741,2.3167,2.9178,4.1077,6.3493,3.9954,3.4346-.11,6.1548-2.0822,6.0771-4.401-.0755-2.3193-2.9179-4.1076-6.3514-3.9933C132.0772,96.9539,129.3551,98.9246,129.4326,101.2438Z" style="fill:#fcd4d4"/><path d="M129.7076,101.2348c.0708,2.2164,2.7908,3.9292,6.0738,3.8218,3.2855-.1055,5.8881-1.9917,5.8136-4.21-.0722-2.2188-2.7916-3.93-6.076-3.82C132.2373,97.131,129.6333,99.0161,129.7076,101.2348Z" style="fill:#fbcccd"/><path d="M129.9826,101.2258c.0675,2.116,2.6638,3.7507,5.7984,3.6482,3.1362-.1006,5.6212-1.9011,5.55-4.0184-.069-2.1182-2.6654-3.7514-5.8006-3.6469C132.3975,97.3082,129.9115,99.1076,129.9826,101.2258Z" style="fill:#fac4c6"/><path d="M130.2575,101.2168c.0642,2.0156,2.5369,3.5722,5.523,3.4746,2.987-.0957,5.3545-1.8105,5.2866-3.8271-.0657-2.0176-2.5391-3.5733-5.5251-3.4737C132.5576,97.4853,130.19,99.1992,130.2575,101.2168Z" style="fill:#f9bcbf"/><path d="M130.5325,101.2077c.0609,1.9153,2.41,3.3938,5.2475,3.301,2.8379-.0908,5.0878-1.72,5.0232-3.6358-.0624-1.917-2.4128-3.3952-5.25-3.3C132.7178,97.6624,130.4678,99.2908,130.5325,101.2077Z" style="fill:#f8b4b8"/><path d="M130.8075,101.1987c.0576,1.815,2.2829,3.2153,4.9721,3.1274,2.6886-.0859,4.8209-1.6293,4.76-3.4445-.0592-1.8164-2.2866-3.2171-4.9744-3.1272C132.878,97.84,130.746,99.3823,130.8075,101.1987Z" style="fill:#f8adb1"/><path d="M131.0825,101.19c.0543,1.7146,2.1559,3.0368,4.6966,2.9538,2.54-.081,4.5542-1.5388,4.4962-3.2532-.0559-1.7159-2.16-3.039-4.6989-2.954C133.0381,98.0167,131.0242,99.4739,131.0825,101.19Z" style="fill:#f7a5ab"/><path d="M131.3575,101.1806c.0509,1.6143,2.0289,2.8584,4.4211,2.78,2.39-.0762,4.2874-1.4482,4.2328-3.062-.0527-1.6152-2.034-2.8609-4.4235-2.7807C133.1983,98.1938,131.3023,99.5654,131.3575,101.1806Z" style="fill:#f69da5"/><path d="M131.6325,101.1716c.0476,1.5139,1.902,2.68,4.1457,2.6067,2.2411-.0713,4.0206-1.3577,3.9692-2.8707-.0494-1.5147-1.9077-2.6828-4.148-2.6076C133.3584,98.3709,131.5805,99.657,131.6325,101.1716Z" style="fill:#f5969f"/><path d="M131.9075,101.1626c.0443,1.4136,1.775,2.5014,3.87,2.433,2.0919-.0663,3.7539-1.267,3.7058-2.6793-.0461-1.4141-1.7815-2.5047-3.8727-2.4344C133.5186,98.548,131.8587,99.7485,131.9075,101.1626Z" style="fill:#f58e99"/><path d="M132.1825,101.1535c.0409,1.3133,1.648,2.323,3.5948,2.26,1.9427-.0615,3.487-1.1765,3.4422-2.4881-.0428-1.3135-1.6551-2.3266-3.5972-2.2611C133.6787,98.7252,132.1368,99.84,132.1825,101.1535Z" style="fill:#f48793"/><path d="M132.4575,101.1445c.0376,1.2129,1.521,2.1445,3.3193,2.0859,1.7935-.0566,3.22-1.0859,3.1788-2.2968-.04-1.2129-1.5289-2.1485-3.3218-2.0879C133.8389,98.9023,132.415,99.9316,132.4575,101.1445Z" style="fill:#f37f8e"/></g><path d="M91.6245,106.4863a1.9341,1.9341,0,1,0,1.87-1.9961A1.936,1.936,0,0,0,91.6245,106.4863Z" style="fill:#ffd040"/><path d="M91.6245,106.4863a1.9341,1.9341,0,1,0,1.87-1.9961A1.936,1.936,0,0,0,91.6245,106.4863Z" style="fill:#ffd040"/><path d="M91.79,105.6543a1.2717,1.2717,0,0,0-.062.4336,1.3774,1.3774,0,1,0,1.3316-1.42,1.3491,1.3491,0,0,0-.5254.125,1.8849,1.8849,0,0,1,.96-.3027,1.9347,1.9347,0,1,1-1.87,1.9961A1.91,1.91,0,0,1,91.79,105.6543Z" style="fill:#ffd040;mix-blend-mode:multiply"/><path d="M92.0635,105.8808a.8667.8667,0,1,0,.8379-.8945A.8671.8671,0,0,0,92.0635,105.8808Z" style="fill:#fff;mix-blend-mode:soft-light"/><path d="M92.456,105.7187a.3239.3239,0,1,0,.3125-.3359A.3241.3241,0,0,0,92.456,105.7187Z" style="fill:#fff;mix-blend-mode:soft-light"/><path d="M128.66,66.2812s-.9272-.8271-2.2509-2.1269c-1.3208-1.3037-3.0249-3.0928-4.6758-4.93-1.646-1.84-3.2393-3.7285-4.39-5.1836-1.1485-1.458-1.8687-2.4707-1.8687-2.4707s.9277.8262,2.252,2.1269c1.3212,1.3028,3.0244,3.0918,4.6748,4.93,1.6455,1.8408,3.2378,3.73,4.39,5.1846C127.939,65.2695,128.66,66.2812,128.66,66.2812Z"/><path d="M87.4512,60.9883C69.4175,88.01,81.7939,165.3828,81.7939,165.3828c5.0186,18.3926,27.2637,15.1758,27.2637,15.1758C92.8955,162.539,95.42,106.9394,95.42,106.9394a2.0806,2.0806,0,0,1-2.2143,1.3438,1.864,1.864,0,0,1-1.5831-1.5664s-7.0595-6.041-2.7543-13.8438C88.8682,92.873,85.4136,71.1894,87.4512,60.9883Z" style="fill:#120e1a"/><path d="M168.1045,172.7675l-13.8867-27.2226c-.6123-1.9258-3.9659-3.1992-6.1729-4.4941-7.3608-4.3243-17.1167-6.1524-17.1167-6.1524l-11.1274,58.7344-11.2715-58.7344s-9.9732,2.1074-16.3237,6.1524c-5.0943,3.2441-5.1187,7.373-5.6924,16.0839h-.0186l.001.2578c-.0059.1094-.01.211-.0176.32l.022-.002.7363,72.2207,5.2642.1348.3232-5.35h55.1392l-5.2266-21-.333-1.3438-3.2305-12.9844c-2.7392-13.7089,2.0367-21.2148,2.0367-21.2148a82.1268,82.1268,0,0,0,3.9087-10.2949l15.0791,22.3183,4.7968,7.545,41.1826-26.5782-4.3149-5.4961Zm-74.59,40.51,2.94-48.6543a26.778,26.778,0,0,0,2.1108,3.5508s4.7764,7.5059,2.0376,21.2148Z" style="fill:#002133"/><polygon points="108.529 134.898 113.801 131.172 120.13 138.986 106.751 149.057 108.529 134.898" style="fill:#fff"/><polygon points="130.928 134.898 125.66 131.172 119.328 138.986 132.708 149.057 130.928 134.898" style="fill:#fff"/><path d="M265.5122,384.7968a5.8938,5.8938,0,1,1-5.8931-5.8945A5.8934,5.8934,0,0,1,265.5122,384.7968Z" style="fill:#00010d"/><line x1="259.6191" y1="364.2656" x2="259.6191" y2="380.1972" style="fill:none;stroke:#00010d;stroke-miterlimit:10;stroke-width:4.31297px"/><rect x="284.6792" y="231.3925" width="7.4751" height="62.1055" style="fill:#28313b"/><path d="M298.1929,240.084c0,1.8046-1.8418,3.2695-4.1148,3.2695H282.7558c-2.2724,0-4.1162-1.4649-4.1162-3.2695h0c0-1.8067,1.8438-3.2715,4.1162-3.2715h11.3223c2.273,0,4.1148,1.4648,4.1148,3.2715Z" style="fill:#1b232d"/><path d="M298.1929,248.5488c0,1.8066-1.8418,3.2715-4.1148,3.2715H282.7558c-2.2724,0-4.1162-1.4649-4.1162-3.2715h0c0-1.8066,1.8438-3.2695,4.1162-3.2695h11.3223c2.273,0,4.1148,1.4629,4.1148,3.2695Z" style="fill:#1b232d"/><path d="M298.1929,257.0156c0,1.8066-1.8418,3.2715-4.1148,3.2715H282.7558c-2.2724,0-4.1162-1.4649-4.1162-3.2715h0c0-1.8047,1.8438-3.2715,4.1162-3.2715h11.3223c2.273,0,4.1148,1.4668,4.1148,3.2715Z" style="fill:#1b232d"/><path d="M298.1929,265.41c0,1.8067-1.8418,3.2715-4.1148,3.2715H282.7558c-2.2724,0-4.1162-1.4648-4.1162-3.2715h0c0-1.8047,1.8438-3.2695,4.1162-3.2695h11.3223c2.273,0,4.1148,1.4648,4.1148,3.2695Z" style="fill:#1b232d"/><path d="M298.1929,273.8769c0,1.8067-1.8418,3.27-4.1148,3.27H282.7558c-2.2724,0-4.1162-1.4629-4.1162-3.27h0c0-1.8066,1.8438-3.2715,4.1162-3.2715h11.3223c2.273,0,4.1148,1.4649,4.1148,3.2715Z" style="fill:#1b232d"/><path d="M298.1929,281.6406c0,1.8047-1.8418,3.2695-4.1148,3.2695H282.7558c-2.2724,0-4.1162-1.4648-4.1162-3.2695h0c0-1.8066,1.8438-3.2715,4.1162-3.2715h11.3223c2.273,0,4.1148,1.4649,4.1148,3.2715Z" style="fill:#1b232d"/><path d="M297.314,299.7363a12.9415,12.9415,0,0,1-12.9424,12.9414H234.8662a12.9413,12.9413,0,0,1-12.9429-12.9414h0a12.9413,12.9413,0,0,1,12.9429-12.9414h49.5054a12.9415,12.9415,0,0,1,12.9424,12.9414Z" style="fill:#1e5265"/><path d="M284.3716,286.7949H284.28a12.912,12.912,0,0,1-12.1162,17.459H222.7505a12.932,12.932,0,0,0,12.1157,8.4238h49.5054a12.9414,12.9414,0,1,0,0-25.8828Z" style="fill:#d1d3d4;mix-blend-mode:multiply"/><path d="M263.2119,183.9726h35.0132a17.2519,17.2519,0,0,1,17.2519,17.2519v17.2461a17.252,17.252,0,0,1-17.252,17.252H263.2119A17.2519,17.2519,0,0,1,245.96,218.4707V201.2245A17.2519,17.2519,0,0,1,263.2119,183.9726Z" style="fill:#1e5265"/><path d="M300.0825,184.0761a15.74,15.74,0,0,1,3.7983,10.2637v15.7988a15.8066,15.8066,0,0,1-15.8076,15.8067h-32.08a15.72,15.72,0,0,1-9.47-3.1719,17.2447,17.2447,0,0,0,16.6894,12.9492h35.0132a17.2524,17.2524,0,0,0,17.2519-17.2519V201.2246A17.2529,17.2529,0,0,0,300.0825,184.0761Z" style="fill:#d1d3d4;mix-blend-mode:multiply"/><rect x="255.8301" y="312.6777" width="7.5776" height="53" style="fill:#151d27"/><line x1="258.7617" y1="364.2656" x2="234.9922" y2="384.3925" style="fill:none;stroke:#151d27;stroke-miterlimit:10;stroke-width:4.31297px"/><line x1="261.0898" y1="364.2656" x2="284.8594" y2="384.3925" style="fill:none;stroke:#151d27;stroke-miterlimit:10;stroke-width:4.31297px"/><path d="M239.6445,386.9824a5.8941,5.8941,0,1,1-5.894-5.8945A5.8935,5.8935,0,0,1,239.6445,386.9824Z" style="fill:#151d27"/><path d="M290.7534,386.9824a5.8943,5.8943,0,1,1-5.894-5.8945A5.8939,5.8939,0,0,1,290.7534,386.9824Z" style="fill:#151d27"/><path d="M191.3765,381.0957H178.4448s-4.1,3.0879-11.5054,4.0742c0,0-3.5781,0-4.3188,2.84a7.4748,7.4748,0,0,0,0,3.5782s9.8706,2.8789,19.6816,0c0,0,1.8516-1.211,2.0371.2695h7.0372A23.7349,23.7349,0,0,0,191.3765,381.0957Z" style="fill:#580000"/><path d="M222.2139,381.0957H209.2827s-4.1,3.0879-11.5054,4.0742c0,0-3.5781,0-4.3188,2.84a7.4748,7.4748,0,0,0,0,3.5782s9.8706,2.8789,19.6811,0c0,0,1.8521-1.211,2.0371.2695h7.0372A23.7268,23.7268,0,0,0,222.2139,381.0957Z" style="fill:#580000"/><path d="M221.6689,190.3886s-3.4243,55.2539-71.7465,54.4356" style="fill:none;stroke:#190000;stroke-miterlimit:10;stroke-width:17.2519px"/><path d="M137.5137,240.3847s-2.2339-1.5234-3.7188-1.15l-7.2012,7.6778-1.2612,1.1074a4.3,4.3,0,0,0,4.6255-1.1074S135.3144,240.91,137.5137,240.3847Z" style="fill:#f9a374"/><path d="M141.9224,240.3847s-2.2344-1.5234-3.7173-1.15l-7.2036,7.6778-1.2623,1.1074a4.3022,4.3022,0,0,0,4.627-1.1074S139.7222,240.91,141.9224,240.3847Z" style="fill:#f9a374"/><path d="M134.1865,239.3652s-2.2334-1.5234-3.7163-1.1523l-7.2036,7.6777-1.2617,1.1074a4.2989,4.2989,0,0,0,4.625-1.1074S131.9873,239.8906,134.1865,239.3652Z" style="fill:#f9a374"/><path d="M150.0058,246.2617s-5.2148,2.3769-8.1264,2.6387a22.3041,22.3041,0,0,0-5.9063,3.5s-2.2768,1.2461-1.89-2.3887c0,0,3.1948-3.6738,6.2568-4.57,0,0-5.4043-7.6739-9.87-7.2285,0,0,7.17-1.73,10.6343-.9532a78.0171,78.0171,0,0,0,8.9013,0Z" style="fill:#f9a374"/><polygon points="251.147 173.48 235.783 173.48 235.783 161.734 251.147 155.008 251.147 173.48" style="fill:#f9a374"/><path d="M242.1445,170.7734a8.231,8.231,0,0,1-2.1347-10.8887l-4.2266,1.85V173.48h15.3643v-.7812A12.8038,12.8038,0,0,1,242.1445,170.7734Z" style="fill:#e6e7e8;mix-blend-mode:multiply"/><path d="M277.7681,268.3847l3.6674-85.0019c-.9868-13.0879-10.1093-14.2754-10.1093-14.2754l-21.6538-2.2891-7.3736,4.9219-6.8174-4.4023-17.7006,11.6289s-2.6846,2.0742-4.6778,11.2109l4.6548,78.207Z" style="fill:#e6e7e8"/><polygon points="245.668 171.74 239.539 171.74 235.63 178.986 239.862 185.311 240.115 185.326 244.82 185.326 248.967 178.986 245.668 171.74" style="fill:#08414b"/><polygon points="239.862 185.311 238.727 252.305 244.232 261.832 249.406 251.9 244.82 185.326 239.862 185.311" style="fill:#00323b"/><path d="M279.4482,268.3847l1.9873-85.8066c-.9868-13.0879-10.1093-14.2773-10.1093-14.2773l-19.9239-2.19L256.16,268.3847Z" style="fill:#580000"/><path d="M235.0557,268.3847l.4257-101.0468-17.7006,11.6289s-2.6846,2.0742-4.6778,11.2109l4.6548,78.207Z" style="fill:#580000"/><path d="M217.7578,268.3847h61.69s8.5928,34.1739-33.1074,31.1641C246.3408,299.5488,212.88,300.5976,217.7578,268.3847Z" style="fill:#000006"/><polygon points="217.758 268.385 167.075 277.381 178.472 381.096 191.449 381.096 189.998 294.365 227.334 294.365 217.758 268.385" style="fill:#000006"/><polygon points="232.923 168.996 235.865 165.535 242.299 171.74 230.724 182.629 232.923 168.996" style="fill:#fff"/><polygon points="253.769 166.338 251.147 163.293 242.299 171.74 255.83 182.629 253.769 166.338" style="fill:#fff"/><path d="M259.646,133.9961c-.2876,4.3769,1.7187,8.0683,4.4707,8.2422,2.751.1777,5.2119-3.2227,5.4927-7.6.2783-4.375-1.7227-8.0664-4.4771-8.2441C262.3828,126.2187,259.9248,129.6211,259.646,133.9961Z" style="fill:#f9a374"/><path d="M263.543,132.4336s.0073-.2461.061-.6465a6.5849,6.5849,0,0,1,.4434-1.6055c.26-.6035.7177-1.31,1.3984-1.4062a1.7745,1.7745,0,0,1,.5268.0136c.0308.0137.2188.0547.2779.086a1.9773,1.9773,0,0,1,.2085.1152,2.2867,2.2867,0,0,1,.7749.8789,5.37,5.37,0,0,1,.6621,2.4258c-.0254.4355.0093.8828-.0376,1.2656-.04.3926-.0767.7578-.1118,1.1-.0645.3457-.1084.666-.146.9492-.0352.2852-.11.5254-.146.7305-.086.4043-.1245.6426-.1245.6426s.1132-.209.289-.5879c.0791-.1934.2046-.418.3008-.6934.1011-.2753.2153-.5859.3276-.93.1036-.35.1832-.7422.274-1.1582a10.76,10.76,0,0,0,.1577-1.2793,4.6906,4.6906,0,0,0-.13-1.4786,5.6393,5.6393,0,0,0-.5405-1.4257,3.2058,3.2058,0,0,0-1.1079-1.18,2.2725,2.2725,0,0,0-.4146-.19,3.0257,3.0257,0,0,0-.3852-.09,2.6218,2.6218,0,0,0-.8184.039,2.05,2.05,0,0,0-1.2217.875,3.5024,3.5024,0,0,0-.4951,1.1348,5.5656,5.5656,0,0,0-.1308,1.7637A3.422,3.422,0,0,0,263.543,132.4336Z" style="fill:#c8825f"/><path d="M263.543,132.4336s-.3111-.4375,1.4506-.7012c0,0,2.023.125,1.1441,2.3652a5.9186,5.9186,0,0,0-.4024,1.4942c-.081.7324.3663,1.68-.0253,2.3593a1.3736,1.3736,0,0,1-2.3482-.3867c-.1685-.7148.583-2.0293.9351-2.58A1.7045,1.7045,0,0,0,263.543,132.4336Z" style="fill:#c8825f"/><path d="M263.35,137.4707a.6922.6922,0,0,0-.1221.1289,1.2453,1.2453,0,0,0-.207.4238,1.0228,1.0228,0,0,0-.0522.3125.9187.9187,0,0,0,.0151.3574,3.4882,3.4882,0,0,0,.0937.3809,2.7586,2.7586,0,0,0,.1924.3457,1.691,1.691,0,0,0,.2456.3086,2.9137,2.9137,0,0,0,.2954.2246,1.2471,1.2471,0,0,0,.5845.2656,1.9285,1.9285,0,0,0,.6216.0664,3.2933,3.2933,0,0,0-.3467-.4961,1.5531,1.5531,0,0,0-.1758-.1894c-.0537-.0723-.0966-.1582-.1582-.2266a1.774,1.774,0,0,0-.1762-.2129,1.1405,1.1405,0,0,1-.1465-.2285,2.4427,2.4427,0,0,1-.2793-.4531,1.6682,1.6682,0,0,1-.1074-.2285c-.0245-.08-.0782-.1543-.0982-.2266C263.4189,137.73,263.35,137.4707,263.35,137.4707Z" style="fill:#c8825f"/><path d="M213.521,118.4746s-3.1455,32.8867,12.9565,43.2383c0,0,8.043,7.9082,17.7066.98,0,0,14.3349-7.7343,16.6992-13.6328,0,0,12.3755-53.3984-17.6729-55.123C243.21,93.9375,217.5459,87.9961,213.521,118.4746Z" style="fill:#f9a374"/><path d="M243.21,93.9375a24.537,24.537,0,0,0-5.0586-.4688c5.3306,2.07,9.4078,6.4961,12.1294,11.8848a66.9415,66.9415,0,0,1,6.9541,25.59c.5884,11.3672-5.247,22.9649-15.4726,28.4668-4.2637,2.2949-9.5947,4.4571-14.4922,2.9766a13.5411,13.5411,0,0,0,16.9136.3066s14.3349-7.7343,16.6992-13.6328C260.8833,149.0605,273.2588,95.6621,243.21,93.9375Z" style="fill:#e6e7e8;mix-blend-mode:multiply"/><circle cx="246.5107" cy="126.5429" r="2.5915" style="fill:#363436"/><path d="M246.36,124.8847c-.2085.2911.0927.8633.6743,1.2832.58.4161,1.2207.5215,1.4292.23s-.0923-.8652-.6734-1.2832S246.5693,124.5957,246.36,124.8847Z" style="fill:#fff"/><path d="M241.5762,117.8652a1.9572,1.9572,0,0,0-1.2486,1.6445s.05,1.5078,1.3086,1.3789c0,0,9.2793-1.1992,12.86,1.1055C254.4966,121.9941,254.063,115.1894,241.5762,117.8652Z" style="fill:#794412"/><path d="M228.334,126.5429a2.5906,2.5906,0,1,1-2.59-2.5918A2.5918,2.5918,0,0,1,228.334,126.5429Z" style="fill:#363436"/><path d="M225.8935,124.8847c.209.2911-.0918.8633-.6728,1.2832-.5806.4161-1.2207.5215-1.43.23s.0918-.8652.6729-1.2832S225.6855,124.5957,225.8935,124.8847Z" style="fill:#fff"/><path d="M230.6782,117.8652a1.9578,1.9578,0,0,1,1.2485,1.6445s-.0512,1.5078-1.3081,1.3789c0,0-9.28-1.1992-12.8608,1.1055C217.7578,121.9941,218.1919,115.1894,230.6782,117.8652Z" style="fill:#794412"/><path d="M234.2231,132.4707s-.3252,1.09-.8891,2.6015c-.2827.7461-.6123,1.6182-.9654,2.5518q-.13.3471-.2631.7041l-.1343.3584-.0337.09-.0171.045-.0039.0117-.002.0058a.5978.5978,0,1,1,.0181-.0576l-.0059.0235-.0332.1494a5.9206,5.9206,0,0,0-.1635,1.3916,4.0132,4.0132,0,0,0,.2138,1.2734,2.1652,2.1652,0,0,0,.6719.92,4.3685,4.3685,0,0,0,2.2715.74,15.988,15.988,0,0,0,1.9331.039c.4819-.0156.7573-.0254.7573-.0254s-.2529.1153-.6958.3164a9.2962,9.2962,0,0,1-1.9643.5518,4.7717,4.7717,0,0,1-3.0733-.4512,3.365,3.365,0,0,1-1.331-1.4394,4.452,4.452,0,0,1-.4585-1.874,7.3043,7.3043,0,0,1,.1582-1.8243l.0625-.2382.0381-.1114.02-.0478.04-.0948.16-.375q.16-.372.3144-.7343c.2451-.4639.481-.9121.7207-1.3262.2657-.4.499-.7871.7515-1.1211A10.6956,10.6956,0,0,1,234.2231,132.4707Z" style="fill:#d78e65"/><path d="M227.5044,148.1992s1.0937-.1328,2.7344-.2461c1.6406-.1094,3.8281-.1816,6.0156-.1856,2.188.003,4.3755.0743,6.0161.1836,1.6406.1143,2.7344.2481,2.7344.2481s-1.0938.1338-2.7344.248c-1.6406.1094-3.8281.1807-6.0161.1836-2.1875-.0039-4.375-.0761-6.0156-.1855C228.5981,148.332,227.5044,148.1992,227.5044,148.1992Z" style="fill:#cd8861"/><path d="M259.6182,88.7929c.0009,0,7.4653,1.4688,7.9223,13.6875a129.8259,129.8259,0,0,1-1.1811,24.0821c-2.3692-.3614-2.9424,0-2.9424,0l-.6192,10.42H261.251V125.6406c-.1436-7.3184-5.4634-7.3438-5.4634-7.3438,3.1313-6.1562.0425-12.1757.0425-12.1757-2.2183-5.3907-30.9878-3.6661-30.9878-3.6661-10.9937.2149-8.1587,13.3965-8.1587,13.3965a3.12,3.12,0,0,0-3.1611,2.9961,48.2457,48.2457,0,0,0-.2378,7.6953s-6.6216-21.9355.8769-33.0742c0,0,7.959-10.3574-.4209-14.0957,0,0,8.3794-3.7383,12.2193,4.3145,0,0,7.99-3.0215,2.9174-11.3614,0,0,15.042-.4277,14.5874,10.7852,0,0,6.8487-2.8457,3.0577-11.4727C246.5225,71.6386,263.3369,76.498,259.6182,88.7929Z" style="fill:#d27933"/><path d="M257.0649,148.1992c3.9131-3.8926,4.1861-11.2168,4.1861-11.2168h1.5468c-.2011,3.3867-1.9145,12.0781-1.9145,12.0781-2.3643,5.8985-16.6992,13.6328-16.6992,13.6328-9.6636,6.9278-17.7066-.98-17.7066-.98-8.5908-5.5235-11.7021-17.461-12.7368-27.3965a79.4433,79.4433,0,0,0,5.8731,16.4179s6.31,9.4375,15.8676,9.15C235.4814,159.8847,249.1138,156.1113,257.0649,148.1992Z" style="fill:#d27933"/><path d="M228.7007,148.1992h14.4428s-.2578,5.3379-7.2216,5.8945C235.9219,154.0937,229.5576,154.4531,228.7007,148.1992Z" style="fill:#fff"/><path d="M228.8774,149.1015a4.7512,4.7512,0,0,0,.2383.7774,5.5633,5.5633,0,0,0,1.0977,1.7646,5.8763,5.8763,0,0,0,2.3969,1.542,8.6927,8.6927,0,0,0,1.5874.375,11.318,11.318,0,0,0,1.6934.1153,9.8609,9.8609,0,0,0,3.2666-.5928,6.6537,6.6537,0,0,0,2.4326-1.5381,6.4476,6.4476,0,0,0,1.2154-1.7,8.0876,8.0876,0,0,0,.3378-.7432l-.04.211a4.2735,4.2735,0,0,1-.1426.5937,5.8088,5.8088,0,0,1-.3437.8926,5.1625,5.1625,0,0,1-.6572,1.07,6.3637,6.3637,0,0,1-2.5147,1.9141,9.383,9.383,0,0,1-3.541.7539,11.4755,11.4755,0,0,1-1.8369-.1543,7.759,7.759,0,0,1-1.73-.4873,5.7355,5.7355,0,0,1-2.51-1.94,5.2278,5.2278,0,0,1-.8735-2.03A3.3515,3.3515,0,0,1,228.8774,149.1015Z" style="fill:#cd8861"/><path d="M230.7236,150.7343s.65-.0683,1.6245-.121c.4873-.0176,1.0562-.0577,1.6651-.0655s1.2593-.0185,1.9092-.0283c.6494.0088,1.2993.0186,1.9086.0273s1.1778.0489,1.6651.0665c.9746.0517,1.6245.121,1.6245.121s-.65.0694-1.6245.1211c-.4873.0176-1.0562.0586-1.6651.0664s-1.2592.0186-1.9086.0274c-.65-.01-1.3-.0195-1.9092-.0283s-1.1778-.0479-1.6651-.0655C231.3735,150.8027,230.7236,150.7343,230.7236,150.7343Z" style="fill:#d1d3d4"/><path d="M233.7373,149.1015a4.5146,4.5146,0,0,1,.1211.5664c.0176.17.0576.3692.0654.5811s.0191.4394.0288.666c-.01.2266-.019.4531-.0283.666-.0073.2119-.0478.4112-.0654.5811a4.4521,4.4521,0,0,1-.1216.5664,4.4521,4.4521,0,0,1-.1216-.5664c-.0176-.17-.0581-.3692-.0654-.5811-.0093-.2129-.0186-.4394-.0283-.666.01-.2266.02-.4531.0288-.666s.0478-.4111.0654-.5811A4.4927,4.4927,0,0,1,233.7373,149.1015Z" style="fill:#d1d3d4"/><path d="M237.2422,149.1015a4.5146,4.5146,0,0,1,.1211.5664c.0175.17.0576.3692.0654.5811s.019.4394.0288.666c-.01.2266-.019.4531-.0283.666-.0073.2119-.0479.4112-.0654.5811a4.4521,4.4521,0,0,1-.1216.5664,4.4308,4.4308,0,0,1-.1216-.5664c-.0176-.17-.0581-.3692-.0654-.5811-.0093-.2129-.0186-.4394-.0284-.666.01-.2266.02-.4531.0289-.666s.0478-.4111.0654-.5811A4.4927,4.4927,0,0,1,237.2422,149.1015Z" style="fill:#d1d3d4"/><path d="M252.7632,299.5019H231.88l-9.8711,81.5938H209.2021l-4.5263-96.6074,40.664-16.1036h34.1084s2.7476,12.1289-3.3427,21.3516C276.1055,289.7363,268.5771,300.3281,252.7632,299.5019Z" style="fill:#001120"/><polygon points="86.993 246.537 62.884 261.586 62.884 396.621 86.993 382.248 86.993 246.537" style="fill:#3e0d00"/><polygon points="359.483 246.52 335.377 261.586 335.377 396.621 359.483 382.232 359.483 246.52" style="fill:#3e0d00"/><rect x="62.8838" y="261.5859" width="272.4931" height="9.6426" style="fill:#582100"/><polygon points="86.977 246.537 62.884 261.586 335.377 261.586 359.472 246.537 86.977 246.537" style="fill:#71300d"/><rect x="331.7402" y="261.5859" width="3.6367" height="135.0352" style="fill:#572000"/><rect x="62.8838" y="261.5859" width="3.6377" height="135.0352" style="fill:#572000"/><polygon points="144.539 240.436 128.351 250.547 218.872 250.547 235.061 240.436 144.539 240.436" style="fill:#253c47"/><rect x="128.3506" y="250.5468" width="90.521" height="2.0606" style="fill:#1a2f39"/><polygon points="218.872 250.547 235.061 240.436 235.061 242.633 218.872 252.607 218.872 250.547" style="fill:#021822"/><path d="M211.19,248.9c110.7119,11.9,55.8882-77.7852,61.5367-67.584" style="fill:none;stroke:#580000;stroke-miterlimit:10;stroke-width:17.9222px"/><path d="M204.7085,241.5937l-5.7774-1.1582s-7.5669,1.8223-8.747,2.8028c-1.1783.98.1889,2.2285.1889,2.2285l1.5533-.5371,5.2187-1.461,4.06.8047S204.7041,244.4843,204.7085,241.5937Z" style="fill:#e1956a"/><path d="M202.07,251.9765c7.7432-1.91,8.582,1.8418,8.582,1.8418l1.1861-10.5664c-1.8765-2.2168-7.4458-1.7226-7.4458-1.7226l-8.001.43s-4.7246,3.2656-5.72,4.4609c-.9951,1.1934.5586,2.1543.5586,2.1543l1.4375-.83,3.65-2.7695,4.5342.4922-4.7261.541-3.5318,3.3808c-1.8432,1.752.1846,2.793.1846,2.793l4.3237-3.8652,6.5977,1.0351c-2.1831.4766-5.8325,1.3516-5.8325,1.3516s-.627,1.7109,1.0688,1.7109Z" style="fill:#f9a374"/><path d="M269.6338,198.125s.3413.6523.8159,1.85a42.04,42.04,0,0,1,1.6309,5.0888,38.7981,38.7981,0,0,1,1.1152,7.5157,31.56,31.56,0,0,1-.0952,4.3213,28.9912,28.9912,0,0,1-.7525,4.4257c-.22.7247-.4048,1.458-.6928,2.1582l-.4029,1.0547-.4751,1.02a21.1716,21.1716,0,0,1-2.3071,3.7207c-.4692.5351-.8945,1.0908-1.376,1.5742-.5.4648-.9629.9463-1.4594,1.3613-.51.3994-.9947.8-1.4815,1.1611q-.7661.4878-1.478.94a22.4925,22.4925,0,0,1-2.7212,1.3623c-.8472.3174-1.5547.6543-2.1812.8213-1.2368.372-1.9428.5586-1.9428.5586s.6606-.3321,1.8164-.8692c.5884-.2431,1.2427-.67,2.019-1.084a12.4137,12.4137,0,0,0,1.1846-.75c.4018-.2851.86-.5283,1.28-.8662q.6342-.4937,1.3193-1.0283.6387-.58,1.3179-1.1982c.44-.4219.8413-.9053,1.2778-1.3682.4107-.4863.7979-1.01,1.2095-1.5254.3574-.5557.7422-1.1064,1.08-1.6943.3027-.6084.6762-1.1865.938-1.8291a22.5632,22.5632,0,0,0,1.4082-3.9571,27.2662,27.2662,0,0,0,.7646-4.1572,38.15,38.15,0,0,0,.2359-4.1181c-.0259-1.3438-.0484-2.6475-.1675-3.8819-.1055-1.2344-.2451-2.4014-.4-3.4765-.33-2.1475-.6675-3.9424-.982-5.18C269.834,198.832,269.6338,198.125,269.6338,198.125Z" style="fill:#230000"/><rect x="91.4307" y="163.5605" width="109.9863" height="74.4199" style="fill:#213742"/><rect x="100.5478" y="175.8984" width="91.7525" height="62.082" style="fill:#253c47"/><path d="M160.895,205.8261a14.4708,14.4708,0,0,1-14.4712,14.4707h0a14.47,14.47,0,0,1-14.4707-14.4707v-5.84a14.47,14.47,0,0,1,14.4707-14.4707h0a14.4708,14.4708,0,0,1,14.4712,14.4707Z" style="fill:#1a2f39"/><polygon points="158.069 255.34 134.779 255.34 141.03 199.871 151.812 199.871 158.069 255.34" style="fill:#061c25"/><rect x="129.2793" y="251.9336" width="34.289" height="4.3047" style="fill:#1a2f39"/><path d="M291.2026,206.15a10.1729,10.1729,0,0,0-4.3017-1.43,12.3841,12.3841,0,0,1-4.042-1.7559s-1.4131-1.666-2.0308.2344c0,0-.0723,2.1641,3.53,3.2383,0,0-4.1192.9316-10.2588-3.1543,0,0-1.6924-1.15-1.7134.3633,0,0,2.9414,3.3281,9.7075,5.5078,0,0-6.0542-1.793-8.2568-3.5938a.8116.8116,0,0,0-.999-.0742c-.0713.0527.3066.9121-.2158.2129a10.8144,10.8144,0,0,0,5.2441,3.9414,28.0424,28.0424,0,0,0,4.4106,1.1133s-5.166.3965-8.46-2.7207c0,0-.8174-.002-.273,1.3652a13.6634,13.6634,0,0,0,9.837,3.168s-4.0479.8906-5.7622-.3926c0,0-.7207.127.05,1.2012,0,0,2.4047,2.9707,10.727.6758a19.4255,19.4255,0,0,1,3.6314-.7286Z" style="fill:#fab58f"/><path d="M351.999,146.5664c-5.9106-11.0684,42.7612,71.6992-63.5825,62.75" style="fill:none;stroke:#002d41;stroke-miterlimit:10;stroke-width:15.9029px"/><path d="M348.623,158.9629s-.0254-.0411-.0747-.1192c-.0254-.039-.0566-.0879-.0937-.1445l-.03-.041c.0112-.01-.0483-.0039.0317-.0117.0171-.03.0069-.01.0132-.004.0137.0362.0278.0743.043.1153.1328.332.352.8154.5859,1.4472a37.2946,37.2946,0,0,1,1.5933,5.3633,35.0354,35.0354,0,0,1,.8384,7.9219,29.3641,29.3641,0,0,1-.3882,4.52,27.823,27.823,0,0,1-1.1719,4.5616,24.8952,24.8952,0,0,1-2.0317,4.2656,22.5534,22.5534,0,0,1-2.7417,3.6572,25.0962,25.0962,0,0,1-6.2993,4.9463,30.0443,30.0443,0,0,1-5.1294,2.2666c-1.2808.4238-2.0279.6035-2.0279.6035s.6992-.3222,1.89-.9306a42.3,42.3,0,0,0,4.7251-2.8067,28.92,28.92,0,0,0,5.6621-5.1123,24.9405,24.9405,0,0,0,2.44-3.498,23.3634,23.3634,0,0,0,1.8374-3.9932,26.0479,26.0479,0,0,0,1.1553-4.2588,34.139,34.139,0,0,0,.5166-4.2734,44.5939,44.5939,0,0,0-.2788-7.6992c-.2764-2.254-.6416-4.127-.9278-5.4327-.1465-.6552-.2617-1.17-.34-1.52-.0083-.0459-.0166-.0888-.0239-.1289.0034-.0127-.0132-.0146.0107-.0586.0967-.0078.0483.0215.0693.0244l.0254.05c.0269.0635.0493.1172.0679.16Z" style="fill:#002536"/><path d="M232.9233,168.9961s-12.1323-6.1426-13.32,8.7734c0,0,.8335,3.6035,6.66,0C226.2627,177.77,229.9814,172.459,232.9233,168.9961Z" style="fill:#f9a374"/></g></g></g></svg>